<?xml version="1.0" encoding="iso-8859-1"?>
<!-- Generator: Adobe Illustrator 19.0.0, SVG Export Plug-In . SVG Version: 6.00 Build 0)  -->
<svg xmlns="http://www.w3.org/2000/svg" xmlns:xlink="http://www.w3.org/1999/xlink" version="1.1" id="Capa_1" x="0px" y="0px" viewBox="0 0 512 512" style="enable-background:new 0 0 512 512;" xml:space="preserve">
<path style="fill:#FFB655;" d="M318.537,473.232c0,17.269-13.999,31.268-31.268,31.268s-31.268-13.999-31.268-31.268  s0-271.217,31.268-271.217S318.537,455.963,318.537,473.232z"/>
<path style="fill:#FFA733;" d="M309.83,273.255L309.83,273.255c-4.627-40.658-11.711-71.241-22.562-71.241  s-17.935,30.583-22.562,71.241C264.707,273.255,285.464,284.063,309.83,273.255z"/>
<circle style="fill:#FF3F62;" cx="218.15" cy="323.98" r="18.09"/>
<path style="fill:#FFC477;" d="M319.083,7.5H192.918v225.516h126.166c49.937,0,90.419-50.483,90.419-112.758S369.02,7.5,319.083,7.5  z"/>
<path style="fill:#FFB655;" d="M358.16,70.767c17.414,0,33.674,6.145,47.473,16.781C394.391,41.226,359.898,7.5,319.083,7.5H192.918  v63.267H358.16z"/>
<path style="fill:#FFDA44;" d="M295.628,197.625c6.274-10.432,0.037-27.059,3.178-40.355c2.832-11.985,16.216-23.529,16.216-37.013  s-13.385-25.028-16.216-37.014c-3.141-13.295,3.096-29.921-3.178-40.353c-7.025-11.682-24.308-13.037-34.769-19.704  C254.602,19.2,248.889,12.425,242.474,7.5h-49.557v225.516h49.556c6.415-4.925,12.127-11.7,18.384-15.687  C271.318,210.662,288.602,209.307,295.628,197.625z"/>
<path style="fill:#FFCD00;" d="M295.628,42.891c-7.025-11.682-24.308-13.037-34.769-19.704C254.602,19.2,248.889,12.425,242.474,7.5  h-49.557v63.267h104.999C298.267,60.62,300.038,50.225,295.628,42.891z"/>
<ellipse style="fill:#FFEB99;" cx="192.921" cy="120.26" rx="90.42" ry="112.76"/>
<path style="fill:#FFE477;" d="M192.918,7.5c-9.18,0-18.039,1.712-26.387,4.884c37.064,14.082,64.032,57.048,64.032,107.874  s-26.968,93.792-64.032,107.874c8.348,3.172,17.207,4.884,26.387,4.884c49.937,0,90.419-50.484,90.419-112.758  S242.854,7.5,192.918,7.5z"/>
<path style="fill:#91DC5A;" d="M276.983,7.5c30.29,22.39,50.745,64.546,50.745,112.758c0,48.213-20.456,90.369-50.745,112.758  h42.099c3.034,0,6.032-0.19,8.99-0.554c23.143-30.661,35.844-70.301,35.844-112.204S351.215,38.715,328.072,8.054  c-2.957-0.364-5.955-0.554-8.99-0.554C319.082,7.5,276.983,7.5,276.983,7.5z"/>
<path style="fill:#6DC82A;" d="M328.072,8.054c-2.957-0.364-5.956-0.554-8.99-0.554h-42.099  c19.283,14.254,34.57,36.527,43.141,63.267h37.656C351.875,47.634,341.814,26.261,328.072,8.054z"/>
<circle style="fill:#806749;" cx="358.38" cy="128.19" r="18.09"/>
<circle style="fill:#FF728B;" cx="358.38" cy="323.98" r="18.09"/>
<path style="fill:#FF3F62;" d="M358.38,323.983c0-6.693,3.644-12.523,9.047-15.653c-2.664-1.543-5.747-2.44-9.047-2.44  c-9.993,0-18.094,8.101-18.094,18.094c0,9.993,8.101,18.094,18.094,18.094c3.3,0,6.383-0.897,9.047-2.44  C362.024,336.506,358.38,330.676,358.38,323.983z"/>
<path style="fill:#FF0C38;" d="M218.15,323.983c0-6.693,3.644-12.523,9.047-15.653c-2.664-1.543-5.747-2.44-9.047-2.44  c-9.993,0-18.094,8.101-18.094,18.094c0,9.993,8.101,18.094,18.094,18.094c3.3,0,6.383-0.897,9.047-2.44  C221.794,336.506,218.15,330.676,218.15,323.983z"/>
<path d="M365.88,299.513v-73.644c30.433-20.421,51.122-60.104,51.122-105.611C417.003,53.947,373.076,0,319.083,0H192.918  c-24.783,0-48.415,11.354-66.541,31.969c-2.734,3.11-2.431,7.85,0.681,10.585c3.11,2.733,7.85,2.431,10.585-0.681  C152.879,24.544,172.509,15,192.918,15c45.722,0,82.919,47.219,82.919,105.258s-37.197,105.258-82.919,105.258  s-82.919-47.219-82.919-105.258c0-19.637,4.303-38.798,12.444-55.412c1.822-3.72,0.284-8.212-3.436-10.035  c-3.719-1.821-8.212-0.284-10.035,3.436c-9.142,18.656-13.974,40.1-13.974,62.012c0,66.311,43.926,120.258,97.919,120.258h17.733  v58.998c-10.464,3.213-18.094,12.966-18.094,24.469c0,14.112,11.481,25.594,25.594,25.594c14.113,0,25.594-11.481,25.594-25.594  c0-11.503-7.63-21.256-18.094-24.469v-58.998h36.183C249.169,309.844,248.5,445.592,248.5,473.231  c0,21.377,17.392,38.769,38.769,38.769s38.769-17.392,38.769-38.769c0-15.763-0.178-33.409-0.513-51.031  c-0.078-4.093-3.42-7.357-7.496-7.357c-0.049,0-7.583,0.372-7.502,7.643c0.195,17.531,0.511,35.076,0.511,50.746  c0,13.106-10.662,23.769-23.769,23.769s-23.769-10.663-23.769-23.77c0-27.792,0.675-165.896,13.593-232.716h20.347  c5.966,30.961,10.634,82.289,12.273,149.288c0.202,8.252,7.649,7.267,7.729,7.264c4.141-0.128,7.393-3.589,7.264-7.729  c-1.45-46.768-4.71-108.814-12.01-148.823c0,0,24.447,0.984,38.185-6.513v65.511c-10.464,3.213-18.093,12.966-18.093,24.469  c0,14.112,11.48,25.594,25.593,25.594s25.594-11.481,25.594-25.594C383.974,312.479,376.344,302.727,365.88,299.513z   M218.15,334.576c-5.842,0-10.594-4.752-10.594-10.594c0-5.841,4.752-10.593,10.594-10.593c5.842,0,10.594,4.752,10.594,10.593  C228.745,329.824,223.992,334.576,218.15,334.576z M324,15.19c13.7,18.981,23.302,41.861,28.538,66.255  c1.516,7.062,8.342,5.953,8.848,5.85c4.059-0.828,6.678-4.789,5.85-8.848c-4.241-20.786-11.742-40.535-21.98-58.07  c32.936,13.942,56.747,53.446,56.747,99.881c0,36.016-14.326,67.859-36.122,86.844v-38.905c1.304-5.505,2.371-11.105,3.219-16.776  c8.772-4.063,14.875-12.945,14.875-23.231c0-14.112-11.481-25.594-25.594-25.594c-10.25,0-19.106,6.059-23.189,14.782  C334.529,77.614,320.189,40.251,296.561,15C296.561,15,322.373,15.069,324,15.19z M365.88,135.664v-5.061c0-4.143-3.357-7.5-7.5-7.5  s-7.5,3.357-7.5,7.5v5.06c-1.91-1.917-3.093-4.559-3.093-7.472c0-5.842,4.752-10.594,10.593-10.594  c5.842,0,10.594,4.752,10.594,10.594C368.974,131.104,367.791,133.746,365.88,135.664z M274.438,225.516h-12.135  c0.871-0.686,20.691-9.385,23.925-10.893C282.546,218.613,278.609,222.259,274.438,225.516z M305.702,175.083  c-0.358-5.883-0.697-11.439,0.401-16.088c0.925-3.913,3.675-8.341,6.586-13.028c2.459-3.959,5.085-8.203,7.008-12.799  c-1.512,18.544-6.246,36.213-13.645,51.758C306.099,181.659,305.901,178.351,305.702,175.083z M286.227,25.893  c-3.234-1.508-23.055-10.207-23.926-10.893h12.136C278.609,18.257,282.546,21.903,286.227,25.893z M305.702,65.433  c0.199-3.268,0.396-6.575,0.35-9.842c7.399,15.545,12.133,33.213,13.645,51.756c-1.922-4.596-4.549-8.84-7.008-12.799  c-2.911-4.688-5.661-9.115-6.586-13.028C305.005,76.871,305.344,71.315,305.702,65.433z M257.439,29.881  c4.268,2.604,9.129,4.414,13.843,6.158c7.588,2.808,14.755,5.46,17.917,10.718c2.372,3.943,1.963,10.657,1.53,17.765  c-0.408,6.709-0.831,13.646,0.776,20.447c1.488,6.298,5.022,11.989,8.441,17.493c3.895,6.271,7.574,12.195,7.574,17.796  s-3.679,11.523-7.574,17.795c-3.419,5.504-6.953,11.195-8.441,17.493c-1.607,6.802-1.185,13.739-0.776,20.449  c0.433,7.107,0.842,13.821-1.529,17.765c-3.162,5.258-10.329,7.909-17.916,10.717c-4.716,1.744-9.578,3.556-13.847,6.161  c20.46-22.058,33.398-54.396,33.398-90.379C290.836,84.275,277.898,51.938,257.439,29.881z M296.561,225.516  c20.837-22.268,34.451-53.957,37.832-88.407c2.766,7.416,8.875,13.214,16.487,15.551v13.687  c-5.352,21.727-14.485,41.807-26.887,58.979C322.367,225.447,296.561,225.516,296.561,225.516z M345.238,220.146  c1.987-3.397,3.868-6.873,5.642-10.422v7.74C349.033,218.441,347.15,219.337,345.238,220.146z M358.38,334.576  c-5.841,0-10.593-4.752-10.593-10.594c0-5.841,4.752-10.593,10.593-10.593c5.842,0,10.594,4.752,10.594,10.593  C368.974,329.824,364.222,334.576,358.38,334.576z"/>
<g>
</g>
<g>
</g>
<g>
</g>
<g>
</g>
<g>
</g>
<g>
</g>
<g>
</g>
<g>
</g>
<g>
</g>
<g>
</g>
<g>
</g>
<g>
</g>
<g>
</g>
<g>
</g>
<g>
</g>
</svg>
