<?xml version="1.0" encoding="iso-8859-1"?>
<!-- Generator: Adobe Illustrator 19.0.0, SVG Export Plug-In . SVG Version: 6.00 Build 0)  -->
<svg xmlns="http://www.w3.org/2000/svg" xmlns:xlink="http://www.w3.org/1999/xlink" version="1.1" id="Capa_1" x="0px" y="0px" viewBox="0 0 512 512" style="enable-background:new 0 0 512 512;" xml:space="preserve">
<path style="fill:#FFC477;" d="M106.139,111.398l-18.506,18.506L54.629,96.901c-5.11-5.11-6.514-11.992,0-18.506  s13.396-5.11,18.506,0L106.139,111.398z"/>
<path style="fill:#FFDAAA;" d="M124.646,92.892l-18.506,18.506L73.136,78.395c-5.11-5.11-6.514-11.992,0-18.506  s13.396-5.11,18.506,0L124.646,92.892z"/>
<path style="fill:#FFC477;" d="M143.152,74.385l-18.506,18.506L91.642,59.888c-5.11-5.11-6.514-11.992,0-18.506  s13.396-5.11,18.506,0L143.152,74.385z"/>
<rect x="96.188" y="63.951" transform="matrix(-0.7071 0.7071 -0.7071 -0.7071 317.6254 112.8157)" style="fill:#FFA733;" width="78.519" height="116.479"/>
<path style="fill:#EE8700;" d="M82.532,124.804l66.333,66.333l55.52-55.52l-64.741-64.741c-12.66,8.196-24.553,17.779-35.47,28.697  C96.251,107.496,89.034,115.935,82.532,124.804z"/>
<path style="fill:#FFC477;" d="M106.139,391.4l-18.506-18.506l-33.004,33.004c-5.11,5.11-6.514,11.992,0,18.506  s13.396,5.11,18.506,0L106.139,391.4z"/>
<path style="fill:#FFDAAA;" d="M124.646,409.906L106.139,391.4l-33.004,33.004c-5.11,5.11-6.514,11.992,0,18.506  s13.396,5.11,18.506,0L124.646,409.906z"/>
<path style="fill:#FFC477;" d="M143.152,428.413l-18.506-18.506L91.642,442.91c-5.11,5.11-6.514,11.992,0,18.506  s13.396,5.11,18.506,0L143.152,428.413z"/>
<rect x="96.195" y="322.361" transform="matrix(-0.7071 -0.7071 0.7071 -0.7071 -37.89 745.5073)" style="fill:#FFA733;" width="78.519" height="116.479"/>
<path style="fill:#EE8700;" d="M82.532,377.994l66.333-66.333l55.52,55.52l-64.741,64.741c-12.66-8.196-24.553-17.779-35.47-28.697  C96.251,395.302,89.034,386.863,82.532,377.994z"/>
<path style="fill:#FFC477;" d="M405.861,111.398l18.507,18.506L457.372,96.9c5.11-5.11,6.514-11.992,0-18.506s-13.396-5.11-18.507,0  L405.861,111.398z"/>
<path style="fill:#FFDAAA;" d="M387.354,92.892l18.506,18.506l33.004-33.004c5.11-5.11,6.514-11.992,0-18.506s-13.396-5.11-18.506,0  L387.354,92.892z"/>
<path style="fill:#FFC477;" d="M368.848,74.385l18.506,18.506l33.004-33.004c5.11-5.11,6.514-11.992,0-18.506s-13.396-5.11-18.506,0  L368.848,74.385z"/>
<rect x="337.292" y="63.958" transform="matrix(0.7071 0.7071 -0.7071 0.7071 196.6961 -230.4713)" style="fill:#FFA733;" width="78.519" height="116.479"/>
<path style="fill:#EE8700;" d="M429.468,124.804l-66.333,66.333l-55.52-55.52l64.741-64.741c12.66,8.196,24.553,17.779,35.47,28.697  C415.749,107.496,422.966,115.935,429.468,124.804z"/>
<path style="fill:#FFC477;" d="M405.861,391.4l18.507-18.506l33.004,33.004c5.11,5.11,6.514,11.992,0,18.506s-13.396,5.11-18.507,0  L405.861,391.4z"/>
<path style="fill:#FFDAAA;" d="M387.354,409.906l18.506-18.507l33.004,33.004c5.11,5.11,6.514,11.992,0,18.506  s-13.396,5.11-18.506,0L387.354,409.906z"/>
<path style="fill:#FFC477;" d="M368.848,428.413l18.506-18.506l33.004,33.004c5.11,5.11,6.514,11.992,0,18.506  s-13.396,5.11-18.506,0L368.848,428.413z"/>
<rect x="337.303" y="322.364" transform="matrix(0.7071 -0.7071 0.7071 0.7071 -158.8346 377.7459)" style="fill:#FFA733;" width="78.519" height="116.479"/>
<path style="fill:#EE8700;" d="M429.468,377.994l-66.333-66.333l-55.52,55.52l64.741,64.741c12.66-8.196,24.553-17.779,35.47-28.697  C415.749,395.302,422.966,386.863,429.468,377.994z"/>
<path style="fill:#FFA733;" d="M310.342,440.997c0,12.803-3.688,25.393-10.917,35.96C290.501,490.004,276.07,504.5,256,504.5  s-34.501-14.496-43.425-27.543c-7.228-10.567-10.917-23.157-10.917-35.96v-93.102h108.684L310.342,440.997L310.342,440.997z"/>
<path style="fill:#FF9811;" d="M260.061,476.957c-7.228-10.567-10.917-23.157-10.917-35.96v-93.102h-47.486v93.102  c0,12.803,3.688,25.393,10.917,35.96C221.499,490.004,235.93,504.5,256,504.5c9.061,0,16.969-2.96,23.743-7.402  C271.512,491.701,264.956,484.113,260.061,476.957z"/>
<g>
	<circle style="fill:#FFC477;" cx="218.64" cy="470.5" r="19.487"/>
	<circle style="fill:#FFC477;" cx="293.36" cy="470.5" r="19.487"/>
</g>
<path style="fill:#AA6100;" d="M251.424,9.677c-20.943,25.536-20.887,58.762-20.887,58.762h50.926c0,0,0.056-33.226-20.887-58.762  C258.195,6.774,253.805,6.774,251.424,9.677z"/>
<path style="fill:#9A4C00;" d="M268.795,21.81c-2.299-4.126-5.01-8.22-8.219-12.133c-2.381-2.903-6.771-2.903-9.152,0  c-20.943,25.536-20.887,58.762-20.887,58.762h25.465C256.032,66.105,256.645,43.473,268.795,21.81z"/>
<circle style="fill:#AA6100;" cx="256" cy="251.4" r="184.72"/>
<path style="fill:#9A4C00;" d="M201.658,427.984c17.179,5.281,35.422,8.129,54.333,8.13h0.019c18.91-0.001,37.153-2.849,54.332-8.13  V74.814c-17.182-5.281-35.428-8.13-54.342-8.13c-18.913,0-37.161,2.849-54.342,8.13V427.984z"/>
<path style="fill:#FFA733;" d="M256,406.373c-85.453,0-154.974-69.521-154.974-154.974c0-85.452,69.521-154.973,154.974-154.973  s154.974,69.521,154.974,154.973C410.974,336.852,341.453,406.373,256,406.373z"/>
<path style="fill:#FF9811;" d="M201.658,396.53c16.919,6.356,35.229,9.843,54.342,9.843s37.423-3.487,54.342-9.843V106.268  c-16.919-6.356-35.23-9.842-54.342-9.842s-37.423,3.487-54.342,9.842V396.53z"/>
<path style="fill:#CC7400;" d="M230.537,434.359c8.325,1.148,16.822,1.755,25.463,1.755c8.64,0,17.138-0.607,25.463-1.755V68.439  c-8.325-1.148-16.822-1.755-25.463-1.755c-8.641,0-17.138,0.607-25.463,1.755V434.359z"/>
<g>
	<rect x="230.54" y="377.2" style="fill:#AA6100;" width="50.926" height="27.15"/>
	<rect x="230.54" y="319.27" style="fill:#AA6100;" width="50.926" height="27.15"/>
	<rect x="230.54" y="264.97" style="fill:#AA6100;" width="50.926" height="27.15"/>
	<rect x="230.54" y="210.67" style="fill:#AA6100;" width="50.926" height="27.15"/>
	<rect x="230.54" y="156.37" style="fill:#AA6100;" width="50.926" height="27.15"/>
	<rect x="230.54" y="98.94" style="fill:#AA6100;" width="50.926" height="27.15"/>
</g>
<g>
	
		<ellipse transform="matrix(-0.7172 -0.6969 0.6969 -0.7172 59.8613 678.1435)" style="fill:#806749;" cx="167.536" cy="326.925" rx="20.855" ry="15.06"/>
	
		<ellipse transform="matrix(0.7172 -0.6969 0.6969 0.7172 -75.1872 166.4807)" style="fill:#806749;" cx="167.518" cy="175.874" rx="20.855" ry="15.06"/>
</g>
<g>
	<path style="fill:#6A563D;" d="M182.487,161.332c-1.85-1.904-4.272-3.021-6.978-3.412c0.667,5.796-2.045,12.798-7.67,18.264   c-5.625,5.466-12.701,7.977-18.476,7.144c0.313,2.716,1.361,5.169,3.21,7.073c5.797,5.966,17.193,4.295,25.454-3.732   C186.287,178.641,188.284,167.297,182.487,161.332z"/>
	<path style="fill:#6A563D;" d="M182.487,341.467c-1.85,1.904-4.272,3.021-6.978,3.412c0.667-5.796-2.045-12.798-7.67-18.264   s-12.701-7.977-18.476-7.144c0.313-2.716,1.361-5.169,3.21-7.073c5.797-5.966,17.193-4.295,25.454,3.732   C186.287,324.157,188.284,335.501,182.487,341.467z"/>
</g>
<g>
	
		<ellipse transform="matrix(-0.7172 0.6969 -0.6969 -0.7172 819.3724 321.3316)" style="fill:#806749;" cx="344.483" cy="326.929" rx="20.855" ry="15.06"/>
	
		<ellipse transform="matrix(0.7172 0.6969 -0.6969 0.7172 219.9814 -190.3133)" style="fill:#806749;" cx="344.465" cy="175.87" rx="20.855" ry="15.06"/>
</g>
<g>
	<path style="fill:#6A563D;" d="M329.513,161.496c1.85-1.904,4.272-3.021,6.978-3.412c-0.667,5.796,2.045,12.798,7.67,18.264   c5.625,5.466,12.701,7.977,18.476,7.144c-0.313,2.716-1.361,5.169-3.21,7.073c-5.797,5.966-17.193,4.295-25.454-3.732   C325.713,178.805,323.716,167.461,329.513,161.496z"/>
	<path style="fill:#6A563D;" d="M329.513,341.631c1.85,1.904,4.272,3.021,6.978,3.412c-0.667-5.796,2.045-12.798,7.67-18.264   s12.701-7.977,18.476-7.144c-0.313-2.716-1.361-5.169-3.21-7.073c-5.797-5.966-17.193-4.295-25.454,3.732   C325.713,324.321,323.716,335.665,329.513,341.631z"/>
</g>
<path d="M151.807,343.113c6.428,6.246,14.265,9.472,21.46,9.471c5.568,0,10.753-1.933,14.6-5.891  c8.816-9.073,6.791-24.86-4.612-35.941c-5.116-4.972-11.435-8.224-17.789-9.155c-7.153-1.053-13.81,0.983-18.271,5.575  c-4.462,4.591-6.303,11.306-5.05,18.422C143.259,331.92,146.689,338.142,151.807,343.113z M157.952,317.625  c1.007-1.036,6.38-4.055,14.849,3.885c5.576,5.228,6.795,12.17,4.308,14.73c-2.485,2.556-9.563,1.638-14.849-3.885  C155.222,325.002,156.494,319.126,157.952,317.625z"/>
<path d="M183.254,192.047L183.254,192.047c11.402-11.081,13.428-26.869,4.612-35.941c-8.818-9.073-24.657-7.501-36.06,3.579  c-5.117,4.973-8.548,11.194-9.662,17.521c-1.253,7.116,0.588,13.831,5.05,18.422C150.886,199.426,165.944,207.547,183.254,192.047z   M162.26,170.442c8.09-7.79,14.004-4.753,14.849-3.884c2.487,2.56,1.174,9.403-4.309,14.73v0.001  c-8.047,7.203-13.389,5.385-14.848,3.884C156.494,183.673,154.169,178.233,162.26,170.442z"/>
<path d="M346.535,301.597c-6.354,0.932-12.673,4.184-17.789,9.155c-11.403,11.081-13.429,26.868-4.612,35.941  c3.848,3.959,9.03,5.892,14.6,5.891c7.194,0,15.032-3.225,21.46-9.471c5.117-4.972,8.548-11.193,9.662-17.52  c1.253-7.116-0.588-13.831-5.05-18.422C360.344,302.58,353.688,300.55,346.535,301.597z M355.082,322.993  c-0.563,3.198-2.51,6.61-5.342,9.362c-5.482,5.328-12.362,6.444-14.849,3.885c-2.487-2.561-1.254-9.487,4.308-14.73  c9.048-8.529,13.842-4.921,14.849-3.885C355.506,319.126,355.322,321.633,355.082,322.993z"/>
<path d="M328.746,192.047c15.67,15.857,32.369,7.379,36.06,3.58c4.462-4.591,6.303-11.306,5.05-18.422  c-1.114-6.326-4.545-12.548-9.662-17.521c-11.402-11.081-27.243-12.654-36.06-3.579  C315.318,165.178,317.344,180.966,328.746,192.047L328.746,192.047z M334.892,166.559c2.484-2.561,9.365-1.444,14.849,3.884  c2.832,2.752,4.779,6.165,5.342,9.363c0.24,1.36,0.424,3.867-1.034,5.368c-1.457,1.501-3.968,1.387-5.336,1.188  c-3.213-0.472-6.681-2.32-9.512-5.071v-0.001C333.718,175.962,332.404,169.118,334.892,166.559z"/>
<path d="M417.583,355.502c4.223-6.547,8.081-13.348,11.5-20.406c1.806-3.728,0.247-8.214-3.48-10.02  c-3.73-1.806-8.214-0.248-10.02,3.48c-14.309,29.537-36.518,54.519-64.226,72.242c-19.114,12.227-40.276,20.56-62.395,24.725V410.51  c73.838-15.276,129.511-80.813,129.511-159.111c0-78.297-55.673-143.833-129.511-159.109V77.271  c82.019,15.493,144.252,87.674,144.252,174.128c0,16.372-2.229,32.585-6.628,48.188c-1.124,3.986,1.197,8.129,5.185,9.253  c3.984,1.122,8.13-1.197,9.253-5.184c4.771-16.928,7.19-34.51,7.19-52.258c0-66.658-34.113-125.492-85.792-159.983l27.554-27.552  l44.912,44.912L424.164,119.5c-2.929,2.93-2.929,7.678,0,10.607c1.465,1.464,5.954,3.916,10.607,0l27.903-27.902  c8.706-8.707,8.706-20.406,0-29.114c-3.67-3.669-7.873-5.772-12.158-6.348c-0.576-4.285-2.68-8.488-6.35-12.158  c-3.67-3.669-7.872-5.772-12.157-6.348c-0.576-4.285-2.68-8.487-6.349-12.156c-5.798-5.799-11.636-6.765-15.497-6.545  c-4.896,0.271-9.605,2.534-13.616,6.544l-47.296,47.295c-18.555-10.339-38.987-17.693-60.649-21.41  c-1.07-11.58-5.325-36.432-22.228-57.043C263.81,1.793,260.028,0,256,0s-7.81,1.793-10.375,4.921  c-16.902,20.61-21.157,45.462-22.228,57.042c-21.662,3.717-42.095,11.071-60.65,21.41l-35.419-35.42  c-0.003-0.003-11.876-11.875-11.876-11.875c-4.011-4.01-8.72-6.273-13.616-6.544c-3.857-0.22-9.699,0.746-15.497,6.544  c-3.669,3.67-5.773,7.872-6.349,12.157c-4.285,0.576-8.487,2.679-12.158,6.349c-3.67,3.67-5.773,7.873-6.349,12.159  c-4.285,0.576-8.488,2.679-12.158,6.349c-8.706,8.707-8.706,20.406,0,29.113l16.502,16.501l28.633,28.633  c-19.4,30.011-30.675,65.742-30.675,104.06c0,38.317,11.276,74.048,30.675,104.059l-45.135,45.135  c-8.705,8.706-8.706,20.405,0,29.113c3.67,3.669,7.873,5.773,12.158,6.349c0.576,4.285,2.68,8.488,6.349,12.158  c3.651,3.651,7.83,5.75,12.094,6.338c0.468,3.528,2.102,7.856,6.413,12.167c5.328,5.329,17.901,9.26,29.113,0.001l47.295-47.294  c9.964,5.552,20.464,10.252,31.411,13.981c0,0-0.831,12.049,1.6,22.808c-2.599,4.147-4.296,9.047-4.108,14.288  c1,27.844,28.18,26.96,28.77,26.921C231.252,507.098,243.208,512,256,512c12.772,0,24.728-4.913,35.561-14.577  c0.596,0.039,27.995,0.586,28.787-26.92c0.151-5.242-1.509-10.141-4.108-14.287c2.639-7.042,1.601-22.785,1.601-22.785  c10.855-3.684,21.383-8.347,31.464-13.953l47.243,47.242c10.385,9.846,23.785,5.328,29.112,0c4.312-4.311,5.946-8.639,6.414-12.167  c4.263-0.589,8.442-2.688,12.094-6.338c3.67-3.67,5.773-7.873,6.349-12.158c4.285-0.576,8.488-2.68,12.158-6.35  c8.706-8.707,8.705-20.406,0-29.112L417.583,355.502z M452.067,91.598l-6.572,6.572l-7.899-7.899l6.572-6.572  c3.301-3.305,5.396-2.504,7.899-0.001C454.569,86.199,455.371,88.295,452.067,91.598z M433.561,73.091l-6.572,6.572l-7.899-7.899  l6.572-6.572c3.304-3.306,5.398-2.501,7.899,0C436.063,67.692,436.864,69.787,433.561,73.091z M415.054,46.686  c3.109,3.65,1.34,6.56,0,7.898l-6.572,6.572l-7.898-7.898l6.572-6.572C408.494,45.346,411.945,43.036,415.054,46.686z   M273.963,427.696c-5.945,0.601-11.938,0.919-17.963,0.919c-6.063,0-12.055-0.308-17.963-0.905v-14.834  c5.9,0.652,11.892,0.998,17.963,0.998c6.071,0,12.063-0.346,17.963-0.998V427.696z M238.037,133.592h35.926v15.283h-35.926  L238.037,133.592L238.037,133.592z M238.037,163.875h35.926v12.149h-35.926L238.037,163.875L238.037,163.875z M238.037,191.024  h35.926v12.15h-35.926L238.037,191.024L238.037,191.024z M238.037,218.175h35.926v12.149h-35.926L238.037,218.175L238.037,218.175z   M238.037,245.324h35.926v12.149h-35.926L238.037,245.324L238.037,245.324z M238.037,272.474h35.926v12.15h-35.926L238.037,272.474  L238.037,272.474z M238.037,299.624h35.926v12.149h-35.926L238.037,299.624L238.037,299.624z M238.037,326.773h35.926v12.149  h-35.926L238.037,326.773L238.037,326.773z M238.037,353.923h35.926v15.782h-35.926L238.037,353.923L238.037,353.923z   M273.963,118.592h-35.926v-13.557c5.912-0.72,11.904-1.109,17.963-1.109c6.08,0,12.073,0.377,17.963,1.096L273.963,118.592  L273.963,118.592z M238.037,384.705h35.926v13.072c-5.889,0.719-11.883,1.096-17.963,1.096s-12.073-0.377-17.963-1.096V384.705z   M403.474,251.398c0,69.989-49.009,128.745-114.511,143.757V107.643C354.465,122.656,403.474,181.41,403.474,251.398z   M273.963,89.924c-5.9-0.652-11.892-0.998-17.963-0.998c-6.051,0-12.043,0.347-17.963,1V75.09c5.908-0.597,11.9-0.905,17.963-0.905  c6.063,0,12.055,0.308,17.963,0.905V89.924z M256,15.968c11.869,15.33,15.893,33.562,17.259,44  c-5.687-0.509-11.441-0.783-17.259-0.783c-5.817,0-11.571,0.275-17.258,0.783C240.108,49.529,244.132,31.297,256,15.968z   M96.946,46.685c3.55-3.511,6.56-1.339,7.898,0.001l6.572,6.572l-7.899,7.899l-6.571-6.572  C95.606,53.245,93.397,50.195,96.946,46.685z M78.438,65.191c2.503-2.501,4.597-3.304,7.9,0l0,0l6.572,6.572l-7.9,7.9l-6.572-6.572  C75.136,69.787,75.938,67.692,78.438,65.191z M59.933,83.698c2.802-2.869,5.334-2.552,7.899,0l6.572,6.572l-7.899,7.899  l-6.572-6.572C56.629,88.295,57.13,86.567,59.933,83.698z M77.111,108.776l44.912-44.912l27.553,27.553  c-17.746,11.844-33.415,26.559-46.348,43.476L77.111,108.776z M223.037,77.271v15.014c-47.295,9.747-88.271,40.206-111.234,84.288  c-1.914,3.673-0.487,8.203,3.187,10.116c3.67,1.915,8.202,0.487,10.116-3.187c20.354-39.072,56.293-66.343,97.932-75.851v287.504  c-65.502-15.013-114.512-73.768-114.512-143.757c0-13.143,1.737-26.181,5.165-38.752c1.089-3.996-1.268-8.119-5.264-9.209  c-3.992-1.085-8.118,1.268-9.209,5.264c-3.777,13.857-5.692,28.223-5.692,42.697c0,78.298,55.673,143.835,129.512,159.111v15.018  c-82.019-15.493-144.252-87.674-144.252-174.128S141.019,92.764,223.037,77.271z M59.933,411.201l6.572-6.572l7.899,7.899  l-6.572,6.572c-3.302,3.303-5.397,2.503-7.899,0.001S56.629,414.504,59.933,411.201z M78.439,429.707l6.572-6.572l7.899,7.899  l-6.572,6.572c-3.302,3.303-5.397,2.502-7.899,0C75.938,435.105,75.136,433.011,78.439,429.707z M96.945,456.112  c-3.297-3.323-1.339-6.56,0.001-7.898l6.572-6.572l7.898,7.898l-6.572,6.572C103.506,457.452,100.242,459.435,96.945,456.112z   M122.024,438.935l-44.913-44.913l26.117-26.116c12.932,16.917,28.602,31.633,46.348,43.477L122.024,438.935z M206.65,470.503  c0-6.609,5.378-11.987,11.987-11.987s11.987,5.378,11.987,11.987s-5.378,11.986-11.987,11.986S206.65,477.112,206.65,470.503z   M293.361,482.489c-6.609,0-11.986-5.377-11.986-11.986s5.377-11.987,11.986-11.987s11.987,5.378,11.987,11.987  S299.971,482.489,293.361,482.489z M302.688,445.178c-2.908-1.074-6.05-1.663-9.327-1.663c-14.88,0-26.986,12.106-26.986,26.987  c0,8.096,3.589,15.366,9.254,20.317C269.362,494.92,262.787,497,256,497c-6.79,0-13.361-2.08-19.629-6.181  c5.665-4.951,9.254-12.22,9.254-20.316c0-14.881-12.106-26.987-26.987-26.987c-3.277,0-6.418,0.588-9.326,1.663  c-0.099-1.388-0.153-7.347-0.153-7.347c15,3.77,30.689,5.783,46.842,5.783c15.912,0,31.63-1.955,46.842-5.764  C302.842,437.85,302.787,443.79,302.688,445.178z M362.466,411.425c17.836-11.886,33.485-26.575,46.371-43.454l26.051,26.051  l-44.912,44.912L362.466,411.425z M415.054,456.113c-3.133,3.282-6.56,1.339-7.898-0.001l-6.572-6.572l7.899-7.899l6.572,6.572  C416.394,449.553,418.187,452.831,415.054,456.113z M433.561,437.606c-2.502,2.505-4.599,3.303-7.899,0l-6.572-6.572l7.899-7.899  l6.572,6.572C436.864,433.011,436.063,435.105,433.561,437.606z M452.067,419.1c-1.035,1.036-4.589,3.688-7.899,0l-6.572-6.572  l7.899-7.899l6.572,6.572C455.371,414.504,454.569,416.599,452.067,419.1z"/>
<g>
</g>
<g>
</g>
<g>
</g>
<g>
</g>
<g>
</g>
<g>
</g>
<g>
</g>
<g>
</g>
<g>
</g>
<g>
</g>
<g>
</g>
<g>
</g>
<g>
</g>
<g>
</g>
<g>
</g>
</svg>
