<?xml version="1.0" encoding="iso-8859-1"?>
<!-- Generator: Adobe Illustrator 19.0.0, SVG Export Plug-In . SVG Version: 6.00 Build 0)  -->
<svg version="1.1" id="Layer_1" xmlns="http://www.w3.org/2000/svg" xmlns:xlink="http://www.w3.org/1999/xlink" x="0px" y="0px"
	 viewBox="0 0 512 512" style="enable-background:new 0 0 512 512;" xml:space="preserve">
<path style="fill:#333333;" d="M301.436,166.209c9.694,0,17.582-8.023,17.582-17.886c0-9.863-7.888-17.886-17.582-17.886
	c-9.694,0-17.582,8.024-17.582,17.886C283.853,158.186,291.741,166.209,301.436,166.209z"/>
<polygon style="fill:#C43333;" points="273.033,107.981 238.967,107.981 255.999,118.556 "/>
<path style="fill:#333333;" d="M237.024,193.062c0.421,1.968,1.315,3.618,2.702,4.994c4.513,4.484,12.399,5.35,16.273,5.35
	c3.874,0,11.877-0.952,16.299-5.375c1.373-1.373,2.259-3.014,2.677-4.971l-18.976-12.348L237.024,193.062z M261.877,192.665
	c0,1.551-0.623,3.068-1.728,4.161c-1.094,1.093-2.611,1.716-4.149,1.716c-1.552,0-3.068-0.623-4.161-1.716
	c-1.093-1.093-1.716-2.609-1.716-4.161c0-1.54,0.623-3.056,1.716-4.149c1.104-1.093,2.609-1.728,4.161-1.728
	c1.54,0,3.056,0.635,4.149,1.728C261.254,189.609,261.877,191.125,261.877,192.665z"/>
<g>
	<path style="fill:#754C24;" d="M357.268,144.352h12.529c-0.342-3.363-0.759-6.693-1.262-9.984h-11.267V144.352z"/>
	<path style="fill:#754C24;" d="M260.991,11.908c-1.656-0.095-3.319-0.154-4.993-0.154c-1.673,0-3.336,0.059-4.991,0.153v12.131
		h9.984V11.908z"/>
</g>
<path style="fill:#333333;" d="M210.565,166.209c9.693,0,17.58-8.023,17.58-17.886c0-9.863-7.887-17.886-17.58-17.886
	c-9.696,0-17.584,8.024-17.584,17.886C192.982,158.186,200.87,166.209,210.565,166.209z"/>
<path style="fill:#754C24;" d="M22.084,500.246h22.802c-5.234-53.606-0.684-94.107,2.689-114.221
	C30.353,402.561,21.2,443.183,22.084,500.246z"/>
<path style="fill:#FFAA2A;" d="M255.998,310.473c65.476,0,114.851-62.513,114.851-145.412c0-3.007-0.072-5.991-0.201-8.955h-19.257
	c-3.246,0-5.877-2.632-5.877-5.877v-21.737c0-3.245,2.63-5.877,5.877-5.877h14.977c-12.32-56.997-48.806-100.448-93.623-109.226
	v16.526c0,3.245-2.63,5.877-5.877,5.877h-21.737c-3.246,0-5.877-2.632-5.877-5.877V13.389
	c-44.817,8.776-81.302,52.229-93.622,109.227h14.974c3.246,0,5.877,2.632,5.877,5.877v21.737c0,3.245-2.63,5.877-5.877,5.877
	h-19.255c-0.128,2.964-0.201,5.949-0.201,8.955C141.15,247.959,190.524,310.473,255.998,310.473z M348.079,208.885
	c1.093-1.093,2.609-1.716,4.149-1.716c1.55,0,3.067,0.623,4.161,1.716c1.093,1.093,1.716,2.609,1.716,4.161
	c0,1.539-0.623,3.056-1.716,4.149c-1.094,1.093-2.611,1.728-4.161,1.728c-1.54,0-3.057-0.635-4.149-1.728
	c-1.093-1.081-1.728-2.598-1.728-4.149C346.351,211.494,346.986,209.978,348.079,208.885z M163.922,217.195
	c-1.094,1.093-2.611,1.728-4.149,1.728c-1.551,0-3.068-0.635-4.161-1.728c-1.093-1.093-1.716-2.598-1.716-4.149
	c0-1.551,0.623-3.068,1.716-4.161c1.093-1.093,2.609-1.716,4.161-1.716c1.54,0,3.056,0.623,4.149,1.716
	c1.093,1.093,1.728,2.609,1.728,4.161C165.65,214.597,165.015,216.101,163.922,217.195z M209.843,274.388
	c-1.104,1.093-2.62,1.728-4.161,1.728c-1.55,0-3.067-0.635-4.161-1.728c-1.093-1.093-1.716-2.609-1.716-4.161
	c0-1.54,0.623-3.056,1.716-4.149c1.094-1.093,2.61-1.716,4.161-1.716c1.541,0,3.056,0.623,4.161,1.716
	c1.094,1.093,1.716,2.609,1.716,4.149C211.559,271.779,210.937,273.295,209.843,274.388z M222.761,256.24
	c-1.093,1.093-2.609,1.728-4.149,1.728c-1.55,0-3.067-0.635-4.161-1.728c-1.093-1.093-1.728-2.609-1.728-4.149
	c0-1.551,0.635-3.068,1.728-4.161c1.094-1.093,2.61-1.716,4.161-1.716c1.541,0,3.056,0.623,4.149,1.716
	c1.093,1.093,1.728,2.609,1.728,4.161C224.488,253.631,223.853,255.147,222.761,256.24z M246.41,303.255
	c-1.093,1.093-2.609,1.728-4.161,1.728c-1.54,0-3.056-0.635-4.149-1.728c-1.093-1.093-1.728-2.598-1.728-4.149
	c0-1.552,0.635-3.068,1.728-4.161c1.094-1.093,2.61-1.716,4.149-1.716c1.552,0,3.068,0.623,4.161,1.716
	c1.093,1.093,1.716,2.609,1.716,4.161C248.126,300.646,247.501,302.162,246.41,303.255z M246.41,276.316
	c-1.093,1.093-2.609,1.716-4.161,1.716c-1.54,0-3.056-0.623-4.149-1.716c-1.093-1.093-1.728-2.609-1.728-4.161
	c0-1.54,0.635-3.056,1.728-4.149c1.094-1.093,2.598-1.728,4.149-1.728c1.551,0,3.068,0.635,4.161,1.728
	c1.093,1.093,1.716,2.609,1.716,4.149C248.126,273.706,247.501,275.223,246.41,276.316z M246.41,249.364
	c-1.093,1.105-2.609,1.728-4.161,1.728c-1.551,0-3.056-0.623-4.149-1.728c-1.093-1.081-1.728-2.598-1.728-4.149
	c0-1.551,0.635-3.068,1.728-4.161c1.094-1.093,2.598-1.716,4.149-1.716c1.551,0,3.068,0.623,4.161,1.716
	c1.093,1.105,1.716,2.621,1.716,4.161S247.501,248.271,246.41,249.364z M273.9,303.255c-1.093,1.093-2.609,1.728-4.161,1.728
	c-1.54,0-3.056-0.635-4.148-1.728c-1.094-1.081-1.729-2.598-1.729-4.149c0-1.552,0.635-3.068,1.729-4.161
	c1.093-1.093,2.609-1.716,4.148-1.716c1.551,0,3.068,0.623,4.161,1.716c1.094,1.093,1.716,2.609,1.716,4.161
	C275.616,300.646,274.995,302.162,273.9,303.255z M273.9,276.316c-1.093,1.093-2.609,1.716-4.161,1.716
	c-1.54,0-3.056-0.623-4.148-1.716c-1.094-1.093-1.729-2.609-1.729-4.161c0-1.54,0.635-3.056,1.729-4.149
	c1.093-1.093,2.609-1.728,4.148-1.728c1.551,0,3.068,0.635,4.161,1.728c1.094,1.093,1.716,2.609,1.716,4.149
	C275.616,273.706,274.995,275.223,273.9,276.316z M273.9,249.364c-1.093,1.093-2.609,1.728-4.161,1.728
	c-1.54,0-3.056-0.635-4.148-1.728c-1.094-1.081-1.729-2.598-1.729-4.149c0-1.551,0.635-3.068,1.729-4.161
	c1.093-1.093,2.609-1.716,4.148-1.716c1.551,0,3.068,0.623,4.161,1.716c1.094,1.093,1.716,2.609,1.716,4.161
	C275.616,246.767,274.995,248.271,273.9,249.364z M280.559,206.394c-8.42,8.367-21.09,8.768-24.559,8.768
	c-3.469,0-16.138-0.4-24.559-8.768c-4.268-4.24-6.499-9.903-6.453-16.376c0.014-1.973,1.017-3.808,2.672-4.885l25.135-16.355
	c2.01-1.309,4.517-1.221,6.405,0.006l0.005-0.006l0.075,0.049c0.006,0.004,0.012,0.007,0.016,0.011l25.044,16.295
	c1.655,1.077,2.659,2.911,2.672,4.885C287.059,196.49,284.827,202.153,280.559,206.394z M297.55,256.24
	c-1.104,1.093-2.609,1.728-4.161,1.728c-1.55,0-3.056-0.635-4.148-1.728c-1.094-1.093-1.729-2.609-1.729-4.149
	c0-1.551,0.635-3.068,1.729-4.161c1.093-1.093,2.609-1.716,4.148-1.716c1.551,0,3.057,0.623,4.161,1.716
	c1.094,1.093,1.716,2.609,1.716,4.161C299.266,253.631,298.643,255.147,297.55,256.24z M310.467,274.388
	c-1.093,1.093-2.609,1.728-4.149,1.728c-1.55,0-3.067-0.635-4.161-1.728c-1.093-1.093-1.716-2.609-1.716-4.149
	c0-1.552,0.623-3.068,1.716-4.161c1.094-1.093,2.611-1.716,4.161-1.716c1.54,0,3.057,0.623,4.149,1.716
	c1.093,1.093,1.728,2.609,1.728,4.161C312.195,271.779,311.559,273.295,310.467,274.388z M335.432,228.96
	c1.093-1.093,2.598-1.716,4.148-1.716c1.551,0,3.068,0.623,4.161,1.716c1.094,1.093,1.716,2.609,1.716,4.161
	c0,1.54-0.622,3.056-1.716,4.149c-1.104,1.093-2.609,1.728-4.161,1.728c-1.54,0-3.056-0.635-4.148-1.728
	c-1.094-1.093-1.729-2.609-1.729-4.149C333.703,231.569,334.338,230.053,335.432,228.96z M329.532,219.122
	c-1.093,1.093-2.609,1.728-4.148,1.728c-1.552,0-3.068-0.635-4.161-1.728c-1.094-1.093-1.716-2.609-1.716-4.149
	c0-1.551,0.622-3.068,1.716-4.161c1.093-1.093,2.609-1.716,4.161-1.716c1.539,0,3.056,0.623,4.148,1.716
	c1.094,1.093,1.729,2.609,1.729,4.161C331.26,216.513,330.625,218.029,329.532,219.122z M309.174,42.675
	c1.093-1.093,2.609-1.716,4.148-1.716c1.551,0,3.068,0.623,4.161,1.716c1.094,1.093,1.716,2.609,1.716,4.161
	c0,1.551-0.622,3.068-1.716,4.161c-1.093,1.093-2.609,1.716-4.161,1.716c-1.54,0-3.056-0.623-4.148-1.716
	c-1.094-1.093-1.729-2.609-1.729-4.161C307.445,45.285,308.081,43.768,309.174,42.675z M309.174,62.751
	c1.093-1.093,2.609-1.716,4.148-1.716c1.551,0,3.068,0.623,4.161,1.716c1.094,1.093,1.716,2.609,1.716,4.161
	s-0.622,3.056-1.716,4.149c-1.093,1.093-2.609,1.728-4.161,1.728c-1.54,0-3.056-0.635-4.148-1.728
	c-1.094-1.093-1.729-2.598-1.729-4.149S308.081,63.844,309.174,62.751z M309.174,82.826c1.093-1.093,2.609-1.716,4.148-1.716
	c1.551,0,3.068,0.623,4.161,1.716c1.094,1.093,1.716,2.609,1.716,4.161c0,1.54-0.622,3.056-1.716,4.149
	c-1.093,1.093-2.609,1.716-4.161,1.716c-1.54,0-3.056-0.623-4.148-1.716c-1.094-1.093-1.729-2.609-1.729-4.149
	C307.445,85.435,308.081,83.919,309.174,82.826z M330.772,148.324c0,16.344-13.159,29.639-29.336,29.639
	c-16.177,0-29.336-13.296-29.336-29.639s13.159-29.639,29.336-29.639C317.612,118.684,330.772,131.981,330.772,148.324z
	 M271.774,82.556c1.093-1.093,2.609-1.728,4.161-1.728c1.54,0,3.056,0.635,4.149,1.728c1.104,1.093,1.728,2.598,1.728,4.149
	s-0.623,3.068-1.728,4.161c-1.094,1.093-2.611,1.716-4.149,1.716c-1.551,0-3.068-0.623-4.161-1.716
	c-1.093-1.093-1.716-2.609-1.716-4.161S270.681,83.649,271.774,82.556z M231.905,82.556c1.104-1.093,2.609-1.728,4.161-1.728
	c1.54,0,3.056,0.635,4.161,1.728c1.093,1.093,1.716,2.609,1.716,4.149c0,1.551-0.623,3.068-1.716,4.161
	c-1.106,1.093-2.621,1.716-4.161,1.716c-1.551,0-3.056-0.623-4.161-1.716c-1.094-1.093-1.716-2.609-1.716-4.161
	S230.811,83.649,231.905,82.556z M212.708,100.492c0.721-2.525,3.027-4.265,5.652-4.265h75.28c2.625,0,4.932,1.741,5.652,4.265
	c0.719,2.525-0.321,5.22-2.552,6.604l-37.64,23.37l-0.006-0.009c-0.934,0.578-2.008,0.893-3.101,0.893
	c-1.058,0.001-2.13-0.286-3.095-0.884l-37.639-23.37C213.029,105.712,211.989,103.017,212.708,100.492z M194.516,42.687
	c1.094-1.093,2.611-1.728,4.161-1.728c1.541,0,3.057,0.635,4.149,1.728c1.093,1.093,1.728,2.609,1.728,4.149
	c0,1.551-0.635,3.056-1.728,4.161c-1.093,1.093-2.609,1.716-4.149,1.716c-1.55,0-3.067-0.623-4.161-1.716
	c-1.093-1.093-1.716-2.609-1.716-4.161C192.8,45.285,193.424,43.78,194.516,42.687z M194.516,62.751
	c1.094-1.093,2.611-1.716,4.161-1.716c1.541,0,3.057,0.623,4.149,1.716c1.093,1.105,1.728,2.621,1.728,4.161
	s-0.635,3.056-1.728,4.149c-1.093,1.093-2.609,1.728-4.149,1.728c-1.55,0-3.067-0.635-4.161-1.728
	c-1.093-1.093-1.716-2.609-1.716-4.149C192.8,65.36,193.424,63.844,194.516,62.751z M194.516,82.826
	c1.094-1.093,2.611-1.728,4.161-1.728c1.541,0,3.057,0.635,4.149,1.728c1.093,1.093,1.728,2.609,1.728,4.149
	c0,1.551-0.635,3.068-1.728,4.161c-1.093,1.093-2.609,1.716-4.149,1.716c-1.55,0-3.067-0.623-4.161-1.716
	c-1.093-1.093-1.716-2.609-1.716-4.161C192.8,85.435,193.424,83.919,194.516,82.826z M210.565,118.684
	c16.175,0,29.334,13.297,29.334,29.639c0,16.344-13.158,29.639-29.334,29.639c-16.177,0-29.337-13.296-29.337-29.639
	C181.228,131.981,194.389,118.684,210.565,118.684z M176.569,237.27c-1.093,1.093-2.609,1.728-4.149,1.728
	c-1.551,0-3.067-0.635-4.161-1.728c-1.093-1.093-1.716-2.609-1.716-4.149c0-1.551,0.623-3.068,1.716-4.161
	c1.094-1.093,2.609-1.716,4.161-1.716c1.541,0,3.057,0.623,4.149,1.716c1.093,1.093,1.728,2.609,1.728,4.161
	C178.297,234.661,177.662,236.177,176.569,237.27z M180.742,214.973c0-1.551,0.635-3.068,1.728-4.161
	c1.094-1.093,2.598-1.716,4.149-1.716s3.068,0.623,4.161,1.716c1.093,1.093,1.716,2.609,1.716,4.161c0,1.54-0.623,3.056-1.716,4.149
	c-1.093,1.093-2.609,1.728-4.161,1.728s-3.056-0.635-4.149-1.728C181.376,218.029,180.742,216.525,180.742,214.973z"/>
<path style="fill:#808080;" d="M292.321,384.743L261.656,440.1l-7.286,34.98c-0.413,1.978-1.811,3.606-3.704,4.31
	c-0.665,0.247-1.359,0.368-2.048,0.368c-1.274,0-2.533-0.414-3.573-1.211l-48.428-37.075c1.064,26.168,0.858,48.406,0.658,58.772
	h117.45c-0.33-17.225-0.685-67.217,4.817-113.581L292.321,384.743z"/>
<path style="fill:#333333;" d="M185.974,347.798c4.196,18.296,6.896,39.411,8.611,60.155l58.843,22.747l30.428-54.931
	c1.106-1.999,3.265-3.178,5.555-3.015l31.66,2.234c1.363-9.49,3.008-18.678,4.977-27.253c-16.539,8.605-42.332,14.01-70.07,14.01
	C228.325,361.746,202.546,356.362,185.974,347.798z"/>
<path style="fill:#E6E6E6;" d="M255.975,349.993c38.204,0,66.902-10.388,75.071-20.346c0.311-0.931,0.628-1.847,0.952-2.749
	c-4.933-3.514-11.66-10.75-13.044-24.451c-18.792,12.908-40.332,19.779-62.956,19.779c-22.468,0-43.868-6.782-62.57-19.522
	c-1.407,13.713-8.308,20.868-13.383,24.313c0.337,0.949,0.669,1.912,0.996,2.891C189.487,339.763,218.129,349.993,255.975,349.993z"
	/>
<path style="fill:#754C24;" d="M98.235,337.173c2.61-0.161,5.33-0.256,8.109-0.256c11.939,0,22.084,1.771,30.149,5.266
	c2.32,1.004,3.736,3.379,3.519,5.898c-0.216,2.519-2.022,4.616-4.477,5.208c-0.515,0.123-47.19,11.455-74.352,24.206
	c-2.407,11.19-10.994,57.531-4.492,122.752h128.815c0.46-26.728,0.977-140.033-21.928-181.674
	C155.08,318.252,128.603,319.02,98.235,337.173z"/>
<path style="fill:#808080;" d="M249.315,441.713l-53.774-20.788c0.113,1.731,0.217,3.451,0.317,5.166l48.912,37.445L249.315,441.713
	z"/>
<g>
	<path style="fill:#754C24;" d="M376.463,353.288c-2.457-0.592-4.261-2.689-4.478-5.208s1.2-4.894,3.519-5.898
		c8.067-3.494,18.21-5.266,30.149-5.266c2.779,0,5.5,0.095,8.109,0.256c-30.366-18.15-56.835-18.92-65.342-18.6
		c-22.913,41.653-22.39,154.948-21.928,181.674h128.814c6.52-65.358-2.077-111.585-4.489-122.751
		C423.658,364.745,376.979,353.413,376.463,353.288z"/>
	<path style="fill:#754C24;" d="M154.729,134.368h-11.265c-0.504,3.29-0.92,6.621-1.262,9.984h12.527V134.368z"/>
	<path style="fill:#754C24;" d="M467.114,500.246h22.801c0.884-57.064-8.268-97.686-25.494-114.223
		C467.794,406.137,472.349,446.634,467.114,500.246z"/>
</g>
<path d="M210.565,177.963c16.175,0,29.334-13.296,29.334-29.639s-13.158-29.639-29.334-29.639
	c-16.177,0-29.337,13.297-29.337,29.639C181.228,164.667,194.389,177.963,210.565,177.963z M210.565,130.438
	c9.693,0,17.58,8.024,17.58,17.886c0,9.863-7.887,17.886-17.58,17.886c-9.696,0-17.584-8.023-17.584-17.886
	C192.982,138.462,200.87,130.438,210.565,130.438z"/>
<path d="M272.1,148.324c0,16.344,13.159,29.639,29.336,29.639c16.177,0,29.336-13.296,29.336-29.639s-13.159-29.639-29.336-29.639
	C285.26,118.684,272.1,131.981,272.1,148.324z M301.436,130.438c9.694,0,17.582,8.024,17.582,17.886
	c0,9.863-7.888,17.886-17.582,17.886c-9.694,0-17.582-8.023-17.582-17.886C283.853,138.462,291.741,130.438,301.436,130.438z"/>
<path d="M198.677,92.852c1.541,0,3.057-0.623,4.149-1.716c1.093-1.093,1.728-2.609,1.728-4.161c0-1.54-0.635-3.056-1.728-4.149
	c-1.093-1.093-2.609-1.728-4.149-1.728c-1.55,0-3.067,0.635-4.161,1.728c-1.093,1.093-1.716,2.609-1.716,4.149
	c0,1.551,0.623,3.068,1.716,4.161C195.61,92.229,197.126,92.852,198.677,92.852z"/>
<path d="M198.677,72.788c1.541,0,3.057-0.635,4.149-1.728c1.093-1.093,1.728-2.609,1.728-4.149s-0.635-3.056-1.728-4.161
	c-1.093-1.093-2.609-1.716-4.149-1.716c-1.55,0-3.067,0.623-4.161,1.716c-1.093,1.093-1.716,2.609-1.716,4.161
	c0,1.54,0.623,3.056,1.716,4.149C195.61,72.154,197.126,72.788,198.677,72.788z"/>
<path d="M198.677,52.713c1.541,0,3.057-0.623,4.149-1.716c1.093-1.105,1.728-2.609,1.728-4.161c0-1.54-0.635-3.056-1.728-4.149
	c-1.093-1.093-2.609-1.728-4.149-1.728c-1.55,0-3.067,0.635-4.161,1.728c-1.093,1.093-1.716,2.599-1.716,4.149
	c0,1.551,0.623,3.068,1.716,4.161C195.61,52.09,197.126,52.713,198.677,52.713z"/>
<path d="M313.322,92.852c1.551,0,3.068-0.623,4.161-1.716c1.094-1.093,1.716-2.609,1.716-4.149c0-1.551-0.622-3.068-1.716-4.161
	c-1.093-1.093-2.609-1.716-4.161-1.716c-1.54,0-3.056,0.623-4.148,1.716c-1.094,1.093-1.729,2.609-1.729,4.161
	c0,1.54,0.635,3.056,1.729,4.149C310.267,92.229,311.784,92.852,313.322,92.852z"/>
<path d="M313.322,72.788c1.551,0,3.068-0.635,4.161-1.728c1.094-1.093,1.716-2.598,1.716-4.149s-0.622-3.068-1.716-4.161
	c-1.093-1.093-2.609-1.716-4.161-1.716c-1.54,0-3.056,0.623-4.148,1.716c-1.094,1.093-1.729,2.609-1.729,4.161
	s0.635,3.056,1.729,4.149C310.267,72.154,311.784,72.788,313.322,72.788z"/>
<path d="M313.322,52.713c1.551,0,3.068-0.623,4.161-1.716c1.094-1.093,1.716-2.609,1.716-4.161c0-1.551-0.622-3.068-1.716-4.161
	c-1.093-1.093-2.609-1.716-4.161-1.716c-1.54,0-3.056,0.623-4.148,1.716c-1.094,1.093-1.729,2.609-1.729,4.161
	c0,1.551,0.635,3.068,1.729,4.161C310.267,52.09,311.784,52.713,313.322,52.713z"/>
<path d="M275.935,92.582c1.54,0,3.056-0.623,4.149-1.716c1.104-1.093,1.728-2.609,1.728-4.161s-0.623-3.056-1.728-4.149
	c-1.094-1.093-2.61-1.728-4.149-1.728c-1.552,0-3.068,0.635-4.161,1.728c-1.093,1.093-1.716,2.598-1.716,4.149
	s0.623,3.068,1.716,4.161C272.867,91.959,274.383,92.582,275.935,92.582z"/>
<path d="M236.066,92.582c1.54,0,3.056-0.623,4.161-1.716c1.093-1.093,1.716-2.609,1.716-4.161c0-1.54-0.623-3.056-1.716-4.149
	c-1.106-1.093-2.621-1.728-4.161-1.728c-1.551,0-3.056,0.635-4.161,1.728c-1.094,1.093-1.716,2.598-1.716,4.149
	s0.622,3.068,1.716,4.161C233.009,91.959,234.515,92.582,236.066,92.582z"/>
<path d="M190.779,219.122c1.093-1.093,1.716-2.609,1.716-4.149c0-1.551-0.623-3.068-1.716-4.161
	c-1.093-1.093-2.609-1.716-4.161-1.716s-3.056,0.623-4.149,1.716c-1.093,1.093-1.728,2.609-1.728,4.161
	c0,1.551,0.635,3.056,1.728,4.149c1.094,1.093,2.598,1.728,4.149,1.728S189.686,220.215,190.779,219.122z"/>
<path d="M172.42,227.244c-1.551,0-3.067,0.623-4.161,1.716c-1.093,1.093-1.716,2.609-1.716,4.161c0,1.54,0.623,3.056,1.716,4.149
	c1.094,1.093,2.609,1.728,4.161,1.728c1.541,0,3.057-0.635,4.149-1.728c1.093-1.093,1.728-2.609,1.728-4.149
	c0-1.551-0.635-3.068-1.728-4.161C175.476,227.867,173.96,227.244,172.42,227.244z"/>
<path d="M159.773,207.169c-1.551,0-3.068,0.623-4.161,1.716c-1.093,1.093-1.716,2.609-1.716,4.161c0,1.551,0.623,3.056,1.716,4.149
	c1.093,1.093,2.609,1.728,4.161,1.728c1.54,0,3.056-0.635,4.149-1.728c1.093-1.093,1.728-2.598,1.728-4.149
	c0-1.551-0.635-3.068-1.728-4.161C162.828,207.792,161.311,207.169,159.773,207.169z"/>
<path d="M242.249,239.339c-1.551,0-3.056,0.623-4.149,1.716c-1.093,1.093-1.728,2.609-1.728,4.161c0,1.551,0.635,3.068,1.728,4.149
	c1.094,1.105,2.598,1.728,4.149,1.728c1.551,0,3.068-0.623,4.161-1.728c1.093-1.093,1.716-2.609,1.716-4.149
	s-0.623-3.056-1.716-4.161C245.316,239.961,243.8,239.339,242.249,239.339z"/>
<path d="M218.611,246.214c-1.55,0-3.067,0.623-4.161,1.716c-1.093,1.093-1.728,2.609-1.728,4.161c0,1.54,0.635,3.056,1.728,4.149
	c1.094,1.093,2.61,1.728,4.161,1.728c1.541,0,3.056-0.635,4.149-1.728c1.093-1.093,1.728-2.609,1.728-4.149
	c0-1.551-0.635-3.068-1.728-4.161C221.668,246.837,220.152,246.214,218.611,246.214z"/>
<path d="M205.682,264.362c-1.55,0-3.067,0.623-4.161,1.716c-1.093,1.093-1.716,2.609-1.716,4.149c0,1.552,0.623,3.068,1.716,4.161
	c1.094,1.093,2.61,1.728,4.161,1.728c1.541,0,3.056-0.635,4.161-1.728c1.094-1.093,1.716-2.609,1.716-4.161
	c0-1.54-0.622-3.056-1.716-4.149C208.739,264.985,207.223,264.362,205.682,264.362z"/>
<path d="M242.249,266.278c-1.551,0-3.056,0.635-4.149,1.728c-1.093,1.093-1.728,2.609-1.728,4.149c0,1.551,0.635,3.068,1.728,4.161
	c1.094,1.093,2.61,1.716,4.149,1.716c1.552,0,3.068-0.623,4.161-1.716c1.093-1.093,1.716-2.609,1.716-4.161
	c0-1.54-0.623-3.056-1.716-4.149C245.316,266.913,243.8,266.278,242.249,266.278z"/>
<path d="M242.249,293.229c-1.54,0-3.056,0.623-4.149,1.716c-1.093,1.093-1.728,2.609-1.728,4.161s0.635,3.056,1.728,4.149
	c1.094,1.093,2.61,1.728,4.149,1.728c1.552,0,3.068-0.635,4.161-1.728c1.093-1.093,1.716-2.609,1.716-4.149
	c0-1.552-0.623-3.068-1.716-4.161C245.316,293.852,243.8,293.229,242.249,293.229z"/>
<path d="M325.383,209.096c-1.551,0-3.068,0.623-4.161,1.716c-1.094,1.093-1.716,2.609-1.716,4.161c0,1.54,0.622,3.056,1.716,4.149
	c1.093,1.093,2.609,1.728,4.161,1.728c1.539,0,3.056-0.635,4.148-1.728c1.094-1.093,1.729-2.609,1.729-4.149
	c0-1.551-0.635-3.068-1.729-4.161C328.439,209.719,326.922,209.096,325.383,209.096z"/>
<path d="M339.58,238.998c1.551,0,3.057-0.635,4.161-1.728c1.094-1.093,1.716-2.609,1.716-4.149c0-1.551-0.622-3.068-1.716-4.161
	c-1.093-1.093-2.609-1.716-4.161-1.716c-1.55,0-3.056,0.623-4.148,1.716c-1.094,1.093-1.729,2.609-1.729,4.161
	c0,1.54,0.635,3.056,1.729,4.149C336.525,238.363,338.042,238.998,339.58,238.998z"/>
<path d="M352.228,218.922c1.55,0,3.067-0.635,4.161-1.728c1.093-1.093,1.716-2.609,1.716-4.149c0-1.551-0.623-3.068-1.716-4.161
	c-1.094-1.093-2.611-1.716-4.161-1.716c-1.54,0-3.057,0.623-4.149,1.716c-1.093,1.093-1.728,2.609-1.728,4.161
	c0,1.551,0.635,3.068,1.728,4.149C349.171,218.288,350.689,218.922,352.228,218.922z"/>
<path d="M269.739,239.339c-1.54,0-3.056,0.623-4.148,1.716c-1.094,1.093-1.729,2.609-1.729,4.161c0,1.551,0.635,3.068,1.729,4.149
	c1.093,1.093,2.609,1.728,4.148,1.728c1.552,0,3.068-0.635,4.161-1.728c1.094-1.093,1.716-2.598,1.716-4.149
	c0-1.551-0.622-3.068-1.716-4.161C272.808,239.961,271.292,239.339,269.739,239.339z"/>
<path d="M293.389,246.214c-1.54,0-3.056,0.623-4.148,1.716c-1.094,1.093-1.729,2.609-1.729,4.161c0,1.54,0.635,3.056,1.729,4.149
	c1.093,1.093,2.598,1.728,4.148,1.728c1.551,0,3.057-0.635,4.161-1.728c1.094-1.093,1.716-2.609,1.716-4.149
	c0-1.551-0.622-3.068-1.716-4.161C296.445,246.837,294.941,246.214,293.389,246.214z"/>
<path d="M306.318,264.362c-1.55,0-3.067,0.623-4.161,1.716c-1.093,1.093-1.716,2.609-1.716,4.161c0,1.54,0.623,3.056,1.716,4.149
	c1.094,1.093,2.611,1.728,4.161,1.728c1.54,0,3.057-0.635,4.149-1.728c1.093-1.093,1.728-2.609,1.728-4.149
	c0-1.552-0.635-3.068-1.728-4.161C309.374,264.985,307.858,264.362,306.318,264.362z"/>
<path d="M269.739,266.278c-1.54,0-3.056,0.635-4.148,1.728c-1.094,1.093-1.729,2.609-1.729,4.149c0,1.551,0.635,3.068,1.729,4.161
	c1.093,1.093,2.609,1.716,4.148,1.716c1.552,0,3.068-0.623,4.161-1.716c1.094-1.093,1.716-2.609,1.716-4.161
	c0-1.54-0.622-3.056-1.716-4.149C272.808,266.913,271.292,266.278,269.739,266.278z"/>
<path d="M269.739,293.229c-1.54,0-3.056,0.623-4.148,1.716c-1.094,1.093-1.729,2.609-1.729,4.161s0.635,3.068,1.729,4.149
	c1.093,1.093,2.609,1.728,4.148,1.728c1.552,0,3.068-0.635,4.161-1.728c1.094-1.093,1.716-2.609,1.716-4.149
	c0-1.552-0.622-3.068-1.716-4.161C272.808,293.852,271.292,293.229,269.739,293.229z"/>
<path d="M215.26,107.097l37.639,23.37c0.965,0.599,2.036,0.885,3.095,0.884c1.093,0,2.166-0.315,3.101-0.893l0.006,0.009
	l37.64-23.37c2.231-1.385,3.271-4.081,2.552-6.604c-0.719-2.525-3.027-4.265-5.652-4.265H218.36c-2.625,0-4.931,1.741-5.652,4.265
	C211.989,103.017,213.029,105.712,215.26,107.097z M273.033,107.981l-17.033,10.575l-17.032-10.575H273.033z"/>
<path d="M251.84,188.515c-1.093,1.093-1.716,2.609-1.716,4.149c0,1.551,0.623,3.068,1.716,4.161
	c1.093,1.093,2.609,1.716,4.161,1.716c1.54,0,3.056-0.623,4.149-1.716c1.104-1.093,1.728-2.609,1.728-4.161
	c0-1.54-0.623-3.056-1.728-4.149c-1.094-1.093-2.611-1.728-4.149-1.728C254.449,186.788,252.943,187.422,251.84,188.515z"/>
<path d="M284.34,185.133l-25.044-16.295c-0.005-0.004-0.011-0.007-0.016-0.011l-0.075-0.049l-0.005,0.006
	c-1.888-1.227-4.395-1.315-6.405-0.006l-25.135,16.355c-1.655,1.077-2.659,2.911-2.672,4.885
	c-0.046,6.474,2.185,12.137,6.453,16.376c8.42,8.369,21.09,8.768,24.559,8.768c3.469,0,16.138-0.4,24.559-8.768
	c4.268-4.24,6.499-9.903,6.453-16.376C286.999,188.043,285.995,186.209,284.34,185.133z M272.298,198.032
	c-4.423,4.423-12.425,5.375-16.299,5.375c-3.874,0-11.76-0.866-16.273-5.35c-1.387-1.378-2.28-3.027-2.702-4.994l18.976-12.348
	l18.976,12.348C274.557,195.019,273.671,196.661,272.298,198.032z"/>
<path d="M463.918,371.015c-15.254-8.668-40.35-16.857-59.289-22.34c11.595-0.366,30.689,3.39,30.826,3.423
	c2.654,0.655,5.416-0.614,6.651-3.058c1.234-2.445,0.616-5.417-1.49-7.167c-38.101-31.68-75.31-35.1-89.539-35.1
	c-4.189,0-6.615,0.284-6.878,0.317c-1.764,0.217-3.336,1.222-4.274,2.734c-1.115,1.798-2.178,3.747-3.199,5.808
	c-3.307-3.312-7.112-9.89-6.134-22.277c5.422-4.774,10.551-10.099,15.33-15.969c23.653-29.05,36.68-68.941,36.68-112.323
	c0-43.794-12.982-85.03-36.555-116.111C322.109,17.384,290.129,0,255.998,0c-34.128,0-66.108,17.384-90.048,48.95
	c-23.572,31.082-36.554,72.317-36.554,116.111c0,43.382,13.027,83.273,36.679,112.323c4.89,6.005,10.146,11.441,15.705,16.299
	c0.988,12.355-3.014,18.848-6.44,22.081c-1.041-2.111-2.126-4.104-3.265-5.941c-0.938-1.512-2.509-2.516-4.274-2.734
	c-0.263-0.033-2.689-0.317-6.878-0.317c-14.229,0-51.439,3.42-89.541,35.101c-2.105,1.75-2.721,4.72-1.49,7.164
	c1.232,2.445,3.992,3.714,6.648,3.062c0.14-0.034,15.428-3.157,30.829-3.424c-18.939,5.482-44.036,13.672-59.289,22.34
	c-33.567,19.079-38.988,84.088-37.624,135.265c0.085,3.183,2.689,5.721,5.875,5.721h479.339c3.185,0,5.79-2.536,5.874-5.721
	C502.909,455.103,497.49,390.094,463.918,371.015z M44.887,500.246H22.085c-0.884-57.063,8.269-97.685,25.491-114.221
	C44.203,406.138,39.653,446.64,44.887,500.246z M369.798,144.352h-12.529v-9.984h11.267
	C369.038,137.66,369.456,140.989,369.798,144.352z M251.008,11.907c1.655-0.094,3.318-0.153,4.991-0.153
	c1.674,0,3.337,0.059,4.993,0.154v12.13h-9.984V11.907z M143.465,134.368h11.265v9.984h-12.527
	C142.544,140.989,142.96,137.66,143.465,134.368z M141.15,165.061c0-3.007,0.073-5.991,0.201-8.955h19.255
	c3.246,0,5.877-2.632,5.877-5.877v-21.737c0-3.245-2.63-5.877-5.877-5.877h-14.974c12.321-56.998,48.805-100.45,93.622-109.227
	v16.526c0,3.245,2.63,5.877,5.877,5.877h21.737c3.246,0,5.877-2.632,5.877-5.877V13.387c44.817,8.778,81.303,52.229,93.623,109.226
	h-14.977c-3.246,0-5.877,2.632-5.877,5.877v21.737c0,3.245,2.63,5.877,5.877,5.877h19.257c0.128,2.964,0.201,5.949,0.201,8.955
	c0,82.899-49.375,145.412-114.851,145.412C190.524,310.473,141.15,247.959,141.15,165.061z M193.428,302.704
	c18.701,12.74,40.101,19.522,62.57,19.522c22.624,0,44.163-6.871,62.956-19.779c1.385,13.701,8.11,20.937,13.044,24.451
	c-0.323,0.903-0.641,1.818-0.952,2.749c-8.169,9.958-36.867,20.346-75.071,20.346c-37.846,0-66.487-10.229-74.935-20.085
	c-0.326-0.979-0.658-1.943-0.996-2.891C185.12,323.572,192.02,316.418,193.428,302.704z M185.507,500.246H56.693
	c-6.502-65.221,2.085-111.563,4.492-122.752c27.162-12.75,73.837-24.081,74.352-24.206c2.457-0.592,4.261-2.689,4.477-5.208
	c0.217-2.519-1.2-4.894-3.519-5.898c-8.065-3.494-18.21-5.266-30.149-5.266c-2.779,0-5.5,0.095-8.109,0.256
	c30.368-18.152,56.843-18.921,65.344-18.6C186.483,360.214,185.966,473.518,185.507,500.246z M195.541,420.925l53.774,20.788
	l-4.545,21.823l-48.912-37.445C195.758,424.376,195.653,422.655,195.541,420.925z M314.726,500.246h-117.45
	c0.2-10.367,0.407-32.604-0.658-58.772l48.428,37.075c1.04,0.797,2.299,1.211,3.573,1.211c0.689,0,1.382-0.121,2.048-0.368
	c1.892-0.704,3.292-2.332,3.704-4.31l7.286-34.98l30.664-55.358l27.22,1.922C314.04,433.029,314.395,483.021,314.726,500.246z
	 M321.068,374.989l-31.66-2.234c-2.288-0.163-4.448,1.016-5.555,3.015l-30.428,54.931l-58.843-22.747
	c-1.715-20.744-4.415-41.86-8.611-60.155c16.573,8.564,42.351,13.948,70.002,13.948c27.739,0,53.531-5.406,70.07-14.01
	C324.076,356.31,322.431,365.499,321.068,374.989z M455.307,500.246H326.495c-0.462-26.726-0.985-140.02,21.928-181.674
	c8.506-0.32,34.977,0.449,65.342,18.6c-2.611-0.161-5.33-0.256-8.109-0.256c-11.939,0-22.083,1.771-30.149,5.266
	c-2.32,1.004-3.737,3.379-3.519,5.898c0.217,2.519,2.022,4.616,4.478,5.208c0.515,0.123,47.194,11.456,74.355,24.207
	C453.231,388.661,461.827,434.887,455.307,500.246z M489.916,500.246h-22.801c5.235-53.612,0.681-94.108-2.692-114.223
	C481.647,402.56,490.8,443.182,489.916,500.246z"/>
<g>
</g>
<g>
</g>
<g>
</g>
<g>
</g>
<g>
</g>
<g>
</g>
<g>
</g>
<g>
</g>
<g>
</g>
<g>
</g>
<g>
</g>
<g>
</g>
<g>
</g>
<g>
</g>
<g>
</g>
</svg>
