<?xml version="1.0" encoding="iso-8859-1"?>
<!-- Generator: Adobe Illustrator 19.0.0, SVG Export Plug-In . SVG Version: 6.00 Build 0)  -->
<svg xmlns="http://www.w3.org/2000/svg" xmlns:xlink="http://www.w3.org/1999/xlink" version="1.1" id="Capa_1" x="0px" y="0px" viewBox="0 0 512 512" style="enable-background:new 0 0 512 512;" xml:space="preserve">
<circle style="fill:#C70024;" cx="261.769" cy="326.176" r="178.322"/>
<path style="fill:#D1E7F8;" d="M367.666,293.686c-0.685-0.99-17.257-24.413-29.142-62.007  c-10.913-34.521-14.339-69.937-10.272-104.39c-3.393-3.838-4.839-9.261-3.375-14.566c1.163-4.214,3.941-7.55,7.478-9.523  c1.572-7.023,3.465-13.986,5.681-20.872c2.009-6.19,20.573-60.497,57.179-72.468c10.784-3.526,27.685-4.812,46.967,9.098  c21.053,15.188,26.879,38.316,15.584,61.87c-14.427,30.089-55.734,56.067-98.904,54.655c-7.698,79.902,33.827,139.29,34.322,139.983  c5.031,7.047,3.397,16.838-3.65,21.869C386.099,299.787,374.913,304.164,367.666,293.686z M367.873,91.967  c-1.323,4.113-2.496,8.193-3.531,12.239c29.881-0.769,56.953-19.833,65.153-36.936c5.938-12.382,0.289-19.016-5.658-22.884  C396.231,26.431,372.631,77.303,367.873,91.967z"/>
<g>
	<path style="fill:#B9D8F4;" d="M357.964,159.673c-0.162-7.816,0.1-15.89,0.9-24.191c-21.973-0.716-30.611-8.194-30.611-8.194   c-1.121,9.496-1.651,19.065-1.634,28.668C339.473,160.522,351.419,160.322,357.964,159.673z"/>
	<path style="fill:#B9D8F4;" d="M341.295,101.92c4.216,0.753,14.324,2.617,23.046,2.287c1.035-4.046,2.209-8.126,3.531-12.239   c0.796-2.454,2.123-5.925,3.905-9.915c-6.367-0.298-17.881-1.424-31.729-5.415c-1.042,2.765-1.713,4.766-2.013,5.69   c-2.216,6.886-4.108,13.849-5.681,20.872C332.357,103.201,337.079,101.167,341.295,101.92z"/>
</g>
<circle style="fill:#FF3F62;" cx="226.96" cy="326.176" r="178.322"/>
<path style="fill:#FF0C38;" d="M230.694,147.891c-18.497-0.388-36.395,2.057-53.281,6.934  c49.461,39.03,80.683,99.965,79.261,167.812c-1.495,71.325-38.714,133.505-94.209,169.84c18.88,7.324,39.337,11.535,60.756,11.983  c98.464,2.064,179.957-76.085,182.02-174.548C407.305,231.448,329.158,149.955,230.694,147.891z"/>
<path style="fill:#FFE477;" d="M223.878,473.112c-81.022-1.698-145.555-68.994-143.858-150.016  c1.698-81.021,68.994-145.556,150.016-143.858s145.556,68.994,143.858,150.017C372.197,410.276,304.9,474.81,223.878,473.112z"/>
<path style="fill:#FFDA44;" d="M230.036,179.238c-8.558-0.179-16.96,0.388-25.15,1.628c33.208,37.741,52.924,87.547,51.788,141.769  c-1.209,57.711-25.807,109.434-64.547,146.328c10.205,2.488,20.826,3.919,31.752,4.148c81.022,1.698,148.319-62.836,150.017-143.857  C375.592,248.233,311.059,180.936,230.036,179.238z"/>
<path style="fill:#91DC5A;" d="M224.535,441.764c-63.735-1.336-114.502-54.275-113.166-118.011  c1.336-63.736,54.275-114.502,118.011-113.167c63.735,1.336,114.502,54.276,113.167,118.012  C341.211,392.333,288.271,443.099,224.535,441.764z"/>
<path style="fill:#6DC82A;" d="M229.379,210.585c-0.898-0.019-1.793-0.024-2.686-0.022c19.784,32.635,30.84,71.092,29.981,112.072  c-0.932,44.458-15.749,85.361-40.213,118.672c2.667,0.241,5.358,0.399,8.075,0.456c63.735,1.336,116.676-49.43,118.012-113.166  S293.115,211.921,229.379,210.585z"/>
<path style="fill:#FFFFFF;" d="M225.192,410.417c-46.45-0.973-83.448-39.555-82.475-86.005c0.973-46.45,39.555-83.449,86.006-82.476  c46.45,0.973,83.449,39.556,82.475,86.006C310.225,374.391,271.642,411.39,225.192,410.417z"/>
<path style="fill:#D1E7F8;" d="M311.202,327.917c0.872-41.63-28.763-76.919-68.359-84.499c9.465,24.534,14.419,51.277,13.834,79.195  c-0.657,31.359-8.232,60.942-21.215,87.348C277.197,405.756,310.301,370.895,311.202,327.917z"/>
<path style="fill:#FF3F62;" d="M225.849,379.068c-29.165-0.611-52.396-24.836-51.785-54.001s24.836-52.396,54.002-51.785  c29.166,0.611,52.396,24.837,51.785,54.002C279.24,356.45,255.014,379.68,225.849,379.068z"/>
<path style="fill:#FF0C38;" d="M279.853,327.283c0.419-19.994-10.37-37.663-26.59-46.998c2.53,13.705,3.717,27.87,3.413,42.349  c-0.374,17.85-2.989,35.128-7.564,51.571C266.886,365.974,279.416,348.15,279.853,327.283z"/>
<circle style="fill:#806749;" cx="226.96" cy="326.176" r="15.677"/>
<path d="M308.233,397.395c-2.732,3.112-2.424,7.852,0.689,10.584s7.852,2.424,10.584-0.689  c19.087-21.744,29.934-49.636,30.539-78.534c0.688-32.829-11.186-64.28-34.267-87.754c-37.303-37.939-87.984-37.939-88.858-37.939  c-66.691,0-121.645,53.543-123.05,120.535c-1.422,67.87,52.638,124.244,120.508,125.666c0.872,0.019,1.74,0.027,2.609,0.027  c23.704,0,46.685-6.767,66.613-19.64c3.479-2.247,4.479-6.89,2.23-10.369c-2.247-3.48-6.892-4.477-10.369-2.23  c-18.135,11.716-39.144,17.65-60.769,17.216c-59.601-1.25-107.074-50.755-105.825-110.355  c1.233-58.834,49.487-105.85,108.057-105.85c0.765,0,46.417,2.212,78.028,33.322c20.608,20.282,30.701,48.235,30.098,77.059  C334.517,353.813,324.994,378.301,308.233,397.395z"/>
<path d="M210.916,309.447c-4.469,4.285-7.001,10.054-7.131,16.242c-0.13,6.189,2.159,12.059,6.444,16.527  c4.286,4.469,10.055,7.001,16.243,7.13c0.167,0.004,0.333,0.006,0.499,0.006c6.005,0,11.68-2.279,16.028-6.449  c4.469-4.284,7.001-10.054,7.131-16.242c0.268-12.776-9.91-23.39-22.687-23.657C221.255,302.847,215.385,305.162,210.916,309.447z   M235.133,326.346c-0.045,2.185-0.939,4.22-2.516,5.731c-1.576,1.512-3.649,2.314-5.832,2.273c-2.184-0.046-4.219-0.939-5.731-2.516  c-1.512-1.577-2.319-3.647-2.273-5.832c0.045-2.184,0.939-4.219,2.516-5.731c1.534-1.471,3.537-2.275,5.655-2.275  c0.059,0,0.118,0.001,0.176,0.002C231.637,318.094,235.228,321.839,235.133,326.346z"/>
<path d="M418.449,111.619c-3.521,2.182-4.606,6.805-2.425,10.325c2.182,3.521,6.808,4.606,10.325,2.425  c17.301-10.721,30.861-25.032,38.18-40.298c12.798-26.69,5.917-53.971-17.959-71.195C424.735-2.878,405.324-1.334,392.884,2.731  c-17.125,5.602-32.491,19.625-45.67,41.684c-9.916,16.596-15.326,32.565-16.316,35.615c-1.961,6.095-3.701,12.337-5.184,18.598  c-3.908,3.039-6.723,7.233-8.065,12.098c-1.772,6.419-0.709,13.17,2.822,18.669c-0.7,6.626-1.115,13.305-1.279,20.007  c-17.238-5.595-35.204-8.626-53.53-9.01c-6.729-0.139-20.137,0.884-20.137,0.884c-4.854-0.479-9.748-0.781-14.675-0.884  c-63.499-1.352-122.648,29.382-158.166,82.157c-2.313,3.437-1.402,8.097,2.035,10.409c3.436,2.314,8.097,1.401,10.41-2.034  c32.656-48.521,87.012-76.741,145.409-75.537c45.619,0.956,88.135,19.62,119.716,52.554c31.582,32.934,48.448,76.194,47.492,121.812  c-1.974,94.172-80.193,169.168-174.367,167.208c-45.619-0.956-88.134-19.62-119.716-52.554s-48.447-76.194-47.491-121.812  c0.463-22.094,5.069-43.504,13.689-63.634c1.63-3.808-0.134-8.216-3.942-9.847c-3.806-1.63-8.216,0.133-9.847,3.942  c-9.382,21.906-14.394,45.197-14.897,69.224c-1.04,49.624,17.307,96.684,51.662,132.508c34.354,35.825,80.604,56.128,130.227,57.168  c1.326,0.028,2.63,0.042,3.95,0.042c5.841,0,11.62-0.285,17.328-0.818c4.475,0.417,9.024,0.682,13.534,0.776  c1.326,0.028,2.63,0.042,3.95,0.042c100.661-0.01,183.606-80.816,185.725-181.93c1.326-63.279-29.011-121.946-81.261-157.531  c-0.889-10.054-1.088-20.024-0.499-29.556c10.695-0.336,21.454-2.194,32.079-5.548c3.95-1.247,6.142-5.46,4.895-9.41  c-1.247-3.95-5.462-6.144-9.41-4.895c-11.383,3.593-22.903,5.229-34.248,4.856h-0.001l0,0c-27.969-1.798-27.636-10.783-27-13.269  c1.551-6.062,8.241-5.349,8.241-5.349c4.11,0.735,68.877,10.789,95.909-38.856c7.038-12.924,3.403-24.781-8.331-32.413  c-8.027-5.22-16.8-6.374-25.375-3.341c-22.243,7.873-37.724,42.294-41.812,54.894c-0.002,0.006-0.004,0.013-0.007,0.02  c-0.741,2.307-1.438,4.634-2.102,6.965c-6.244-0.352-16.26-2.133-16.381-2.152c0.904-3.313,1.879-6.603,2.922-9.843  c6.813-20.993,25.51-58.867,52.376-67.653c9.131-2.988,23.526-4.014,40.248,8.051c18.134,13.083,22.948,32.236,13.209,52.547  C444.907,90.302,433.345,102.389,418.449,111.619z M387.062,69.212c6.807-10.831,14.084-18.044,20.494-20.312  c4.177-1.48,8.054-0.918,12.191,1.774c4.532,2.947,6.474,6.078,2.984,13.353c-7.615,15.881-29.022,27.786-48.119,31.49  C374.745,95.1,380.669,79.387,387.062,69.212z M334.879,174.855c-0.003-0.059-0.001-0.116-0.005-0.175  c-0.966-11.937-1.018-23.933-0.176-35.791c4.116,1.446,9.443,2.785,16.115,3.531c-0.942,15.665-0.175,31.494,2.304,47.33  C347.316,184.371,341.225,179.401,334.879,174.855z M432.556,329.755c-0.956,45.619-19.62,88.135-52.554,119.716  c-17.363,16.65-37.596,29.199-59.531,37.21c53.99-31.577,90.865-89.633,92.268-156.611c0.911-43.491-13.07-85.011-39.666-118.727  c-1.557-5.922-2.894-11.985-3.997-18.112C410.202,226.357,433.676,276.271,432.556,329.755z"/>
<g>
</g>
<g>
</g>
<g>
</g>
<g>
</g>
<g>
</g>
<g>
</g>
<g>
</g>
<g>
</g>
<g>
</g>
<g>
</g>
<g>
</g>
<g>
</g>
<g>
</g>
<g>
</g>
<g>
</g>
</svg>
