<?xml version="1.0" encoding="iso-8859-1"?>
<!-- Generator: Adobe Illustrator 19.0.0, SVG Export Plug-In . SVG Version: 6.00 Build 0)  -->
<svg version="1.1" id="Layer_1" xmlns="http://www.w3.org/2000/svg" xmlns:xlink="http://www.w3.org/1999/xlink" x="0px" y="0px"
	 viewBox="0 0 512 512" style="enable-background:new 0 0 512 512;" xml:space="preserve">
<path style="fill:#E6E6E6;" d="M207.644,357.637c0.748,2.854,6.716,19.914,42.475,21.617v-20.977c0-3.247,2.632-5.88,5.88-5.88
	c3.247,0,5.879,2.633,5.879,5.88v20.992c35.764-1.693,41.725-18.755,42.478-21.63v-51.4h-96.711L207.644,357.637L207.644,357.637z"
	/>
<g>
	<path style="fill:#C43333;" d="M326.287,143.411c-7.911,0-14.345,6.436-14.345,14.347c0,7.911,6.436,14.347,14.345,14.347
		c7.911,0,14.345-6.436,14.345-14.347C340.632,149.846,334.197,143.411,326.287,143.411z M330.45,161.912
		c-1.104,1.094-2.611,1.729-4.163,1.729c-1.551,0-3.068-0.635-4.163-1.729c-1.094-1.094-1.717-2.611-1.717-4.151
		c0-1.552,0.623-3.069,1.717-4.163c1.095-1.094,2.612-1.717,4.163-1.717c1.552,0,3.059,0.623,4.163,1.717
		c1.095,1.094,1.717,2.611,1.717,4.163C332.167,159.301,331.545,160.818,330.45,161.912z"/>
	<path style="fill:#C43333;" d="M200.171,157.762c0-7.985-6.472-14.457-14.457-14.457c-7.985,0-14.457,6.472-14.457,14.457
		c0,7.985,6.472,14.457,14.457,14.457C193.699,172.218,200.171,165.745,200.171,157.762z M181.551,161.912
		c-1.094-1.094-1.717-2.611-1.717-4.151c0-1.552,0.623-3.069,1.717-4.163c1.094-1.094,2.611-1.717,4.163-1.717
		c1.54,0,3.057,0.623,4.151,1.717c1.094,1.094,1.729,2.611,1.729,4.163c0,1.54-0.635,3.057-1.729,4.151
		c-1.094,1.094-2.611,1.729-4.151,1.729C184.162,163.64,182.645,163.005,181.551,161.912z"/>
	<path style="fill:#C43333;" d="M282.594,416.158l48.187,7.012v-39.09l-48.187,7.011c1.119,2.317,1.766,4.903,1.766,7.644v9.78
		C284.36,411.255,283.713,413.841,282.594,416.158z"/>
</g>
<path style="fill:#333333;" d="M123.617,157.904c-4.631-7.807-6.004-15.343-4.084-22.423c2.098-7.731,7.68-12.687,11.08-15.087
	c8.728-54.448,42.106-78.304,68.805-88.738c27.435-10.722,52.897-9.735,56.581-9.735c3.79,0.047,29.149-0.985,56.581,9.735
	c26.7,10.434,60.079,34.291,68.807,88.738c3.401,2.401,8.984,7.357,11.081,15.087c1.92,7.08,0.546,14.616-4.088,22.423
	c-0.054,4.197,0.196,17.322,4.677,32.567c0.436,1.484,0.957,3.146,1.525,4.952c2.641,8.424,6.217,19.881,7.197,31.739
	c1.954,1.893,4.947,5.194,7.561,9.774c4.347-18.792,8.316-47.555,1.647-75.649c-0.415-1.751-0.006-3.595,1.11-5.006
	c1.115-1.409,2.814-2.231,4.611-2.231c0.002,0,0.004,0,0.006,0c3.446,0.004,15.519,0.334,25.111,4.512
	c-3.11-19.293-13.114-55.243-40.844-86.206c-33.377-37.269-82.156-56.167-144.983-56.167c-62.831,0-111.612,18.9-144.989,56.175
	c-27.728,30.966-37.728,66.911-40.837,86.201c9.592-4.179,21.668-4.51,25.112-4.513c1.784-0.04,3.5,0.82,4.617,2.231
	c1.116,1.411,1.525,3.256,1.109,5.006c-6.666,28.09-2.698,56.856,1.649,75.648c2.612-4.578,5.603-7.878,7.558-9.771
	c0.98-11.861,4.557-23.314,7.197-31.734c0.567-1.809,1.089-3.473,1.525-4.959C123.421,175.232,123.671,162.11,123.617,157.904z"/>
<path style="fill:#C43333;" d="M375.289,220.354c-3.157-0.583-6.376,0.138-9.067,2.027c-3.012,2.117-5.017,5.393-5.647,9.226
	c-0.898,5.462,2.424,10.654,7.403,11.573c1.451,0.269,2.95-0.068,4.203-0.949c1.457-1.024,2.43-2.626,2.74-4.51
	c0.524-3.204,3.537-5.379,6.753-4.851c3.204,0.526,5.375,3.55,4.85,6.755c-0.824,5.027-3.516,9.369-7.579,12.226
	c-3.858,2.713-8.509,3.74-13.104,2.893c-11.231-2.073-18.799-13.308-16.87-25.044c1.147-6.976,4.872-12.991,10.488-16.94
	c5.295-3.722,11.675-5.132,17.964-3.971c3.612,0.667,6.95,2.018,9.924,3.892c-1.271-5.07-2.748-9.784-3.989-13.739
	c-0.59-1.88-1.132-3.61-1.586-5.155c-0.405-1.375-0.775-2.732-1.12-4.069c-9.016-0.937-17.997,1.411-25.6,6.756
	c-9.237,6.49-15.378,16.468-17.291,28.098c-2.932,17.85,8.239,34.876,24.902,37.953c5.719,1.057,11.541-0.215,16.429-3.562
	c2.835-2.18,5.122-4.711,6.836-7.591c1.96-3.295,3.156-6.963,3.784-10.828C390.499,230.881,384.311,222.02,375.289,220.354z"/>
<path style="fill:#E6E6E6;" d="M255.999,280.009L255.999,280.009c4.585,0,8.586-0.508,12.075-1.336c0,0-6.458-79.391-6.464-79.466
	c-0.27-3.467-2.517-6.297-5.608-6.297c-0.001,0-0.002,0-0.002,0c-3.092,0-5.394,2.7-5.607,6.297
	c-0.005,0.075-6.465,79.466-6.465,79.466C247.416,279.501,251.414,280.009,255.999,280.009
	C255.998,280.009,255.998,280.009,255.999,280.009z"/>
<path style="fill:#C43333;" d="M174.234,224.571c-1.911-11.625-8.049-21.603-17.284-28.093c-7.615-5.352-16.609-7.699-25.607-6.759
	c-0.345,1.338-0.715,2.695-1.12,4.07c-0.454,1.546-0.996,3.279-1.588,5.161c-1.244,3.968-2.716,8.679-3.985,13.733
	c2.974-1.874,6.311-3.224,9.923-3.892c6.291-1.161,12.673,0.249,17.97,3.974c5.616,3.949,9.341,9.965,10.486,16.938
	c1.927,11.735-5.64,22.969-16.869,25.043c-4.593,0.847-9.246-0.181-13.106-2.894c-4.063-2.856-6.755-7.198-7.579-12.225
	c-0.526-3.204,1.645-6.228,4.85-6.755c3.209-0.523,6.228,1.646,6.755,4.851c0.309,1.884,1.282,3.486,2.739,4.51
	c1.254,0.882,2.748,1.218,4.208,0.95c4.978-0.92,8.298-6.111,7.4-11.574c-0.629-3.831-2.633-7.106-5.645-9.224
	c-2.691-1.891-5.908-2.613-9.071-2.03c-9.036,1.669-15.227,10.557-14.418,20.236c1.279,7.781,4.681,13.754,10.398,18.235
	c4.93,3.458,10.836,4.774,16.643,3.7C165.996,259.448,177.167,242.422,174.234,224.571z"/>
<path style="fill:#E6E6E6;" d="M175.066,310.476c3.992,24.416,6.986,38.484,20.819,41.366v-46.077
	c-4.028-0.7-9.274-2.385-13.46-6.395c-4.236-4.057-6.476-9.733-6.476-16.415c0-3.247,2.633-5.88,5.88-5.88s5.88,2.633,5.88,5.88
	c0,3.495,0.933,6.087,2.849,7.922c3.903,3.737,10.885,3.605,10.952,3.608c0.044-0.002,0.085,0.008,0.128,0.007
	c0.044-0.001,0.083-0.013,0.127-0.013h108.471c0.038,0,0.074,0.011,0.112,0.012c0.04,0.001,0.078-0.008,0.119-0.007
	c1.944,0.061,7.744-0.473,11.015-3.641c1.893-1.834,2.814-4.413,2.814-7.887c0-3.247,2.632-5.88,5.88-5.88s5.88,2.633,5.88,5.88
	c0,6.683-2.239,12.359-6.476,16.415c-4.188,4.01-9.433,5.695-13.462,6.395v46.076c13.83-2.882,16.824-16.948,20.818-41.362
	c0.387-2.371,0.781-4.779,1.199-7.212c3.133-18.275,8.941-27.337,13.712-31.824c-17.97-7.732-29.12-27.855-25.683-48.781
	c2.43-14.773,10.291-27.49,22.134-35.811c8.928-6.273,19.32-9.373,29.886-9.063c-2.005-12.609-1.531-21.467-1.501-21.974
	c0.059-1.007,0.375-1.981,0.92-2.831c0.501-0.78,0.94-1.545,1.344-2.303c-5.849-2.611-22.898-8.541-31.954-8.78
	c3.38,4.398,5.402,9.891,5.402,15.854c0,14.395-11.711,26.106-26.105,26.106c-14.17,0-25.732-11.351-26.088-25.439
	c-1.229,1.396-2.426,2.847-3.553,4.415c-1.655,3.583-8.76,15.646-29.419,15.646c-3.248,0-5.88-2.633-5.88-5.88s2.632-5.88,5.88-5.88
	c15.07,0,18.615-8.481,18.759-8.843c0.182-0.601,0.345-0.828,0.707-1.341c14.733-20.88,37.346-29.833,65.384-25.892
	c11.918,1.676,22.332,5.332,29.098,8.171c-0.014-0.058-0.019-0.118-0.033-0.175c-1.617-6.138-7.807-9.465-7.868-9.498
	c-1.668-0.878-2.852-2.525-3.117-4.39c-5.792-40.59-26.478-68.179-61.48-82c-26.609-10.506-52.524-9.671-52.664-9.671
	c-0.148,0-26.081-0.834-52.687,9.671c-35.003,13.822-55.687,41.41-61.479,82c-0.27,1.896-1.446,3.542-3.154,4.41
	c-0.025,0.014-6.215,3.341-7.832,9.48c-0.015,0.056-0.019,0.118-0.033,0.174c6.768-2.841,17.184-6.496,29.096-8.17
	c28.043-3.939,50.65,5.012,65.382,25.892c0.362,0.513,0.564,0.85,0.747,1.451c0.105,0.25,3.648,8.733,18.722,8.733
	c3.247,0,5.88,2.633,5.88,5.88s-2.633,5.88-5.88,5.88c-20.661,0-27.767-12.062-29.42-15.645c-1.144-1.588-2.328-3.066-3.55-4.443
	c-0.342,14.1-11.91,25.468-26.092,25.468c-14.395,0-26.105-11.711-26.105-26.106c0-5.623,2.113-11.451,5.168-15.754
	c-13.483,1.339-25.426,5.886-31.718,8.683c0.405,0.756,0.843,1.52,1.343,2.3c0.544,0.849,0.861,1.823,0.92,2.829
	c0.029,0.507,0.504,9.361-1.498,21.961c10.555-0.309,20.959,2.801,29.891,9.079c11.841,8.322,19.7,21.039,22.127,35.808
	c3.437,20.926-7.713,41.05-25.684,48.782c4.771,4.486,10.579,13.548,13.714,31.824C174.285,305.701,174.678,308.108,175.066,310.476
	z M304.476,107.959c3.093-0.993,6.403,0.704,7.399,3.796c0.995,3.09-0.706,6.403-3.795,7.399
	c-9.022,2.919-34.756,14.312-34.756,27.95c0,3.247-2.632,5.88-5.88,5.88s-5.88-2.633-5.88-5.88
	C261.564,122.48,300.085,109.373,304.476,107.959z M244.559,152.983c-3.248,0-5.88-2.633-5.88-5.88
	c0-13.639-25.743-25.035-34.76-27.951c-3.088-0.998-4.785-4.311-3.789-7.4c0.997-3.088,4.302-4.786,7.396-3.792
	c4.392,1.413,42.913,14.522,42.913,39.144C250.438,150.35,247.805,152.983,244.559,152.983z M211.633,247.74
	c0-3.247,2.633-5.88,5.88-5.88s5.88,2.633,5.88,5.88v17.543c1.094,1.739,3.863,5.466,9.116,8.736l6.144-75.289
	c0.001-0.004,0.002-0.007,0.002-0.011c0.253-9.729,7.926-17.568,17.343-17.568c0,0,0,0,0.001,0c0,0,0,0,0.001,0
	c9.418,0,17.091,7.839,17.344,17.568c0.001,0.004,0.002,0.007,0.002,0.011l6.144,75.285c5.229-3.259,8.001-6.975,9.114-8.74V247.74
	c0-3.247,2.632-5.88,5.88-5.88c3.248,0,5.88,2.633,5.88,5.88v19.075c0,0.865-0.191,1.719-0.559,2.502
	c-0.432,0.917-10.94,22.451-43.805,22.451c-0.001,0-0.002,0-0.002,0c-32.862,0-43.374-21.535-43.805-22.451
	c-0.368-0.783-0.56-1.638-0.56-2.504L211.633,247.74L211.633,247.74z"/>
<g>
	<path style="fill:#333333;" d="M468.744,421.355c-2.714-1.005-4.291-3.837-3.72-6.673c4.533-22.502-29.519-41.47-58.883-53.419
		c-9.285-3.778-18.698-7.091-27.468-9.91l21.486,25.393c1.214,1.435,1.669,3.364,1.223,5.191c-0.446,1.827-1.738,3.33-3.477,4.045
		l-30.917,12.706l30.585,38.539c1.67,2.105,1.7,5.074,0.075,7.214l-39.06,51.369h98.823l3.755-61.774
		c0.199-3.242,2.994-5.712,6.227-5.513c3.241,0.198,5.708,2.985,5.513,6.225l-3.711,61.06h30.966
		C498.421,433.099,469.05,421.47,468.744,421.355z"/>
	<path style="fill:#333333;" d="M175.34,435.847c-1.403,0-2.772-0.502-3.847-1.432c-1.291-1.117-2.033-2.74-2.033-4.447v-52.685
		c0-1.707,0.742-3.329,2.033-4.447c1.291-1.117,3.003-1.619,4.693-1.371l29.613,4.309c-4.539-4.304-7.018-8.657-8.357-11.831
		c-15.225-1.446-22.927-10.633-27.484-22.872c-4.744,1.096-10.124,2.441-15.929,4.024l-27.992,33.083l30.676,12.606
		c1.71,0.702,2.988,2.167,3.455,3.955c0.466,1.787,0.065,3.691-1.084,5.139l-32.607,41.084l41.709,54.85h51.686l-12.827-64.515
		C207.042,431.295,175.621,435.847,175.34,435.847z"/>
</g>
<path style="fill:#E6E6E6;" d="M268.757,426.026c-0.669,0.078-1.346,0.127-2.037,0.127h-4.84v69.655h18.261l13.161-66.211
	L268.757,426.026z"/>
<path style="fill:#333333;" d="M352.916,399.876c-1.148-1.448-1.549-3.35-1.083-5.139c0.466-1.789,1.745-3.253,3.455-3.955
	l30.676-12.606l-27.878-32.947c-6.769-1.859-12.335-3.241-16.058-4.128c-4.558,12.222-12.26,21.394-27.47,22.84
	c-1.339,3.173-3.818,7.527-8.357,11.831l29.614-4.309c1.693-0.248,3.402,0.254,4.693,1.371c1.291,1.117,2.032,2.74,2.032,4.447
	v52.685c0,1.707-0.742,3.33-2.032,4.447c-1.076,0.93-2.444,1.432-3.848,1.432c-0.281,0-31.702-4.552-31.702-4.552l-12.825,64.515
	h51.683l41.707-54.85L352.916,399.876z"/>
<path style="fill:#E6E6E6;" d="M243.245,426.026l-24.549,3.573l13.165,66.211h18.261v-69.655h-4.839
	C244.59,426.155,243.913,426.104,243.245,426.026z"/>
<path style="fill:#333333;" d="M114.425,437.227l30.588-38.539l-30.918-12.706c-1.739-0.714-3.032-2.218-3.477-4.045
	c-0.446-1.826,0.009-3.756,1.223-5.191l21.609-25.538c-42.277,13.621-91.917,36.446-86.471,63.473
	c0.572,2.838-1.007,5.669-3.721,6.675c-0.247,0.099-29.654,12.502-31.417,74.453h30.965l-3.71-61.06
	c-0.196-3.241,2.271-6.028,5.513-6.225c3.236-0.198,6.029,2.271,6.225,5.513l3.754,61.774h98.824L114.35,444.44
	C112.723,442.303,112.755,439.332,114.425,437.227z"/>
<g>
	<path style="fill:#C43333;" d="M229.409,391.09l-48.189-7.011v39.09l48.189-7.012c-1.121-2.317-1.766-4.903-1.766-7.642v-9.78
		C227.643,395.994,228.288,393.407,229.409,391.09z"/>
	<path style="fill:#C43333;" d="M245.282,392.854c-3.243,0-5.88,2.638-5.88,5.88v9.78c0,3.242,2.636,5.88,5.88,5.88h21.438
		c3.242,0,5.88-2.638,5.88-5.88v-9.78c0-3.242-2.638-5.88-5.88-5.88H245.282z"/>
</g>
<path d="M326.287,151.881c-1.551,0-3.068,0.623-4.163,1.717c-1.094,1.094-1.717,2.611-1.717,4.163c0,1.54,0.623,3.057,1.717,4.151
	c1.095,1.094,2.612,1.729,4.163,1.729c1.552,0,3.059-0.635,4.163-1.729c1.095-1.094,1.717-2.611,1.717-4.151
	c0-1.552-0.622-3.069-1.717-4.163C329.345,152.504,327.839,151.881,326.287,151.881z"/>
<path d="M191.594,157.761c0-1.552-0.635-3.069-1.729-4.163c-1.094-1.094-2.611-1.717-4.151-1.717c-1.552,0-3.069,0.623-4.163,1.717
	c-1.094,1.094-1.717,2.611-1.717,4.163c0,1.54,0.623,3.057,1.717,4.151c1.094,1.094,2.611,1.729,4.163,1.729
	c1.54,0,3.057-0.635,4.151-1.729C190.959,160.818,191.594,159.301,191.594,157.761z"/>
<path d="M207.526,107.959c-3.093-0.994-6.397,0.704-7.396,3.792c-0.996,3.088,0.701,6.402,3.789,7.4
	c9.018,2.916,34.76,14.312,34.76,27.951c0,3.247,2.632,5.88,5.88,5.88c3.247,0,5.88-2.633,5.88-5.88
	C250.438,122.48,211.918,109.373,207.526,107.959z"/>
<path d="M267.444,152.983c3.248,0,5.88-2.633,5.88-5.88c0-13.636,25.734-25.031,34.756-27.95c3.09-0.995,4.79-4.308,3.795-7.399
	c-0.996-3.092-4.306-4.788-7.399-3.796c-4.391,1.413-42.912,14.522-42.912,39.144C261.564,150.35,264.196,152.983,267.444,152.983z"
	/>
<path d="M255.998,291.768c0,0,0.001,0,0.002,0c32.865,0,43.374-21.535,43.805-22.451c0.368-0.783,0.559-1.638,0.559-2.502V247.74
	c0-3.247-2.632-5.88-5.88-5.88s-5.88,2.633-5.88,5.88v17.536c-1.112,1.765-3.884,5.482-9.114,8.74l-6.144-75.285
	c0-0.004-0.001-0.007-0.002-0.011c-0.253-9.729-7.926-17.568-17.344-17.568c-0.001,0-0.001,0-0.001,0c-0.001,0-0.001,0-0.001,0
	c-9.417,0-17.09,7.839-17.343,17.568c0,0.004-0.001,0.007-0.002,0.011l-6.144,75.289c-5.253-3.27-8.022-6.997-9.116-8.736V247.74
	c0-3.247-2.633-5.88-5.88-5.88s-5.88,2.633-5.88,5.88v19.075c0,0.865,0.192,1.72,0.56,2.504
	C212.625,270.234,223.136,291.768,255.998,291.768z M250.392,199.207c0.213-3.598,2.515-6.297,5.607-6.297c0,0,0.001,0,0.002,0
	c3.093,0,5.338,2.831,5.608,6.297c0.006,0.075,6.464,79.466,6.464,79.466c-3.489,0.828-7.488,1.336-12.073,1.336
	c-0.001,0-0.001,0-0.001,0c-0.001,0-0.001,0-0.001,0c-4.584,0-8.583-0.508-12.072-1.336
	C243.927,278.674,250.388,199.282,250.392,199.207z"/>
<path d="M477.151,412.538c1.495-22.672-20.867-43.568-66.576-62.168c-26.629-10.835-53.619-17.813-65.253-20.584
	c1.285-5.628,2.257-11.538,3.216-17.408c0.383-2.341,0.771-4.719,1.184-7.123c3.75-21.877,11.176-26.179,12.182-26.667
	c9.797-1.966,17.854-5.359,24.127-10.114c0.021-0.014,0.041-0.026,0.062-0.04c7.527-5.291,12.684-13.187,14.666-22.388
	c1.553,3.735,2.553,8.308,2.034,13.617c-0.285,2.92,1.628,5.605,4.48,6.289c0.459,0.109,0.918,0.162,1.374,0.162
	c2.372,0,4.573-1.442,5.472-3.735c0.796-2.03,18.457-47.927,9.906-96.1c8.579,1.024,17.626,3.691,18.615,7.722
	c1.154,4.705,5.053,5.366,6.951,5.058c5.919-0.957,5.422-7.136,4.984-12.589c-0.669-8.342-5.608-52.016-37.113-92.694
	c-15.992-20.647-36.213-36.968-60.103-48.508c-28.63-13.828-62.732-20.84-101.361-20.84c-38.624,0-72.723,7.01-101.35,20.837
	c-23.889,11.538-44.11,27.855-60.102,48.498c-31.51,40.675-36.452,84.353-37.122,92.697c-0.439,5.456-0.936,11.642,4.982,12.599
	c1.899,0.312,5.797-0.353,6.952-5.057c0.989-4.032,10.039-6.699,18.615-7.724c-8.55,48.173,9.111,94.07,9.906,96.1
	c0.9,2.293,3.101,3.735,5.472,3.735c0.454,0,0.915-0.053,1.374-0.162c2.854-0.684,4.766-3.368,4.482-6.289
	c-0.517-5.311,0.481-9.885,2.036-13.62c1.939,9.005,6.926,16.757,14.197,22.043c0.054,0.044,0.106,0.088,0.161,0.132
	c6.294,4.881,14.531,8.369,24.491,10.368c1.007,0.488,8.432,4.791,12.183,26.667c0.412,2.401,0.801,4.778,1.183,7.118
	c0.96,5.87,1.932,11.784,3.217,17.413c-11.637,2.771-38.624,9.747-65.251,20.584c-45.708,18.6-68.07,39.495-66.575,62.167
	C24.624,418.777,0,440.188,0,501.689c0,3.247,2.633,5.88,5.88,5.88H506.12c3.248,0,5.88-2.633,5.88-5.88
	C512,440.188,487.377,418.778,477.151,412.538z M389.714,240.544c-0.628,3.865-1.824,7.533-3.784,10.828
	c-1.713,2.88-4.001,5.411-6.836,7.591c-4.887,3.348-10.709,4.619-16.429,3.562c-16.663-3.076-27.834-20.103-24.902-37.953
	c1.913-11.629,8.054-21.607,17.291-28.098c7.604-5.344,16.584-7.693,25.6-6.756c0.345,1.337,0.715,2.694,1.12,4.069
	c0.454,1.545,0.996,3.275,1.586,5.155c1.241,3.955,2.718,8.668,3.989,13.739c-2.974-1.874-6.311-3.224-9.924-3.892
	c-6.29-1.161-12.668,0.249-17.964,3.971c-5.616,3.948-9.342,9.964-10.488,16.94c-1.93,11.736,5.639,22.971,16.87,25.044
	c4.593,0.847,9.244-0.181,13.104-2.893c4.063-2.858,6.755-7.199,7.579-12.226c0.526-3.204-1.645-6.228-4.85-6.755
	c-3.216-0.529-6.229,1.646-6.754,4.851c-0.31,1.884-1.283,3.486-2.74,4.51c-1.254,0.881-2.752,1.218-4.203,0.949
	c-4.979-0.92-8.301-6.11-7.403-11.573c0.63-3.832,2.635-7.109,5.647-9.226c2.691-1.89,5.908-2.611,9.067-2.027
	C384.311,222.02,390.499,230.881,389.714,240.544z M118.94,190.473c-0.436,1.486-0.958,3.149-1.525,4.959
	c-2.64,8.42-6.217,19.874-7.197,31.734c-1.954,1.893-4.946,5.193-7.558,9.771c-4.347-18.792-8.316-47.557-1.649-75.648
	c0.416-1.751,0.007-3.595-1.109-5.006c-1.117-1.411-2.833-2.272-4.617-2.231c-3.446,0.004-15.52,0.334-25.112,4.513
	c3.109-19.289,13.108-55.234,40.836-86.201c33.377-37.274,82.158-56.175,144.989-56.175c62.826,0,111.606,18.898,144.983,56.167
	c27.73,30.964,37.734,66.914,40.844,86.206c-9.592-4.178-21.667-4.509-25.111-4.512c-0.002,0-0.004,0-0.006,0
	c-1.797,0-3.496,0.822-4.611,2.231c-1.116,1.411-1.525,3.256-1.11,5.006c6.669,28.093,2.7,56.857-1.648,75.649
	c-2.614-4.58-5.607-7.881-7.561-9.774c-0.98-11.858-4.556-23.314-7.197-31.739c-0.567-1.807-1.089-3.468-1.525-4.952
	c-4.48-15.245-4.73-28.37-4.677-32.567c4.632-7.807,6.007-15.344,4.088-22.423c-2.097-7.731-7.68-12.687-11.081-15.087
	c-8.728-54.448-42.106-78.304-68.806-88.738c-27.431-10.72-52.792-9.689-56.581-9.735c-3.684,0-29.146-0.988-56.581,9.735
	c-26.7,10.434-60.077,34.291-68.805,88.738c-3.4,2.401-8.983,7.357-11.08,15.087c-1.92,7.08-0.546,14.616,4.084,22.423
	C123.671,162.11,123.421,175.232,118.94,190.473z M149.333,262.526c-5.807,1.075-11.714-0.242-16.643-3.7
	c-5.715-4.482-9.117-10.454-10.398-18.235c-0.809-9.679,5.382-18.567,14.418-20.236c3.163-0.584,6.381,0.138,9.071,2.03
	c3.01,2.117,5.015,5.392,5.645,9.224c0.897,5.462-2.422,10.654-7.4,11.574c-1.459,0.268-2.953-0.068-4.208-0.95
	c-1.457-1.024-2.43-2.626-2.739-4.51c-0.526-3.203-3.545-5.374-6.755-4.851c-3.204,0.526-5.376,3.55-4.85,6.755
	c0.826,5.027,3.516,9.369,7.579,12.225c3.859,2.714,8.513,3.742,13.106,2.894c11.229-2.074,18.796-13.308,16.869-25.043
	c-1.145-6.975-4.868-12.99-10.486-16.938c-5.296-3.724-11.678-5.134-17.97-3.974c-3.613,0.667-6.95,2.018-9.923,3.892
	c1.269-5.054,2.741-9.765,3.985-13.733c0.59-1.883,1.132-3.615,1.588-5.161c0.405-1.376,0.775-2.733,1.12-4.07
	c8.998-0.94,17.992,1.408,25.607,6.759c9.236,6.491,15.374,16.468,17.284,28.093C177.167,242.422,165.996,259.448,149.333,262.526z
	 M160.155,271.445c17.971-7.732,29.121-27.856,25.684-48.782c-2.427-14.77-10.286-27.487-22.127-35.808
	c-8.934-6.278-19.336-9.389-29.891-9.079c2.003-12.6,1.528-21.454,1.498-21.961c-0.059-1.007-0.375-1.981-0.92-2.829
	c-0.5-0.78-0.937-1.544-1.343-2.3c6.291-2.798,18.233-7.345,31.718-8.683c-3.055,4.303-5.168,10.132-5.168,15.754
	c0,14.395,11.711,26.106,26.105,26.106c14.181,0,25.75-11.368,26.092-25.468c1.221,1.377,2.406,2.856,3.55,4.443
	c1.655,3.583,8.758,15.645,29.42,15.645c3.247,0,5.88-2.633,5.88-5.88s-2.633-5.88-5.88-5.88c-15.073,0-18.618-8.481-18.722-8.733
	c-0.182-0.601-0.385-0.938-0.747-1.451c-14.731-20.88-37.338-29.831-65.382-25.892c-11.912,1.675-22.329,5.331-29.096,8.17
	c0.014-0.058,0.019-0.118,0.033-0.174c1.617-6.138,7.807-9.466,7.832-9.48c1.707-0.868,2.883-2.514,3.154-4.41
	c5.792-40.59,26.475-68.178,61.479-82c26.606-10.506,52.539-9.671,52.687-9.671c0.14,0,26.054-0.835,52.664,9.671
	c35.003,13.822,55.688,41.411,61.48,82c0.267,1.865,1.45,3.511,3.117,4.39c0.062,0.033,6.251,3.36,7.868,9.498
	c0.015,0.058,0.02,0.118,0.033,0.175c-6.765-2.84-17.179-6.495-29.098-8.17c-28.038-3.941-50.649,5.012-65.384,25.892
	c-0.362,0.513-0.523,0.74-0.707,1.341c-0.143,0.361-3.689,8.843-18.759,8.843c-3.248,0-5.88,2.633-5.88,5.88s2.632,5.88,5.88,5.88
	c20.658,0,27.763-12.063,29.419-15.646c1.128-1.568,2.325-3.019,3.553-4.415c0.356,14.088,11.918,25.439,26.088,25.439
	c14.394,0,26.105-11.711,26.105-26.106c0-5.964-2.023-11.456-5.402-15.854c9.056,0.24,26.105,6.169,31.954,8.78
	c-0.406,0.757-0.844,1.523-1.344,2.303c-0.544,0.849-0.861,1.824-0.92,2.831c-0.029,0.507-0.504,9.365,1.501,21.974
	c-10.566-0.31-20.958,2.791-29.886,9.063c-11.843,8.321-19.704,21.039-22.134,35.811c-3.437,20.926,7.713,41.049,25.683,48.781
	c-4.772,4.486-10.579,13.549-13.712,31.824c-0.417,2.433-0.811,4.841-1.199,7.212c-3.994,24.414-6.987,38.479-20.818,41.362v-46.076
	c4.029-0.7,9.276-2.385,13.462-6.395c4.237-4.057,6.476-9.733,6.476-16.415c0-3.247-2.632-5.88-5.88-5.88s-5.88,2.633-5.88,5.88
	c0,3.474-0.92,6.054-2.814,7.887c-3.272,3.168-9.071,3.702-11.015,3.641c-0.04-0.002-0.078,0.008-0.119,0.007
	c-0.038-0.001-0.074-0.012-0.112-0.012H201.761c-0.044,0-0.083,0.012-0.127,0.013c-0.044,0.001-0.085-0.009-0.128-0.007
	c-0.067-0.002-7.049,0.129-10.952-3.608c-1.918-1.836-2.849-4.427-2.849-7.922c0-3.247-2.633-5.88-5.88-5.88s-5.88,2.633-5.88,5.88
	c0,6.683,2.239,12.359,6.476,16.415c4.186,4.009,9.432,5.694,13.46,6.395v46.077c-13.833-2.882-16.827-16.95-20.819-41.366
	c-0.388-2.368-0.781-4.776-1.198-7.207C170.734,284.995,164.926,275.933,160.155,271.445z M171.258,157.762
	c0-7.985,6.472-14.457,14.457-14.457c7.985,0,14.457,6.472,14.457,14.457c0,7.985-6.472,14.457-14.457,14.457
	C177.731,172.218,171.258,165.745,171.258,157.762z M340.632,157.757c0,7.911-6.436,14.347-14.345,14.347
	c-7.911,0-14.345-6.436-14.345-14.347s6.436-14.347,14.345-14.347S340.632,149.846,340.632,157.757z M282.594,391.09l48.187-7.011
	v39.09l-48.187-7.012c1.119-2.317,1.766-4.903,1.766-7.642v-9.78C284.36,395.994,283.713,393.407,282.594,391.09z M304.354,357.639
	c-0.753,2.874-6.714,19.936-42.478,21.63v-20.992c0-3.247-2.632-5.88-5.879-5.88c-3.248,0-5.88,2.633-5.88,5.88v20.977
	c-35.759-1.704-41.726-18.763-42.475-21.617V306.24h96.711V357.639z M272.6,398.734v9.78c0,3.242-2.638,5.88-5.88,5.88h-21.438
	c-3.243,0-5.88-2.638-5.88-5.88v-9.78c0-3.242,2.636-5.88,5.88-5.88h21.438C269.961,392.854,272.6,395.492,272.6,398.734z
	 M229.409,416.158l-48.189,7.012v-39.09l48.189,7.011c-1.121,2.317-1.766,4.903-1.766,7.644v9.78
	C227.643,411.255,228.288,413.841,229.409,416.158z M54.588,495.81l-3.754-61.774c-0.196-3.241-2.989-5.709-6.225-5.513
	c-3.241,0.198-5.709,2.985-5.513,6.225l3.71,61.06H11.842c1.763-61.952,31.17-74.354,31.417-74.453
	c2.714-1.005,4.292-3.837,3.721-6.675c-5.446-27.027,44.196-49.852,86.471-63.473l-21.609,25.538
	c-1.215,1.435-1.669,3.364-1.223,5.191c0.446,1.827,1.738,3.33,3.477,4.045l30.918,12.706l-30.588,38.539
	c-1.67,2.105-1.702,5.075-0.074,7.214l39.062,51.369H54.588V495.81z M168.184,495.81l-41.709-54.85l32.607-41.084
	c1.149-1.448,1.55-3.35,1.084-5.139c-0.466-1.789-1.745-3.253-3.455-3.955l-30.676-12.606l27.992-33.083
	c5.806-1.583,11.186-2.928,15.929-4.024c4.557,12.239,12.259,21.426,27.484,22.872c1.339,3.173,3.818,7.527,8.357,11.831
	l-29.613-4.309c-1.69-0.248-3.402,0.254-4.693,1.371c-1.291,1.117-2.033,2.74-2.033,4.447v52.685c0,1.707,0.742,3.33,2.033,4.447
	c1.075,0.93,2.444,1.432,3.847,1.432c0.281,0,31.704-4.552,31.704-4.552l12.827,64.515H168.184z M250.121,495.81H231.86
	l-13.165-66.211l24.549-3.573c0.668,0.078,1.346,0.127,2.037,0.127h4.839v69.656H250.121z M261.879,495.81v-69.655h4.84
	c0.69,0,1.368-0.049,2.037-0.127l24.546,3.573l-13.161,66.211h-18.261V495.81z M292.132,495.81l12.825-64.515
	c0,0,31.421,4.552,31.702,4.552c1.403,0,2.772-0.502,3.848-1.432c1.291-1.117,2.032-2.74,2.032-4.447v-52.685
	c0-1.707-0.742-3.329-2.032-4.447c-1.292-1.117-3-1.619-4.693-1.371l-29.614,4.309c4.539-4.304,7.019-8.659,8.357-11.831
	c15.211-1.446,22.912-10.618,27.47-22.84c3.723,0.887,9.289,2.268,16.058,4.128l27.878,32.947l-30.676,12.606
	c-1.709,0.702-2.989,2.167-3.455,3.955c-0.466,1.787-0.066,3.691,1.083,5.139l32.606,41.084l-41.707,54.85h-51.682V495.81z
	 M469.193,495.81l3.711-61.06c0.196-3.241-2.272-6.028-5.513-6.225c-3.233-0.2-6.028,2.271-6.227,5.513l-3.755,61.774h-98.823
	l39.06-51.369c1.626-2.139,1.595-5.109-0.075-7.214l-30.585-38.539l30.917-12.706c1.739-0.714,3.032-2.218,3.477-4.045
	c0.446-1.826-0.009-3.756-1.223-5.191l-21.486-25.393c8.77,2.82,18.183,6.131,27.468,9.91c29.366,11.95,63.418,30.917,58.883,53.419
	c-0.572,2.838,1.005,5.668,3.72,6.673c0.306,0.114,29.676,11.743,31.415,74.454h-30.965V495.81z"/>
<g>
</g>
<g>
</g>
<g>
</g>
<g>
</g>
<g>
</g>
<g>
</g>
<g>
</g>
<g>
</g>
<g>
</g>
<g>
</g>
<g>
</g>
<g>
</g>
<g>
</g>
<g>
</g>
<g>
</g>
</svg>
