<?xml version="1.0" encoding="iso-8859-1"?>
<!-- Generator: Adobe Illustrator 19.0.0, SVG Export Plug-In . SVG Version: 6.00 Build 0)  -->
<svg xmlns="http://www.w3.org/2000/svg" xmlns:xlink="http://www.w3.org/1999/xlink" version="1.1" id="Capa_1" x="0px" y="0px" viewBox="0 0 512 512" style="enable-background:new 0 0 512 512;" xml:space="preserve">
<ellipse style="fill:#FFDA44;" cx="236.45" cy="288.28" rx="148.54" ry="216.22"/>
<g>
	<path style="fill:#FFCD00;" d="M362.996,175.02c-22.632-53.462-60.802-91.49-105.35-100.756v50.443   C257.646,124.707,280.772,193.847,362.996,175.02z"/>
	<path style="fill:#FFCD00;" d="M192.397,274.23c0-85.464,34.068-159.337,83.512-194.44c-12.567-5.028-25.796-7.728-39.46-7.728   c-82.038,0-148.543,96.805-148.543,216.219S154.411,504.5,236.449,504.5c23.324,0,45.389-7.833,65.031-21.778   C238.597,457.561,192.397,373.756,192.397,274.23z"/>
	<circle style="fill:#FFCD00;" cx="301.48" cy="289.23" r="15"/>
	<circle style="fill:#FFCD00;" cx="271.07" cy="347.71" r="15"/>
	<circle style="fill:#FFCD00;" cx="330.64" cy="345.54" r="7.5"/>
	<circle style="fill:#FFCD00;" cx="256.07" cy="289.23" r="7.5"/>
</g>
<path style="fill:#57565C;" d="M236.45,117.698c-8.284,0-15-6.716-15-15V22.5c0-8.284,6.716-15,15-15s15,6.716,15,15v80.198  C251.45,110.982,244.734,117.698,236.45,117.698z"/>
<path style="fill:#6DC82A;" d="M346.39,139.732c47.851-31.213,68.412-77.818,77.156-109.171  c3.901-13.986-9.463-26.684-23.245-22.112c-71.308,23.654-103.62,6.761-129.104,25.681c-28.707,21.313-34.749,61.821-13.552,90.577  C278.21,152.605,317.362,158.667,346.39,139.732z"/>
<path style="fill:#5EAC24;" d="M346.39,139.732c47.851-31.213,68.412-77.817,77.156-109.171c2.242-8.04-1.226-15.646-7.193-19.799  c-15.448,15.521-42.535,37.674-78.958,47.86c-59.13,16.536-79.749,66.085-79.749,66.085  C278.211,152.604,317.362,158.667,346.39,139.732z"/>
<path d="M420.368,4.43c-6.538-4.417-14.791-5.634-22.427-3.1c-35.78,11.868-61.184,13.241-81.596,14.344  c-19.806,1.07-35.449,1.915-49.618,12.435c-2.79,2.071-5.375,4.316-7.777,6.694V22.5c0-12.406-10.093-22.5-22.5-22.5  s-22.5,10.094-22.5,22.5v44.371c-36.193,7.455-69.314,32.817-93.816,72.057c-25.618,41.028-39.727,94.07-39.727,149.354  c0,34.783,5.591,68.037,16.021,99.041c2.086,6.2,8.723,4.933,9.53,4.655c3.917-1.346,6.001-5.613,4.655-9.53  c-10.09-29.362-15.207-61.045-15.207-94.166c0-52.512,13.3-102.731,37.451-141.408c21.588-34.575,50.128-57.228,81.092-64.637  v20.462c0,12.406,10.093,22.5,22.5,22.5c3.804,0,7.501-0.984,10.769-2.766c1.328,2.295,12.333,34.057,62.486,35.763  c13.976,0.475,28.176-3.958,40.783-12.181v-0.001c49.146-32.059,72.543-78.941,80.283-113.438  C435.178,12.929,420.446,4.48,420.368,4.43z M236.45,110.198c-4.136,0-7.5-3.364-7.5-7.5V22.5c0-4.136,3.364-7.5,7.5-7.5  s7.5,3.364,7.5,7.5v33.948c-7.309,16.278-8.458,34.936-2.883,52.153C239.766,109.625,238.164,110.198,236.45,110.198z   M416.322,28.546c-8.806,31.571-28.797,75.398-74.03,104.905v-0.001c-24.797,16.175-57.215,11.722-75.815-9.728  c2.688-5.056,8.32-14.424,17.595-24.336c2.83-3.024,2.672-7.771-0.353-10.601c-3.024-2.83-7.771-2.674-10.601,0.353  c-6.963,7.441-12.105,14.598-15.697,20.312c-10.611-23.977-3.645-53.045,18.247-69.298c10.544-7.828,22.853-8.493,41.485-9.499  c19.471-1.052,45.886-2.483,81.565-13.808c-15.545,13.188-36.91,27.163-63.343,34.555c-12.512,3.499-24.333,8.684-35.133,15.411  c-3.516,2.19-4.591,6.815-2.401,10.332c1.422,2.281,5.202,5.447,10.332,2.4c9.715-5.77,20.102-10.583,31.242-13.698  c33.465-9.358,59.339-28.229,76.495-44.224C416.815,23.769,416.983,26.176,416.322,28.546z"/>
<path d="M354.312,156.409c-3.722,1.817-5.266,6.309-3.448,10.03c17.42,35.672,26.628,77.804,26.628,121.842  C377.493,403.369,314.221,497,236.45,497c-22.638,0-44.285-7.763-64.34-23.071c-19.502-14.887-36.668-36.646-49.643-62.926  c-1.833-3.714-6.331-5.241-10.045-3.404c-3.714,1.833-5.238,6.331-3.405,10.045c13.992,28.341,32.662,51.927,53.991,68.209  C185.418,502.958,210.813,512,236.45,512c42.223,0,81.72-23.646,111.218-66.582c28.906-42.076,44.825-97.882,44.825-157.137  c0-46.307-9.734-90.715-28.15-128.424C362.525,156.135,358.034,154.59,354.312,156.409z"/>
<g>
</g>
<g>
</g>
<g>
</g>
<g>
</g>
<g>
</g>
<g>
</g>
<g>
</g>
<g>
</g>
<g>
</g>
<g>
</g>
<g>
</g>
<g>
</g>
<g>
</g>
<g>
</g>
<g>
</g>
</svg>
