<?xml version="1.0" encoding="iso-8859-1"?>
<!-- Generator: Adobe Illustrator 19.0.0, SVG Export Plug-In . SVG Version: 6.00 Build 0)  -->
<svg xmlns="http://www.w3.org/2000/svg" xmlns:xlink="http://www.w3.org/1999/xlink" version="1.1" id="Capa_1" x="0px" y="0px" viewBox="0 0 511.997 511.997" style="enable-background:new 0 0 511.997 511.997;" xml:space="preserve">
<g>
	<path style="fill:#A6B236;" d="M376.351,140.563l-17.725,9.3l-8.102-22.378c-2.284-6.309-11.206-6.309-13.489,0l-8.102,22.377   l-17.726-9.3c-5.595-2.935-11.798,2.731-9.379,8.567l19.281,46.531h45.34l19.281-46.531   C388.149,143.293,381.946,137.628,376.351,140.563z"/>
	<path style="fill:#A6B236;" d="M200.755,140.563l-17.726,9.3l-8.102-22.378c-2.284-6.309-11.206-6.309-13.489,0l-8.102,22.378   l-17.725-9.3c-5.595-2.935-11.798,2.731-9.379,8.567l19.281,46.531h45.34l19.281-46.531   C212.551,143.293,206.349,137.628,200.755,140.563z"/>
</g>
<g>
	<path style="fill:#969B29;" d="M174.608,126.773c-2.678-5.579-10.978-5.356-13.171,0.703l-8.102,22.378l-17.725-9.3   c-5.595-2.935-11.798,2.73-9.379,8.567l19.281,46.531h25.867C161.192,162.997,167.468,140.211,174.608,126.773z"/>
	<path style="fill:#969B29;" d="M350.205,126.773c-2.678-5.579-10.978-5.356-13.171,0.703l-8.102,22.378l-17.726-9.3   c-5.595-2.935-11.798,2.73-9.379,8.567l19.281,46.531h25.867C336.789,162.997,343.065,140.211,350.205,126.773z"/>
</g>
<path style="fill:#CAE266;" d="M442.946,167.687c-28.405-12.518-59.704-10.698-86.593,2.31c-7.966,3.854-17.181,3.854-25.148,0  c-26.889-13.006-58.187-14.827-86.593-2.31c-53.502,23.578-76.451,89.034-51.259,146.201c16.555,37.566,49.779,62.201,85.798,67.99  c0,0,32.18,7.361,64.625,7.361s64.626-7.36,64.626-7.36c36.02-5.788,69.244-30.423,85.8-67.991  C519.397,256.722,496.447,191.265,442.946,167.687z"/>
<g>
	<path style="fill:#BCCE51;" d="M369.663,211.652c-5.011-14.293-11.853-27.484-20.281-39.329c-6.087,1.21-12.453,0.442-18.176-2.328   c-26.889-13.006-58.187-14.827-86.593-2.31c-53.502,23.578-76.451,89.034-51.259,146.201c16.555,37.566,49.779,62.201,85.798,67.99   c0,0,21.42,4.897,46.928,6.702c16.096-15.318,29.185-33.91,38.272-54.532C381.671,294.75,383.557,251.281,369.663,211.652z"/>
	<circle style="fill:#BCCE51;" cx="422.903" cy="273.895" r="7.499"/>
	<circle style="fill:#BCCE51;" cx="471.893" cy="256.768" r="7.499"/>
	<circle style="fill:#BCCE51;" cx="430.401" cy="232.273" r="7.499"/>
</g>
<path style="fill:#5F4D37;" d="M267.348,167.687c-28.405-12.518-59.704-10.698-86.593,2.31c-7.966,3.854-17.181,3.854-25.148,0  c-26.889-13.006-58.187-14.827-86.593-2.31c-53.502,23.578-76.451,89.034-51.259,146.201c16.555,37.566,49.779,62.201,85.798,67.99  c0,0,32.18,7.361,64.625,7.361s64.626-7.36,64.626-7.36c36.02-5.788,69.244-30.423,85.8-67.991  C343.799,256.722,320.851,191.265,267.348,167.687z"/>
<path style="fill:#554431;" d="M103.555,381.878c0,0,32.129,7.348,64.547,7.36c-72.084-141.014-1.538-216.395-1.536-216.397  c-3.752-0.211-7.475-1.16-10.958-2.844c-26.889-13.006-58.187-14.827-86.593-2.31c-53.502,23.578-76.451,89.034-51.259,146.201  C34.312,351.454,67.537,376.09,103.555,381.878z"/>
<path style="fill:#6A563D;" d="M255.23,195.083c-8.933-3.937-18.423-5.933-28.208-5.933c-11.195,0-22.685,2.695-33.227,7.795  c-7.956,3.849-16.821,5.884-25.634,5.884s-17.678-2.034-25.634-5.884c-10.543-5.1-22.033-7.795-33.227-7.795  c-9.785,0-19.275,1.996-28.208,5.933C42.808,211.954,26.7,259.8,45.183,301.743c11.798,26.771,46.504,57.451,122.977,57.451  s111.179-30.68,122.977-57.451C309.62,259.801,293.512,211.954,255.23,195.083z"/>
<path style="fill:#5F4D37;" d="M149.894,199.888c-2.518-0.821-4.987-1.79-7.368-2.941c-10.543-5.1-22.033-7.795-33.227-7.795  c-9.785,0-19.275,1.996-28.208,5.933c-38.282,16.871-54.39,64.717-35.907,106.66c11.06,25.097,42.254,53.629,109.118,57.1  C124.275,283.127,136.456,229.519,149.894,199.888z"/>
<g>
	<path style="fill:#AA6100;" d="M189.688,236.191c0,11.877-9.628,31.281-21.506,31.281c-11.877,0-21.506-19.403-21.506-31.281   c0-11.877,9.628-21.506,21.506-21.506C180.059,214.686,189.688,224.314,189.688,236.191z"/>
	<path style="fill:#AA6100;" d="M129.584,248.611c11.296,3.67,26.775,18.823,23.104,30.119   c-3.67,11.296-25.099,14.457-36.395,10.787c-11.296-3.67-17.478-15.803-13.807-27.099   C106.155,251.122,118.288,244.94,129.584,248.611z"/>
	<path style="fill:#AA6100;" d="M122.821,309.611c6.982-9.609,26.176-19.647,35.785-12.665s5.993,28.338-0.988,37.948   c-6.982,9.609-20.43,11.739-30.039,4.758S115.84,319.22,122.821,309.611z"/>
	<path style="fill:#AA6100;" d="M178.746,334.892c-6.982-9.609-10.597-30.966-0.988-37.948c9.609-6.982,28.803,3.057,35.785,12.665   c6.982,9.609,4.851,23.057-4.758,30.039C199.176,346.63,185.728,344.501,178.746,334.892z"/>
	<path style="fill:#AA6100;" d="M220.072,289.517c-11.296,3.67-32.725,0.509-36.395-10.787s11.809-26.449,23.104-30.119   c11.296-3.67,23.428,2.512,27.099,13.807C237.549,273.714,231.368,285.846,220.072,289.517z"/>
</g>
<g>
	<path style="fill:#9A4C00;" d="M116.482,262.418c2.168-6.673,7.29-11.559,13.446-13.685c-0.115-0.039-0.232-0.085-0.346-0.122   c-11.296-3.67-23.428,2.512-27.099,13.807c-3.67,11.296,2.512,23.428,13.807,27.099c4.775,1.552,11.359,1.877,17.648,0.889   c-1.298-0.229-2.526-0.523-3.65-0.889C118.994,285.846,112.812,273.714,116.482,262.418z"/>
	<path style="fill:#9A4C00;" d="M136.818,309.611c4.021-5.535,12.094-11.205,20.052-13.689   c-10.025-4.808-27.466,4.628-34.049,13.689c-6.982,9.609-4.851,23.057,4.758,30.039c5.89,4.279,13.217,5.12,19.619,2.929   c-1.961-0.678-3.856-1.647-5.622-2.929C131.967,332.668,129.838,319.22,136.818,309.611z"/>
	<path style="fill:#9A4C00;" d="M197.674,278.73c-3.633-11.182,11.496-26.136,22.759-29.997c-4.266-1.474-9.028-1.624-13.651-0.122   c-2.275,0.74-4.719,1.951-7.143,3.495c-5.693,3.629-11.262,9.132-14.254,14.894c-2.06,3.966-2.902,8.051-1.708,11.729   c3.304,10.171,21.005,13.744,32.745,11.676C207.831,289.056,199.793,285.25,197.674,278.73z"/>
	<path style="fill:#9A4C00;" d="M160.674,236.191c0-9.423,6.071-17.412,14.507-20.318c-2.197-0.757-4.545-1.188-6.999-1.188   c-11.877,0-21.506,9.628-21.506,21.506c0,4.685,1.503,10.54,4.046,15.914c3.313,7.001,8.395,13.182,14.254,14.894   c1.046,0.306,2.116,0.472,3.204,0.472c2.452,0,4.804-0.836,6.999-2.253C166.74,259.774,160.674,245.617,160.674,236.191z"/>
	<path style="fill:#9A4C00;" d="M192.743,334.892c-6.982-9.609-10.597-30.966-0.988-37.948c0.547-0.398,1.13-0.733,1.735-1.024   c-5.86-1.83-11.658-1.937-15.732,1.024c-1.002,0.728-1.852,1.62-2.577,2.63c-4.902,6.83-3.757,19.433,0,28.694   c1.02,2.515,2.231,4.784,3.565,6.622c5.699,7.843,15.706,10.698,24.417,7.686C199.121,341.194,195.446,338.611,192.743,334.892z"/>
</g>
<path d="M233.529,196.984c4.111,0.424,7.804-2.566,8.23-6.687c0.427-4.119-2.566-7.804-6.687-8.23  c-14.8-1.529-30.466,1.32-44.545,8.13c-6.943,3.358-14.678,5.135-22.369,5.135c-7.69,0-15.425-1.776-22.37-5.136  c-11.555-5.589-24.174-8.543-36.493-8.543c-10.833,0-21.341,2.211-31.232,6.569C35.999,206.76,18.17,259.042,38.32,304.767  c8.205,18.619,37.282,61.926,129.838,61.926s121.633-43.305,129.838-61.926c18.482-41.941,5.218-90.055-30.855-111.918  c-3.541-2.146-8.152-1.016-10.299,2.526c-2.147,3.542-1.016,8.153,2.526,10.3c29.654,17.972,40.36,57.973,24.904,93.045  c-5.715,12.969-23.598,39.94-75.245,49.512c1.433-0.712,12.278-4.491,15.762-21.443c1.56-7.59-0.629-15.318-5.183-21.586  c-1.715-2.361-3.929-4.684-6.485-6.838c3.332-0.241,6.491-0.817,9.264-1.719c7.369-2.395,13.363-7.514,16.881-14.417  c3.517-6.902,4.135-14.762,1.742-22.13c-2.395-7.369-7.515-13.362-14.416-16.88c-6.904-3.518-14.762-4.136-22.13-1.742  c-2.774,0.901-5.667,2.289-8.504,4.052c0.801-3.243,1.227-6.424,1.227-9.34c0-12.079-7.424-22.452-17.945-26.808  c6.166-1.051,12.194-2.965,17.818-5.687C208.65,198.091,221.475,195.735,233.529,196.984z M52.045,298.719  c-16.816-38.159-2.43-81.571,32.069-96.774c7.974-3.514,16.448-5.296,25.184-5.296c10.07,0,20.431,2.438,29.961,7.047  c5.635,2.726,11.675,4.643,17.851,5.692c-10.516,4.359-17.933,14.729-17.933,26.804c0,2.916,0.426,6.097,1.227,9.34  c-2.837-1.764-5.73-3.151-8.503-4.052l0,0c-15.209-4.938-31.605,3.411-36.547,18.621c-2.395,7.368-1.776,15.227,1.742,22.13  c3.517,6.903,9.512,12.023,16.88,14.417c2.775,0.902,5.933,1.478,9.265,1.719c-2.555,2.154-4.77,4.477-6.486,6.838  c-4.554,6.268-6.546,13.958-5.183,21.586c2.693,15.068,14.347,20.741,15.79,21.455C75.66,338.683,57.763,311.695,52.045,298.719z   M176.545,281.048c0.816,2.51,2.145,4.733,3.852,6.683c-2.53,0.573-4.91,1.595-7.047,3.147c-2.136,1.552-3.842,3.498-5.168,5.725  c-1.327-2.227-3.033-4.173-5.169-5.725c-2.137-1.553-4.517-2.574-7.047-3.147c1.709-1.95,3.036-4.172,3.852-6.684  c0.816-2.51,1.053-5.088,0.817-7.668c2.382,1.022,4.906,1.593,7.546,1.593c2.639,0,5.164-0.571,7.547-1.593  C175.493,275.959,175.73,278.538,176.545,281.048z M131.986,333.583c-7.46-4.469-7.625-13.57-3.099-19.565  c5.893-7.805,20.655-14.392,25.31-11.008c4.66,3.386,3.102,19.562-2.645,27.474C147.013,336.732,139.447,338.052,131.986,333.583z   M118.61,282.384c-3.558-1.156-12.154-4.832-8.993-17.65c3.16-12.817,16.217-9.458,17.651-8.992  c9.3,3.021,20.069,15.192,18.289,20.671C143.776,281.889,127.909,285.404,118.61,282.384z M168.16,351.695  c-8.033,0-15.525-0.344-22.519-0.975c7.002-1.332,13.533-5.215,18.043-11.422c1.715-2.359,3.239-5.182,4.498-8.276  c1.259,3.094,2.783,5.917,4.498,8.276c4.507,6.204,11.032,10.085,18.027,11.419C183.705,351.35,176.204,351.695,168.16,351.695z   M204.378,333.583c-6.249,4.54-15.025,3.15-19.565-3.099c-5.748-7.911-7.307-24.088-2.646-27.474  c0.869-0.631,2.093-0.919,3.548-0.919c6.35,0,17.086,5.49,21.763,11.927C212.068,320.674,210.626,329.043,204.378,333.583z   M209.098,255.742c1.433-0.466,14.124-3.425,17.65,8.992c3.525,12.418-5.435,16.494-8.993,17.65l0,0  c-9.3,3.02-25.167-0.494-26.947-5.972C189.028,270.934,199.797,258.764,209.098,255.742z M168.182,259.973  c-5.76,0-14.006-14.003-14.006-23.782c0-7.723,6.284-14.007,14.006-14.007c7.723,0,14.007,6.284,14.007,14.007  C182.189,245.971,173.942,259.973,168.182,259.973z"/>
<path d="M445.969,160.825c-16.82-7.413-35.174-10.257-53.406-8.595l0.095-0.229c2.326-5.611,0.93-11.885-3.555-15.981  c-4.484-4.096-10.857-4.92-16.235-2.098l-10.116,5.308l-5.177-14.298c-2.129-5.879-7.544-9.677-13.795-9.677  c-6.252,0-11.667,3.799-13.794,9.677l-5.177,14.298l-10.115-5.307c-5.379-2.824-11.752-2.001-16.236,2.097  c-4.485,4.097-5.881,10.37-3.555,15.981l0.076,0.183c-13.13-1.206-26.337-0.054-39.028,3.499  c-12.646-3.508-25.845-4.651-38.982-3.453l0.095-0.229c2.326-5.611,0.93-11.885-3.555-15.981c-4.484-4.096-10.856-4.92-16.235-2.098  l-10.116,5.308l-5.177-14.297c-2.129-5.879-7.543-9.678-13.795-9.678l0,0c-6.251,0-11.667,3.799-13.795,9.677l-5.177,14.298  l-10.115-5.307c-5.379-2.824-11.752-2.001-16.236,2.097c-4.485,4.097-5.881,10.37-3.555,15.981l0.095,0.229  c-18.232-1.662-36.586,1.183-53.406,8.595c-16.443,7.247-30.965,18.658-41.995,33.001c-2.525,3.283-1.91,7.99,1.374,10.516  c3.282,2.522,7.99,1.908,10.515-1.373c9.638-12.534,21.803-22.096,36.154-28.42c25.196-11.103,54.465-10.303,80.303,2.198  c10.066,4.868,21.613,4.868,31.679,0c25.839-12.502,55.108-13.3,80.303-2.198c23.956,10.558,42.1,30.489,51.088,56.124  c9.049,25.811,8.139,54.467-3.667,80.192c-32.593,71.013-112.327,70.875-143.564,70.875c-31.172,0-62.642-7.101-62.956-7.172  c-0.158-0.036-0.32-0.067-0.48-0.094c-35.106-5.643-65.059-29.421-80.126-63.609c-11.443-25.967-12.723-54.507-3.606-80.365  c1.377-3.905-0.673-8.188-4.578-9.565c-3.907-1.378-8.188,0.674-9.565,4.578c-10.391,29.47-8.96,61.929,4.026,91.4  c17.093,38.786,51.185,65.81,91.232,72.331c3.294,0.74,34.264,7.493,66.053,7.493c31.786,0,119.121,2.064,157.288-79.824  c13.571-29.117,14.409-61.786,4.096-91.202c-8.88-25.328-25.564-45.852-47.614-58.922c15.533-0.489,31.303,2.853,45.989,9.959  c10.066,4.869,21.612,4.869,31.679,0c25.839-12.502,55.108-13.3,80.303-2.198c49.633,21.873,71.534,83.306,47.421,136.316  c-29.675,65.235-112.392,70.875-143.565,70.875c-20.8,0-41.763-3.188-52.408-5.09c-4.076-0.732-7.972,1.985-8.7,6.063  c-0.728,4.076,1.987,7.972,6.064,8.699c13.599,2.43,34.188,5.324,55.044,5.324c31.789,0,121.144,1.362,157.288-79.824  C528.115,256.155,503.17,186.032,445.969,160.825z M177.491,163.245c-5.916,2.862-12.702,2.862-18.617,0  c-7.141-3.454-14.514-6.123-22-8.019l-2.929-7.07l15.907,8.346c1.918,1.006,4.177,1.135,6.196,0.351  c2.02-0.783,3.601-2.402,4.338-4.437l7.797-21.532l7.796,21.532c0.737,2.036,2.319,3.654,4.338,4.437  c2.019,0.784,4.278,0.655,6.196-0.351l15.907-8.346l-2.929,7.07C192.004,157.124,184.631,159.792,177.491,163.245z M353.088,163.245  c-5.916,2.862-12.701,2.862-18.616,0c-7.147-3.457-14.522-6.143-22.013-8.049l-2.917-7.04l15.907,8.346  c1.918,1.006,4.177,1.135,6.196,0.351c2.02-0.783,3.601-2.402,4.338-4.437l7.797-21.532l7.796,21.532  c0.737,2.036,2.319,3.654,4.338,4.437c2.019,0.784,4.278,0.655,6.196-0.351l15.907-8.346l-2.929,7.07  C367.602,157.124,360.227,159.792,353.088,163.245z"/>
<g>
</g>
<g>
</g>
<g>
</g>
<g>
</g>
<g>
</g>
<g>
</g>
<g>
</g>
<g>
</g>
<g>
</g>
<g>
</g>
<g>
</g>
<g>
</g>
<g>
</g>
<g>
</g>
<g>
</g>
</svg>
