<?xml version="1.0" encoding="iso-8859-1"?>
<!-- Generator: Adobe Illustrator 19.0.0, SVG Export Plug-In . SVG Version: 6.00 Build 0)  -->
<svg xmlns="http://www.w3.org/2000/svg" xmlns:xlink="http://www.w3.org/1999/xlink" version="1.1" id="Capa_1" x="0px" y="0px" viewBox="0 0 512.001 512.001" style="enable-background:new 0 0 512.001 512.001;" xml:space="preserve">
<path style="fill:#57565C;" d="M12.028,499.974c-6.051-6.051-6.051-15.859,0-21.91L79.68,410.41c6.051-6.051,15.859-6.051,21.911,0  c6.051,6.051,6.051,15.859,0,21.91l-67.654,67.654C27.886,506.024,18.078,506.024,12.028,499.974z"/>
<path style="fill:#3E3D42;" d="M79.68,410.41l-62.624,62.624c2.948,4.13,6.302,8.088,10.061,11.848  c3.756,3.756,7.728,7.092,11.87,10.041l62.603-62.603c6.051-6.051,6.051-15.859,0-21.91C95.54,404.359,85.732,404.359,79.68,410.41z  "/>
<path style="fill:#FFC477;" d="M461.594,50.406c-23.311-23.311-41.503-35.25-54.123-41.262c-9.261-4.412-20.397,0.405-23.265,10.254  c-5.386,18.506-17.733,34.066-17.733,34.066l92.063,92.063c0,0,15.559-12.347,34.066-17.733  c9.849-2.866,14.666-14.003,10.254-23.265C496.844,91.909,484.905,73.716,461.594,50.406z"/>
<path style="fill:#FFB655;" d="M453.309,65.102c22.287,6.355,39.882,22.757,39.921,22.794c-7.011-10.438-17.116-22.97-31.636-37.49  c-23.315-23.315-41.508-35.253-54.128-41.265c-9.259-4.411-20.392,0.411-23.259,10.258c-5.385,18.505-17.733,34.065-17.733,34.065  l49.744,49.744c7.93-11.188,13.609-21.639,17.226-29.129C437.02,66.675,445.403,62.847,453.309,65.102z"/>
<path style="fill:#FFDAAA;" d="M423.926,88.074c-73.803-73.803-193.46-73.803-267.262,0  c-54.605,54.605-62.833,182.191-120.438,314.214c0,0-16.285,32.991,12.104,61.381c28.39,28.391,61.381,12.104,61.381,12.104  c132.023-57.604,259.609-65.834,314.214-120.438C497.729,281.533,497.729,161.875,423.926,88.074z"/>
<path style="fill:#FFC477;" d="M423.926,88.074c-73.803-73.803-193.46-73.803-267.262,0  c-54.605,54.605-62.833,182.191-120.438,314.214c0,0-16.286,32.991,12.104,61.381c7.11,7.11,14.508,11.417,21.606,13.88  c34.762-58.662,87.807-151.282,138.392-251.932C293.553,56.047,450.875,121.99,450.875,121.99l0,0  C443.377,109.937,434.396,98.543,423.926,88.074z"/>
<path style="fill:#FF3F62;" d="M248.529,37.38l226.09,226.09c13.792-61.138-3.098-127.803-50.693-175.398  C376.331,40.478,309.668,23.588,248.529,37.38z"/>
<path style="fill:#00DDC2;" d="M156.664,88.074c-19.59,19.59-33.211,48.575-45.284,83.788L340.14,400.62  c35.212-12.073,64.197-25.695,83.787-45.285c4.186-4.186,8.122-8.526,11.833-12.991L169.656,76.24  C165.191,79.951,160.851,83.887,156.664,88.074z"/>
<path style="fill:#FF3F62;" d="M251.633,427.07L84.93,260.367c-9.831,34.355-20.81,71.192-35.216,108.875l93.044,93.044  C180.442,447.88,217.278,436.901,251.633,427.07z"/>
<path style="fill:#FF0C38;" d="M248.529,37.38l79.284,79.284c64.803-19.083,123.045,5.319,123.062,5.325  c-7.498-12.053-16.478-23.447-26.949-33.917C376.331,40.478,309.668,23.588,248.529,37.38z"/>
<path style="fill:#00CCB3;" d="M156.664,88.074c-19.59,19.59-33.211,48.575-45.284,83.788l82.385,82.385  c4.864-9.455,9.725-19.003,14.563-28.629c13.73-27.321,29.339-48.498,45.853-64.852L169.656,76.24  C165.191,79.951,160.851,83.887,156.664,88.074z"/>
<path style="fill:#FF0C38;" d="M49.714,369.242l52.663,52.663c15.86-27.644,33.407-58.888,51.625-92.465L84.93,260.367  C75.098,294.721,64.12,331.558,49.714,369.242z"/>
<g>
	<path style="fill:#FFB655;" d="M169.656,76.24L435.76,342.345c6.905-8.306,12.987-17.063,18.248-26.168L195.822,57.991   C186.719,63.252,177.962,69.335,169.656,76.24z"/>
	<path style="fill:#FFB655;" d="M100.635,205.742l205.623,205.623c11.756-3.504,23.186-7.081,33.882-10.745L111.38,171.861   C107.716,182.558,104.139,193.987,100.635,205.742z"/>
</g>
<g>
	<path style="fill:#FFA733;" d="M169.656,76.24l84.526,84.526c7.884-7.807,15.972-14.516,24.168-20.249l-82.526-82.526   C186.719,63.252,177.962,69.335,169.656,76.24z"/>
	<path style="fill:#FFA733;" d="M111.38,171.861c-3.664,10.697-7.241,22.126-10.745,33.882l77.86,77.86   c5.058-9.618,10.202-19.502,15.271-29.356L111.38,171.861z"/>
</g>
<path d="M509.628,101.303c-8.133-17.072-22.51-35.981-42.729-56.201c-20.221-20.221-39.131-34.597-56.201-42.729  c-6.463-3.079-13.921-3.165-20.457-0.235c-6.447,2.891-10.518,8.861-14.485,19.042c-1.504,3.859,0.661,8.19,4.565,9.573  c3.904,1.386,8.248-0.642,9.573-4.565c4.475-13.248,11.868-11.456,14.353-10.273C414.92,21,432.613,32.03,456.291,55.709  c23.678,23.679,34.709,41.372,39.795,52.046c1.184,2.485,1.217,5.353,0.089,7.867c-1.104,2.462-3.116,4.227-5.668,4.97  c-9.797,2.851-18.756,7.459-25.379,11.442c-9.092-17.758-21.049-34.417-35.897-49.264c-76.609-76.607-201.261-76.607-277.87,0  c-33.182,33.183-49.801,91.671-69.045,159.396C68.684,290.147,53.234,344.523,29.42,399.138c-4.867,9.992-9.093,30.401,0.191,50.737  L6.724,472.761c-8.964,8.965-8.964,23.553,0,32.518c4.483,4.482,10.369,6.723,16.258,6.723c5.888,0,11.777-2.241,16.26-6.723  l22.881-22.881c8.795,4.016,17.604,5.507,25.579,5.507c10.465,0,19.491-2.56,25.163-5.322  c54.614-23.814,108.99-39.265,156.972-52.897c67.725-19.243,126.213-35.863,159.396-69.045c58-58,72.075-143.534,42.251-214.913  c5.878-3.649,14.197-8.107,23.218-10.732c6.746-1.964,12.273-6.788,15.163-13.235C512.794,115.222,512.708,107.767,509.628,101.303z   M194.637,67.414l229.501,229.5c4.818,4.207,9.143,1.464,10.607,0c2.929-2.93,2.929-7.678,0-10.607L208.197,59.759  c12.062-6.13,24.775-10.879,37.945-14.156l220.255,220.255c-5.87,23.591-16.458,45.715-31.274,65.244L180.898,76.875  C185.349,73.5,189.931,70.344,194.637,67.414z M114.682,185.77l211.547,211.547c-5.809,1.88-11.759,3.732-17.842,5.57  L109.113,203.612C110.951,197.529,112.803,191.579,114.682,185.77z M28.635,494.67c-3.117,3.117-8.188,3.117-11.304,0  c-3.116-3.116-3.116-8.186,0-11.302l20.373-20.373c1.601,3.329,7.211,9.529,11.293,11.311L28.635,494.67z M106.713,468.9  c-0.086,0.037-0.205,0.093-0.289,0.133c-1.161,0.561-28.705,13.417-52.789-10.667c-24.085-24.084-11.227-51.628-10.683-52.758  c0.052-0.105,0.102-0.212,0.148-0.32c3.299-7.561,6.425-15.106,9.421-22.63l76.821,76.821  C121.82,462.474,114.274,465.6,106.713,468.9z M265.736,415.255c-3.926,1.116-7.909,2.249-11.917,3.393l-140.35-140.35  c-2.93-2.928-7.678-2.928-10.607,0c-2.929,2.93-2.929,7.678,0,10.607l134.478,134.478c-29.471,8.552-60.75,18.179-92.694,30.181  l-86.209-86.208c15.941-42.428,27.682-83.688,38.309-121.092c2.541-8.943,5.035-17.712,7.524-26.28L292.013,407.73  C283.447,410.22,274.678,412.714,265.736,415.255z M342.093,391.966L120.034,169.907c11.347-32.149,24.214-58.809,41.934-76.53  c2.38-2.38,4.821-4.679,7.307-6.91l256.257,256.257c-2.231,2.486-4.529,4.927-6.91,7.307  C400.903,367.752,374.242,380.618,342.093,391.966z M469.877,248.12L263.88,42.123c8.672-1.257,17.494-1.902,26.417-1.902  c48.476,0,94.05,18.877,128.327,53.155c15.341,15.34,27.587,32.949,36.447,52.062c0.145,0.404,0.323,0.8,0.542,1.183  c10.584,23.276,16.167,48.748,16.167,75.082C471.779,230.626,471.134,239.448,469.877,248.12z"/>
<g>
</g>
<g>
</g>
<g>
</g>
<g>
</g>
<g>
</g>
<g>
</g>
<g>
</g>
<g>
</g>
<g>
</g>
<g>
</g>
<g>
</g>
<g>
</g>
<g>
</g>
<g>
</g>
<g>
</g>
</svg>
