<?xml version="1.0" encoding="iso-8859-1"?>
<!-- Generator: Adobe Illustrator 19.0.0, SVG Export Plug-In . SVG Version: 6.00 Build 0)  -->
<svg xmlns="http://www.w3.org/2000/svg" xmlns:xlink="http://www.w3.org/1999/xlink" version="1.1" id="Capa_1" x="0px" y="0px" viewBox="0 0 512.004 512.004" style="enable-background:new 0 0 512.004 512.004;" xml:space="preserve">
<g>
	<path style="fill:#FFE477;" d="M394.908,107.849c-11.977-41.073,52.092-25.404,22.511,5.505   c29.581-30.909,48.046,32.411,6.487,22.248c41.559,10.163-4.046,57.815-16.024,16.743c11.977,41.073-52.092,25.404-22.511-5.505   c-29.581,30.909-48.046-32.411-6.488-22.248C337.326,114.427,382.931,66.776,394.908,107.849z"/>
	<path style="fill:#FFE477;" d="M117.096,107.876c11.977-41.073-52.092-25.404-22.511,5.505   c-29.581-30.909-48.046,32.411-6.487,22.248c-41.559,10.163,4.046,57.815,16.024,16.743c-11.977,41.073,52.092,25.404,22.511-5.505   c29.581,30.909,48.046-32.411,6.487-22.248C174.678,114.455,129.073,66.803,117.096,107.876z"/>
</g>
<g>
	<path style="fill:#FFD422;" d="M133.119,124.619c5.563-1.361,9.552-3.397,12.282-5.798c-3.441-10.597-11.583-19.073-21.971-22.962   c-2.52,2.621-4.73,6.517-6.334,12.017c1.604-5.499,1.834-9.971,1.119-13.536c-2.454-0.519-4.998-0.797-7.606-0.797   c-8.836,0-16.94,3.133-23.263,8.348c1.01,3.492,3.279,7.353,7.239,11.49c-3.958-4.136-7.714-6.572-11.157-7.735   c-5.842,6.483-9.4,15.064-9.4,24.478c0,2.055,0.178,4.068,0.504,6.03c3.529,0.87,8.005,0.835,13.567-0.525   c-5.563,1.361-9.552,3.397-12.282,5.798c3.441,10.597,11.583,19.073,21.971,22.961c2.52-2.621,4.73-6.517,6.334-12.018   c-1.604,5.499-1.834,9.971-1.119,13.536c2.454,0.519,4.998,0.797,7.606,0.797c8.836,0,16.94-3.133,23.263-8.348   c-1.01-3.492-3.279-7.352-7.239-11.49c3.958,4.136,7.714,6.572,11.157,7.735c5.842-6.483,9.4-15.064,9.4-24.478   c0-2.055-0.178-4.068-0.504-6.031C143.157,123.224,138.68,123.259,133.119,124.619z"/>
	<path style="fill:#FFD422;" d="M378.885,124.591c-5.563-1.361-9.552-3.397-12.281-5.798c3.441-10.597,11.583-19.073,21.971-22.962   c2.52,2.621,4.73,6.517,6.334,12.017c-1.604-5.499-1.834-9.971-1.119-13.536c2.454-0.519,4.998-0.797,7.606-0.797   c8.836,0,16.94,3.133,23.263,8.348c-1.01,3.492-3.279,7.353-7.239,11.49c3.958-4.136,7.714-6.572,11.157-7.735   c5.842,6.483,9.4,15.064,9.4,24.478c0,2.055-0.178,4.068-0.504,6.03c-3.529,0.87-8.005,0.835-13.567-0.525   c5.563,1.361,9.552,3.397,12.281,5.798c-3.441,10.597-11.583,19.073-21.971,22.961c-2.52-2.621-4.73-6.517-6.334-12.018   c1.604,5.499,1.834,9.971,1.119,13.536c-2.454,0.519-4.998,0.797-7.606,0.797c-8.836,0-16.94-3.133-23.263-8.348   c1.01-3.492,3.279-7.352,7.239-11.49c-3.958,4.136-7.714,6.572-11.157,7.735c-5.842-6.483-9.4-15.064-9.4-24.478   c0-2.055,0.178-4.068,0.504-6.031C368.847,123.196,373.323,123.231,378.885,124.591z"/>
</g>
<g>
	<path style="fill:#00DDC2;" d="M177.549,64.549c15.156-40.638-40.924-38.633-22.906,0.819   c-18.018-39.452-56.255,1.62-15.618,16.776c-40.638-15.156-38.633,40.924,0.819,22.906c-39.452,18.018,1.62,56.255,16.776,15.618   c-15.156,40.638,40.924,38.633,22.906-0.819c18.018,39.452,56.255-1.62,15.618-16.776c40.638,15.156,38.633-40.924-0.819-22.906   C233.777,62.149,192.705,23.913,177.549,64.549z"/>
	<path style="fill:#00DDC2;" d="M334.437,64.549c-15.156-40.638,40.924-38.633,22.906,0.819   c18.018-39.452,56.255,1.62,15.618,16.776c40.637-15.156,38.633,40.924-0.819,22.906c39.452,18.018-1.62,56.255-16.776,15.618   c15.156,40.638-40.924,38.633-22.906-0.819c-18.018,39.452-56.255-1.62-15.618-16.776c-40.637,15.156-38.633-40.924,0.819-22.906   C278.21,62.149,319.281,23.913,334.437,64.549z"/>
</g>
<g>
	<path style="fill:#00CCB3;" d="M206.083,109.093c-2.727-2.237-6.318-4.297-10.938-6.02c4.618,1.722,8.679,2.517,12.204,2.612   c1.342-4.121,2.076-8.513,2.076-13.077c0-5.629-1.113-11-3.116-15.918c-3.507,0.347-7.5,1.43-11.981,3.477   c4.478-2.045,7.909-4.352,10.468-6.773c-4.52-8.833-12.043-15.887-21.224-19.782c-2.237,2.727-4.297,6.317-6.02,10.937   c1.722-4.617,2.517-8.678,2.612-12.203c-4.121-1.342-8.513-2.076-13.077-2.076c-5.629,0-11,1.113-15.918,3.116   c0.348,3.507,1.43,7.5,3.477,11.981c-2.045-4.478-4.352-7.909-6.773-10.467c-8.833,4.52-15.887,12.042-19.783,21.223   c2.727,2.237,6.317,4.297,10.938,6.02c-4.618-1.722-8.679-2.517-12.204-2.612c-1.342,4.121-2.076,8.514-2.076,13.078   c0,5.629,1.113,11,3.116,15.918c3.507-0.347,7.5-1.43,11.982-3.477c-4.478,2.045-7.909,4.352-10.468,6.773   c4.52,8.833,12.042,15.887,21.224,19.782c2.237-2.727,4.297-6.317,6.02-10.938c-1.722,4.618-2.517,8.679-2.612,12.203   c4.121,1.342,8.514,2.076,13.078,2.076c5.629,0,11-1.113,15.918-3.116c-0.347-3.507-1.43-7.5-3.477-11.981   c2.045,4.478,4.352,7.909,6.773,10.468C195.133,125.797,202.186,118.275,206.083,109.093z"/>
	<path style="fill:#00CCB3;" d="M305.904,109.093c2.727-2.237,6.318-4.297,10.938-6.02c-4.618,1.722-8.679,2.517-12.203,2.612   c-1.342-4.121-2.076-8.513-2.076-13.077c0-5.629,1.113-11,3.116-15.918c3.507,0.347,7.5,1.43,11.981,3.477   c-4.478-2.045-7.909-4.352-10.468-6.773c4.52-8.833,12.042-15.887,21.224-19.782c2.237,2.727,4.297,6.317,6.02,10.937   c-1.722-4.617-2.517-8.678-2.612-12.203c4.121-1.342,8.513-2.076,13.077-2.076c5.629,0,11,1.113,15.918,3.116   c-0.348,3.507-1.43,7.5-3.477,11.981c2.045-4.478,4.352-7.909,6.773-10.467c8.833,4.52,15.887,12.042,19.783,21.223   c-2.727,2.237-6.317,4.297-10.938,6.02c4.618-1.722,8.679-2.517,12.204-2.612c1.342,4.121,2.076,8.514,2.076,13.078   c0,5.629-1.113,11-3.116,15.918c-3.507-0.347-7.5-1.43-11.982-3.477c4.478,2.045,7.909,4.352,10.468,6.773   c-4.52,8.833-12.042,15.887-21.224,19.782c-2.237-2.727-4.297-6.317-6.02-10.938c1.722,4.618,2.517,8.679,2.612,12.203   c-4.121,1.342-8.514,2.076-13.078,2.076c-5.629,0-11-1.113-15.918-3.116c0.347-3.507,1.43-7.5,3.477-11.981   c-2.045,4.478-4.352,7.909-6.773,10.468C316.853,125.797,309.8,118.275,305.904,109.093z"/>
</g>
<path style="fill:#FF3F62;" d="M268.456,33.331c11.198-34.466-36.125-34.466-24.926,0c-11.198-34.466-49.485-6.65-20.166,14.652  c-29.319-21.302-43.943,23.706-7.702,23.706c-36.24,0-21.616,45.008,7.702,23.706c-29.319,21.302,8.967,49.118,20.166,14.652  c-11.198,34.466,36.125,34.466,24.926,0c11.198,34.466,49.485,6.65,20.166-14.652c29.319,21.302,43.943-23.706,7.702-23.706  c36.241,0,21.616-45.008-7.702-23.706C317.941,26.681,279.656-1.135,268.456,33.331z"/>
<path style="fill:#D80027;" d="M303.316,72.344c-2.082-0.418-4.402-0.655-6.99-0.655c2.588,0,4.908-0.236,6.99-0.655  c-0.136-9.901-3.325-19.074-8.669-26.623c-1.926,0.885-3.936,2.055-6.024,3.572c2.092-1.52,3.828-3.073,5.266-4.634  c-5.665-7.555-13.539-13.357-22.648-16.466c-1.042,1.852-1.984,3.986-2.784,6.448c0.802-2.468,1.295-4.752,1.539-6.866  c-4.427-1.374-9.129-2.115-14.003-2.115c-4.873,0-9.575,0.741-14.003,2.115c0.245,2.114,0.738,4.399,1.539,6.866  c-0.8-2.462-1.742-4.596-2.784-6.448c-9.109,3.108-16.984,8.909-22.648,16.466c1.438,1.561,3.174,3.114,5.266,4.634  c-2.088-1.517-4.099-2.687-6.024-3.572c-5.344,7.55-8.533,16.722-8.669,26.623c2.082,0.419,4.402,0.655,6.991,0.655  c-2.588,0-4.908,0.236-6.991,0.655c0.135,9.901,3.325,19.074,8.669,26.623c1.926-0.885,3.936-2.055,6.024-3.572  c-2.092,1.52-3.828,3.073-5.266,4.634c5.665,7.555,13.539,13.357,22.648,16.465c1.042-1.851,1.984-3.985,2.784-6.447  c-0.802,2.467-1.295,4.752-1.539,6.866c4.427,1.374,9.129,2.115,14.003,2.115c4.873,0,9.575-0.741,14.003-2.115  c-0.245-2.114-0.738-4.399-1.539-6.866c0.8,2.462,1.742,4.596,2.784,6.447c9.109-3.109,16.983-8.909,22.648-16.466  c-1.438-1.561-3.174-3.114-5.266-4.634c2.088,1.517,4.098,2.687,6.024,3.572C299.99,91.417,303.181,82.245,303.316,72.344z"/>
<circle style="fill:#FFEB99;" cx="255.993" cy="71.685" r="27.338"/>
<path style="fill:#B9D8F4;" d="M255.994,504.501L255.994,504.501c-49.551,0-90.094-40.542-90.094-90.093v-47.582  c0-49.551,40.542-90.093,90.093-90.093l0,0c49.551,0,90.093,40.542,90.093,90.093v47.581  C346.086,463.96,305.545,504.501,255.994,504.501z"/>
<path style="fill:#96C8EF;" d="M242.041,440.368l1.268-162.731c-43.602,6.213-77.409,43.942-77.409,89.19v47.581  c0,49.551,40.542,90.094,90.093,90.094l0,0c1.929,0,3.842-0.069,5.741-0.19C235.126,465.111,242.041,440.368,242.041,440.368z"/>
<path style="fill:#D1E7F8;" d="M409.888,307.339c-3.167-6.316-3.452-13.671-1.163-20.355c5.645-16.479,8.701-34.158,8.674-52.557  c-0.128-88.262-41.827-161.157-161.407-161.157S94.715,146.165,94.586,234.427c-0.027,18.399,3.029,36.078,8.674,52.557  c2.29,6.684,2.004,14.039-1.163,20.355c-4.803,9.578-7.512,20.386-7.512,31.83c0,52.882,36.81,66.587,60.843,69.845  c6.458,0.875,12.424,3.855,17.204,8.287c9.837,9.121,33.261,23.443,83.359,23.443s73.522-14.322,83.359-23.443  c4.779-4.431,10.744-7.411,17.204-8.287c24.034-3.258,60.844-16.963,60.844-69.845C417.399,327.725,414.69,316.918,409.888,307.339z  "/>
<path style="fill:#B9D8F4;" d="M237.143,73.945C132.006,81.296,94.709,150.997,94.587,234.448  c-0.027,18.399,3.029,36.078,8.674,52.557c2.29,6.684,2.004,14.039-1.163,20.355c-4.803,9.578-7.512,20.386-7.512,31.83  c0,52.916,36.858,66.605,60.89,69.851c6.341,0.857,12.234,3.652,16.896,8.036c8.741,8.223,28.671,20.905,69.669,23.289  c-30.926-13.971-34.48-37.247-32.5-53.378c1.651-13.448-1.207-27.088-7.842-38.901C115.027,193.791,210.27,96.974,237.143,73.945z"/>
<path style="fill:#57565C;" d="M279.493,381.451c0,12.979-10.521,15.667-23.5,15.667c-12.979,0-23.5-2.688-23.5-15.667  c0-12.979,10.521-43.866,23.5-43.866C268.971,337.586,279.493,368.473,279.493,381.451z"/>
<path style="fill:#3E3D42;" d="M255.993,383.182c0-8.943,4.996-26.388,12.35-36.372c-3.589-5.453-7.818-9.224-12.35-9.224  c-12.979,0-23.5,30.887-23.5,43.866s10.521,15.667,23.5,15.667c2.962,0,5.793-0.143,8.404-0.513  C259.261,394.447,255.993,390.413,255.993,383.182z"/>
<g>
	<path style="fill:#57565C;" d="M187.056,351.344c-19.763,6.998-41.457-3.35-48.455-23.113c-6.998-19.763,3.35-41.457,23.113-48.455   c19.763-6.998,58.748-2.772,65.747,16.991C234.459,316.53,206.819,344.346,187.056,351.344z"/>
	<path style="fill:#57565C;" d="M324.934,351.344c19.763,6.998,41.457-3.35,48.455-23.113c6.998-19.763-3.35-41.457-23.113-48.455   c-19.763-6.998-58.748-2.772-65.747,16.991C277.531,316.53,305.172,344.346,324.934,351.344z"/>
</g>
<g>
	<path style="fill:#3E3D42;" d="M172.73,277.269c-4.034,0.525-7.784,1.363-11.015,2.507c-19.763,6.998-30.111,28.691-23.114,48.455   c6.998,19.763,28.692,30.111,48.455,23.114c4.041-1.431,8.41-3.743,12.747-6.668C150.375,330.414,172.729,277.27,172.73,277.269z"/>
	<path style="fill:#3E3D42;" d="M324.934,351.338c2.149,0.761,4.32,1.304,6.493,1.666c-20.671-40.602,1.818-76.276,1.818-76.276l0,0   c-19.754-0.989-43.415,5.059-48.717,20.033C277.531,316.523,305.172,344.34,324.934,351.338z"/>
</g>
<path style="fill:#FF3F62;" d="M255.993,440.745c16.648,0,30.334-1.587,41.571-4.033c-20.587-26.24-41.571-13.222-41.571-13.222  s-20.984-13.019-41.571,13.222C225.658,439.158,239.346,440.745,255.993,440.745z"/>
<g>
	<path style="fill:#FF0C38;" d="M223.113,427.856c-2.848,2.281-5.748,5.193-8.64,8.878c7.913,1.723,17.047,3.016,27.568,3.632   C234.005,436.731,227.831,432.461,223.113,427.856z"/>
	<path style="fill:#FF0C38;" d="M223.175,438.358c0.015,0.151,2.148,20.661,32.818,20.661c30.671,0,32.803-20.511,32.818-20.661   c-9.404,1.489-20.275,2.387-32.818,2.387C243.45,440.745,232.58,439.847,223.175,438.358z"/>
</g>
<path style="fill:#D80027;" d="M241.847,457.197c-1.486-10.804,0.195-16.829,0.195-16.829v-0.021  c-6.86-0.399-13.14-1.083-18.867-1.99C223.187,438.481,224.62,452.177,241.847,457.197z"/>
<circle style="fill:#008877;" cx="118.827" cy="345.086" r="7.5"/>
<circle style="fill:#00AA95;" cx="139.708" cy="369.087" r="7.5"/>
<circle style="fill:#00CCB3;" cx="172.699" cy="377.487" r="7.5"/>
<circle style="fill:#00AA95;" cx="393.158" cy="345.086" r="7.5"/>
<circle style="fill:#00CCB3;" cx="372.277" cy="369.087" r="7.5"/>
<circle style="fill:#00DDC2;" cx="339.296" cy="377.487" r="7.5"/>
<path style="fill:#FF3F62;" d="M272.638,207.211h-9.145v-13.094c0-4.143-3.357-7.5-7.5-7.5c-4.142,0-7.5,3.357-7.5,7.5v13.094  h-9.145c-4.142,0-7.5,3.357-7.5,7.5s3.358,7.5,7.5,7.5h9.145v22.831c0,4.143,3.358,7.5,7.5,7.5c4.143,0,7.5-3.357,7.5-7.5v-22.831  h9.145c4.143,0,7.5-3.357,7.5-7.5S276.781,207.211,272.638,207.211z"/>
<path style="fill:#91DC5A;" d="M129.971,275.389c-3.25-2.569-3.801-7.286-1.232-10.535c0.867-1.097,21.634-26.782,56.033-19.182  c18.474,4.079,24.6-1.683,26.376-4.348c2.296-3.448,6.953-4.382,10.399-2.087c3.448,2.296,4.382,6.952,2.086,10.399  c-10.467,15.723-32.927,12.709-42.098,10.682c-25.326-5.592-40.866,13.653-41.031,13.838  C136.414,278.742,131.349,276.478,129.971,275.389z"/>
<path style="fill:#6DC82A;" d="M167.004,244.519c-23.678,2.275-37.559,19.443-38.264,20.335c-2.569,3.249-2.018,7.966,1.232,10.535  c1.377,1.089,6.441,3.353,10.535-1.232c0.136-0.152,10.668-13.175,28.48-14.701C168.132,254.384,167.476,249.404,167.004,244.519z"/>
<path style="fill:#91DC5A;" d="M382.015,275.477c3.25-2.569,3.801-7.286,1.232-10.535c-0.867-1.097-21.634-26.782-56.033-19.182  c-18.474,4.079-24.6-1.683-26.376-4.348c-2.296-3.448-6.953-4.382-10.399-2.087c-3.448,2.296-4.382,6.952-2.086,10.399  c10.467,15.723,32.927,12.709,42.098,10.682c25.326-5.592,40.866,13.653,41.031,13.838  C375.574,278.83,380.638,276.566,382.015,275.477z"/>
<path style="fill:#6A563D;" d="M255.993,73.272c0,0-28.998,72.419,50.538,109.536s102.193,104.177,102.193,104.177  s46.938-107.491-22.657-173.109S255.993,73.272,255.993,73.272z"/>
<path style="fill:#554431;" d="M255.986,73.269c0,0-20.12,50.279,19.18,88.521c9.442-15.37,13.605-30.922,15.17-44.144  c2.539-21.444-1.506-39.698-4.299-49.054C267.411,68.548,255.986,73.269,255.986,73.269z"/>
<path style="fill:#806749;" d="M255.993,73.272c0,0,28.998,72.419-50.538,109.536S103.261,286.985,103.261,286.985  s-46.938-107.491,22.657-173.109S255.993,73.272,255.993,73.272z"/>
<path style="fill:#6A563D;" d="M167.017,205.812c8.084-80.584,64.807-127.982,75.147-136.001  c-21.77-3.429-66.694-2.657-116.246,44.065c-69.595,65.618-22.657,173.109-22.657,173.109S118.332,242.397,167.017,205.812z"/>
<path d="M255.993,404.617c20.57,0,31-7.794,31-23.167c0-13.201-10.658-51.365-31-51.365c-20.341,0-31,38.165-31,51.365  C224.993,396.823,235.423,404.617,255.993,404.617z M246.203,357.758c4.357-9.574,8.477-12.673,9.79-12.673  c1.312,0,5.433,3.098,9.79,12.673c4.033,8.861,6.209,18.821,6.209,23.692c0,3.638,0,8.166-16,8.166s-16-4.528-16-8.166  C239.994,376.579,242.17,366.62,246.203,357.758z"/>
<path d="M159.211,272.705c-23.63,8.368-36.046,34.399-27.68,58.028c4.053,11.447,12.322,20.631,23.282,25.858  c6.208,2.962,12.859,4.453,19.54,4.453c5.113,0,10.245-0.874,15.208-2.631c11.367-4.025,24.21-13.526,33.517-24.796  c11.459-13.876,15.527-27.853,11.454-39.356C225.871,269.811,182.867,264.329,159.211,272.705z M211.511,324.066  c-7.443,9.013-18.277,17.134-26.958,20.207v0.001c-7.669,2.714-15.939,2.281-23.282-1.221c-7.344-3.503-12.884-9.656-15.6-17.327  c-5.606-15.832,2.714-33.274,18.547-38.881c5.064-1.794,11.673-2.7,18.591-2.7c16.16,0,33.98,4.953,37.582,15.124  C222.602,305.516,219.365,314.555,211.511,324.066z"/>
<path d="M357.178,356.592c10.959-5.228,19.229-14.411,23.28-25.857c4.054-11.446,3.407-23.787-1.821-34.747  c-5.228-10.96-14.411-19.229-25.858-23.282c-11.367-4.023-27.326-4.724-41.652-1.819c-17.638,3.572-29.594,11.875-33.667,23.377  c-4.072,11.503-0.005,25.48,11.454,39.356c9.307,11.27,22.15,20.771,33.518,24.796l-0.001-0.001  c4.963,1.758,10.094,2.632,15.208,2.632C344.318,361.046,350.97,359.555,357.178,356.592z M327.438,344.273  c-8.681-3.073-19.515-11.193-26.958-20.207c-7.854-9.512-11.091-18.55-8.879-24.797c3.601-10.171,21.42-15.124,37.581-15.124  c6.915,0,13.528,0.907,18.591,2.7c7.67,2.716,13.824,8.255,17.327,15.6c3.503,7.344,3.937,15.612,1.22,23.282  c-2.715,7.669-8.255,13.823-15.599,17.326C343.375,346.558,335.107,346.989,327.438,344.273L327.438,344.273z"/>
<path d="M444.713,100.723c-3.684-2.46-7.708-3.611-11.884-3.462c-0.153-6.337-3.195-10.822-4.748-12.705  c-6.388-7.739-17.672-10.777-26.995-7.997c-1.474-1.063-3.246-2.088-5.389-2.897c2.179-3.936,3.128-8.253,2.697-12.77  c-0.934-9.779-8.352-17.748-18.04-19.378c-4.473-0.751-8.849-0.114-12.932,1.779c-1.242-4.324-3.625-8.049-7.123-10.938  c-7.574-6.254-18.454-6.646-26.457-0.945c-3.699,2.634-6.343,6.183-7.89,10.413c-2.865-1.579-5.943-2.504-9.168-2.739  c-1.058-0.798-4.318-3.17-10.208-4.148c0.678-3.532,0.479-7.112-0.654-10.601c-2.824-8.693-11.181-14.767-20.322-14.767  c-3.669,0-7.135,0.918-10.285,2.654c-1.528-3.256-3.793-6.036-6.761-8.192c-7.396-5.373-17.726-5.373-25.12,0  c-2.968,2.156-5.232,4.937-6.761,8.192c-3.15-1.736-6.616-2.654-10.285-2.654c-9.141,0-17.498,6.072-20.323,14.767  c-1.134,3.491-1.332,7.075-0.652,10.61c-2.544,0.332-6.699,1.356-10.178,4.125c-3.223,0.218-6.316,1.145-9.203,2.745  c-1.547-4.227-4.19-7.772-7.887-10.404c-8.001-5.698-18.883-5.311-26.457,0.945c-3.499,2.889-5.881,6.613-7.123,10.938  c-4.08-1.893-8.456-2.529-12.931-1.779c-9.688,1.63-17.107,9.598-18.04,19.378c-0.433,4.53,0.524,8.862,2.719,12.81  c-2.185,0.817-3.983,1.843-5.43,2.874c-9.324-2.762-20.598,0.288-26.97,8.025c-1.549,1.88-4.581,6.358-4.734,12.688  c-4.171-0.133-8.202,1.002-11.884,3.463c-9.619,6.425-13.656,20.268-8.998,30.856c1.788,4.064,4.585,7.197,8.186,9.323  c-2.796,4.555-3.685,9.915-2.497,15.314c2.179,9.902,10.44,17.623,19.634,19.563c-3.236,15.44-4.132,32.134-2.597,49.876  c2.942,34.004,13.651,60.255,15.194,63.893c1.624,4.872,1.333,10.11-0.819,14.402c-5.512,10.993-8.307,22.834-8.307,35.192  c0,25.658,8.255,45.39,24.033,59.23c18.595,16.311,46.015,18.558,47.33,18.99c1.582,52.439,44.729,94.612,97.544,94.612  c52.816,0,95.962-42.173,97.544-94.612c1.314-0.432,16.053-1.713,29.07-7.727c3.76-1.737,5.55-6.06,3.904-9.861  c-1.645-3.803-6.064-5.55-9.861-3.904c-6.31,2.73-13.41,4.643-21.103,5.686c-7.87,1.067-15.234,4.601-21.295,10.219  c-2.362,2.19-5.707,4.786-10.287,7.402c-1.041-2.895-3.812-4.983-7.054-4.983c-4.125,0-7.5,3.375-7.5,7.5v3.96  c-2.778,0.955-5.798,1.859-9.073,2.689c-16.368-18.089-34.229-17.323-44.345-13.237c-10.111-4.085-27.975-4.853-44.345,13.237  c-3.275-0.83-6.295-1.733-9.073-2.688v-3.96c0-4.125-3.375-7.5-7.5-7.5c-3.242,0-6.012,2.088-7.054,4.983  c-4.581-2.616-7.926-5.212-10.288-7.402c-6.06-5.618-13.424-9.151-21.295-10.219c-24.794-3.361-54.351-16.918-54.351-62.412  c0-10.003,2.26-19.582,6.716-28.469c3.556-7.092,4.371-15.479,2.36-23.406c4.049-10.095,24.29-54.673,76.863-86.672  c3.538-2.153,4.661-6.768,2.507-10.306c-2.154-3.538-6.766-4.66-10.306-2.507c-42.511,25.873-65.307,59.084-76.045,79.127  c-3.189-10.704-6.756-25.659-8.218-42.548c-3.82-44.149,7.988-79.495,35.099-105.057c26.922-25.384,56.565-40.19,85.724-42.816  c16.068-1.443,27.999,1.166,33.302,2.693c1.649,5.452,4.517,17.444,3.247,31.764c-2.306,25.98-16.835,46.519-43.184,61.043  c-3.627,2-4.947,6.562-2.947,10.189c1.999,3.627,6.561,4.946,10.188,2.947c18.792-10.359,30.88-22.806,38.573-35.33  c10.072,16.426,25.955,29.775,47.392,39.781c39.385,18.379,63.977,44.476,77.671,63.133c11.802,16.078,17.784,29.561,19.792,34.562  c-2.01,7.925-1.195,16.311,2.36,23.401c4.457,8.89,6.717,18.469,6.717,28.47c0,15.605-3.471,28.541-10.314,38.451  c-2.354,3.408-1.5,8.08,1.908,10.434c1.302,0.898,6.622,3.427,10.434-1.908c8.806-12.324,12.974-28.269,12.974-46.977  c0-12.357-2.795-24.198-8.308-35.192c-2.151-4.29-2.442-9.528-0.82-14.399c1.537-3.625,12.251-29.881,15.195-63.896  c3.902-45.101-7.854-83.466-34.046-111.524c3.935-1.674,7.231-4.383,9.633-8.054c3.017-4.611,4.062-10.169,3.223-15.44  c2.609,0.372,5.198,1.577,6.735,3.44c3.604,4.367-1.28,10.685-4.512,14.063c-2.864,2.992-2.76,7.74,0.232,10.604  s7.74,2.759,10.604-0.232c3.139-3.278,9.069-8.33,13.545-5.342c3.521,2.353,5.305,8.467,3.6,12.345  c-2.167,4.927-9.883,3.853-14.293,2.774c-4.021-0.985-8.082,1.48-9.066,5.504c-0.984,4.024,1.479,8.083,5.504,9.066  c0.007,0.002,0.015,0.004,0.022,0.006c3.273,0.803,10.878,3.19,11.361,8.102c0.382,3.872,3.644,6.766,7.455,6.766  c0.246,0,8.065-0.229,7.473-8.236c-0.248-3.359-1.387-6.205-2.895-8.631c3.592-2.125,6.383-5.254,8.168-9.312  C458.37,120.992,454.334,107.149,444.713,100.723z M252.038,429.862c2.499,1.641,5.328,1.688,7.828,0.049  c1.249-0.729,10.347-5.535,21.738,1.877c-7.569,0.917-16.061,1.456-25.612,1.456c-9.551,0-18.044-0.539-25.614-1.456  C241.766,424.373,250.851,429.169,252.038,429.862z M273.773,447.569c-3.768,2.234-9.387,3.949-17.78,3.949  c-8.393,0-14.013-1.715-17.781-3.949c6.603,0.507,12.672,0.676,17.781,0.676C261.102,448.245,267.17,448.076,273.773,447.569z   M187.575,435.813v5.375c0,4.125,3.375,7.5,7.5,7.5c4.067,0,7.399-3.283,7.491-7.329c4.848,1.428,9.763,2.571,14.626,3.484  c0.973,2.559,2.564,5.675,5.179,8.755c5.003,5.895,14.899,12.921,33.622,12.921c18.718,0,28.612-7.021,33.616-12.913  c2.636-3.103,4.23-6.209,5.2-8.766c4.857-0.913,9.766-2.054,14.61-3.481c0.093,4.046,3.424,7.329,7.491,7.329  c4.125,0,7.5-3.375,7.5-7.5v-5.375c4.557-2.085,8.917-4.501,12.948-7.315c-6.708,38.851-40.629,68.504-81.366,68.504  c-40.737,0-74.657-29.653-81.365-68.503C178.657,431.311,183.018,433.728,187.575,435.813z M341.464,61.928  c-2.821-8.816-2.831-15.514,1.079-18.298c2.404-1.711,5.932-1.585,8.205,0.293c3.702,3.057,3.312,9.776-0.229,18.328  c-2.237,5.402,0.947,8.678,3.706,9.938c3.771,1.721,8.218,0.062,9.938-3.706c3.845-8.42,8.97-12.986,13.702-12.175  c2.909,0.489,5.314,3.072,5.595,6.009c0.456,4.776-4.443,9.557-13.106,12.792c-0.006,0.002-0.011,0.004-0.017,0.006  c-3.881,1.447-5.854,5.767-4.406,9.648c1.447,3.881,5.767,5.856,9.647,4.406c8.418-3.14,15.18-2.84,18.089,0.801  c1.757,2.199,1.896,5.529,0.333,7.92c-1.918,2.933-6.032,3.927-11.406,2.822c-16.259-13.814-31.921-22.962-46.158-28.94  C336.645,71.716,344.011,69.887,341.464,61.928z M327.407,67.164c0.002,0.003,0.002,0.005,0.003,0.008  c0.185,0.495,0.417,0.958,0.688,1.388c-1.918-0.672-3.804-1.289-5.657-1.852c0.98-1.697,1.716-3.517,2.188-5.422  C325.643,62.989,326.582,64.952,327.407,67.164z M187.353,61.262c0.473,1.907,1.218,3.733,2.202,5.442  c-1.855,0.564-3.745,1.181-5.666,1.854c0.271-0.43,0.504-0.893,0.688-1.388C185.408,64.942,186.343,62.967,187.353,61.262z   M87.48,161.272c-3.726-0.343-7.931-4.085-8.848-8.251c-1.334-6.06,6.44-8.926,11.217-10.098c0.01-0.003,0.02-0.005,0.03-0.008  c4.023-0.984,6.488-5.043,5.503-9.066c-0.983-4.023-5.04-6.489-9.067-5.504c-0.005,0.001-0.01,0.002-0.015,0.004  c-4.411,1.075-12.112,2.14-14.277-2.778c-1.705-3.877,0.078-9.991,3.599-12.345c4.475-2.988,10.406,2.065,13.544,5.343  c2.864,2.992,7.612,3.099,10.604,0.232c2.993-2.863,3.097-7.611,0.233-10.604c-3.23-3.376-8.113-9.69-4.516-14.058  c1.529-1.857,4.104-3.063,6.705-3.44c-0.685,4.296-0.117,8.805,1.815,12.869c2.32,4.881,6.195,8.498,11.073,10.575  C102.506,127.607,93.267,143.452,87.48,161.272z M129.53,100.596l0.003-0.018c-7.126,1.112-10.629-0.615-11.977-3.45  c-1.188-2.499-0.77-5.506,1.041-7.481c3.044-3.319,9.702-3.497,17.809-0.475c3.883,1.449,8.2-0.525,9.648-4.406  c1.447-3.882-0.525-8.201-4.407-9.648c-0.005-0.002-0.011-0.004-0.016-0.006c-8.663-3.234-13.563-8.015-13.106-12.792  c0.28-2.937,2.686-5.52,5.595-6.009c4.725-0.806,9.855,3.755,13.702,12.175c1.721,3.769,6.171,5.425,9.938,3.706  c2.76-1.261,5.622-5.216,3.707-9.938c-3.48-8.577-3.931-15.272-0.229-18.329c2.276-1.879,5.803-2.003,8.206-0.293  c3.91,2.784,3.702,9.42,1.079,18.298c-2.208,7.472,4.819,9.787,5.026,9.845C161.353,77.735,145.739,86.848,129.53,100.596z   M216.442,61.491c-3.371,0.276-7.014,0.726-10.885,1.396c-3.755-2.265-3.912-6.018-3.791-7.296c0.219-2.313,1.613-4.318,3.639-5.232  c3.32-1.499,8.258-0.152,13.552,3.691c3.351,2.437,8.041,1.69,10.476-1.659c2.435-3.351,1.691-8.041-1.66-10.476  c-5.9-4.287-8.682-9.125-7.441-12.943c0.828-2.55,3.375-4.4,6.056-4.4c4.014,0,7.756,4.142,10.01,11.077  c1.28,3.939,5.513,6.094,9.45,4.815c3.17-1.03,6.345-4.743,4.815-9.45c-2.253-6.937-1.66-12.486,1.587-14.846  c2.169-1.576,5.316-1.576,7.486,0c3.247,2.359,3.631,7.843,1.587,14.846c-1.657,5.678,1.646,8.42,4.815,9.45  c3.935,1.278,8.171-0.874,9.45-4.815c2.254-6.936,5.996-11.077,10.01-11.077c2.681,0,5.228,1.851,6.056,4.4  c1.24,3.817-1.541,8.655-7.441,12.943c-3.352,2.435-4.094,7.125-1.659,10.476c2.435,3.353,7.125,4.097,10.476,1.659  c0.009-0.006,0.018-0.013,0.026-0.019c5.392-3.91,10.387-5.219,13.705-3.588c2.048,1.005,3.415,3.191,3.485,5.568  c0.051,1.749-0.452,5.144-3.701,6.983c0,0-7.481-1.216-11.001-1.504c-19.544-1.6-33.754,1.982-39.553,3.835  C250.19,63.473,235.977,59.895,216.442,61.491z M416.057,223.971c-1.433,16.998-5.035,32.119-8.254,42.933  c-12.467-23.302-41.174-64.328-98.1-90.893c-22.67-10.58-38.045-25.14-45.709-43.278c2.457-7.25,3.73-14.204,4.283-20.433  c1.261-14.21-0.932-26.477-2.875-33.991c6.247-1.438,16.633-2.977,29.796-1.792c29.159,2.627,58.802,17.433,85.724,42.816  C407.943,144.809,419.763,180.014,416.057,223.971z"/>
<g>
</g>
<g>
</g>
<g>
</g>
<g>
</g>
<g>
</g>
<g>
</g>
<g>
</g>
<g>
</g>
<g>
</g>
<g>
</g>
<g>
</g>
<g>
</g>
<g>
</g>
<g>
</g>
<g>
</g>
</svg>
