<?xml version="1.0" encoding="iso-8859-1"?>
<!-- Generator: Adobe Illustrator 19.0.0, SVG Export Plug-In . SVG Version: 6.00 Build 0)  -->
<svg xmlns="http://www.w3.org/2000/svg" xmlns:xlink="http://www.w3.org/1999/xlink" version="1.1" id="Capa_1" x="0px" y="0px" viewBox="0 0 512.001 512.001" style="enable-background:new 0 0 512.001 512.001;" xml:space="preserve">
<path style="fill:#6A563D;" d="M152.152,243.102c0,0-134.304,53.218-144.636-208.819C6.88,18.143,26.123,9.343,37.867,20.433  c22.469,21.217,53.324,48.08,79.051,62.217c56.778,31.198,69.901,71.875,69.901,71.875L152.152,243.102z"/>
<g>
	<path style="fill:#5F4D37;" d="M77.105,141.883c-19.607,36.843-15.919,76.154-15.897,77.363   c41.256,43.543,90.945,23.858,90.945,23.858l34.667-88.578c0,0-12.317-38.178-64.712-68.929c-0.374,0.297-0.756,0.588-1.127,0.888   C102.05,101.786,88.263,120.914,77.105,141.883z"/>
	<circle style="fill:#5F4D37;" cx="112.534" cy="153.044" r="56.932"/>
</g>
<path style="fill:#554431;" d="M169.461,153.046c0-31.443-25.49-56.933-56.932-56.933c-0.791,0-1.576,0.028-2.36,0.06  c-13.55,13.388-24.151,28.959-33.065,45.709c-7.302,13.722-11.371,27.785-13.603,40.096c9.909,16.755,28.152,28,49.028,28  C143.972,209.978,169.461,184.489,169.461,153.046z"/>
<path style="fill:#806749;" d="M77.103,121.16c44.18,30.69,73.33,67.441,88.013,88.818l21.704-55.454  c0,0-13.124-40.677-69.901-71.876C91.19,68.512,60.335,41.649,37.867,20.433C26.123,9.342,6.88,18.143,7.516,34.283  C7.516,34.283,10.307,74.76,77.103,121.16z"/>
<g>
	<path style="fill:#6A563D;" d="M186.819,154.524c0,0-12.3-38.119-64.593-68.857c-0.039-0.023-0.08-0.046-0.119-0.069   c-0.374,0.297-0.756,0.588-1.127,0.888c-14.421,11.656-25.853,25.54-35.416,40.761c39.462,29.34,65.828,62.751,79.552,82.731   L186.819,154.524z"/>
	<path style="fill:#6A563D;" d="M359.864,243.102c0,0,134.304,53.218,144.636-208.819c0.636-16.139-18.608-24.94-30.351-13.85   c-22.469,21.217-53.324,48.08-79.051,62.217c-56.778,31.198-69.901,71.875-69.901,71.875L359.864,243.102z"/>
</g>
<g>
	<path style="fill:#5F4D37;" d="M434.911,141.883c19.607,36.843,15.919,76.154,15.897,77.363   c-41.256,43.543-90.945,23.858-90.945,23.858l-34.667-88.578c0,0,12.317-38.178,64.712-68.929c0.374,0.297,0.756,0.588,1.127,0.888   C409.965,101.786,423.753,120.914,434.911,141.883z"/>
	<circle style="fill:#5F4D37;" cx="399.482" cy="153.044" r="56.932"/>
</g>
<path style="fill:#554431;" d="M342.554,153.046c0-31.443,25.49-56.933,56.932-56.933c0.791,0,1.576,0.028,2.36,0.06  c13.55,13.388,24.151,28.959,33.065,45.709c7.302,13.722,11.371,27.785,13.603,40.096c-9.909,16.755-28.152,28-49.028,28  C368.043,209.978,342.554,184.489,342.554,153.046z"/>
<path style="fill:#806749;" d="M434.913,121.16c-44.18,30.69-73.33,67.441-88.013,88.818l-21.704-55.454  c0,0,13.124-40.677,69.901-71.876c25.728-14.136,56.583-41,79.051-62.217c11.743-11.089,30.987-2.289,30.351,13.85  C504.5,34.283,501.709,74.76,434.913,121.16z"/>
<path style="fill:#6A563D;" d="M325.197,154.524c0,0,12.3-38.119,64.593-68.857c0.039-0.023,0.08-0.046,0.119-0.069  c0.374,0.297,0.756,0.588,1.127,0.888c14.421,11.656,25.853,25.54,35.416,40.761c-39.462,29.34-65.828,62.751-79.552,82.731  L325.197,154.524z"/>
<path style="fill:#957856;" d="M415.852,215.358c0,88.28-71.564,281.194-159.844,281.194S96.164,303.638,96.164,215.358  S167.728,77.697,256.008,77.697S415.852,127.08,415.852,215.358z"/>
<path style="fill:#806749;" d="M169.461,208.487c0-59.132,27.511-103.306,70.424-130.227  c-80.707,5.676-143.721,54.262-143.721,137.099c0,88.279,71.564,281.194,159.844,281.194c7.078,0,14.047-1.246,20.882-3.573  C213.417,422.253,169.461,283.238,169.461,208.487z"/>
<g>
	<ellipse style="fill:#3E3D42;" cx="256.008" cy="424.522" rx="44.993" ry="37.111"/>
	<circle style="fill:#3E3D42;" cx="186.346" cy="284.398" r="15"/>
	<circle style="fill:#3E3D42;" cx="325.67" cy="284.398" r="15"/>
</g>
<path style="fill:#2D2D30;" d="M256.008,387.411c-24.85,0-44.993,16.615-44.993,37.108c0,19.633,18.491,35.694,41.89,37.01  c-27.101-41.657,14.669-72.875,14.669-72.875l0,0C263.882,387.847,260.008,387.411,256.008,387.411z"/>
<path style="fill:#1D1D1F;" d="M220.366,424.519c-3.39,0-6.544,0.98-9.225,2.649c1.019,11.9,8.834,22.248,20.273,28.419  c3.936-3.209,6.453-8.093,6.453-13.567C237.866,432.355,230.031,424.519,220.366,424.519z"/>
<path style="fill:#2D2D30;" d="M291.65,424.519c-9.665,0-17.501,7.835-17.501,17.5c0,5.475,2.517,10.358,6.453,13.567  c11.438-6.171,19.254-16.518,20.273-28.419C298.194,425.499,295.04,424.519,291.65,424.519z"/>
<g>
	<path style="fill:#554431;" d="M256.008,169.143c-4.142,0-7.5-3.357-7.5-7.5v-25.781c0-4.143,3.358-7.5,7.5-7.5   c4.142,0,7.5,3.357,7.5,7.5v25.781C263.508,165.785,260.15,169.143,256.008,169.143z"/>
	<path style="fill:#554431;" d="M216.044,168.049l-8.488-14.18c-2.127-3.554-0.97-8.159,2.583-10.287   c3.554-2.127,8.16-0.971,10.287,2.584l8.488,14.18c2.127,3.554,0.97,8.159-2.583,10.287   C225.124,171.355,219.798,173.882,216.044,168.049z"/>
	<path style="fill:#554431;" d="M190.368,184.769l-6.08-5.568c-3.055-2.797-3.263-7.541-0.465-10.596   c2.798-3.055,7.542-3.263,10.596-0.465l6.08,5.568c3.055,2.797,3.263,7.541,0.465,10.596   C199.485,185.919,195.343,188.244,190.368,184.769z"/>
	<path style="fill:#554431;" d="M285.685,170.633c-3.554-2.128-4.71-6.733-2.583-10.287l8.488-14.18   c2.127-3.553,6.733-4.71,10.287-2.584c3.554,2.128,4.71,6.733,2.583,10.287l-8.488,14.18   C292.192,173.494,286.892,171.355,285.685,170.633z"/>
	<path style="fill:#554431;" d="M311.051,184.304c-2.798-3.055-2.589-7.799,0.465-10.596l6.08-5.568   c3.055-2.799,7.798-2.59,10.596,0.465c2.798,3.055,2.589,7.799-0.465,10.596l-6.08,5.568   C316.453,188.632,312.531,185.919,311.051,184.304z"/>
</g>
<path d="M256.008,469.128c28.945,0,52.494-20.012,52.494-44.608c0-24.597-23.549-44.609-52.494-44.609s-52.494,20.012-52.494,44.608  C203.514,449.115,227.063,469.128,256.008,469.128z M229.697,445.587c-4.715-3.672-8.206-8.319-9.944-13.524  c0.205-0.013,9.986-0.831,10.614,9.957C230.438,443.257,230.127,444.462,229.697,445.587z M281.65,442.02  c0.037-9.666,10.409-9.969,10.614-9.957c-1.738,5.205-5.23,9.852-9.944,13.524C281.888,444.462,281.645,443.259,281.65,442.02z   M256.008,394.91c17.404,0,32.073,9.413,36.279,22.131c-0.213-0.006-23.931,0.488-25.639,24.979  c-0.251,3.606,0.779,7.115,2.226,10.311c-4.015,1.162-8.349,1.797-12.867,1.797c-4.518,0-8.852-0.635-12.867-1.797  c1.448-3.195,2.459-6.704,2.226-10.311c-1.552-24.117-25.426-24.984-25.639-24.979C223.935,404.325,238.604,394.91,256.008,394.91z"/>
<path d="M186.342,261.902c-12.407,0-22.501,10.094-22.501,22.501s10.093,22.501,22.501,22.501s22.501-10.094,22.501-22.501  S198.749,261.902,186.342,261.902z M186.342,291.902c-4.136,0-7.5-3.364-7.5-7.5s3.364-7.5,7.5-7.5s7.5,3.364,7.5,7.5  S190.478,291.902,186.342,291.902z"/>
<path d="M325.674,306.903c12.407,0,22.501-10.094,22.501-22.501s-10.093-22.501-22.501-22.501s-22.501,10.094-22.501,22.501  S313.267,306.903,325.674,306.903z M325.674,276.902c4.136,0,7.5,3.364,7.5,7.5s-3.364,7.5-7.5,7.5s-7.5-3.364-7.5-7.5  S321.538,276.902,325.674,276.902z"/>
<path d="M511.995,34.026c0.2-10.357-5.482-19.414-14.953-23.72c-9.614-4.371-20.361-2.581-28.043,4.673  c-21.383,20.191-52.189,47.181-77.513,61.097c-11.593,6.37-22.252,13.597-31.773,21.522c-28.292-17.76-64.443-27.401-103.705-27.401  c-39.261,0-75.412,9.641-103.704,27.398c-9.517-7.92-20.181-15.149-31.774-21.521C95.204,62.16,64.398,35.17,43.017,14.979  c-7.682-7.254-18.428-9.045-28.043-4.673C5.333,14.689-0.397,23.99,0.021,34.578C2.696,102.44,13.958,155.633,33.49,192.677  c14.784,28.039,34.188,46.886,57.709,56.091c6.078,44.003,22.672,97.752,45.041,143.583  c20.363,41.717,62.998,111.702,119.768,111.702c46.601,0,83.534-46.959,106.311-86.354c2.073-3.586,0.847-8.174-2.739-10.247  c-3.585-2.072-8.173-0.847-10.247,2.739c-29.403,50.854-62.546,78.86-93.325,78.86c-18.648,0-37.781-9.851-56.868-29.278  c-17.288-17.599-34.377-43.188-49.418-74.004c-27.118-55.559-46.057-125.635-46.057-170.411c0-39.587,15.226-72.818,44.031-96.103  c27.173-21.962,65.639-34.058,108.312-34.058s81.139,12.096,108.312,34.059c28.806,23.284,44.031,56.516,44.031,96.103  c0,43.75-17.576,110.291-43.734,165.578c-1.771,3.744-0.172,8.216,3.572,9.987c3.745,1.771,8.215,0.172,9.987-3.571  c21.043-44.475,36.705-96.23,42.607-138.569c23.098-9.02,43.47-26.725,56.937-54.599c34.295-70.984,34.272-159.951,34.275-160.123  C511.995,34.05,511.996,34.038,511.995,34.026z M17.891,75.203c8.746,12.374,21.769,26.758,41.139,41.941  c-7.159,10.62-10.932,22.938-10.932,35.901c0,16.104,5.997,31.502,16.821,43.413c3.97,4.368,9.157,1.798,10.595,0.486  c3.06-2.792,3.278-7.536,0.486-10.596c-8.32-9.12-12.902-20.948-12.902-33.304c0-9.707,2.748-18.945,7.983-26.953  c0.58,0.409,22.236,16.408,31.946,25.012c-18.735,38.255-14.128,74.749-13.7,80.353C59.975,216.167,28.272,175.648,17.891,75.203z   M110.66,137.854c-9.446-8.223-19.263-15.896-29.278-22.853c-60.291-41.882-66.027-78.442-66.37-81.146  c-0.188-6.483,4.667-9.211,6.17-9.893c1.504-0.685,6.781-2.566,11.535,1.924c22.02,20.792,53.875,48.657,80.588,63.337  c9.488,5.214,18.279,11.037,26.251,17.353C139.126,106.914,121.204,121.218,110.66,137.854z M372.454,106.571  c7.973-6.317,16.767-12.134,26.256-17.349c26.715-14.679,58.57-42.545,80.588-63.337c4.754-4.492,10.03-2.609,11.535-1.924  c1.506,0.684,6.381,3.422,6.17,9.936c-0.257,2.431-5.122,38.556-66.37,81.102c-4.366,3.033-8.735,6.229-12.985,9.496  c-3.284,2.524-3.899,7.233-1.375,10.517c1.477,1.922,6.134,4.356,10.517,1.374c4.233-2.88,13.557-9.881,14.135-10.288  c5.186,7.974,7.991,17.328,7.991,26.948c0,18.691-10.546,35.492-26.615,43.861C419.144,141.253,372.885,106.911,372.454,106.571z   M422.678,231.468c1.234-7.481,0.656-17.74,0.644-18.553c24.229-9.642,40.597-33.292,40.597-59.869  c0-12.852-3.847-25.337-10.937-35.898c19.375-15.186,32.4-29.573,41.146-41.949C483.785,175.397,452.248,216.086,422.678,231.468z"/>
<g>
</g>
<g>
</g>
<g>
</g>
<g>
</g>
<g>
</g>
<g>
</g>
<g>
</g>
<g>
</g>
<g>
</g>
<g>
</g>
<g>
</g>
<g>
</g>
<g>
</g>
<g>
</g>
<g>
</g>
</svg>
