<?xml version="1.0" encoding="iso-8859-1"?>
<!-- Generator: Adobe Illustrator 19.0.0, SVG Export Plug-In . SVG Version: 6.00 Build 0)  -->
<svg xmlns="http://www.w3.org/2000/svg" xmlns:xlink="http://www.w3.org/1999/xlink" version="1.1" id="Capa_1" x="0px" y="0px" viewBox="0 0 512 512" style="enable-background:new 0 0 512 512;" xml:space="preserve">
<g>
	<circle style="fill:#FF3F62;" cx="122.28" cy="184.87" r="32.923"/>
	<circle style="fill:#FF3F62;" cx="208.45" cy="151.94" r="32.923"/>
	<circle style="fill:#FF3F62;" cx="303.5" cy="151.94" r="32.923"/>
	<circle style="fill:#FF3F62;" cx="389.68" cy="185.44" r="32.923"/>
</g>
<path style="fill:#91DC5A;" d="M421.341,182.762c-7.877-4.519-16.473-6.465-24.861-6.137c-6.924,0.271-13.286-3.566-16.936-9.457  c-10.492-16.934-29.237-28.216-50.623-28.216c-5.539,0-10.901,0.758-15.989,2.175c-6.009,1.673-12.369,0.406-17.271-3.45  c-10.92-8.59-24.691-13.716-39.663-13.716c-14.971,0-26.563,5.126-36.611,13.716c-4.627,3.956-10.948,5.237-16.852,3.752  c-6.403-1.611-13.538-2.477-19.459-2.477c-21.255,0-37.603,11.143-47.31,27.905c-3.646,6.296-10.368,10.033-17.639,9.771  c-8.858-0.32-18.418,1.352-25.877,5.26c-22.682,11.884-31.435,39.906-19.551,62.588s39.906,31.435,62.588,19.551h241.421  c23.545,12.337,52.845,2.435,63.874-22.201C450.214,220.315,441.784,194.49,421.341,182.762z"/>
<path style="fill:#6DC82A;" d="M227.724,154.95c2.575-11.973,7.351-21.475,12.807-28.925c-7.924,2.246-14.801,6.245-21.074,11.595  c-4.632,3.95-10.875,5.344-16.775,3.847c-6.44-1.634-13.638-2.513-19.604-2.513c-21.254,0-37.602,11.143-47.31,27.904  c-3.654,6.308-10.506,10.011-17.792,9.767c-8.815-0.295-18.309,1.38-25.724,5.266c-22.682,11.884-31.435,39.906-19.551,62.588  s39.906,31.435,62.588,19.551h27.661c13.288-55.824,36.379-78.939,50.576-88.252C220.827,170.986,225.888,163.486,227.724,154.95z"/>
<g>
	<circle style="fill:#FFFFFF;" cx="263.5" cy="148.94" r="7.5"/>
	<circle style="fill:#FFFFFF;" cx="290.77" cy="169.19" r="7.5"/>
	<circle style="fill:#FFFFFF;" cx="175.53" cy="161.69" r="7.5"/>
	<circle style="fill:#FFFFFF;" cx="346.59" cy="166.47" r="7.5"/>
	<circle style="fill:#FFFFFF;" cx="223" cy="166.47" r="7.5"/>
</g>
<g>
	<path style="fill:#FFB655;" d="M64.198,300.181h105.467c13.117,0,21.159-14.378,14.293-25.555l-52.733-85.84   c-6.548-10.659-22.038-10.659-28.586,0l-52.733,85.84C43.039,285.803,51.081,300.181,64.198,300.181z"/>
	<path style="fill:#FFB655;" d="M342.335,300.181h105.467c13.117,0,21.159-14.378,14.293-25.555l-52.733-85.84   c-6.548-10.659-22.038-10.659-28.586,0l-52.733,85.84C321.176,285.803,329.218,300.181,342.335,300.181z"/>
</g>
<path style="fill:#FFA733;" d="M183.958,274.626l-49.863-81.168l-40.216,65.465c-7.679,12.499-8.969,27.787-3.796,41.258h79.583  C182.782,300.181,190.824,285.803,183.958,274.626z"/>
<path style="fill:#FFC477;" d="M133.732,300.181h105.467c13.117,0,21.159-14.378,14.293-25.555l-52.733-85.84  c-6.548-10.659-22.038-10.659-28.586,0l-52.733,85.84C112.573,285.803,120.615,300.181,133.732,300.181z"/>
<path style="fill:#FFA733;" d="M377.906,193.458l-49.864,81.168c-6.866,11.177,1.176,25.555,14.293,25.555h79.582  c5.173-13.47,3.884-28.759-3.795-41.258L377.906,193.458z"/>
<path style="fill:#FFC477;" d="M272.801,300.181h105.467c13.117,0,21.159-14.378,14.293-25.555l-52.733-85.84  c-6.548-10.659-22.038-10.659-28.586,0l-52.733,85.84C251.642,285.803,259.684,300.181,272.801,300.181z"/>
<g>
	<path style="fill:#FFB655;" d="M308.372,193.458l-49.864,81.169c-6.866,11.177,1.176,25.555,14.293,25.555h79.583   c5.173-13.47,3.884-28.759-3.795-41.258L308.372,193.458z"/>
	<path style="fill:#FFB655;" d="M253.492,274.626l-49.863-81.168l-40.217,65.465c-7.679,12.499-8.968,27.787-3.796,41.258h79.583   C252.316,300.181,260.358,285.803,253.492,274.626z"/>
</g>
<path style="fill:#FFDAAA;" d="M203.267,300.181h105.467c13.117,0,21.159-14.378,14.293-25.555l-52.733-85.84  c-6.548-10.659-22.038-10.659-28.586,0l-52.733,85.84C182.108,285.803,190.149,300.181,203.267,300.181z"/>
<path style="fill:#FFC477;" d="M236.475,274.627l43.276-70.445l-9.458-15.396c-6.548-10.659-22.038-10.659-28.585,0l-52.734,85.84  c-6.866,11.177,1.176,25.555,14.293,25.555h47.501C237.651,300.181,229.609,285.803,236.475,274.627z"/>
<path style="fill:#B9D8F4;" d="M45.679,319.668l11.71,42.925c4.894,17.939,21.189,30.384,39.783,30.384h317.654  c18.595,0,34.89-12.445,39.784-30.384l11.71-42.925H45.679z"/>
<path style="fill:#96C8EF;" d="M162.758,362.594l-11.71-42.926H45.679l11.71,42.926c4.894,17.939,21.189,30.384,39.784,30.384  h105.369C183.947,392.978,167.652,380.533,162.758,362.594z"/>
<path style="fill:#D1E7F8;" d="M485.013,339.155H26.987c-10.718,0-19.487-8.769-19.487-19.487l0,0  c0-10.718,8.769-19.487,19.487-19.487h458.026c10.718,0,19.487,8.769,19.487,19.487l0,0  C504.5,330.386,495.731,339.155,485.013,339.155z"/>
<path style="fill:#B9D8F4;" d="M131.561,319.668L131.561,319.668c0-10.718,8.769-19.487,19.487-19.487H26.987  c-10.718,0-19.487,8.769-19.487,19.487l0,0c0,10.718,8.769,19.487,19.487,19.487h124.061  C140.33,339.156,131.561,330.386,131.561,319.668z"/>
<path d="M485.013,292.681h-14.781c3.004-7.177,2.415-15.207-1.746-21.98l-19.058-31.023c7.168-22.057-0.958-46.906-19.802-60.478  c-2.164-14.143-11.61-26.111-25.285-31.437c-3.862-1.505-8.208,0.406-9.71,4.267c-1.504,3.859,0.407,8.207,4.267,9.71  c4.668,1.818,8.54,4.877,11.334,8.707c-4.584-1.05-9.301-1.504-14.044-1.316c-4.018,0.135-7.911-2.111-10.267-5.913  c-10.567-17.054-27.74-28.208-47.15-31.044c-7.096-12.676-20.498-20.651-35.269-20.651c-9.136,0-17.801,3.02-24.879,8.571  c-7.205-2.391-14.805-3.631-22.622-3.631c-7.942,0-15.337,1.303-22.289,3.937c-7.119-5.696-16.016-8.877-25.258-8.877  c-14.688,0-28.177,8.027-35.276,20.699c-12.497,1.962-23.751,7.654-32.79,16.498c-5.583-2.807-11.736-4.274-18.108-4.274  c-20.177,0-37.276,14.938-40.03,34.841c-18.972,13.676-26.917,38.249-19.675,60.389l-19.06,31.026  c-4.161,6.773-4.75,14.804-1.746,21.98H26.987C12.106,292.681,0,304.788,0,319.668s12.106,26.987,26.987,26.987h18.28l4.887,17.912  c5.768,21.144,25.103,35.91,47.019,35.91h317.654c18.938,0,36.304-11.102,44.24-28.282c1.737-3.761,0.097-8.217-3.663-9.954  s-8.217-0.096-9.954,3.663c-5.492,11.891-17.513,19.573-30.623,19.573H97.173c-15.171,0-28.556-10.222-32.548-24.857l-3.81-13.965  h129.928c4.143,0,7.5-3.357,7.5-7.5s-3.357-7.5-7.5-7.5H26.987c-6.609,0-11.987-5.378-11.987-11.987s5.378-11.987,11.987-11.987  h458.025c6.609,0,11.987,5.378,11.987,11.987s-5.378,11.987-11.987,11.987H223.834c-4.143,0-7.5,3.357-7.5,7.5s3.357,7.5,7.5,7.5  h261.179c14.881,0,26.987-12.106,26.987-26.987S499.894,292.681,485.013,292.681z M420.535,192.647  c0.656,0.188,16.204,7.716,16.297,26.528L420.535,192.647z M303.501,126.522c5.93,0,11.502,2.054,15.924,5.606  c-2.872,0.408-5.713,0.997-8.503,1.774c-3.722,1.036-7.593,0.264-10.623-2.12c-1.725-1.357-3.501-2.62-5.317-3.802  C297.681,127.022,300.552,126.522,303.501,126.522z M218.677,128.677c-1.405,1.036-2.794,2.129-4.163,3.299  c-2.677,2.289-6.469,3.105-10.147,2.18c-3.732-0.939-7.739-1.65-11.702-2.11c4.415-3.497,9.948-5.524,15.788-5.524  C212.011,126.522,215.487,127.275,218.677,128.677z M183.078,146.452c5.438,0,12.028,0.842,17.63,2.251  c8.385,2.109,17.189,0.115,23.554-5.325c9.511-8.13,19.596-11.916,31.738-11.916c12.842,0,24.954,4.188,35.025,12.109  c6.827,5.37,15.545,7.114,23.921,4.781c4.527-1.261,9.229-1.9,13.976-1.9c18.137,0,34.678,9.221,44.247,24.666  c1.822,2.941,4.128,5.453,6.749,7.474c-2.151,1.725-4.032,3.826-5.533,6.27l-14.083,22.925l-14.083-22.925  c-4.45-7.244-12.183-11.568-20.684-11.568s-16.233,4.324-20.684,11.568l-14.084,22.925l-14.083-22.925  c-4.45-7.244-12.183-11.568-20.684-11.568s-16.233,4.324-20.684,11.568l-14.084,22.925l-14.083-22.925  c-4.45-7.244-12.183-11.568-20.684-11.568s-16.233,4.324-20.684,11.568l-14.084,22.925l-14.083-22.925  c-1.162-1.892-2.553-3.579-4.118-5.047c3.54-2.283,6.563-5.403,8.76-9.198C151.282,155.033,165.778,146.452,183.078,146.452z   M122.279,159.445c2.886,0,5.696,0.49,8.356,1.415c-3.133,6.077-7.801,8.415-12.236,8.272c-5.877-0.21-11.792,0.374-17.284,1.651  C105.703,163.911,113.529,159.445,122.279,159.445z M93.027,190.104L75.1,219.285C76.226,207.628,82.581,196.689,93.027,190.104z   M64.198,292.681c-3.406,0-6.432-1.774-8.095-4.747c-1.662-2.973-1.591-6.479,0.192-9.382l52.733-85.84  c1.726-2.81,4.605-4.42,7.902-4.42s6.177,1.61,7.902,4.42l18.062,29.402L113.047,270.7c-4.161,6.773-4.75,14.804-1.746,21.98  L64.198,292.681L64.198,292.681z M133.732,292.681c-3.406,0-6.432-1.774-8.095-4.747c-1.662-2.973-1.591-6.479,0.192-9.382  l52.733-85.84c1.726-2.81,4.605-4.42,7.902-4.42s6.177,1.61,7.902,4.42l18.062,29.402L182.581,270.7  c-4.161,6.773-4.75,14.804-1.746,21.98L133.732,292.681L133.732,292.681z M331.163,292.681c3.004-7.177,2.415-15.207-1.746-21.98  l-8.063-13.125c-2.168-3.528-6.786-4.631-10.316-2.465c-3.529,2.168-4.633,6.787-2.465,10.316l8.063,13.125  c1.783,2.902,1.854,6.409,0.192,9.382c-1.663,2.973-4.688,4.747-8.095,4.747H203.267c-3.406,0-6.432-1.774-8.095-4.747  c-1.662-2.973-1.591-6.479,0.192-9.382l52.733-85.84c1.726-2.81,4.605-4.42,7.902-4.42s6.177,1.61,7.902,4.42l26.871,43.741  c2.169,3.529,6.787,4.633,10.316,2.465s4.633-6.787,2.465-10.316l-3.985-6.488l18.063-29.402c1.726-2.81,4.605-4.42,7.902-4.42  s6.177,1.61,7.902,4.42l52.733,85.84c1.783,2.902,1.854,6.409,0.192,9.382c-1.663,2.973-4.688,4.747-8.095,4.747H331.163z   M400.697,292.681c3.004-7.177,2.415-15.207-1.746-21.98l-29.847-48.586l18.062-29.402c1.726-2.81,4.605-4.42,7.902-4.42  s6.177,1.61,7.902,4.42l52.733,85.84c1.783,2.902,1.854,6.409,0.192,9.382c-1.663,2.973-4.688,4.747-8.095,4.747L400.697,292.681  L400.697,292.681z"/>
<g>
</g>
<g>
</g>
<g>
</g>
<g>
</g>
<g>
</g>
<g>
</g>
<g>
</g>
<g>
</g>
<g>
</g>
<g>
</g>
<g>
</g>
<g>
</g>
<g>
</g>
<g>
</g>
<g>
</g>
</svg>
