<?xml version="1.0" encoding="iso-8859-1"?>
<!-- Generator: Adobe Illustrator 19.0.0, SVG Export Plug-In . SVG Version: 6.00 Build 0)  -->
<svg xmlns="http://www.w3.org/2000/svg" xmlns:xlink="http://www.w3.org/1999/xlink" version="1.1" id="Capa_1" x="0px" y="0px" viewBox="0 0 512 512" style="enable-background:new 0 0 512 512;" xml:space="preserve">
<path style="fill:#FFA733;" d="M351.685,406.878c120.054-45.222,180.717-179.204,135.496-299.258L52.427,271.384  C97.649,391.438,231.632,452.101,351.685,406.878z"/>
<path style="fill:#FF9811;" d="M234.139,202.936L52.427,271.384c45.221,120.054,179.204,180.717,299.257,135.495  c46.474-17.507,84.039-48.32,110.017-86.472C370.121,330.337,279.756,284.605,234.139,202.936z"/>
<path style="fill:#FF728B;" d="M338.988,373.171c101.438-38.21,152.694-151.416,114.485-252.853L86.134,258.687  C124.344,360.124,237.55,411.381,338.988,373.171z"/>
<path style="fill:#FF3F62;" d="M234.139,202.936l-148.005,55.75c38.21,101.438,151.416,152.694,252.854,114.485  c30.474-11.478,56.409-29.732,76.76-52.395C340.955,313.911,272.073,270.853,234.139,202.936z"/>
<path style="fill:#FFE477;" d="M115.694,306.952v117.506c0,13.428,10.986,24.415,24.415,24.415s24.415-10.987,24.415-24.415v-58.652  c0-8.388,6.863-15.251,15.251-15.251s15.251,6.862,15.251,15.251v15.29c0,13.429,10.987,24.415,24.415,24.415l0,0  c13.428,0,24.415-10.986,24.415-24.415v-74.144L115.694,306.952L115.694,306.952z"/>
<g>
	<path style="fill:#FFDA44;" d="M218.595,381.097v-15.29c0-8.388-6.863-15.251-15.251-15.251h-23.568   c8.388,0,15.251,6.862,15.251,15.251v15.29c0,13.429,10.987,24.415,24.415,24.415l0,0c4.267,0,8.284-1.113,11.784-3.057   C223.711,398.28,218.595,390.259,218.595,381.097z"/>
	<path style="fill:#FFDA44;" d="M139.262,424.459V306.952h-23.568v117.507c0,13.428,10.986,24.415,24.415,24.415   c4.267,0,8.284-1.113,11.784-3.057C144.379,441.643,139.262,433.62,139.262,424.459z"/>
</g>
<path style="fill:#FFE477;" d="M219.442,504.479L219.442,504.479c-13.428,0-24.415-10.987-24.415-24.415v-21.971  c0-13.428,10.987-24.415,24.415-24.415l0,0c13.428,0,24.415,10.987,24.415,24.415v21.971  C243.857,493.492,232.869,504.479,219.442,504.479z"/>
<path style="fill:#FFDA44;" d="M219.442,480.064v-21.971c0-8.988,4.926-16.876,12.207-21.114c-3.598-2.094-7.767-3.301-12.207-3.301  l0,0c-13.428,0-24.415,10.987-24.415,24.415v21.971c0,13.428,10.987,24.415,24.415,24.415l0,0c4.441,0,8.61-1.207,12.207-3.301  C224.367,496.94,219.442,489.053,219.442,480.064z"/>
<path style="fill:#FFC477;" d="M320.792,324.864c107.995-40.68,173.695-144.573,170.882-253.78  c-1.156-44.889-46.422-75.139-88.444-59.31L52.279,143.97c-42.022,15.829-56.08,68.425-27.334,102.922  C94.881,330.815,212.796,365.544,320.792,324.864z"/>
<g>
	<path style="fill:#FFB655;" d="M180.444,171.726c-18.228-21.873-19.238-51.02-6.83-73.46L52.279,143.97   c-42.022,15.829-56.08,68.425-27.334,102.922c69.935,83.923,187.852,118.653,295.847,77.974   c36.168-13.624,67.582-34.345,93.277-59.973C325.228,275.402,237.094,239.707,180.444,171.726z"/>
	<circle style="fill:#FFB655;" cx="314.984" cy="140.078" r="14.999"/>
	<circle style="fill:#FFB655;" cx="365.77" cy="199.213" r="14.999"/>
	<circle style="fill:#FFB655;" cx="380.768" cy="113.261" r="14.999"/>
	<circle style="fill:#FFB655;" cx="288.706" cy="206.713" r="7.499"/>
	<circle style="fill:#FFB655;" cx="243.86" cy="120.32" r="7.499"/>
	<circle style="fill:#FFB655;" cx="231.651" cy="174.695" r="7.499"/>
</g>
<path d="M219.442,426.2c-17.598,0-31.914,14.317-31.914,31.914v21.972c0,17.598,14.317,31.913,31.914,31.913  s31.914-14.316,31.914-31.913v-21.972C251.356,440.518,237.039,426.2,219.442,426.2z M236.357,480.086  c0,9.326-7.588,16.915-16.916,16.915s-16.916-7.588-16.916-16.915v-21.972c0-9.327,7.588-16.916,16.916-16.916  s16.916,7.588,16.916,16.916L236.357,480.086L236.357,480.086z"/>
<path d="M496.995,112.87c1.79-13.761,2.542-27.78,2.177-41.958c-0.612-23.784-12.307-45.059-32.084-58.37  C447.219-0.829,422.981-3.66,400.587,4.776L116.148,111.92c-3.877,1.46-5.835,5.786-4.375,9.661c1.46,3.877,5.79,5.835,9.661,4.375  L405.873,18.812c17.796-6.704,37.053-4.452,52.839,6.172c15.697,10.564,24.979,27.445,25.466,46.313  c2.807,109.016-63.915,208.105-166.029,246.569c-102.115,38.465-217.629,8.02-287.442-75.757  c-12.083-14.499-16.245-33.308-11.419-51.604c4.854-18.398,17.843-32.795,35.635-39.498l38.757-14.599  c3.876-1.46,5.835-5.786,4.375-9.661c-1.46-3.877-5.789-5.835-9.661-4.375l-38.757,14.599c-22.395,8.436-38.743,26.555-44.85,49.709  c-6.081,23.051-0.832,46.754,14.399,65.032c9.073,10.887,18.889,20.902,29.304,30.058c20.914,57.976,59.707,83.931,59.707,83.931  v15.249c0,4.143,3.357,7.499,7.499,7.499c4.143,0,7.499-3.357,7.499-7.499V328.37c16.339,6.804,33.292,11.996,50.613,15.507  c-9.658,2.629-16.782,11.471-16.782,21.95v58.652c0,9.327-7.588,16.916-16.916,16.916s-16.916-7.588-16.916-16.916v-12.831  c0-4.143-3.357-7.499-7.499-7.499c-4.143,0-7.499,3.357-7.499,7.499v12.831c0,17.598,14.317,31.914,31.914,31.914  s31.914-14.317,31.914-31.914V408.47c26.249,11.75,59.625,20.156,97.981,20.908c28.732,0.563,57.037-5.184,84.323-15.462  c58.881-22.179,105.992-65.773,132.653-122.752C513.33,234.859,516.857,171.617,496.995,112.87z M108.195,345.838  c-12.661-13.055-23.578-27.48-32.664-43.15c10.477,7.084,21.396,13.39,32.664,18.905V345.838z M236.357,349.173v31.944  c0,9.327-7.588,16.916-16.916,16.916s-16.916-7.588-16.916-16.916v-15.291c0-7.817-3.965-14.725-9.987-18.822  C204.215,348.534,219.007,349.729,236.357,349.173z M172.023,368.296c5.058,2.763,10.24,5.313,15.504,7.637v5.185  c0,7.735,2.768,14.835,7.363,20.365c-7.754-2.752-15.38-5.946-22.867-9.564V368.296z M473.397,284.809  c-24.994,53.414-69.157,94.28-124.355,115.073c-30.073,11.328-61.45,16.052-93.251,14.05c-8.427-0.531-16.763-1.542-24.997-2.993  c8.54-3.263,15.332-10.088,18.541-18.654c6.73,0.681,13.493,1.037,20.262,1.037c24.475,0,48.987-4.43,72.034-13.11  c62.616-23.586,109.691-76.474,125.926-141.476c1.004-4.019-1.44-8.089-5.459-9.093c-4.019-1.002-8.089,1.44-9.093,5.459  c-15.042,60.223-58.652,109.224-116.66,131.074c-27.099,10.206-56.375,14.061-84.989,11.245v-29.124  c24.268-2.113,48.515-7.517,72.079-16.394c83.83-31.576,145.114-101.759,167.015-185.504  C499.632,192.936,493.849,241.1,473.397,284.809z"/>
<g>
</g>
<g>
</g>
<g>
</g>
<g>
</g>
<g>
</g>
<g>
</g>
<g>
</g>
<g>
</g>
<g>
</g>
<g>
</g>
<g>
</g>
<g>
</g>
<g>
</g>
<g>
</g>
<g>
</g>
</svg>
