<?xml version="1.0" encoding="iso-8859-1"?>
<!-- Generator: Adobe Illustrator 19.0.0, SVG Export Plug-In . SVG Version: 6.00 Build 0)  -->
<svg xmlns="http://www.w3.org/2000/svg" xmlns:xlink="http://www.w3.org/1999/xlink" version="1.1" id="Capa_1" x="0px" y="0px" viewBox="0 0 512 512" style="enable-background:new 0 0 512 512;" xml:space="preserve">
<rect x="80.72" y="219.911" style="fill:#FF9811;" width="264.87" height="110.77"/>
<path style="fill:#FFB655;" d="M431.282,219.913H302.25v110.766h129.032c30.587,0,55.383-24.796,55.383-55.383  C486.665,244.708,461.869,219.913,431.282,219.913z"/>
<path style="fill:#FF9811;" d="M418.305,275.296c0-30.587-24.796-55.383-55.383-55.383H302.25v110.766h60.673  C393.509,330.679,418.305,305.883,418.305,275.296z"/>
<g>
	<path style="fill:#CC7400;" d="M302.25,315.68c-22.267,0-40.383-18.115-40.383-40.383s18.116-40.383,40.383-40.383   s40.383,18.115,40.383,40.383C342.633,297.564,324.517,315.68,302.25,315.68z"/>
	<path style="fill:#CC7400;" d="M191.484,315.68c-22.267,0-40.383-18.115-40.383-40.383s18.116-40.383,40.383-40.383   s40.383,18.115,40.383,40.383C231.867,297.564,213.751,315.68,191.484,315.68z"/>
	<path style="fill:#CC7400;" d="M80.718,315.68c-22.267,0-40.383-18.115-40.383-40.383s18.116-40.383,40.383-40.383   s40.383,18.115,40.383,40.383C121.101,297.564,102.985,315.68,80.718,315.68z"/>
</g>
<g>
	<circle style="fill:#AA6100;" cx="315.04" cy="263.501" r="7.5"/>
	<circle style="fill:#AA6100;" cx="291.85" cy="291.441" r="7.5"/>
	<circle style="fill:#AA6100;" cx="191.48" cy="258.101" r="7.5"/>
	<circle style="fill:#AA6100;" cx="213.15" cy="278.851" r="7.5"/>
	<circle style="fill:#AA6100;" cx="75.58" cy="263.501" r="7.5"/>
	<circle style="fill:#AA6100;" cx="90.58" cy="288.621" r="7.5"/>
	<circle style="fill:#AA6100;" cx="180.62" cy="288.621" r="7.5"/>
</g>
<path style="fill:#B9D8F4;" d="M39.604,338.254l16.868,49.614c5.824,17.131,21.91,28.652,40.004,28.652h319.049  c18.094,0,34.18-11.521,40.004-28.652l16.868-49.614H39.604z"/>
<path style="fill:#96C8EF;" d="M163.861,387.869l-16.868-49.614H39.604l16.868,49.614c5.824,17.131,21.91,28.652,40.004,28.652  h107.389C185.771,416.521,169.685,405,163.861,387.869z"/>
<path style="fill:#D1E7F8;" d="M485.717,357.037H26.283c-10.331,0-18.783-8.452-18.783-18.783l0,0  c0-10.331,8.452-18.783,18.783-18.783h459.434c10.331,0,18.783,8.452,18.783,18.783l0,0  C504.5,348.585,496.048,357.037,485.717,357.037z"/>
<path style="fill:#B9D8F4;" d="M139.132,338.254c0-10.331,8.452-18.783,18.783-18.783H26.283c-10.331,0-18.783,8.452-18.783,18.783  s8.452,18.783,18.783,18.783h131.632C147.585,357.037,139.132,348.585,139.132,338.254z"/>
<path style="fill:#F45747;" d="M423.116,162.053c-5.665-3.527-12.013-5.065-18.332-5.223c-5.792-0.144-11.083-3.439-13.762-8.576  c-9.202-17.64-27.658-29.685-48.931-29.685c-6.622,0-12.969,1.17-18.85,3.311c-6.117,2.227-12.95,0.361-17.349-4.438  C293.518,103.949,275.753,95.482,256,95.482s-37.519,8.467-49.891,21.963c-4.399,4.798-11.232,6.665-17.349,4.438  c-5.881-2.141-12.228-3.311-18.85-3.311c-21.289,0-39.756,12.062-48.951,29.722c-2.661,5.111-7.916,8.405-13.676,8.573  c-6.313,0.184-12.66,1.752-18.399,5.188c-32.244,19.302-17.403,58.518-17.342,58.63c2.986-0.498,6.049-0.771,9.176-0.771h260.121  c2.62,0,4.745,2.124,4.745,4.745v21.811c0,8.25,6.75,15,15,15l0,0c7.554,0,14.81-5.468,14.842-12.953l0.158-8.503  c0-7.136,6.187-12.897,13.462-12.183c6.331,0.621,11.024,6.204,11.024,12.565v19.901c0,8.25,6.75,15,15,15l0,0c8.25,0,15-6.75,15-15  V224.77c0-2.754,2.334-4.916,5.082-4.734c1.65,0.11,3.517,0.305,5.306,0.648C440.52,220.573,454.566,181.639,423.116,162.053z"/>
<g>
	<path style="fill:#E54038;" d="M224.112,148.211c-1.291-23.723,8.533-40.531,18.482-51.38   c-14.392,2.896-27.134,10.341-36.647,20.793c-4.326,4.753-11.167,6.448-17.206,4.252c-5.875-2.137-12.216-3.304-18.83-3.304   c-21.289,0-39.756,12.062-48.951,29.723c-2.661,5.111-7.916,8.404-13.676,8.573c-6.313,0.185-12.66,1.752-18.399,5.188   c-32.244,19.302-17.403,58.518-17.342,58.63c2.986-0.498,6.049-0.771,9.176-0.771h108.802c1.183-32.025,14.07-45.773,24.244-51.875   C220.641,163.913,224.548,156.217,224.112,148.211z"/>
	<path style="fill:#E54038;" d="M362.922,248.124v-19.267c0-4.94-4.004-8.944-8.944-8.944h-13.139c2.62,0,4.745,2.124,4.745,4.745   v21.811c0,8.25,6.75,15,15,15l0,0c3.119,0,6.177-0.943,8.707-2.564C362.202,255.396,362.922,248.124,362.922,248.124z"/>
	<path style="fill:#E54038;" d="M422.16,273.501c-5.409-4.097-5.882-11.145-5.882-11.145V235.63c0-4.339-3.518-7.857-7.857-7.857   h-20.686c0.432-0.003,0.87,0.014,1.311,0.057c6.331,0.621,11.024,6.204,11.024,12.565v19.901c0,8.25,6.75,15,15,15l0,0   C417.631,275.297,420.046,274.645,422.16,273.501z"/>
</g>
<circle style="fill:#F45747;" cx="415.07" cy="296.121" r="15"/>
<path style="fill:#E54038;" d="M415.07,296.121c0-5.549,3.021-10.382,7.5-12.977c-2.208-1.279-4.765-2.023-7.5-2.023  c-8.284,0-15,6.716-15,15s6.716,15,15,15c2.735,0,5.292-0.744,7.5-2.023C418.091,306.503,415.07,301.67,415.07,296.121z"/>
<g>
	<circle style="fill:#FFE477;" cx="255.25" cy="143.84" r="15"/>
	<circle style="fill:#FFE477;" cx="170.04" cy="158.84" r="15"/>
	<circle style="fill:#FFE477;" cx="372.63" cy="185.391" r="15"/>
</g>
<g>
	<circle style="fill:#91DC5A;" cx="322.54" cy="170.391" r="7.5"/>
	<circle style="fill:#91DC5A;" cx="357.57" cy="143.84" r="7.5"/>
	<circle style="fill:#91DC5A;" cx="282.31" cy="192.891" r="7.5"/>
	<circle style="fill:#91DC5A;" cx="222.54" cy="182.821" r="7.5"/>
	<circle style="fill:#91DC5A;" cx="134.65" cy="192.891" r="7.5"/>
</g>
<path d="M485.717,311.972h-3.327c7.602-10.554,11.775-23.284,11.775-36.676c0-28.095-18.284-52.222-44.493-60.153  c0.904-4.47,1.641-10.262,1.43-16.668c-0.137-4.139-3.593-7.419-7.743-7.249c-4.14,0.137-7.385,3.604-7.249,7.743  c0.175,5.314-0.5,10.104-1.216,13.558c-3.105,0.029-6.163,1.171-8.448,3.31c-2.463,2.304-3.875,5.561-3.875,8.934v35.526  c0,4.136-3.364,7.5-7.5,7.5s-7.5-3.364-7.5-7.499v-19.901c0-10.424-7.649-19.034-17.792-20.029  c-5.535-0.544-11.074,1.288-15.196,5.025c-4.11,3.727-6.476,9.022-6.498,14.542l-0.156,8.444c-0.001,0.035-0.001,0.07-0.001,0.105  c-0.014,3.141-3.888,5.486-7.343,5.486c-4.136,0-7.5-3.364-7.5-7.5v-21.812c0-6.752-5.493-12.245-12.245-12.245  c0,0-262.625,0.039-263.887,0.116c-2.354-10.143-4.504-31.896,15.783-44.039c4.307-2.578,9.274-3.967,14.766-4.127  c8.484-0.248,16.19-5.078,20.109-12.605c8.249-15.844,24.457-25.687,42.299-25.687c5.596,0,11.075,0.962,16.285,2.859  c8.911,3.244,18.896,0.724,25.443-6.418c11.379-12.411,27.548-19.531,44.362-19.531s32.983,7.119,44.362,19.531  c6.547,7.141,16.534,9.664,25.444,6.417c5.209-1.896,10.688-2.858,16.284-2.858c17.826,0,34.028,9.83,42.282,25.653  c3.945,7.563,11.695,12.393,20.226,12.605c5.518,0.137,10.415,1.514,14.554,4.091c3.148,1.961,5.893,4.241,8.157,6.777  c2.759,3.091,7.5,3.359,10.59,0.601s3.359-7.499,0.601-10.589c-3.216-3.603-7.058-6.807-11.419-9.521  c-6.441-4.012-13.88-6.149-22.109-6.354c-3.08-0.076-5.877-1.819-7.3-4.547c-10.848-20.797-32.146-33.716-55.581-33.716  c-7.352,0-14.557,1.267-21.416,3.764c-3.189,1.159-6.822,0.195-9.255-2.459C297.207,96.873,277.008,87.981,256,87.981  c-21.007,0-41.207,8.892-55.419,24.395c-2.433,2.656-6.066,3.62-9.254,2.46c-6.859-2.498-14.065-3.765-21.417-3.765  c-23.456,0-44.762,12.936-55.604,33.759c-1.411,2.711-4.186,4.45-7.243,4.539c-8.086,0.236-15.499,2.34-22.032,6.25  C69.526,164.9,61.078,179.684,60.6,198.374c-0.279,10.925,2.264,20.16,3.619,24.039c-22.53,7.021-38.885,28.042-38.885,52.883  c0,14.075,5.27,26.906,13.92,36.675H26.283C11.791,311.972,0,323.762,0,338.254s11.791,26.283,26.283,26.283h323.692  c4.142,0,7.5-3.357,7.5-7.5s-3.358-7.5-7.5-7.5H26.283c-6.221,0-11.283-5.062-11.283-11.283c0-6.221,5.062-11.282,11.283-11.282  h459.435c6.221,0,11.283,5.062,11.283,11.282c0,6.222-5.062,11.283-11.283,11.283h-104.88c-4.142,0-7.5,3.357-7.5,7.5  s3.358,7.5,7.5,7.5h74.701l-7.112,20.917c-4.792,14.096-18.015,23.566-32.903,23.566H96.476c-14.888,0-28.111-9.471-32.903-23.566  c-1.333-3.923-5.595-6.02-9.515-4.687c-3.922,1.333-6.02,5.593-4.687,9.515c6.861,20.18,25.791,33.738,47.105,33.738h319.049  c21.314,0,40.244-13.559,47.104-33.738l8.753-25.745h14.335c14.492,0,26.283-11.791,26.283-26.283S500.209,311.972,485.717,311.972z   M437.57,260.296V227.81c0.52,0.071,41.594,8.483,41.594,47.486c0,14.267-6.231,27.539-17.124,36.676h-31.018  c4.044-4.07,6.548-9.673,6.548-15.851c0-7.302-3.498-13.799-8.904-17.913C434.072,274.095,437.57,267.597,437.57,260.296z   M415.07,288.621c4.136,0,7.5,3.364,7.5,7.5s-3.364,7.5-7.5,7.5s-7.5-3.364-7.5-7.5S410.935,288.621,415.07,288.621z   M382.926,248.609l0.156-8.459c0-4.135,3.405-5.029,5.231-4.857c2.387,0.234,4.257,2.476,4.257,5.102v19.901  c0,7.302,3.498,13.799,8.904,17.912c-5.406,4.113-8.904,10.611-8.904,17.912c0,6.177,2.504,11.781,6.548,15.851h-55.406  c8.651-9.769,13.92-22.6,13.92-36.675c0-2.227-0.147-4.419-0.402-6.578C358.325,268.883,382.926,271.001,382.926,248.609z   M285.376,311.972c-13.862-6.403-23.51-20.429-23.51-36.675c0-22.268,18.116-40.383,40.383-40.383s40.383,18.115,40.383,40.383  c0,16.246-9.648,30.271-23.51,36.675H285.376z M174.611,311.972c-13.862-6.403-23.51-20.429-23.51-36.675  c0-22.268,18.116-40.383,40.383-40.383s40.383,18.115,40.383,40.383c0,16.246-9.648,30.271-23.51,36.675H174.611z M150.021,311.972  h-27.84c8.651-9.769,13.92-22.6,13.92-36.675c0-20.444-11.086-38.289-27.566-47.883h55.133  c-16.48,9.595-27.566,27.439-27.566,47.883C136.101,289.372,141.371,302.202,150.021,311.972z M219.3,227.413h55.133  c-16.48,9.595-27.566,27.439-27.566,47.883c0,14.075,5.27,26.906,13.92,36.675h-27.84c8.651-9.769,13.92-22.6,13.92-36.675  C246.867,254.852,235.781,237.008,219.3,227.413z M338.084,233.085c-2.493-2.118-5.175-4.017-8.018-5.672h8.018V233.085z   M40.335,275.297c0-22.268,18.116-40.383,40.383-40.383s40.383,18.115,40.383,40.383c0,16.246-9.648,30.271-23.51,36.675H63.845  C49.983,305.568,40.335,291.543,40.335,275.297z"/>
<g>
</g>
<g>
</g>
<g>
</g>
<g>
</g>
<g>
</g>
<g>
</g>
<g>
</g>
<g>
</g>
<g>
</g>
<g>
</g>
<g>
</g>
<g>
</g>
<g>
</g>
<g>
</g>
<g>
</g>
</svg>
