<?xml version="1.0" encoding="iso-8859-1"?>
<!-- Generator: Adobe Illustrator 19.0.0, SVG Export Plug-In . SVG Version: 6.00 Build 0)  -->
<svg xmlns="http://www.w3.org/2000/svg" xmlns:xlink="http://www.w3.org/1999/xlink" version="1.1" id="Capa_1" x="0px" y="0px" viewBox="0 0 512 512" style="enable-background:new 0 0 512 512;" xml:space="preserve">
<path style="fill:#D1E7F8;" d="M41.082,63.097l51.373,388.378c4.014,30.347,29.889,53.024,60.5,53.024h206.089  c30.611,0,56.486-22.678,60.5-53.024l51.373-388.378C474.813,33.648,451.896,7.5,422.19,7.5H89.81  C60.104,7.5,37.187,33.648,41.082,63.097z"/>
<path style="fill:#C2DFF6;" d="M259.458,451.476L208.086,63.097C204.19,33.648,227.107,7.5,256.813,7.5H89.81  c-29.706,0-52.623,26.148-48.727,55.597l51.373,388.379c4.014,30.347,29.889,53.024,60.5,53.024h167.003  C289.348,504.5,263.473,481.823,259.458,451.476z"/>
<path style="fill:#96C8EF;" d="M89.944,432.489l2.512,18.987c4.014,30.347,29.889,53.024,60.5,53.024h206.089  c30.611,0,56.486-22.677,60.5-53.024l2.512-18.987H89.944z"/>
<path style="fill:#78B9EB;" d="M92.455,451.476c4.014,30.347,29.889,53.024,60.5,53.024h167.003  c-30.611,0-56.486-22.678-60.5-53.024l-2.512-18.987H89.944L92.455,451.476z"/>
<path style="fill:#B9D8F4;" d="M310.706,294.315c0-30.088-24.618-54.705-54.706-54.705l0,0c-30.088,0-54.706,24.617-54.706,54.705  v138.174h109.411L310.706,294.315L310.706,294.315z"/>
<g>
	<path style="fill:#96C8EF;" d="M201.294,294.315v138.174h55.652l-24.785-187.373C213.932,254.015,201.294,272.759,201.294,294.315z   "/>
	<path style="fill:#96C8EF;" d="M89.944,239.609L89.944,239.609c-8.886,0-17.286,2.161-24.725,5.962l24.725,186.918h54.706V294.315   C144.649,264.227,120.032,239.609,89.944,239.609z"/>
</g>
<path style="fill:#C2DFF6;" d="M422.056,239.609L422.056,239.609c8.886,0,17.286,2.161,24.725,5.962l-24.725,186.918H367.35V294.315  C367.351,264.227,391.967,239.609,422.056,239.609z"/>
<path style="fill:#DDFFFB;" d="M102.027,154.218l25.125,199.984c2.346,17.827,17.542,31.154,35.523,31.154h186.679  c17.968,0,33.157-13.309,35.519-31.121l24.829-180.902L102.027,154.218z"/>
<g>
	<path style="fill:#AAFFF5;" d="M102.027,154.218l25.125,199.984c2.346,17.827,17.542,31.154,35.523,31.154h88.037l-29.595-223.739   L102.027,154.218z"/>
	<path style="fill:#AAFFF5;" d="M256,239.609L256,239.609c-30.088,0-54.706,24.617-54.706,54.705v91.041h109.411v-91.041   C310.706,264.227,286.088,239.609,256,239.609z"/>
</g>
<g>
	<path style="fill:#44FFE8;" d="M201.294,294.315v91.041h49.418l-18.55-140.24C213.932,254.015,201.294,272.759,201.294,294.315z"/>
	<path style="fill:#44FFE8;" d="M113.425,244.982l13.727,109.259c1.493,11.343,8.193,20.857,17.497,26.283v-86.17   C144.649,272.658,131.847,253.81,113.425,244.982z"/>
</g>
<path style="fill:#AAFFF5;" d="M367.351,294.323v86.187c9.31-5.417,16.019-14.926,17.522-26.267l15.087-109.921  C380.799,252.856,367.351,272.089,367.351,294.323z"/>
<path style="fill:#FFFFFF;" d="M186.769,235.546c86.534,9.293,173.193-28.476,214.819-50.279  c11.013-5.768,10.921-21.571-0.156-27.213C269.515,90.869,254.194,55.584,205.943,49.697c-50.629-6.177-96.731,29.377-103.811,79.67  C94.713,182.063,133.857,229.864,186.769,235.546z"/>
<path style="fill:#DDFFFB;" d="M205.943,49.697c-50.628-6.177-96.731,29.378-103.811,79.67  c-7.419,52.696,31.726,100.497,84.637,106.18c14.823,1.592,29.649,1.802,44.253,0.949C177.5,145.382,205.943,49.697,205.943,49.697z  "/>
<path d="M464.794,19.312C454.038,7.039,438.509,0,422.19,0H89.81C73.491,0,57.962,7.039,47.206,19.312s-15.698,28.591-13.558,44.77  L85.02,452.459C89.51,486.403,118.716,512,152.956,512h206.089c34.239,0,63.445-25.597,67.935-59.541l51.373-388.378  C480.493,47.902,475.551,31.585,464.794,19.312z M73.389,250.145c5.285-2.01,18.698-6.014,33.127-0.025l13.199,105.061  c1.592,12.095,8.145,22.514,17.434,29.31v15.619c0,4.143,3.358,7.5,7.5,7.5s7.5-3.357,7.5-7.5v-8.568  c3.382,0.853,6.907,1.314,10.525,1.314h31.12v32.133H96.517L73.389,250.145z M115.928,204.706  c17.193,21.419,42.633,35.354,70.04,38.297c9.241,0.992,23.448,1.234,32.891,1.442c-15.203,11.352-25.065,29.48-25.065,49.87v83.541  h-31.12c-3.7,0-7.255-0.729-10.525-2.046v-81.495c0-23.25-12.831-43.549-31.775-54.223L115.928,204.706z M393.078,239.296  c-19.74,10.439-33.228,31.179-33.228,55.019v81.505c-3.263,1.312-6.808,2.036-10.497,2.036h-31.148v-31.782  c0-4.143-3.358-7.5-7.5-7.5s-7.5,3.357-7.5,7.5v31.782h-94.411v-83.541c0-26.029,21.176-47.205,47.206-47.205  s47.206,21.176,47.206,47.205v20.921c0,4.143,3.358,7.5,7.5,7.5s7.5-3.357,7.5-7.5v-20.921c0-25.451-15.371-47.368-37.311-56.99  c10.575-2.187,21.323-4.872,32.227-8.057c35.05-10.236,65.299-23.796,86.043-34.315L393.078,239.296z M318.206,424.988v-32.133  h31.148c3.607,0,7.123-0.459,10.497-1.307v33.44H318.206z M208.794,424.988v-32.133h94.411v32.133H208.794z M390.319,259.4  l-12.881,93.849c-0.405,3.057-1.296,5.95-2.587,8.606v-67.54C374.851,280.493,380.822,268.041,390.319,259.4z M137.149,294.314  v67.495c-1.276-2.639-2.157-5.51-2.556-8.542l-11.641-92.656C131.705,269.186,137.149,281.124,137.149,294.314z M359.045,497  H152.956c-26.745,0-49.558-19.994-53.065-46.508l-1.389-10.504H413.5l-1.389,10.504C408.603,477.006,385.79,497,359.045,497z   M415.483,424.988H374.85v-40.477c9.293-6.785,15.853-17.189,17.453-29.257l14.494-105.599c13.036-5.332,26.529-1.52,31.814,0.49  L415.483,424.988z M463.482,62.114L440.618,234.97c-5.976-1.892-17.236-4.199-31.603-1.475c0,0,8.266-55.36,8.278-61.924  c0.017-8.571-4.823-16.313-12.458-20.201c-19.946-10.158-38.94-20.48-56.455-30.681c-3.579-2.084-8.172-0.872-10.255,2.707  c-2.084,3.58-0.873,8.171,2.707,10.256c17.757,10.341,37,20.799,57.196,31.085c2.654,1.352,4.189,4.234,4.212,7.814  s-1.902,4.904-4.131,6.072c-99.359,52.042-174.557,53.326-210.538,49.465c-23.877-2.564-46.011-14.864-60.725-33.746  c-14.357-18.424-20.497-41.128-17.286-63.93c3.152-22.39,14.771-42.316,32.718-56.111c17.97-13.812,40.259-19.901,62.757-17.161  c23.337,2.849,38.654,13.298,66.461,32.269c11.297,7.707,24.102,16.443,40.24,26.616c3.507,2.211,8.136,1.159,10.344-2.346  c2.209-3.504,1.159-8.135-2.345-10.344c-15.909-10.028-28.594-18.683-39.786-26.317c-28.771-19.629-46.138-31.478-73.098-34.767  c-26.429-3.228-52.608,3.934-73.715,20.157c-21.08,16.202-34.729,39.61-38.431,65.912c-1.328,9.429-1.295,18.841,0.03,28.022  l9.736,77.496c-12.384-3.904-27.113-0.761-33.089,1.131L48.518,62.114c-1.573-11.895,2.06-23.893,9.969-32.916  C66.395,20.175,77.812,15,89.81,15h332.38c11.998,0,23.415,5.175,31.323,14.198C461.422,38.222,465.056,50.22,463.482,62.114z"/>
<g>
</g>
<g>
</g>
<g>
</g>
<g>
</g>
<g>
</g>
<g>
</g>
<g>
</g>
<g>
</g>
<g>
</g>
<g>
</g>
<g>
</g>
<g>
</g>
<g>
</g>
<g>
</g>
<g>
</g>
</svg>
