<?xml version="1.0" encoding="iso-8859-1"?>
<!-- Generator: Adobe Illustrator 19.0.0, SVG Export Plug-In . SVG Version: 6.00 Build 0)  -->
<svg xmlns="http://www.w3.org/2000/svg" xmlns:xlink="http://www.w3.org/1999/xlink" version="1.1" id="Capa_1" x="0px" y="0px" viewBox="0 0 512 512" style="enable-background:new 0 0 512 512;" xml:space="preserve">
<path style="fill:#91DC5A;" d="M395.475,504.5H126.243c-26.457,0-47.904-21.448-47.904-47.904V55.405  c0-26.457,21.448-47.904,47.904-47.904h269.232c26.457,0,47.904,21.448,47.904,47.904v401.191  C443.379,483.053,421.932,504.5,395.475,504.5z"/>
<path style="fill:#6DC82A;" d="M395.475,7.5H254.698c26.457,0,47.904,21.448,47.904,47.905v401.191  c0,26.457-21.447,47.904-47.904,47.904h140.777c26.457,0,47.904-21.447,47.904-47.904V55.405  C443.379,28.948,421.932,7.5,395.475,7.5z"/>
<path style="fill:#D1E7F8;" d="M131.226,431.083V80.917c0-11.338,9.192-20.53,20.53-20.53h218.207c11.338,0,20.53,9.192,20.53,20.53  v350.166c0,11.338-9.192,20.53-20.53,20.53H151.756C140.417,451.613,131.226,442.421,131.226,431.083z"/>
<path style="fill:#B9D8F4;" d="M369.963,60.387h-67.361v391.226h67.361c11.339,0,20.53-9.192,20.53-20.53V80.917  C390.493,69.579,381.302,60.387,369.963,60.387z"/>
<g>
	<path style="fill:#FFFFFF;" d="M192.921,60.387h-41.165c-11.338,0-20.53,9.192-20.53,20.53v31.333l259.267,259.267V257.959   L192.921,60.387z"/>
	<polygon style="fill:#FFFFFF;" points="131.226,349.911 232.928,451.613 346.486,451.613 131.226,236.352  "/>
</g>
<g>
	<polygon style="fill:#E5F1F9;" points="390.493,371.518 390.493,257.959 302.602,170.068 302.602,283.627  "/>
	<polygon style="fill:#E5F1F9;" points="346.486,451.613 302.602,407.729 302.602,451.613  "/>
</g>
<path style="fill:#FFDA44;" d="M112.363,307.334c0,19.473-15.786,35.258-35.258,35.258s-35.258-15.786-35.258-35.258  c0-19.473,15.786-73.375,35.258-73.375S112.363,287.861,112.363,307.334z"/>
<path style="fill:#FFA733;" d="M77.105,233.959c-4.241,0-8.306,2.558-12.072,6.758c12.311,16.388,20.891,49.452,20.891,63.808  c0,16.084-10.774,29.643-25.495,33.878c4.965,2.671,10.643,4.189,16.676,4.189c19.473,0,35.258-15.786,35.258-35.258  C112.363,287.861,96.578,233.959,77.105,233.959z"/>
<path style="fill:#FF3F62;" d="M110.635,504.5H43.576c-19.434,0-35.189-15.755-35.189-35.189V368.257  c0-19.429,15.75-35.179,35.179-35.179h67.068c19.434,0,35.189,15.755,35.189,35.189v101.045  C145.824,488.746,130.069,504.5,110.635,504.5z"/>
<path style="fill:#D80027;" d="M145.824,469.312V368.267c0-19.434-15.754-35.189-35.189-35.189H96.444  c-19.429,0-35.179,15.75-35.179,35.179v101.054c0,19.434,15.755,35.189,35.189,35.189h14.181  C130.069,504.5,145.824,488.746,145.824,469.312z"/>
<path style="fill:#FFDA44;" d="M470.153,357.094c0,19.473-15.786,35.258-35.258,35.258c-19.473,0-35.258-15.786-35.258-35.258  c0-19.473,15.786-73.375,35.258-73.375S470.153,337.621,470.153,357.094z"/>
<path style="fill:#FFA733;" d="M434.895,283.718c-3.159,0-6.221,1.42-9.135,3.88c0,0,17.954,32.732,17.954,66.686  c0,16.084-10.774,29.643-25.495,33.878c4.965,2.671,10.643,4.189,16.676,4.189c19.473,0,35.258-15.786,35.258-35.258  C470.153,337.621,454.367,283.718,434.895,283.718z"/>
<path style="fill:#00DDC2;" d="M468.434,504.5h-67.078c-19.429,0-35.179-15.75-35.179-35.179v-51.304  c0-19.429,15.75-35.179,35.179-35.179h67.078c19.429,0,35.179,15.75,35.179,35.179v51.304  C503.613,488.75,487.862,504.5,468.434,504.5z"/>
<path style="fill:#00CCB3;" d="M503.613,469.321v-51.304c0-19.429-15.75-35.179-35.179-35.179h-20.969  c-19.429,0-35.179,15.75-35.179,35.179v51.304c0,19.429,15.75,35.179,35.179,35.179h20.969  C487.863,504.5,503.613,488.75,503.613,469.321z"/>
<path d="M503.613,439.786c4.143,0,7.5-3.357,7.5-7.5v-14.269c0-21.846-16.502-39.9-37.693-42.379  c2.761-5.731,4.232-12.048,4.232-18.545c0-15.271-9.591-56.225-26.779-73.268c0-0.036,0.005-0.071,0.005-0.107V55.405  C450.879,24.854,426.024,0,395.475,0H126.243c-30.55,0-55.404,24.854-55.404,55.405v172.131  c-9.214,3.215-17.554,13.647-24.857,31.139c-1.596,3.822,0.209,8.215,4.031,9.811c3.818,1.595,8.215-0.208,9.811-4.031  c7.58-18.152,14.43-22.995,17.282-22.995c2.999,0,10.158,5.197,17.97,24.677c6.357,15.853,9.788,33.058,9.788,41.198  c0,6.767-2.42,13.187-6.842,18.244H56.049c-0.178-0.3-0.371-0.594-0.596-0.874c-3.994-4.97-6.105-10.977-6.105-17.37  c0-2.105,0.23-5.883,1.327-11.921c0.741-4.075-1.963-7.979-6.038-8.72c-4.071-0.747-7.979,1.962-8.72,6.038  c-1.026,5.649-1.569,10.699-1.569,14.603c0,6.442,1.48,12.791,4.244,18.544c-21.197,2.473-37.705,20.531-37.705,42.38v101.054  C0.887,492.85,20.037,512,43.576,512h424.857c23.533,0,42.68-19.146,42.68-42.679v-6.598c0-4.143-3.357-7.5-7.5-7.5  s-7.5,3.357-7.5,7.5v6.598c0,15.262-12.417,27.679-27.68,27.679h-67.078c-15.262,0-27.679-12.417-27.679-27.679v-51.304  c0-15.263,12.417-27.68,27.679-27.68h67.078c15.263,0,27.68,12.417,27.68,27.68v14.269  C496.113,436.429,499.471,439.786,503.613,439.786z M452.864,315.896c6.357,15.853,9.788,33.058,9.788,41.198  c0,6.742-2.429,13.188-6.846,18.244h-41.823c-4.424-5.056-6.847-11.462-6.847-18.244c0-8.141,3.431-25.346,9.788-41.198  c7.812-19.479,14.971-24.677,17.97-24.677S445.053,296.416,452.864,315.896z M214.821,444.113h-61.498v-61.498L214.821,444.113z   M358.677,459.113v10.208c0,10.555,3.86,20.22,10.231,27.679H143.086c6.375-7.46,10.237-17.129,10.237-27.688v-10.198h205.354  V459.113z M189.813,67.888l169.065,169.065c4.424,4.107,9.143,1.464,10.607,0c2.929-2.93,2.929-7.678,0-10.607L211.028,67.888  h158.935c7.185,0,13.03,5.845,13.03,13.029V353.41L138.726,109.143V80.917c0-7.185,5.846-13.029,13.03-13.029H189.813z   M85.839,228.66V55.405C85.839,33.126,103.964,15,126.243,15h269.231c22.279,0,40.404,18.126,40.404,40.405v220.848  c-0.327-0.018-24.77-2.301-37.886,48.416V80.917c0-15.455-12.574-28.029-28.03-28.029H151.756c-15.456,0-28.03,12.574-28.03,28.029  v155.43c0,0.003,0,0.007,0,0.01v91.282c-2.596-0.839-5.301-1.432-8.086-1.759c2.758-5.72,4.224-12.027,4.224-18.547  C119.863,290.036,107.556,239.78,85.839,228.66z M15.887,469.312V368.258c0-15.263,12.417-27.68,27.68-27.68h67.068  c15.268,0,27.688,12.421,27.688,27.688v82.329c-0.002,0.122-0.004,0.243,0,0.364v18.352c0,15.268-12.421,27.688-27.688,27.688  H43.576C28.309,497,15.887,484.579,15.887,469.312z M358.677,418.018v26.096h-9.083L216.65,311.169  c-2.929-2.927-7.677-2.929-10.607,0c-2.929,2.93-2.929,7.678,0,10.607l122.336,122.337h-92.343l-83.395-83.395  c-1.742-9.718-6.779-18.302-13.916-24.554V254.46l42.842,42.841c4.528,4.649,9.143,1.464,10.607,0c2.929-2.93,2.929-7.678,0-10.607  l-53.449-53.448V130.357l244.268,244.268v4.872C368.625,386.374,358.677,401.055,358.677,418.018z"/>
<g>
</g>
<g>
</g>
<g>
</g>
<g>
</g>
<g>
</g>
<g>
</g>
<g>
</g>
<g>
</g>
<g>
</g>
<g>
</g>
<g>
</g>
<g>
</g>
<g>
</g>
<g>
</g>
<g>
</g>
</svg>
