<?xml version="1.0" encoding="iso-8859-1"?>
<!-- Generator: Adobe Illustrator 19.0.0, SVG Export Plug-In . SVG Version: 6.00 Build 0)  -->
<svg xmlns="http://www.w3.org/2000/svg" xmlns:xlink="http://www.w3.org/1999/xlink" version="1.1" id="Capa_1" x="0px" y="0px" viewBox="0 0 512 512" style="enable-background:new 0 0 512 512;" xml:space="preserve">
<path style="fill:#D1E7F8;" d="M76.166,153.984l54.223,322.381c2.732,16.242,16.793,28.135,33.263,28.135h184.697  c16.47,0,30.531-11.894,33.263-28.135l54.222-322.381c3.179-18.901-11.391-36.126-30.557-36.126H106.723  C87.557,117.857,72.987,135.083,76.166,153.984z"/>
<g>
	<path style="fill:#B9D8F4;" d="M206.722,476.365l-54.223-322.381c-3.179-18.901,11.391-36.126,30.557-36.126h-76.333   c-19.167,0-33.736,17.225-30.557,36.126l54.223,322.381c2.732,16.242,16.793,28.135,33.263,28.135h76.333   C223.515,504.5,209.454,492.607,206.722,476.365z"/>
	<path style="fill:#B9D8F4;" d="M162.599,438.342l2.323,13.809c1.386,8.243,8.523,14.279,16.882,14.279h148.394   c8.359,0,15.495-6.036,16.882-14.279l2.323-13.809c1.171-6.963-4.196-13.309-11.257-13.309h-164.29   C166.795,425.033,161.427,431.379,162.599,438.342z"/>
</g>
<path style="fill:#96C8EF;" d="M173.856,425.033c-7.061,0-12.428,6.346-11.257,13.309l2.323,13.808  c1.386,8.243,8.523,14.28,16.882,14.28h23.248l-6.963-41.397H173.856z"/>
<path style="fill:#FF9478;" d="M256.001,220.6c-42.091,0-76.334-34.243-76.334-76.334c0-18.557,6.814-49.497,16.57-75.241  C211.711,28.2,231.817,7.5,256.001,7.5c24.182,0,44.29,20.7,59.762,61.526c9.757,25.744,16.57,56.684,16.57,75.241  C332.333,186.358,298.09,220.6,256.001,220.6z"/>
<path style="fill:#FF7956;" d="M256,144.267c0-18.557,6.813-49.497,16.57-75.241c6.415-16.925,13.629-30.38,21.596-40.346  C282.915,14.606,270.158,7.5,256.001,7.5c-24.183,0-44.29,20.7-59.763,61.526c-9.757,25.744-16.571,56.684-16.571,75.241  c0,42.091,34.243,76.334,76.334,76.334c13.899,0,26.929-3.752,38.166-10.269C271.374,197.112,256,172.459,256,144.267z"/>
<path style="fill:#FF6243;" d="M179.667,144.267c0,42.091,34.243,76.334,76.334,76.334c42.09,0,76.333-34.243,76.333-76.334  c0-7.258-1.046-16.414-2.899-26.409H182.566C180.713,127.852,179.667,137.009,179.667,144.267z"/>
<path style="fill:#FF5023;" d="M256,144.266c0-7.258,1.046-16.414,2.899-26.409h-76.333c-1.853,9.995-2.899,19.151-2.899,26.409  c0,42.091,34.243,76.334,76.334,76.334c13.899,0,26.929-3.752,38.166-10.269C271.374,197.112,256,172.459,256,144.266z"/>
<path style="fill:#FFEB99;" d="M306.953,144.267c0,28.141-22.812,50.953-50.953,50.953s-50.953-22.812-50.953-50.953  S227.859,32.881,256,32.881S306.953,116.126,306.953,144.267z"/>
<path style="fill:#FFE477;" d="M272.57,69.026c2.296-6.057,4.696-11.66,7.194-16.83C272.669,40.633,264.583,32.881,256,32.881  c-28.14,0-50.953,83.246-50.953,111.386S227.86,195.22,256,195.22c5.983,0,11.72-1.04,17.053-2.934  C262.4,179.16,256,162.45,256,144.266C256,125.709,262.814,94.769,272.57,69.026z"/>
<path style="fill:#FFDA44;" d="M205.047,144.267c0,28.141,22.812,50.953,50.953,50.953s50.953-22.812,50.953-50.953  c0-6.458-1.204-15.82-3.395-26.41h-95.115C206.251,128.447,205.047,137.81,205.047,144.267z"/>
<path style="fill:#FFCD00;" d="M258.899,117.857h-50.457c-2.191,10.589-3.395,19.952-3.395,26.41  c0,28.141,22.812,50.953,50.953,50.953c5.982,0,11.72-1.04,17.053-2.934C262.4,179.16,256,162.45,256,144.267  C256,137.009,257.046,127.852,258.899,117.857z"/>
<path style="fill:#57565C;" d="M256,220.27c-4.143,0-7.5-3.357-7.5-7.5v-65.518c0-4.143,3.357-7.5,7.5-7.5  c4.143,0,7.5,3.357,7.5,7.5v65.518C263.5,216.912,260.143,220.27,256,220.27z"/>
<path style="fill:#FFFFFF;" d="M123.58,206.361l27.971,166.297c1.7,10.108,10.451,17.51,20.701,17.51h167.497  c10.25,0,19.001-7.402,20.701-17.51l27.97-166.297c2.425-14.419-8.69-27.559-23.311-27.559H146.891  C132.27,178.801,121.155,191.942,123.58,206.361z"/>
<path style="fill:#DDFFFB;" d="M146.891,178.801c-14.622,0-25.736,13.141-23.311,27.559l27.971,166.297  c1.7,10.108,10.451,17.51,20.701,17.51h19.972l-35.551-211.366H146.891z"/>
<path d="M338.144,417.533H173.855c-5.576,0-10.84,2.441-14.441,6.699s-5.137,9.854-4.212,15.354l2.322,13.809  c2.002,11.898,12.213,20.535,24.278,20.535h98.937c4.143,0,7.5-3.357,7.5-7.5s-3.357-7.5-7.5-7.5h-98.937  c-4.714,0-8.704-3.374-9.485-8.023l-2.322-13.809c-0.603-3.239,1.466-4.498,3.86-4.564h164.288c2.123-0.023,4.461,0.876,3.861,4.564  l-2.322,13.809c-0.781,4.649-4.771,8.023-9.485,8.023h-16.396c-4.143,0-7.5,3.357-7.5,7.5s3.357,7.5,7.5,7.5h16.396  c12.065,0,22.276-8.637,24.278-20.535l2.322-13.809c0.925-5.5-0.61-11.096-4.212-15.354S343.721,417.533,338.144,417.533z"/>
<path d="M434.662,123.99c-7.328-8.664-18.039-13.633-29.386-13.633h-69.699c-3.027-14.417-7.49-29.977-12.801-43.989  C306.086,22.329,283.619,0,256.001,0s-50.086,22.329-66.776,66.368c-5.311,14.013-9.774,29.573-12.802,43.989h-69.699  c-11.347,0-22.058,4.969-29.386,13.633c-7.327,8.663-10.45,20.049-8.568,31.237l54.223,322.382  c3.351,19.927,20.45,34.391,40.658,34.391h184.697c20.207,0,37.308-14.463,40.66-34.391l54.222-322.382  C445.112,144.039,441.989,132.653,434.662,123.99z M203.25,71.685C217.506,34.071,235.254,15,256.001,15  c20.746,0,38.493,19.071,52.748,56.685c4.695,12.385,8.686,25.964,11.519,38.673h-10.663c-2.698-11.611-6.358-23.903-10.561-34.994  C286.473,42.197,271.991,25.381,256,25.381s-30.473,16.816-43.043,49.982c-4.203,11.091-7.864,23.383-10.561,34.994h-10.663  C194.565,97.649,198.556,84.07,203.25,71.685z M324.833,144.267c0,9.427-1.863,18.5-5.533,27.034h-11.477  c4.32-8.271,6.63-17.512,6.63-27.034c0-5.216-0.661-11.715-1.847-18.909h10.52C324.227,132.45,324.833,138.911,324.833,144.267z   M192.701,171.301c-3.671-8.533-5.534-17.606-5.534-27.034c0-5.355,0.606-11.817,1.707-18.909h10.52  c-1.186,7.194-1.847,13.694-1.847,18.909c0,9.439,2.323,18.735,6.645,27.034H192.701z M221.981,171.301  c-6.17-7.751-9.434-17.095-9.434-27.034c0-4.611,0.705-11.19,2.075-18.909h57.184c4.143,0,7.5-3.357,7.5-7.5s-3.357-7.5-7.5-7.5  h-53.994c2.327-9.486,5.4-19.723,9.173-29.679c7.383-19.481,18.883-40.298,29.016-40.298s21.633,20.816,29.016,40.298  c4.961,13.089,8.713,26.666,11.147,38.381c0.034,0.208,0.075,0.413,0.126,0.616c2.083,10.166,3.164,18.885,3.164,24.591  c0,9.887-3.34,19.366-9.446,27.034H221.981z M428.438,152.739l-54.222,322.382C372.083,487.799,361.204,497,348.349,497H163.651  c-12.856,0-23.734-9.201-25.866-21.879L83.563,152.739c-1.149-6.828,0.757-13.776,5.229-19.063s11.008-8.319,17.933-8.319h67.015  c-1.018,7.033-1.571,13.471-1.571,18.909c0,9.335,1.502,18.386,4.466,27.034h-29.741c-9.181,0-17.846,4.02-23.774,11.028  c-5.929,7.01-8.456,16.222-6.934,25.275l12.385,73.63c0.687,4.085,4.554,6.835,8.641,6.152c4.085-0.688,6.839-4.556,6.152-8.641  l-12.385-73.63c-0.789-4.692,0.521-9.467,3.593-13.1c3.073-3.633,7.564-5.716,12.322-5.716h218.217  c4.758,0,9.249,2.083,12.322,5.716c3.072,3.633,4.382,8.407,3.593,13.1l-27.97,166.297c-1.097,6.521-6.692,11.254-13.305,11.254  H172.252c-6.612,0-12.208-4.732-13.305-11.254l-9.913-58.937c-0.688-4.085-4.559-6.837-8.641-6.152  c-4.085,0.688-6.839,4.556-6.152,8.641l9.913,58.937c2.316,13.771,14.133,23.766,28.098,23.766h167.497  c13.965,0,25.781-9.995,28.098-23.766l27.97-166.297c1.522-9.054-1.005-18.266-6.934-25.275  c-5.929-7.009-14.594-11.028-23.774-11.028h-29.741c2.964-8.649,4.466-17.7,4.466-27.034c0-5.438-0.553-11.876-1.571-18.909h67.015  c6.925,0,13.461,3.032,17.933,8.319C427.681,138.963,429.587,145.911,428.438,152.739z"/>
<g>
</g>
<g>
</g>
<g>
</g>
<g>
</g>
<g>
</g>
<g>
</g>
<g>
</g>
<g>
</g>
<g>
</g>
<g>
</g>
<g>
</g>
<g>
</g>
<g>
</g>
<g>
</g>
<g>
</g>
</svg>
