<?xml version="1.0" encoding="iso-8859-1"?>
<!-- Generator: Adobe Illustrator 19.0.0, SVG Export Plug-In . SVG Version: 6.00 Build 0)  -->
<svg xmlns="http://www.w3.org/2000/svg" xmlns:xlink="http://www.w3.org/1999/xlink" version="1.1" id="Capa_1" x="0px" y="0px" viewBox="0 0 512.001 512.001" style="enable-background:new 0 0 512.001 512.001;" xml:space="preserve">
<path style="fill:#E4187A;" d="M338.642,317.52c0,27.439-29.868,97.126-53.692,148.346c-11.451,24.618-46.447,24.618-57.898,0  c-23.824-51.22-53.692-120.907-53.692-148.346c0-45.642,37-82.641,82.641-82.641S338.642,271.878,338.642,317.52z"/>
<path style="fill:#C61469;" d="M264.687,235.338c-2.855-0.298-5.752-0.457-8.687-0.457c-45.642,0-82.641,37-82.641,82.641  c0,27.439,29.868,97.126,53.692,148.346c10.35,22.253,39.935,24.386,53.983,6.41C247.823,389.497,253.76,297.898,264.687,235.338z"/>
<path style="fill:#E4187A;" d="M297.902,168.467c71.735-22.439,146.615,1.686,193.134,23.239  c17.587,8.149,18.043,32.913,0.791,41.75c-24.517,12.558-60.735,34.734-112.792,73.867c-52.03,39.113-114.456,10.058-130.199-32.782  S254.342,182.093,297.902,168.467z"/>
<g>
	<path style="fill:#C61469;" d="M248.824,274.541c-6.644-18.081-6.677-37.359-1.246-54.637   c36.016-10.899,148.339-38.869,256.525-2.881c-1.212,6.65-5.294,12.851-12.288,16.434c-24.517,12.558-60.735,34.734-112.792,73.867   C326.993,346.437,264.567,317.382,248.824,274.541z"/>
	<path style="fill:#C61469;" d="M214.099,168.467c-71.735-22.439-146.615,1.686-193.134,23.239   c-17.587,8.149-18.043,32.913-0.791,41.75c24.517,12.558,60.735,34.734,112.792,73.867c52.03,39.113,114.456,10.058,130.199-32.782   C278.907,231.701,257.659,182.093,214.099,168.467z"/>
</g>
<path style="fill:#A71159;" d="M263.176,274.541c6.644-18.081,6.677-37.359,1.246-54.637  c-36.016-10.899-148.339-38.869-256.525-2.881c1.212,6.65,5.294,12.851,12.288,16.434c24.517,12.558,60.735,34.734,112.792,73.867  C185.008,346.437,247.434,317.382,263.176,274.541z"/>
<path style="fill:#F072AE;" d="M338.642,194.483c0-27.439-29.868-97.126-53.692-148.346c-11.451-24.618-46.447-24.618-57.898,0  c-23.824,51.22-53.692,120.907-53.692,148.346c0,45.642,37,82.641,82.641,82.641S338.642,240.124,338.642,194.483z"/>
<path style="fill:#ED539D;" d="M268.339,30.109c-14.766-6.076-33.488-0.742-41.288,16.028  c-23.824,51.22-53.693,120.907-53.693,148.346c0,45.642,37,82.642,82.642,82.642c4.678,0,9.258-0.409,13.724-1.156  C245.425,174.659,268.257,30.624,268.339,30.109z"/>
<path style="fill:#FFDE55;" d="M297.321,235.803c0-12.119-11.652-56.357-22.581-95.184c-5.328-18.929-32.151-18.929-37.479,0  c-10.929,38.827-22.581,83.065-22.581,95.184c0,22.821,18.5,41.321,41.321,41.321S297.321,258.624,297.321,235.803z"/>
<path style="fill:#FFCD00;" d="M256,277.124c4.715,0,9.241-0.801,13.462-2.255c-10.972-46.532-12.113-101.878-10.134-148.164  c-9.035-1.494-19.034,3.137-22.067,13.914c-10.929,38.827-22.581,83.065-22.581,95.184C214.68,258.624,233.179,277.124,256,277.124z  "/>
<path style="fill:#ED539D;" d="M240.746,83.534c-28.866,56.986-61.015,141.722-61.225,142.275  c-3.962-9.663-6.163-20.236-6.163-31.327c0-27.439,29.869-97.126,53.693-148.346c11.451-24.618,46.447-24.618,57.898,0  c23.824,51.22,53.693,120.907,53.693,148.346c0,11.091-2.2,21.664-6.163,31.327c-0.21-0.553-32.359-85.289-61.225-142.275  C264.927,71.044,247.074,71.044,240.746,83.534z"/>
<path style="fill:#E4187A;" d="M179.522,225.8c0.21-0.553,32.359-85.29,61.225-142.275c4.392-8.67,14.336-11.316,22.125-7.949  c2.612-27.461,5.439-45.297,5.468-45.476c-14.766-6.076-33.488-0.742-41.288,16.028c-23.824,51.22-53.693,120.907-53.693,148.346  C173.359,205.564,175.559,216.136,179.522,225.8z"/>
<path style="fill:#F490C0;" d="M365.162,224.459c64.968,37.798,97.694,109.338,113.178,158.213  c5.854,18.478-12.114,35.526-30.277,28.757c-25.812-9.619-66.618-21.383-130.627-33.393c-63.976-12.004-84.659-77.68-63.667-118.207  S325.712,201.507,365.162,224.459z"/>
<path style="fill:#F072AE;" d="M448.064,411.43c-25.812-9.619-66.618-21.383-130.627-33.393  c-63.976-12.004-84.659-77.68-63.667-118.207c0.635-1.227,1.3-2.432,1.989-3.617c35.909,10.827,147.489,51.33,214.077,152.281  C463.941,412.789,456.021,414.395,448.064,411.43z"/>
<path style="fill:#FFE477;" d="M320.188,228.921c43.81,17.499,70.703,58.911,84.807,87.833c5.333,10.935-4.257,23.171-16.156,20.637  c-16.91-3.601-43.327-7.155-84.172-8.731c-40.824-1.575-59.701-40.452-50.391-67.543  C263.587,234.025,293.585,218.295,320.188,228.921z"/>
<path style="fill:#FFDE55;" d="M388.839,337.392c-16.91-3.601-43.327-7.156-84.172-8.731c-40.824-1.575-59.701-40.452-50.391-67.543  c0.562-1.635,1.203-3.226,1.91-4.775c25.533,7.738,87.839,30.052,145.651,77.458C398.58,336.856,393.923,338.474,388.839,337.392z"/>
<path style="fill:#F072AE;" d="M453.789,386.452c0.439-1.406-1.354-59.948-28.886-108.891l0,0  c27.126,34.645,43.695,74.363,53.437,105.111c5.854,18.478-12.114,35.526-30.277,28.758c-25.812-9.619-66.618-21.383-130.627-33.393  c-6.972-1.308-13.43-3.255-19.376-5.736C326.417,368.85,387.429,364.336,453.789,386.452z"/>
<path style="fill:#F7AFD1;" d="M146.838,224.459C81.871,262.257,49.145,333.797,33.66,382.672  c-5.854,18.478,12.114,35.526,30.277,28.757c25.812-9.619,66.618-21.383,130.627-33.393c63.976-12.004,84.659-77.68,63.667-118.207  S186.289,201.507,146.838,224.459z"/>
<path style="fill:#F490C0;" d="M63.937,411.43c25.812-9.619,66.618-21.383,130.627-33.393  c63.976-12.004,84.659-77.68,63.667-118.207c-0.635-1.227-1.3-2.432-1.989-3.617c-35.909,10.827-147.489,51.33-214.077,152.281  C48.06,412.789,55.979,414.395,63.937,411.43z"/>
<path style="fill:#FFEB99;" d="M191.812,228.921c-43.81,17.499-70.703,58.911-84.807,87.833  c-5.333,10.935,4.257,23.171,16.156,20.637c16.91-3.601,43.327-7.155,84.172-8.731c40.824-1.575,59.701-40.452,50.39-67.543  C248.413,234.025,218.415,218.295,191.812,228.921z"/>
<path style="fill:#FFE477;" d="M123.161,337.392c16.91-3.601,43.327-7.156,84.172-8.731c40.824-1.575,59.701-40.452,50.391-67.543  c-0.562-1.635-1.203-3.226-1.91-4.775c-25.533,7.738-87.839,30.052-145.651,77.458C113.42,336.856,118.077,338.474,123.161,337.392z  "/>
<path style="fill:#F490C0;" d="M58.211,386.452c-0.439-1.406,1.354-59.948,28.886-108.891l0,0  c-27.126,34.645-43.695,74.363-53.437,105.111c-5.854,18.478,12.114,35.526,30.277,28.758  c25.812-9.619,66.618-21.383,130.627-33.393c6.972-1.308,13.43-3.255,19.376-5.736C185.584,368.85,124.572,364.336,58.211,386.452z"/>
<path style="fill:#F072AE;" d="M63.937,411.43c25.812-9.619,66.618-21.383,130.627-33.393c6.972-1.308,13.43-3.255,19.376-5.736  c-28.356-3.45-89.367-7.964-155.728,14.151c-0.006-0.019-0.011-0.053-0.016-0.094c-5.571,7.034-10.933,14.407-16.031,22.135  C48.06,412.788,55.979,414.395,63.937,411.43z"/>
<path style="fill:#ED539D;" d="M448.064,411.43c-25.812-9.619-66.618-21.383-130.627-33.393c-6.972-1.308-13.43-3.255-19.376-5.736  c28.356-3.45,89.367-7.964,155.728,14.151c0.006-0.019,0.011-0.053,0.016-0.094c5.571,7.034,10.933,14.407,16.031,22.135  C463.941,412.788,456.021,414.395,448.064,411.43z"/>
<path style="fill:#FFF5CC;" d="M256.956,261.961c-5.354-0.227-9.671-4.457-9.998-9.805c-0.041-0.64-4.698-65.801-49.036-102.718  c-4.44-3.697-5.042-10.295-1.345-14.734c3.698-4.44,10.294-5.043,14.735-1.346c26.697,22.231,40.861,52.256,48.337,76.407  c8.073-16.722,20.91-33.796,40.9-40.592c5.468-1.859,11.412,1.067,13.272,6.537c1.861,5.469-1.067,11.413-6.537,13.272  c-15.765,5.36-25.569,21.872-31.016,34.78c-6.382,15.122-8.497,29.124-8.514,29.264  C266.601,262.484,257.107,261.968,256.956,261.961z"/>
<path d="M494.189,184.901c-38.685-17.924-96.792-37.635-156.99-31.886c-3.45-10.595-7.906-22.743-13.398-36.531  c-1.532-3.848-5.896-5.722-9.743-4.192c-3.848,1.533-5.725,5.896-4.192,9.743c17.586,44.148,21.277,63.766,21.277,72.447  c0,2.179-0.096,4.353-0.282,6.516c-2.529-6.38-5.575-13.983-8.985-22.338c-0.599-6.811-3.152-10.045-4.896-11.894  c-14.533-35.03-27.665-64.175-39.035-86.621c-4.211-8.313-12.62-13.478-21.944-13.478c-9.324,0-17.733,5.164-21.944,13.479  c-6.486,12.804-13.641,28.003-21.307,45.252c-3.535-1.796-7.504-2.336-11.283-1.665c8.401-21.222,19.254-46.202,32.385-74.433  c4.114-8.846,12.394-14.127,22.148-14.127c9.754,0,18.035,5.281,22.149,14.127c7.334,15.767,14.088,30.81,20.073,44.713  c1.637,3.804,6.047,5.56,9.854,3.923c3.805-1.638,5.561-6.05,3.923-9.854c-6.042-14.035-12.855-29.211-20.249-45.107  c-6.542-14.066-20.241-22.802-35.75-22.802s-29.208,8.737-35.749,22.801c-21.504,46.232-36.688,83.009-45.453,110.041  c-60.199-5.751-118.303,13.964-156.986,31.887c-10.749,4.98-17.572,15.423-17.806,27.251C-0.228,224,6.19,234.721,16.755,240.133  c17.623,9.026,38.198,21.476,61.22,37.033c-26.083,34.753-42.084,73.635-51.465,103.24c-3.578,11.294-0.476,23.376,8.095,31.53  c5.843,5.559,13.38,8.491,21.105,8.491c3.625,0,7.293-0.646,10.846-1.97c29.327-10.93,69.155-21.334,118.496-30.964  c8.88,22.981,20.706,50.376,35.199,81.535c6.542,14.063,20.24,22.801,35.749,22.801c0,0,0,0,0.001,0  c15.508,0,29.208-8.737,35.75-22.801c9.354-20.11,17.703-38.901,24.817-55.85c1.604-3.819-0.193-8.216-4.012-9.818  c-3.818-1.604-8.215,0.193-9.818,4.012c-7.042,16.775-15.314,35.391-24.589,55.33c-4.114,8.846-12.395,14.127-22.149,14.127  c-9.754,0-18.034-5.281-22.148-14.127c-13.839-29.754-25.198-55.987-33.845-78.145c23.488-5.328,42.851-17.91,56.007-36.204  c13.947,19.327,34.867,32.331,60.041,37.054c54.399,10.207,97.933,21.326,129.391,33.05c3.554,1.323,7.22,1.97,10.846,1.97  c7.725,0,15.263-2.934,21.105-8.492c8.571-8.153,11.673-20.235,8.095-31.529c-10.001-31.564-23.072-60.168-38.852-85.015  c-4.037-6.357-8.236-12.437-12.593-18.237c23.013-15.552,43.58-27.998,61.2-37.023c10.564-5.411,16.982-16.132,16.748-27.979  C511.761,200.324,504.938,189.882,494.189,184.901z M243.096,303.133c-8.407,11.056-21.21,17.46-36.051,18.033  c-35.409,1.366-64.157,4.357-85.445,8.89c-2.728,0.583-5.371-0.378-7.079-2.563c-1.7-2.175-1.99-4.96-0.775-7.451  c25.961-53.235,58.26-75.236,80.848-84.156c25.515-10.076,43.399,8.724,43.975,9.319c0.686,4.559,0.896,7.291,0.904,7.411  c0.464,7.574,5.543,13.806,12.462,16.001C254.013,280.062,250.713,293.114,243.096,303.133z M209.121,171.921  c3.136,4.066,5.954,8.274,8.484,12.541c-2.638,10.25-4.785,19.105-6.423,26.482c-5.385-1.716-10.886-2.92-16.432-3.569  C198.625,197.581,203.538,185.366,209.121,171.921z M225.258,216.78c0.735-3.408,1.598-7.192,2.586-11.341  c2.222,5.587,4.03,11.016,5.499,16.086C230.711,219.798,228.015,218.209,225.258,216.78z M268.897,265.642  c3.196-2.519,5.611-6.327,6.286-11.591c0.082-0.53,0.911-5.693,2.934-12.845c11.743-8.362,26.462-10.444,39.29-5.321  c22.554,9.009,54.888,30.922,80.848,84.157c1.215,2.49,0.925,5.275-0.774,7.45c-1.708,2.184-4.353,3.146-7.079,2.563  c-21.288-4.532-50.036-7.523-85.444-8.89c-16.037-0.618-26.334-7.604-32.354-13.757  C274.735,293.092,273.502,278.601,268.897,265.642z M312.292,194.948c1.828,4.542,3.5,8.739,4.983,12.484  c-1.053,0.126-12.089,2.201-16.436,3.596c-0.579-2.61-1.222-5.406-1.925-8.37C302.097,199.77,311.462,195.384,312.292,194.948z   M247.437,86.924c1.667-3.292,4.869-5.257,8.563-5.257c3.694,0,6.896,1.965,8.563,5.256c10.038,19.818,21.5,45.008,34.129,74.989  c-0.186,0.057-6.432,2.415-9.232,3.854c-2.273-8.427-4.787-17.533-7.502-27.18c-3.363-11.945-13.563-19.15-25.959-19.664  c-20.944-0.869-26.303,20.895-26.475,21.508c-1.553-1.693-3.147-3.367-4.809-5.009C232.939,116.772,240.578,100.464,247.437,86.924z   M276.315,174.656c-5.497,4.721-10.53,10.451-15.072,17.194c-4.736-11.781-11.245-24.697-20.13-37.135  c1.122-4.05,2.248-8.087,3.368-12.064c1.811-6.436,7.138-8.729,11.519-8.729s9.709,2.293,11.52,8.729  C270.767,154.186,273.718,164.928,276.315,174.656z M202.34,139.504c1.454-2.066,3.621-0.842,4.173-0.382  c26.078,21.715,39.393,51.608,45.971,72.861c0.911,2.944,3.531,5.031,6.604,5.262c3.081,0.229,5.975-1.443,7.314-4.219  c9.322-19.309,21.623-31.674,36.56-36.753c1.013-0.343,3.042-0.195,3.759,1.854c0.717,2.049-0.841,3.411-1.852,3.755  c-18.398,6.255-29.467,24.641-35.513,38.964c-6.868,16.275-9.035,31.157-9.049,31.272c-0.108,0.898-0.315,2.417-2.988,2.352  c-0.014,0.001-0.03-0.001-0.045-0.002c-1.521-0.064-2.738-1.256-2.832-2.792c-0.044-0.686-4.933-69.044-51.722-108.002  C201.901,142.992,200.887,141.57,202.34,139.504z M198.02,159.571c-6.585,15.708-12.386,30.086-16.867,41.393  c-0.184-2.153-0.295-4.316-0.295-6.482c0-8.522,3.378-22.682,9.848-41.72C191.427,153.64,196.446,158.074,198.02,159.571z   M61.318,404.401c-5.791,2.159-11.913,0.911-16.374-3.333c-4.448-4.231-5.994-10.262-4.134-16.131  c3.651-11.524,8.342-24.51,14.284-38.083c-2.81,13.349-5.197,38.136-4.041,41.834c0.6,1.922,1.948,3.522,3.741,4.439  c1.068,0.547,3.783,1.094,5.789,0.439c31.451-10.258,65.574-16.033,100.819-16.575C120.71,385.591,87.133,394.781,61.318,404.401z   M212.774,364.616c-50.81-5.913-101.229-1.949-146.657,11.489c1.595-18.715,6.651-77.362,49.537-118.883  c2.976-2.881,3.147-7.591,0.304-10.603c-2.844-3.013-7.592-3.147-10.603-0.304c-6.429,6.07-12.417,12.467-18.008,19.077  C63.428,249.188,42,236.21,23.593,226.782c-5.5-2.817-8.711-8.176-8.59-14.334c0.122-6.139,3.529-11.349,9.115-13.938  c36.339-16.837,90.473-35.338,146.294-30.813c-3.025,11.228-4.553,20.176-4.553,26.784c0,4.767,0.391,9.529,1.132,14.213  c-8.275,1.797-16.343,4.87-23.925,9.281c-3.787,2.204-7.561,4.574-11.216,7.045c-3.432,2.319-4.334,6.981-2.015,10.413  c2.319,3.432,6.981,4.334,10.413,2.015c3.378-2.283,6.865-4.473,10.362-6.508c11.871-6.906,25.211-9.811,38.457-8.999  c-0.012,0.005-0.024,0.009-0.036,0.014c-25.007,9.988-60.707,33.973-88.767,91.512c-3.731,7.65-2.796,16.564,2.439,23.263  c4.259,5.448,12.73,9.8,22.021,7.997c20.528-3.983,48.344-7.239,82.899-8.573c19.404-0.748,40.488-11.322,49.419-26.742  c-1.32,6.404-3.45,12.734-6.39,18.765C242.606,344.677,229.483,357.184,212.774,364.616z M264.505,333.961  c1.575-3.31,2.946-6.696,4.112-10.133c9.999,7.568,22.169,11.803,35.761,12.327c34.555,1.334,62.432,4.284,82.899,8.573  c8.914,1.868,17.763-2.549,22.021-7.998c5.235-6.698,6.17-15.612,2.438-23.262c-27.976-57.368-63.546-81.378-88.542-91.419  c13.234-0.785,27.416,0.742,38.197,8.893c85.248,64.45,82.891,126.389,84.492,145.164c-45.404-13.432-95.794-17.399-146.579-11.498  C284.621,358.068,272.648,347.596,264.505,333.961z M467.057,401.068c-4.462,4.245-10.584,5.492-16.374,3.333  c-25.806-9.616-59.368-18.803-100.039-27.4c35.23,0.546,69.468,5.918,100.775,16.566c2.51,0.854,4.722,0.107,5.79-0.439  c1.793-0.919,3.308-2.475,3.74-4.441c1.892-8.607-3.98-41.51-4.106-42.172c5.124,11.746,9.944,24.52,14.35,38.423  C473.051,390.806,471.505,396.836,467.057,401.068z M488.409,226.781c-18.407,9.429-39.833,22.409-63.751,38.612  c-16.617-19.626-35.265-35.514-55.724-47.417c-7.541-4.388-15.579-7.488-23.914-9.295c0.74-4.681,1.122-9.432,1.122-14.199  c0-6.673-1.503-15.563-4.537-26.786c55.814-4.517,109.942,13.979,146.277,30.814c5.587,2.589,8.994,7.799,9.115,13.938  C497.119,218.606,493.909,223.965,488.409,226.781z"/>
<g>
</g>
<g>
</g>
<g>
</g>
<g>
</g>
<g>
</g>
<g>
</g>
<g>
</g>
<g>
</g>
<g>
</g>
<g>
</g>
<g>
</g>
<g>
</g>
<g>
</g>
<g>
</g>
<g>
</g>
</svg>
