<?xml version="1.0" encoding="iso-8859-1"?>
<!-- Generator: Adobe Illustrator 19.0.0, SVG Export Plug-In . SVG Version: 6.00 Build 0)  -->
<svg xmlns="http://www.w3.org/2000/svg" xmlns:xlink="http://www.w3.org/1999/xlink" version="1.1" id="Capa_1" x="0px" y="0px" viewBox="0 0 512.003 512.003" style="enable-background:new 0 0 512.003 512.003;" xml:space="preserve">
<path style="fill:#FF0C38;" d="M87.185,292.581l-38.493,14.035c-10.17,3.708-11.658,17.477-2.514,23.271l39.666,25.137  l110.288,4.461v-63.047L87.185,292.581z"/>
<path style="fill:#D80027;" d="M196.131,332.005l-156-12.557c0.162,3.998,2.123,7.953,6.047,10.44l39.666,25.137l110.288,4.461  V332.005z"/>
<path style="fill:#D1E7F8;" d="M440.113,89.656c32.8-15.38-10.32-70.611-33.199-42.524c22.878-28.088-39.935-59.141-48.361-23.908  L330.36,141.119l121.213,1.253C487.797,142.747,472.912,74.276,440.113,89.656z"/>
<path style="fill:#C2DFF6;" d="M440.097,89.669c32.8-15.38-10.32-70.611-33.199-42.524l-76.543,93.94L440.097,89.669z"/>
<path style="fill:#5EAC24;" d="M330.347,141.103l98.54,1.018c0.606-1.024,15.106-26.14-9.924-42.482  c-0.323,0.151,5.701-11.114-4.512-24.196c-10.213-13.082-22.564-9.922-22.339-10.198c-9.985-28.837-38.86-19.918-38.86-19.918l0,0  L330.347,141.103z"/>
<path style="fill:#4E901E;" d="M330.356,141.106l88.61-41.532c0.155-0.741,5.274-11.585-4.518-24.128  c-9.99-12.796-21.993-10.06-22.304-10.193l-61.791,75.835l-0.004,0.017L330.356,141.106z"/>
<circle style="fill:#FFE477;" cx="331.485" cy="139.844" r="51.8"/>
<path style="fill:#FFD422;" d="M327.44,170.029c0-28.38,22.827-51.418,51.122-51.782c-8.188-17.822-26.183-30.204-47.081-30.204  c-28.608,0-51.8,23.191-51.8,51.799s23.191,51.8,51.8,51.8c0.227,0,0.451-0.014,0.678-0.017  C329.137,185.049,327.44,177.74,327.44,170.029z"/>
<path style="fill:#DDFFFB;" d="M331.481,167.682c-15.351,0-27.839-12.489-27.839-27.84c0-15.35,12.489-27.839,27.839-27.839  c15.35,0,27.839,12.489,27.839,27.839C359.319,155.193,346.831,167.682,331.481,167.682z"/>
<path style="fill:#AAFFF5;" d="M354.65,124.43c-4.995-7.485-13.515-12.427-23.169-12.427c-15.351,0-27.839,12.489-27.839,27.839  c0,14.002,10.391,25.617,23.865,27.552C328.439,148.8,339.175,132.793,354.65,124.43z"/>
<path style="fill:#957856;" d="M348.087,302.425l-7.188-20.542l16.359-10.015c7.632-4.672,9.885-14.733,4.974-22.214l-10.504-15.999  l12.796-13.589c6.266-6.654,5.619-17.214-1.411-23.055L348.8,185.119l7.653-16.716c3.842-8.39-0.27-18.276-8.928-21.467  l-17.264-6.364l1.692-17.345c0.917-9.398-6.537-17.508-15.979-17.385l-17.358,0.225l-4.842-16.639  c-2.642-9.078-12.593-13.838-21.318-10.199l-16.048,6.694l-10.739-14.478c-5.486-7.396-16.098-8.576-23.074-2.565l-13.711,11.813  l-20.236-7.201c-11.284-4.015-22.772,5.456-20.983,17.298l11.609,76.861l88.287,148.844l63.861,6.922  C343.002,324.672,351.934,313.422,348.087,302.425z"/>
<path style="fill:#806749;" d="M347.748,222.349c-2.854-56.597-40.109-107.102-92.703-125.675  c-14.32-5.058-28.638-7.621-42.557-7.621c-16.332,0-30.904,3.406-43.757,8.812l10.54,69.784l88.287,148.844l39.236,4.253  C334.8,296.829,349.742,261.884,347.748,222.349z"/>
<path style="fill:#D1E7F8;" d="M92.178,213.921l-23.92,13.275c-5.817,3.228-7.394,10.864-3.336,16.135  c5.147,6.686,10.087,17.725,8.655,34.863l89.147,24.615c0,0,29.432,30.918-7.678,59.67H70.345v29.901  c0,11.274,9.14,20.414,20.414,20.414h103.249c0,0,44.326,4.792,52.712-46.722c0,0,20.931-50.327,20.839-49.58  c87.065-41.016,64.854-165.984-20.839-196.246S117.66,180.44,117.66,180.44L92.178,213.921z"/>
<path style="fill:#C2DFF6;" d="M263.3,127.676c15.092,31.991,40.925,107.741-9.113,178.463c0,0-16.668,63.758-108.128,106.657  h47.954c0,0,44.326,4.792,52.712-46.722c0,0,20.931-50.327,20.839-49.579C348.705,278.269,334.914,167.119,263.3,127.676z"/>
<circle style="fill:#DDFFFB;" cx="117.661" cy="197.185" r="37.391"/>
<circle style="fill:#A4E276;" cx="117.661" cy="197.185" r="16.741"/>
<path style="fill:#7ED63E;" d="M119.675,180.573c1.648,2.593,2.698,5.661,2.616,8.96c-0.424,17.156-18.094,16.687-18.756,16.608  c2.97,4.672,8.179,7.781,14.124,7.781c9.246,0,16.741-7.495,16.741-16.741C134.4,188.619,127.969,181.57,119.675,180.573z"/>
<path style="fill:#FFEB99;" d="M100.354,296.925l3.119-11.679c2.071-7.753-1.832-16.084-9.346-18.902  c-8.633-3.238-18.049,1.77-20.372,10.466l-3.245,12.149c-0.696,2.606,0.852,5.283,3.458,5.979l20.401,5.449  C96.979,301.083,99.657,299.533,100.354,296.925z"/>
<path style="fill:#FFCD00;" d="M130.197,304.896l3.119-11.679c2.071-7.753-1.832-16.084-9.346-18.902  c-8.633-3.238-18.049,1.77-20.372,10.466l-3.244,12.145c-0.697,2.608,0.853,5.287,3.461,5.983l20.397,5.448  C126.821,309.053,129.5,307.504,130.197,304.896z"/>
<path style="fill:#FFEB99;" d="M160.037,312.87l3.12-11.683c2.071-7.753-1.832-16.084-9.346-18.902  c-8.633-3.238-18.049,1.77-20.372,10.466l-3.245,12.149c-0.696,2.606,0.852,5.283,3.458,5.979l20.405,5.45  C156.665,317.024,159.341,315.476,160.037,312.87z"/>
<path style="fill:#FFE477;" d="M94.128,266.344c-2.772-1.039-5.622-1.22-8.294-0.71c5.23,3.732,7.68,10.6,5.95,17.077l-3.119,11.679  c-0.487,1.824-1.95,3.109-3.673,3.491l9.38,2.505c2.608,0.697,5.287-0.853,5.983-3.461l3.119-11.679  C105.544,277.493,101.641,269.161,94.128,266.344z"/>
<path style="fill:#EEBF00;" d="M123.97,274.314c-2.772-1.04-5.622-1.22-8.294-0.71c5.23,3.732,7.68,10.6,5.95,17.077l-3.119,11.679  c-0.487,1.824-1.95,3.108-3.673,3.491l9.38,2.505c2.608,0.697,5.287-0.853,5.983-3.461l3.119-11.679  C135.387,285.463,131.484,277.132,123.97,274.314z"/>
<path style="fill:#FFE477;" d="M153.812,282.284c-2.772-1.039-5.622-1.22-8.294-0.71c5.23,3.732,7.68,10.6,5.95,17.077l-3.12,11.683  c-0.487,1.822-1.948,3.106-3.669,3.488l9.381,2.505c2.606,0.696,5.283-0.852,5.979-3.458l3.12-11.683  C165.228,293.433,161.326,285.101,153.812,282.284z"/>
<path style="fill:#FFEB99;" d="M132.229,350.285l-0.109,12.088c-0.073,8.024,5.784,15.12,13.762,15.975  c9.168,0.983,17.038-6.213,17.12-15.214l0.114-12.574c0.024-2.697-2.142-4.903-4.839-4.928l-21.115-0.191  C134.461,345.418,132.253,347.586,132.229,350.285z"/>
<path style="fill:#FFCD00;" d="M101.341,350.006l-0.109,12.088c-0.073,8.024,5.784,15.12,13.762,15.975  c9.168,0.983,17.038-6.213,17.12-15.214l0.114-12.57c0.024-2.699-2.144-4.907-4.843-4.932l-21.111-0.191  C103.574,345.138,101.366,347.306,101.341,350.006z"/>
<path style="fill:#FFEB99;" d="M70.455,349.722l-0.109,12.092c-0.073,8.024,5.784,15.12,13.762,15.975  c9.168,0.983,17.038-6.213,17.12-15.214l0.114-12.574c0.024-2.697-2.142-4.903-4.839-4.928l-21.119-0.191  C72.685,344.858,70.479,347.025,70.455,349.722z"/>
<path style="fill:#FFE477;" d="M158.276,345.546l-11.512-0.104c2.111,0.555,3.667,2.47,3.646,4.752l-0.114,12.574  c-0.057,6.291-3.924,11.688-9.373,14.04c1.523,0.749,3.184,1.263,4.959,1.453c9.168,0.983,17.038-6.213,17.12-15.214l0.114-12.574  C163.139,347.777,160.973,345.571,158.276,345.546z"/>
<path style="fill:#EEBF00;" d="M127.385,345.267l-11.511-0.104c2.113,0.555,3.67,2.472,3.649,4.756l-0.114,12.57  c-0.057,6.291-3.924,11.689-9.373,14.04c1.523,0.749,3.184,1.263,4.959,1.453c9.168,0.983,17.038-6.213,17.12-15.214l0.114-12.57  C132.253,347.499,130.085,345.291,127.385,345.267z"/>
<path style="fill:#FFE477;" d="M96.502,345.074L84.99,344.97c2.111,0.555,3.667,2.47,3.646,4.752l-0.114,12.574  c-0.057,6.291-3.924,11.689-9.373,14.04c1.523,0.749,3.184,1.263,4.959,1.453c9.168,0.983,17.038-6.213,17.12-15.214l0.114-12.574  C101.366,347.305,99.199,345.098,96.502,345.074z"/>
<circle style="fill:#FF3F62;" cx="238.553" cy="347.157" r="29.01"/>
<path style="fill:#D80027;" d="M238.551,318.152c-5.771,0-11.143,1.692-15.661,4.597l0,0c0,0,4.964,31.567,40.077,40.062  c2.901-4.516,4.591-9.885,4.591-15.652C267.559,331.139,254.572,318.152,238.551,318.152z"/>
<circle style="fill:#FFE477;" cx="254.944" cy="308.427" r="35.101"/>
<path style="fill:#FFDA44;" d="M252.693,296.024c0-8.439,2.98-16.18,7.942-22.235c-1.854-0.303-3.755-0.467-5.695-0.467  c-19.388,0-35.106,15.717-35.106,35.105s15.717,35.105,35.106,35.105c10.949,0,20.725-5.014,27.163-12.87  C265.425,327.941,252.693,313.473,252.693,296.024z"/>
<circle style="fill:#00DDC2;" cx="254.944" cy="308.427" r="15"/>
<path style="fill:#00CCB3;" d="M252.693,296.024c0-0.816,0.038-1.623,0.093-2.425c-7.261,1.047-12.846,7.277-12.846,14.828  c0,8.284,6.716,15,15,15c3.022,0,5.829-0.901,8.184-2.439C256.686,314.626,252.693,305.793,252.693,296.024z"/>
<path style="fill:#C9EEAE;" d="M265.229,491.391V384.359c0-12.483-10.214-22.697-22.697-22.697l0,0  c-12.483,0-22.697,10.214-22.697,22.697v107.033c0,7.241,5.87,13.111,13.111,13.111h19.172  C259.359,504.503,265.229,498.633,265.229,491.391z"/>
<path style="fill:#B6E892;" d="M242.531,491.391V384.359c0-8.355,4.579-15.688,11.348-19.628c-3.344-1.946-7.221-3.069-11.348-3.069  l0,0c-12.483,0-22.697,10.214-22.697,22.697v107.033c0,7.241,5.87,13.111,13.111,13.111h19.172c0.599,0,1.185-0.054,1.763-0.132  C247.476,503.508,242.531,498.034,242.531,491.391z"/>
<path style="fill:#A4E276;" d="M219.834,416.825v74.566c0,7.241,5.87,13.111,13.111,13.111h19.172  c7.241,0,13.111-5.87,13.111-13.111v-74.566H219.834z"/>
<path style="fill:#91DC5A;" d="M242.531,491.391v-74.566h-22.697v74.566c0,7.241,5.87,13.111,13.111,13.111h19.172  c0.599,0,1.185-0.054,1.763-0.132C247.476,503.508,242.531,498.034,242.531,491.391z"/>
<path style="fill:#6DC82A;" d="M242.531,442.07c-4.125,0-7.5,3.375-7.5,7.5v54.933h15V449.57  C250.032,445.445,246.657,442.07,242.531,442.07z"/>
<path style="fill:#FF728B;" d="M246.719,120.248c-4.884-1.725-9.624-3.039-14.233-4.019c-9.915,13.605-15.748,30.139-15.748,47.987  c0,46.385,39.28,83.987,87.734,83.987c5.809,0,11.482-0.554,16.975-1.586C329.9,196.793,301.099,139.452,246.719,120.248z"/>
<path style="fill:#FF3F62;" d="M263.3,127.676c10.753,22.792,26.948,67.8,17.281,117.374c7.596,2.053,15.609,3.153,23.891,3.153  c5.809,0,11.482-0.554,16.975-1.586c0.037-0.22,0.075-0.447,0.113-0.669C328.768,201.627,306.617,151.534,263.3,127.676z"/>
<circle style="fill:#FF728B;" cx="185.893" cy="229.785" r="18.421"/>
<circle cx="209.543" cy="277.556" r="7.5"/>
<path d="M254.94,285.927c-12.407,0-22.5,10.094-22.5,22.5c0,12.406,10.093,22.5,22.5,22.5s22.5-10.094,22.5-22.5  C277.44,296.021,267.347,285.927,254.94,285.927z M254.94,315.928c-4.136,0-7.5-3.364-7.5-7.5s3.364-7.5,7.5-7.5  c4.136,0,7.5,3.364,7.5,7.5S259.076,315.928,254.94,315.928z"/>
<path d="M117.659,221.421c13.366,0,24.241-10.874,24.241-24.24c0-13.366-10.875-24.241-24.241-24.241s-24.24,10.875-24.24,24.241  C93.419,210.547,104.293,221.421,117.659,221.421z M117.659,187.94c5.095,0,9.241,4.146,9.241,9.241c0,5.095-4.146,9.24-9.241,9.24  s-9.24-4.146-9.24-9.24C108.418,192.085,112.564,187.94,117.659,187.94z"/>
<path d="M211.813,229.782c0-14.293-11.628-25.921-25.921-25.921c-14.292,0-25.92,11.628-25.92,25.921s11.628,25.921,25.92,25.921  C200.185,255.704,211.813,244.076,211.813,229.782z M185.892,240.704c-6.021,0-10.92-4.899-10.92-10.921s4.899-10.921,10.92-10.921  c6.022,0,10.921,4.899,10.921,10.921S191.914,240.704,185.892,240.704z"/>
<path d="M473.512,118.621c-4.046-0.9-8.049,1.652-8.948,5.694c-0.586,2.637-2.353,10.7-12.914,10.557l-11.831-0.122  c2.438-9.872,1.981-22.492-7.301-33.247l10.761-5.044l-0.002-0.005c0.007-0.003,0.013-0.005,0.02-0.008  c0.006-0.003,0.013-0.007,0.019-0.01c2.359-1.104,9.483-4.422,16.003,4.109c3.327,4.352,9.154,2.425,10.517,1.378  c3.285-2.523,3.901-7.231,1.378-10.517c-3.79-4.933-8.357-8.323-13.36-10.087c1.291-3.488,1.836-7.331,1.572-11.421  c-1.001-15.508-13.857-31.977-28.659-36.711c-3.912-1.25-7.78-1.651-11.482-1.243c-0.348-3.71-1.524-7.415-3.541-10.993  c-7.631-13.538-26.361-22.795-41.749-20.639c-11.621,1.629-19.907,9.344-22.735,21.167L337.07,80.812  c-1.841-0.173-18.607-1.306-35.681,7.946c0,0-1.797-10.243-12.758-15.968c-5.884-3.074-12.938-3.042-19.065-0.486l-10.632,4.436  l-7.243-9.766c-3.852-5.193-9.747-8.582-16.174-9.297c-6.427-0.717-12.921,1.297-17.819,5.518l-10.408,8.968l-16.128-5.738  c-7.808-2.78-16.285-1.29-22.679,3.979c-6.394,5.271-9.473,13.31-8.235,21.504l4.17,27.604  c-16.646,9.517-29.329,22.633-37.987,33.647c-2.837-0.564-5.768-0.866-8.769-0.866c-4.127,0-8.219,0.562-12.162,1.669  c-3.988,1.12-6.313,5.261-5.192,9.249c1.12,3.987,5.261,6.312,9.249,5.192c2.623-0.737,5.35-1.11,8.105-1.11  c16.479,0,29.886,13.407,29.886,29.887s-13.407,29.886-29.886,29.886s-29.886-13.406-29.886-29.886  c0-5.092,1.301-10.115,3.762-14.529c2.018-3.617,0.72-8.186-2.897-10.203c-3.618-2.017-8.186-0.72-10.203,2.898  c-3.704,6.642-5.661,14.191-5.661,21.834c0,6.037,1.206,11.796,3.376,17.058l-11.53,6.4c-4.683,2.599-7.991,7.095-9.075,12.336  c-1.085,5.243,0.167,10.686,3.436,14.932c5.42,7.04,7.901,16.734,7.227,28.101l-2.942,11.015c-0.56,2.099-0.551,4.256-0.017,6.302  l-17.125,6.243c-7.411,2.702-12.541,9.253-13.388,17.096c-0.847,7.842,2.766,15.336,9.428,19.557c0,0,20.792,13.349,20.792,13.432  c0,0.001,0,0.001,0,0.001l-0.11,42.727c0,15.392,12.522,27.914,27.914,27.914c0,0,104.631,0.111,106.141,0.111  c3.465,0,9.052-0.35,15.435-2.055v15.628c0,4.143,3.358,7.5,7.5,7.5s7.5-3.357,7.5-7.5v-9.655h30.394v67.066  c0,3.094-2.517,5.61-5.611,5.61h-19.172c-3.094,0-5.611-2.517-5.611-5.61v-28.434c0-4.143-3.358-7.5-7.5-7.5s-7.5,3.357-7.5,7.5  v28.434c0,11.364,9.246,20.61,20.611,20.61h19.172c11.365,0,20.611-9.246,20.611-20.61V384.359c0-5.827-1.664-11.272-4.535-15.891  c7.984-9.506,6.844-22.088,6.832-22.479c7.956-4.272,14.407-10.994,18.333-19.154c0,0,38.963,4.177,39.811,4.177  c7.085,0,13.767-3.195,18.243-8.832c5.012-6.312,6.415-14.622,3.753-22.23l-5.189-14.828l11.197-6.854  c5.438-3.329,9.201-8.59,10.594-14.813c1.393-6.222,0.233-12.584-3.267-17.915l-7.255-11.05l8.738-9.28  c4.399-4.672,6.698-11.024,6.307-17.431c-0.391-6.407-3.448-12.433-8.385-16.535l-2.959-2.458  c13.348-9.179,22.461-23.573,25.062-39.546l61.485,0.636c0.124,0.001,0.247,0.002,0.37,0.002c14.025,0,24.233-8.315,27.341-22.305  C480.105,123.526,477.556,119.52,473.512,118.621z M424.198,134.589l-33.692-0.349c-0.387-4.112-1.189-8.105-2.375-11.932  l29.916-14.022C428.835,117.383,426.491,128.732,424.198,134.589z M395.796,72.644c4.771,0.279,9.139,2.8,12.742,7.415  c3.598,4.609,4.996,9.464,4.131,14.181l-30.776,14.425c-2.172-3.499-4.701-6.751-7.53-9.716L395.796,72.644z M426.197,47.477  c8.951,2.862,17.654,14.01,18.259,23.388c0.357,5.531-2.105,9.457-7.528,11.999v0.001c-0.025,0.012-0.048,0.027-0.073,0.039  l-9.22,4.322c-0.815-5.675-3.253-11.248-7.273-16.398c-4.016-5.145-8.82-8.854-14.112-11.014l6.423-7.883  c0.018-0.022,0.039-0.041,0.056-0.063C416.513,47.225,420.916,45.786,426.197,47.477z M376.077,15.168  c9.312-1.306,21.984,4.964,26.599,13.15c2.722,4.828,2.206,9.433-1.576,14.077c-0.004,0.005-0.007,0.011-0.011,0.016l-0.005-0.004  l-7.49,9.193c-8.194-11.708-20.311-15.199-30.483-15.181l2.738-11.451C367.241,19.144,370.587,15.938,376.077,15.168z   M359.441,51.76c2.231-0.264,5.18-0.389,8.293,0.115c7.221,1.173,12.405,5.153,15.763,12.116l-20.766,25.485  c-3.456-2.152-7.143-3.965-11.023-5.378L359.441,51.76z M91.494,273.367c3.85,1.163,5.845,5.78,4.733,9.943l-2.445,9.156  l-15.35-4.101l2.552-9.552C80.984,278.813,82.97,270.791,91.494,273.367z M110.844,286.714c0.573-2.146,2.051-3.968,4.056-5  c2.022-1.043,4.308-1.177,6.437-0.378c3.766,1.412,5.845,5.78,4.733,9.943l-2.445,9.156l-15.35-4.1L110.844,286.714z   M140.687,294.685c0.573-2.146,2.051-3.969,4.056-5.001c2.021-1.042,4.308-1.177,6.436-0.378c3.766,1.412,5.845,5.78,4.733,9.944  l-2.445,9.155l-15.35-4.1L140.687,294.685z M47.648,318.276c0.111-1.032,0.686-3.547,3.612-4.614l26.953-9.827  c0,0,76.052,20.164,77.125,20.164c2.148,0,4.27-0.564,6.179-1.669c1.091-0.631,2.062-1.412,2.895-2.311  c0.188,0.513,0.369,1.036,0.536,1.573c1.991,6.389,1.803,12.402-0.578,18.177c-1.818-1.042-3.877-1.615-6.029-1.635l-82.893-0.75  c-1-0.014-1.976,0.106-2.922,0.324L50.19,323.553C47.562,321.885,47.537,319.307,47.648,318.276z M139.705,352.965l15.887,0.144  l-0.09,9.959c-0.02,2.221-0.998,4.354-2.682,5.854c-1.699,1.513-3.883,2.209-6.139,1.97c-4-0.429-7.102-4.141-7.063-8.451  L139.705,352.965z M108.817,352.686l15.887,0.144l-0.09,9.958c-0.021,2.222-0.998,4.355-2.681,5.854  c-1.699,1.513-3.878,2.216-6.139,1.971c-3.996-0.429-7.097-4.136-7.063-8.44L108.817,352.686z M93.818,352.55l-0.09,9.957  c-0.021,2.222-0.998,4.355-2.682,5.855c-1.699,1.512-3.88,2.207-6.139,1.97c-4-0.429-7.102-4.141-7.063-8.451l0.086-9.475  L93.818,352.55z M194.813,405.338c-0.268-0.028-104.055-0.043-104.055-0.043c-7.121,0-12.914-5.793-12.914-12.914v-8.471  c1.735,0.662,5.384,1.476,7.898,1.468c11.344-0.035,15.373-5.903,15.423-5.948c6.368,6.377,14.653,6.227,15.463,6.227  c5.599,0,11.06-2.056,15.279-5.813c0.049-0.044,0.095-0.091,0.144-0.135c5.775,6.215,14.654,6.228,15.465,6.228  c5.598-0.001,11.059-2.056,15.277-5.813c4.839-4.309,7.648-10.477,7.706-16.921l0.047-5.21c18.405-22.156,9.503-45.361,0.341-57.161  c1.76-10.823-4.256-21.751-14.443-25.571c-6.051-2.271-12.821-1.873-18.57,1.087c-0.059,0.03-0.115,0.065-0.174,0.095  c-2.572-4.094-6.386-7.385-11.098-9.152c-6.051-2.271-12.821-1.872-18.57,1.087c-0.059,0.03-0.115,0.064-0.174,0.095  c-2.572-4.094-6.386-7.385-11.097-9.152c-5.4-2.025-11.369-1.923-16.677,0.225c-1.906-9.421-5.703-16.222-9.219-20.79  c-0.823-1.069-0.75-2.177-0.633-2.741c0.117-0.564,0.488-1.607,1.666-2.261l12.224-6.784c8.228,9.253,20.21,15.097,33.538,15.097  c24.75,0,44.887-20.136,44.887-44.887c0-16.17-8.596-30.366-21.457-38.27c8.35-9.942,20.477-21.583,36.044-29.135  c13.552-6.575,27.912-9.172,42.897-7.838c-7.079,12.997-10.791,27.406-10.791,42.279c0,44.484,33.061,82.291,78.577,90.091  c4.623,0.792,8.027-2.481,8.648-6.141c0.692-4.084-2.057-7.956-6.141-8.648c-38.292-6.491-66.084-38.16-66.084-75.302  c0-14.033,3.985-27.584,11.547-39.493c2.794,0.739,5.605,1.598,8.436,2.598c36.061,12.734,62.724,44.769,69.583,83.602  c5.242,29.674-2.532,58.074-20.922,78.162c-7.061-13.793-21.411-23.262-37.942-23.262c-23.492,0-42.605,19.112-42.605,42.605  c0,4.072,0.586,8.006,1.658,11.738c-7.552,6.87-11.947,16.623-11.947,26.992c0,10.321,4.452,20.193,12.042,27.073  c-1.131,3.167-1.752,6.575-1.752,10.126v18.272C203.066,406.086,194.872,405.345,194.813,405.338z M227.335,409.325v-24.966  c0-8.38,6.817-15.197,15.197-15.197c8.38,0,15.197,6.817,15.197,15.197v24.966H227.335z M257.142,357.942  c-4.333-2.406-9.313-3.781-14.61-3.781c-7.605,0-14.557,2.832-19.872,7.49c-3.602-3.925-5.614-9.023-5.614-14.492  c0-4.648,1.504-9.084,4.18-12.727c7.798,10.087,20.006,16.601,33.715,16.601c1.623,0,3.223-0.1,4.799-0.278  C259.312,353.301,258.433,355.725,257.142,357.942z M254.94,336.033c-15.221,0-27.604-12.384-27.604-27.604  s12.383-27.604,27.604-27.604s27.605,12.384,27.605,27.604S270.161,336.033,254.94,336.033z M359.064,214.923l-12.796,13.59  c-2.379,2.527-2.714,6.356-0.809,9.258l10.503,15.998c1.251,1.906,1.666,4.181,1.168,6.406c-0.498,2.225-1.843,4.105-3.788,5.296  l-16.359,10.015c-3.012,1.844-4.33,5.54-3.163,8.874l7.188,20.541c0.966,2.761,0.477,5.658-1.342,7.948  c-1.818,2.291-4.531,3.421-7.438,3.109l-34.859-3.778c0.109-1.238,0.134-5.604,0.075-6.519c26.163-23.681,37.781-59.705,31.13-97.35  c-7.799-44.15-38.209-80.605-79.359-95.137c-27.711-9.786-51.283-7.823-70.648-0.398l-3.49-23.109  c-0.638-4.223,1.847-6.784,2.944-7.688c1.098-0.905,4.085-2.858,8.109-1.423l20.236,7.2c2.54,0.902,5.369,0.375,7.41-1.385  l13.71-11.813c1.777-1.531,4.04-2.231,6.371-1.973c2.332,0.26,4.386,1.44,5.783,3.324l10.739,14.479  c2.053,2.77,5.73,3.78,8.911,2.454l16.048-6.694c2.224-0.926,4.645-0.865,6.816,0.174c2.173,1.04,3.74,2.886,4.414,5.199  l4.842,16.639c0.933,3.205,3.87,5.404,7.2,5.404c0.033,0,0.066,0,0.099-0.001l17.358-0.226c2.376-0.011,4.627,0.928,6.255,2.699  c1.628,1.771,2.396,4.065,2.162,6.459l-1.692,17.345c-0.332,3.396,1.67,6.586,4.87,7.766l17.265,6.364  c2.206,0.813,3.917,2.456,4.82,4.627c0.902,2.171,0.861,4.543-0.118,6.681l-7.653,16.717c-1.411,3.081-0.58,6.726,2.027,8.892  l14.313,11.89c1.791,1.488,2.856,3.588,2.998,5.913C361.461,211.015,360.66,213.228,359.064,214.923z M351.795,140.6  c-0.549-0.253-13.507-5.063-13.507-5.063s1.248-13.445,1.227-14.372C352.546,124.892,351.804,140.347,351.795,140.6z   M363.911,169.964c1.94-5.21,1.962-10.987,0.041-16.217c1.876-4.376,2.867-9.111,2.867-13.905c0-19.316-15.579-35.053-34.831-35.327  c-4.293-3.951-9.94-6.177-15.812-6.177c-0.083,0-0.166,0-0.249,0.002c4.909-1.841,10.143-2.797,15.552-2.797  c24.426,0,44.299,19.872,44.299,44.3C375.78,151.14,371.377,161.883,363.911,169.964z"/>
<g>
</g>
<g>
</g>
<g>
</g>
<g>
</g>
<g>
</g>
<g>
</g>
<g>
</g>
<g>
</g>
<g>
</g>
<g>
</g>
<g>
</g>
<g>
</g>
<g>
</g>
<g>
</g>
<g>
</g>
</svg>
