<?xml version="1.0" encoding="iso-8859-1"?>
<!-- Generator: Adobe Illustrator 19.0.0, SVG Export Plug-In . SVG Version: 6.00 Build 0)  -->
<svg xmlns="http://www.w3.org/2000/svg" xmlns:xlink="http://www.w3.org/1999/xlink" version="1.1" id="Capa_1" x="0px" y="0px" viewBox="0 0 511.999 511.999" style="enable-background:new 0 0 511.999 511.999;" xml:space="preserve">
<path style="fill:#6A563D;" d="M304.116,203.295l-21.139-21.139c-7.241-7.241-7.241-18.982,0-26.224l21.139-21.139  c7.241-7.241,18.982-7.241,26.224,0l21.139,21.139c7.241,7.241,7.241,18.982,0,26.224l-21.139,21.139  C323.099,210.537,311.358,210.537,304.116,203.295z"/>
<path style="fill:#806749;" d="M242.888,203.295l-21.139-21.139c-7.241-7.241-7.241-18.982,0-26.224l21.139-21.139  c7.241-7.241,18.982-7.241,26.224,0l21.139,21.139c7.241,7.241,7.241,18.982,0,26.224l-21.139,21.139  C261.87,210.537,250.129,210.537,242.888,203.295z"/>
<path style="fill:#957856;" d="M181.658,203.295l-21.139-21.139c-7.241-7.241-7.241-18.982,0-26.224l21.139-21.139  c7.241-7.241,18.982-7.241,26.224,0l21.139,21.139c7.241,7.241,7.241,18.982,0,26.224l-21.139,21.139  C200.64,210.537,188.899,210.537,181.658,203.295z"/>
<path style="fill:#9A4C00;" d="M149.101,300.423l99.33,33.066L159.93,494.304c-10.436,18.963-39.386,9.326-36.374-12.109  L149.101,300.423z"/>
<path style="fill:#663A00;" d="M142.77,345.478c24.97,16.273,52.711,26.837,81.869,31.244l23.792-43.232l-99.33-33.066  L142.77,345.478z"/>
<path style="fill:#9A4C00;" d="M362.897,300.423l-99.33,33.066l88.501,160.815c10.436,18.963,39.386,9.326,36.374-12.109  L362.897,300.423z"/>
<path style="fill:#663A00;" d="M362.897,300.423l-99.33,33.066l23.792,43.232c29.159-4.407,56.899-14.971,81.869-31.244  L362.897,300.423z"/>
<path style="fill:#AA6100;" d="M203.655,307.957h104.689l-33.176,180.535c-3.913,21.289-34.424,21.289-38.336,0L203.655,307.957z"/>
<path style="fill:#9A4C00;" d="M216.018,375.232c13.053,2.543,26.42,3.845,39.982,3.845s26.929-1.302,39.982-3.845l12.363-67.275  H203.655L216.018,375.232z"/>
<path style="fill:#CC7400;" d="M125.975,173.507c-25.102,0-43.248,24.297-35.783,48.263  c22.006,70.647,88.163,122.309,165.806,122.309l0,0c77.645,0,143.8-51.663,165.806-122.309  c7.465-23.966-10.681-48.263-35.783-48.263H125.975z"/>
<path style="fill:#AA6100;" d="M187.579,221.77c-7.465-23.966,10.681-48.263,35.783-48.263h-97.387  c-25.102,0-43.248,24.297-35.783,48.263c22.006,70.647,88.163,122.309,165.806,122.309l0,0c16.887,0,33.229-2.446,48.693-6.997  C249.055,320.707,204.8,277.052,187.579,221.77z"/>
<path style="fill:#FFDA44;" d="M386.023,173.507H125.975c-25.102,0-43.248,24.297-35.783,48.263c0.911,2.925,1.905,5.814,2.965,8.67  h325.684c1.06-2.857,2.054-5.746,2.965-8.67C429.271,197.804,411.125,173.507,386.023,173.507z"/>
<path style="fill:#FFCD00;" d="M223.362,173.507h-97.387c-25.102,0-43.248,24.297-35.783,48.263c0.911,2.925,1.905,5.814,2.965,8.67  h97.387c-1.06-2.857-2.054-5.746-2.965-8.67C180.114,197.804,198.261,173.507,223.362,173.507z"/>
<path d="M254.136,69.658c0.032,10.261-6.134,18.724-6.869,20.185c-1.863,3.699-0.375,8.208,3.325,10.07  c1.082,0.545,7.075,1.699,10.07-3.325c0.645-1.081,8.473-11.946,8.473-26.931c0-11.897-3.668-18.35-6.614-23.535  c-2.602-4.577-4.656-8.19-4.656-16.123c0-9.912,5.724-18.001,6.24-18.97c1.95-3.654,0.567-8.197-3.087-10.146  c-3.659-1.949-8.198-0.567-10.146,3.087c-0.454,0.851-8.006,12.269-8.006,26.03c0,11.896,3.668,18.349,6.614,23.534  C252.081,58.111,254.111,61.726,254.136,69.658z"/>
<path d="M283.665,108.698c1.082,0.544,7.207,2.187,10.071-3.326c0.58-1.117,8.472-11.107,8.472-26.932  c0-4.143-3.357-7.499-7.499-7.499s-7.499,3.357-7.499,7.499c0,11.707-6.134,18.724-6.87,20.186  C278.477,102.326,279.966,106.835,283.665,108.698z"/>
<path d="M428.965,223.999c4.251-13.644,1.812-28.096-6.69-39.649c-8.579-11.657-21.792-18.343-36.252-18.343H303.01  c-0.578-5.001-2.604-9.721-5.872-13.631l12.281-12.281c4.305-4.307,11.313-4.307,15.618,0l12.842,12.842  c2.93,2.928,7.677,2.928,10.606,0c2.929-2.93,2.929-7.677,0-10.606l-12.841-12.842c-10.155-10.153-26.676-10.154-36.831,0.001  l-12.199,12.2l-12.199-12.201c-10.155-10.153-26.676-10.154-36.831,0.001l-12.199,12.2l-12.199-12.201  c-10.155-10.153-26.676-10.153-36.831,0l-21.14,21.14c-4.178,4.178-6.736,9.642-7.42,15.379h-21.818  c-14.46,0-27.673,6.686-36.252,18.343c-8.502,11.554-10.941,26.006-6.69,39.649c10.302,33.075,30.467,63.1,57.223,85.483  L116.13,481.151c-1.872,13.315,5.443,25.115,18.202,29.363c3.01,1.002,6.027,1.485,8.969,1.485c9.528,0,18.247-5.079,23.199-14.08  l48.308-87.779l14.648,79.706c2.431,13.226,13.098,22.111,26.544,22.111c13.446,0,24.113-8.886,26.545-22.111l14.647-79.706  l48.308,87.779c4.954,9.002,13.67,14.08,23.199,14.08c2.941,0,5.961-0.483,8.969-1.485c12.759-4.248,20.073-16.048,18.202-29.363  l-24.126-171.669C398.5,287.099,418.664,257.075,428.965,223.999z M248.19,140.095c4.306-4.309,11.312-4.306,15.618-0.001  l21.14,21.141c1.349,1.349,2.289,2.994,2.796,4.772h-45.969c-0.583-4.98-2.607-9.716-5.869-13.628L248.19,140.095z M165.821,161.236  l21.14-21.14c4.307-4.309,11.313-4.306,15.618-0.001l21.139,21.141c1.348,1.347,2.291,2.996,2.8,4.772h-63.512  C163.511,164.238,164.46,162.597,165.821,161.236z M267.792,487.136c-1.332,7.242-6.965,9.823-11.793,9.823  s-10.461-2.581-11.792-9.823l-22.418-121.995c-0.749-4.075-4.665-6.769-8.731-6.021c-4.074,0.749-6.769,4.658-6.02,8.731  l3.486,18.968l-57.162,103.867c-3.552,6.45-9.71,7.119-14.292,5.596c-4.581-1.524-9.11-5.753-8.086-13.044l22.959-163.365  c30.198,20.766,65.32,31.704,102.059,31.704c12.712,0,25.229-1.318,37.417-3.891L267.792,487.136z M372.93,496.283  c-4.58,1.526-10.741,0.856-14.292-5.596L301.476,386.82l7.955-43.291c17.166-5.33,33.512-13.261,48.626-23.654l22.959,163.365  C382.041,490.531,377.51,494.758,372.93,496.283z M355.267,303.418c-28.927,21.694-63.253,33.162-99.268,33.162  s-70.342-11.468-99.268-33.162c-27.978-20.984-49.066-50.773-59.379-83.879c-2.816-9.041-1.193-18.627,4.453-26.299  c5.722-7.774,14.531-12.234,24.171-12.234h260.047c9.64,0,18.733,4.259,24.171,12.234c10.069,14.77,3.728,28.571,3.348,29.701  H128.013c-4.143,0-7.499,3.357-7.499,7.499s3.357,7.499,7.499,7.499h279.646C396.104,263.603,377.95,286.404,355.267,303.418z"/>
<g>
</g>
<g>
</g>
<g>
</g>
<g>
</g>
<g>
</g>
<g>
</g>
<g>
</g>
<g>
</g>
<g>
</g>
<g>
</g>
<g>
</g>
<g>
</g>
<g>
</g>
<g>
</g>
<g>
</g>
</svg>
