<?xml version="1.0" encoding="iso-8859-1"?>
<!-- Generator: Adobe Illustrator 19.0.0, SVG Export Plug-In . SVG Version: 6.00 Build 0)  -->
<svg xmlns="http://www.w3.org/2000/svg" xmlns:xlink="http://www.w3.org/1999/xlink" version="1.1" id="Capa_1" x="0px" y="0px" viewBox="0 0 512.001 512.001" style="enable-background:new 0 0 512.001 512.001;" xml:space="preserve">
<path style="fill:#D1E7F8;" d="M286.94,308.879c-6.844,5.751-12.941,5.81-18.998,5.569c-9.475-0.377-14.11,11.408-6.911,17.581  l74.125,63.564l28.897-24.283l-49.848-83.965c-4.841-8.154-17.248-5.619-18.508,3.78  C294.892,297.133,293.784,303.128,286.94,308.879z"/>
<path style="fill:#B9D8F4;" d="M335.157,395.593l28.897-24.283l-20.239-34.091c-8.659,1.635-16.831,5.466-23.652,11.197  c-6.902,5.8-12.043,13.136-15.117,21.357L335.157,395.593z"/>
<path style="fill:#D1E7F8;" d="M257.659,426.681c3.355,8.286,1.527,14.103-0.574,19.789c-3.287,8.895,6.489,16.944,14.585,12.006  l83.359-50.855l-14.165-34.987l-95.259,21.462c-9.251,2.084-10.674,14.667-2.124,18.771  C248.945,415.488,254.304,418.395,257.659,426.681z"/>
<path style="fill:#B9D8F4;" d="M340.864,372.633l-38.679,8.714c-0.09,0.705-0.174,1.41-0.236,2.122  c-1.191,13.735,3.037,27.112,11.907,37.668c2.221,2.643,4.685,5.016,7.33,7.129l33.843-20.647L340.864,372.633z"/>
<path style="fill:#D1E7F8;" d="M360.647,490.931c8.917-0.63,13.884,2.906,18.643,6.661c7.444,5.874,18.12-0.936,15.925-10.161  l-22.607-94.994l-37.652,2.66l-9.026,97.229c-0.876,9.442,10.651,14.684,17.195,7.821C347.31,495.76,351.73,491.561,360.647,490.931  z"/>
<path style="fill:#B9D8F4;" d="M331.29,434.588c6.817,3.226,14.339,4.958,22.09,4.958c10.125,0,20.011-3.008,28.405-8.542  l-9.178-38.567l-37.652,2.66L331.29,434.588z"/>
<path style="fill:#D1E7F8;" d="M453.578,412.839c2.156-8.676,7.054-12.307,12.096-15.672c7.887-5.265,4.71-17.523-4.743-18.285  l-97.331-7.854l-9.105,36.631l89.681,38.629c8.709,3.751,17.256-5.592,12.752-13.937  C454.049,427.016,451.421,421.514,453.578,412.839z"/>
<path style="fill:#B9D8F4;" d="M354.496,407.658l36.415,15.686c7.98-8.427,12.862-19.215,13.881-30.951  c0.538-6.208-0.041-12.34-1.645-18.174l-39.546-3.191L354.496,407.658z"/>
<path style="fill:#D1E7F8;" d="M408.025,300.324c-7.585-4.732-9.524-10.512-11.167-16.347c-2.57-9.128-15.21-9.894-18.856-1.14  l-37.547,90.14l32.024,19.979l64.452-73.355c6.259-7.124,0.014-18.14-9.314-16.434C421.653,304.257,415.609,305.056,408.025,300.324  z"/>
<g>
	<path style="fill:#B9D8F4;" d="M340.455,372.977l32.024,19.979l26.187-29.804c-1.627-2.961-3.558-5.783-5.781-8.427   c-9.328-11.1-22.776-17.697-37.186-18.345L340.455,372.977z"/>
	<path style="fill:#B9D8F4;" d="M426.172,398.555l-61.367-15.254l33.47-53.651c2.12-3.397,1.084-7.87-2.314-9.99   c-3.396-2.12-7.87-1.083-9.99,2.314l-33.47,53.65l-40.681-48.411c-2.576-3.066-7.149-3.462-10.217-0.887   c-3.066,2.577-3.463,7.151-0.887,10.217l40.681,48.411l-58.614,23.731c-3.712,1.503-5.503,5.73-4,9.443   c1.143,2.82,3.857,4.531,6.725,4.531c0.905,0,1.827-0.171,2.719-0.531l58.614-23.731l4.456,63.078   c0.27,3.821,3.453,6.741,7.226,6.741c0.172,0,0.345-0.006,0.519-0.019c3.995-0.282,7.005-3.749,6.723-7.744l-4.456-63.079   l61.367,15.254c0.587,0.146,1.176,0.216,1.755,0.216c3.253,0,6.211-2.204,7.031-5.504   C432.426,403.454,430.059,399.52,426.172,398.555z"/>
</g>
<path style="fill:#96C8EF;" d="M364.204,438.386l-2.897-41.011l39.929,9.925c1.795-4.452,2.961-9.183,3.464-14.083l-39.895-9.917  l21.763-34.885c-3.737-3.144-7.882-5.717-12.305-7.675l-21.762,34.883l-26.449-31.475c-2.051,1.279-4.022,2.698-5.888,4.266  c-1.874,1.575-3.613,3.268-5.222,5.055l26.457,31.483l-38.13,15.438c1.165,4.701,2.998,9.217,5.458,13.437l38.114-15.431  l2.897,41.005c1.209,0.085,2.422,0.143,3.644,0.143C357.039,439.546,360.666,439.147,364.204,438.386z"/>
<circle style="fill:#FFE477;" cx="353.37" cy="387.93" r="21.615"/>
<path style="fill:#D1E7F8;" d="M289.103,112.964c-1.118,8.869-5.553,13.053-10.163,16.989c-7.211,6.158-2.61,17.956,6.866,17.598  l97.578-3.681l4.721-37.449L294.493,78.64c-9.091-2.698-16.476,7.589-11.019,15.344C286.962,98.941,290.221,104.094,289.103,112.964  z"/>
<path style="fill:#B9D8F4;" d="M348.852,96.878c-7.746,11.405-10.588,25.145-8,38.686c0.652,3.411,1.642,6.684,2.914,9.802  l39.618-1.494l4.721-37.449l-38.01-11.28C349.672,95.712,349.253,96.287,348.852,96.878z"/>
<path style="fill:#D1E7F8;" d="M347.609,219.32c8.09,3.804,10.698,9.315,13.017,14.916c3.628,8.761,16.27,8.031,18.859-1.092  l26.653-93.939l-34.158-16.062l-55.349,80.445c-5.375,7.812,2.126,18.015,11.188,15.221  C333.612,217.022,339.52,215.516,347.609,219.32z"/>
<path style="fill:#B9D8F4;" d="M371.98,123.142l-22.472,32.661c9.448,13.249,24.915,21.694,42.018,21.694  c1.262,0,2.527-0.061,3.791-0.154l10.821-38.138L371.98,123.142z"/>
<path style="fill:#D1E7F8;" d="M466.839,196.542c6.118-6.518,12.165-7.296,18.208-7.771c9.454-0.743,12.666-12.992,4.789-18.273  l-81.105-54.377L382.9,143.643l59.404,77.499c5.769,7.526,17.79,3.545,17.933-5.937  C460.329,209.145,460.721,203.061,466.839,196.542z"/>
<path style="fill:#B9D8F4;" d="M408.731,116.121L382.9,143.643l24.119,31.467c17.5-5.486,30.397-19.784,34.636-36.915  L408.731,116.121z"/>
<path style="fill:#D1E7F8;" d="M482.021,76.109c-4.309-7.833-3.18-13.824-1.764-19.718c2.214-9.221-8.443-16.061-15.899-10.201  l-76.778,60.332l18.193,33.072l92.063-32.548c8.941-3.161,8.869-15.824-0.104-18.89C491.995,86.196,486.33,83.942,482.021,76.109z"/>
<path style="fill:#B9D8F4;" d="M405.772,139.594l37.39-13.219c0.031-3.356-0.262-6.762-0.915-10.183  c-2.785-14.579-11.575-26.752-23.498-34.164l-31.17,24.493L405.772,139.594z"/>
<path style="fill:#D1E7F8;" d="M372.174,24.455c-8.781,1.677-14.13-1.248-19.298-4.416c-8.085-4.955-17.883,3.066-14.615,11.968  l33.654,91.664l37.075-7.083l-2.506-97.615c-0.243-9.48-12.309-13.325-17.998-5.738C384.848,18.086,380.954,22.777,372.174,24.455z"/>
<g>
	<path style="fill:#B9D8F4;" d="M381.865,75.18c-8.856,1.692-16.925,5.584-23.622,11.257l13.671,37.235l37.075-7.083l-1.018-39.638   c-5.177-1.742-10.695-2.692-16.398-2.692C388.329,74.26,385.062,74.569,381.865,75.18z"/>
	<path style="fill:#B9D8F4;" d="M462.053,87.094c-1.93-3.509-6.339-4.787-9.849-2.858l-55.405,30.478l-11.865-62.111   c-0.752-3.935-4.558-6.507-8.483-5.763c-3.934,0.752-6.514,4.55-5.763,8.483l11.866,62.112l-62.738-7.908   c-3.991-0.507-7.602,2.314-8.102,6.287c-0.501,3.974,2.314,7.601,6.287,8.102l62.738,7.908l-26.908,57.224   c-1.704,3.624-0.147,7.944,3.477,9.648c0.998,0.469,2.048,0.69,3.081,0.69c2.723,0,5.332-1.54,6.567-4.167l26.908-57.224   l46.108,43.274c1.399,1.313,3.183,1.965,4.962,1.965c1.933,0,3.861-0.769,5.288-2.289c2.741-2.921,2.596-7.51-0.324-10.25   l-46.109-43.275l55.406-30.478C462.703,95.012,463.983,90.602,462.053,87.094z"/>
</g>
<path style="fill:#96C8EF;" d="M432.814,94.902l-36.015,19.812l-7.716-40.392c-2.419,0.117-4.838,0.404-7.218,0.858  c-2.405,0.459-4.75,1.088-7.029,1.863l7.716,40.393l-40.813-5.144c-1.279,4.671-1.884,9.507-1.797,14.391l40.796,5.142  l-17.49,37.195c4.031,2.649,8.44,4.746,13.117,6.189l17.498-37.212l29.972,28.131c3.799-3.058,7.129-6.631,9.91-10.589  l-29.957-28.117l36.029-19.82C438.076,103,435.7,98.74,432.814,94.902z"/>
<circle style="fill:#FFE477;" cx="391.55" cy="125.88" r="21.615"/>
<path style="fill:#D1E7F8;" d="M31.196,178.561c-4.751,7.572-10.536,9.497-16.376,11.125c-9.135,2.546-9.933,15.184-1.189,18.853  l90.043,37.779l20.061-31.973l-73.189-64.64c-7.108-6.277-18.14-0.061-16.458,9.272C35.164,164.943,35.948,170.989,31.196,178.561z"/>
<path style="fill:#B9D8F4;" d="M103.675,246.318l20.061-31.973l-29.742-26.268c-12.353,6.718-21.774,18.392-25.392,32.785  c-0.842,3.35-1.344,6.733-1.512,10.106L103.675,246.318z"/>
<path style="fill:#D1E7F8;" d="M39.44,299.667c5.734,6.859,5.777,12.955,5.52,19.012c-0.401,9.474,11.371,14.139,17.563,6.956  l63.754-73.962l-24.209-28.96l-84.093,49.632c-8.167,4.82-5.663,17.233,3.732,18.518C27.714,291.685,33.706,292.809,39.44,299.667z"/>
<path style="fill:#B9D8F4;" d="M102.068,222.715L67.901,242.88c1.109,5.948,3.27,11.716,6.47,17.063  c6.049,10.109,15.158,17.675,26.019,21.763l25.887-30.032L102.068,222.715z"/>
<path style="fill:#D1E7F8;" d="M157.166,329.251c8.295-3.334,14.106-1.49,19.787,0.625c8.887,3.309,16.961-6.446,12.043-14.554  l-50.64-83.489l-35.023,14.075l21.216,95.314c2.06,9.256,14.64,10.711,18.765,2.173  C145.951,337.937,148.871,332.585,157.166,329.251z"/>
<path style="fill:#B9D8F4;" d="M158.928,265.75l-20.572-33.917l-35.023,14.075l8.614,38.7c2.234,0.294,4.483,0.453,6.733,0.453  C134.744,285.061,149.371,277.672,158.928,265.75z"/>
<path style="fill:#D1E7F8;" d="M221.681,226.429c-0.607-8.919,2.942-13.877,6.709-18.626c5.894-7.429-0.889-18.123-10.12-15.951  l-95.052,22.362l2.563,37.658l97.205,9.276c9.44,0.901,14.711-10.613,7.865-17.175C226.476,239.779,222.288,235.348,221.681,226.429  z"/>
<path style="fill:#B9D8F4;" d="M168.72,246.021c3.36-13.371,1.313-27.251-5.767-39.082c-0.367-0.613-0.751-1.21-1.14-1.804  l-38.595,9.08l2.563,37.658l39.477,3.767C166.703,252.6,167.874,249.388,168.72,246.021z"/>
<path style="fill:#D1E7F8;" d="M143.828,133.298c-8.67-2.179-12.288-7.086-15.641-12.136c-5.244-7.901-17.51-4.755-18.298,4.695  l-8.105,97.31l36.607,9.199l38.86-89.581c3.774-8.7-5.548-17.271-13.904-12.788C158.006,132.863,152.498,135.477,143.828,133.298z"/>
<g>
	<path style="fill:#B9D8F4;" d="M154.177,195.977c-6.36-6.048-14.193-10.397-22.936-12.594c-4.123-1.036-8.36-1.562-12.595-1.562   c-4.675,0-9.226,0.634-13.569,1.815l-3.292,39.531l36.607,9.199L154.177,195.977z"/>
	<path style="fill:#B9D8F4;" d="M198.943,227.977c-0.272-3.996-3.737-7.022-7.727-6.742l-63.089,4.294l15.411-61.328   c0.976-3.885-1.381-7.824-5.266-8.801c-3.887-0.975-7.825,1.382-8.8,5.266l-15.411,61.328l-53.564-33.609   c-3.392-2.127-7.868-1.104-9.997,2.288c-2.128,3.393-1.104,7.868,2.289,9.997l53.564,33.608l-48.516,40.557   c-3.073,2.568-3.481,7.142-0.913,10.214c1.434,1.716,3.493,2.602,5.567,2.602c1.64,0,3.29-0.554,4.647-1.688l48.516-40.557   l23.58,58.675c1.137,2.83,3.857,4.549,6.731,4.549c0.9,0,1.815-0.168,2.702-0.524c3.716-1.493,5.518-5.717,4.024-9.433   l-23.58-58.675l63.088-4.294C196.197,235.432,199.215,231.972,198.943,227.977z"/>
</g>
<path style="fill:#96C8EF;" d="M130.993,283.571c4.765-1.167,9.288-2.999,13.459-5.404l-15.339-38.169l41.025-2.792  c0.367-4.871,0.04-9.733-0.968-14.47l-41.042,2.793l10.023-39.884c-2.23-0.904-4.534-1.666-6.909-2.263  c-2.356-0.592-4.752-0.998-7.161-1.253l-10.018,39.865L79.215,200.13c-3.096,3.67-5.7,7.796-7.698,12.291l34.837,21.858  l-31.54,26.366c2.595,4.186,5.712,7.931,9.274,11.15l31.567-26.389L130.993,283.571z"/>
<circle style="fill:#FFE477;" cx="118.66" cy="233.44" r="21.615"/>
<path d="M350.854,416.936c-7.748-0.672-14.77-4.321-19.773-10.274c-5.003-5.954-7.389-13.5-6.716-21.248  c0.672-7.748,4.321-14.77,10.274-19.773c12.292-10.325,30.693-8.731,41.021,3.56l0,0c5.003,5.954,7.388,13.499,6.716,21.247  s-4.44,14.632-10.275,19.773C362.794,418.421,351.712,417.012,350.854,416.936z M353.358,373.822c-3.207,0-6.429,1.083-9.069,3.303  c-2.887,2.425-4.655,5.829-4.981,9.586c-0.326,3.756,0.831,7.414,3.257,10.301c2.425,2.887,5.829,4.655,9.586,4.981  c3.75,0.326,7.413-0.831,10.3-3.256c2.887-2.426,4.656-5.83,4.981-9.587c0.326-3.756-0.83-7.414-3.256-10.3  C361.389,375.533,357.386,373.822,353.358,373.822z"/>
<path d="M391.54,154.996c-13.691,0-25.927-9.724-28.589-23.655c-1.459-7.638,0.144-15.388,4.513-21.821  c4.37-6.434,10.983-10.78,18.622-12.239c15.777-3.011,31.048,7.366,34.062,23.135C423.16,136.183,414.348,154.429,391.54,154.996z   M391.579,111.76c-0.89,0-7.963,0.365-11.706,6.188c-2.039,3.172-2.896,6.876-2.188,10.579c1.46,7.646,8.874,12.682,16.513,11.216  c7.645-1.46,12.676-8.868,11.215-16.513c-0.707-3.703-2.814-6.909-5.934-9.027C397.113,112.595,394.378,111.76,391.579,111.76z"/>
<path d="M111.566,261.678c-7.634-1.479-13.895-6.614-17.888-13.287c-3.993-6.674-5.148-14.502-3.253-22.045  c3.913-15.569,19.765-25.055,35.333-21.141c7.542,1.895,13.896,6.614,17.889,13.287c3.993,6.674,5.148,14.503,3.253,22.046  c-1.896,7.542-6.614,13.895-13.288,17.888C129.034,261.164,120.9,263.486,111.566,261.678z M118.663,219.325  c-6.317,0-12.083,4.278-13.69,10.677c-0.919,3.656-0.359,7.451,1.577,10.687c1.936,3.235,5.016,5.523,8.672,6.442  c3.657,0.918,7.453,0.359,10.688-1.577c3.235-1.936,5.523-5.016,6.442-8.672l0,0c0.919-3.656,0.189-7.356-1.577-10.688  C127.131,219.321,119.798,219.325,118.663,219.325z"/>
<path d="M132.289,356.431c-7.507-0.871-13.419-6.201-15.061-13.579l-12.241-54.992l-36.784,42.672  c-4.935,5.728-12.663,7.627-19.692,4.847c-7.029-2.782-11.365-9.462-11.044-17.017c0.234-5.544,0.097-9.245-3.781-13.884  c-3.879-4.641-7.497-5.432-12.994-6.184c-7.492-1.023-13.297-6.475-14.789-13.887c-1.491-7.409,1.751-14.679,8.261-18.521  l48.518-28.636L10.73,215.455c-6.969-2.924-11.167-9.687-10.694-17.229c0.474-7.546,5.487-13.733,12.771-15.764  c5.345-1.49,8.822-2.765,12.036-7.887s2.849-8.808,1.865-14.268c-1.341-7.442,2.05-14.647,8.638-18.357  c6.584-3.707,14.501-2.872,20.167,2.134l42.227,37.294l1.106-13.278c0.344-4.127,3.96-7.194,8.097-6.853  c4.127,0.344,7.195,3.969,6.852,8.097l-2.346,28.169c-0.235,2.827-2.045,5.279-4.677,6.337c-2.632,1.057-5.635,0.54-7.762-1.338  l-53.426-47.186c-1.101-0.971-2.173-0.703-2.877-0.305c-0.708,0.397-1.496,1.177-1.234,2.626c1.321,7.332,2.106,15.295-3.921,24.9  s-13.538,12.362-20.714,14.363c-1.419,0.396-1.777,1.444-1.828,2.254c-0.051,0.809,0.173,1.891,1.526,2.458L82.265,229.2  c2.616,1.098,4.388,3.577,4.581,6.406c0.192,2.83-1.228,5.527-3.671,6.969L21.79,278.804c-1.265,0.746-1.339,1.849-1.18,2.643  c0.16,0.796,0.657,1.786,2.116,1.985c7.382,1.009,15.198,2.723,22.471,11.425c7.273,8.699,7.575,16.694,7.259,24.139  c-0.062,1.471,0.824,2.136,1.579,2.435c0.752,0.298,1.85,0.42,2.81-0.692l46.539-53.989c1.852-2.149,4.757-3.07,7.509-2.377  c2.751,0.69,4.876,2.875,5.493,5.644l15.487,69.576c0.319,1.434,1.345,1.846,2.148,1.938c0.808,0.097,1.902-0.072,2.542-1.398  c3.241-6.709,7.287-13.612,17.809-17.84c10.524-4.23,18.221-2.043,25.202,0.556c1.38,0.515,2.285-0.124,2.803-0.75  c0.516-0.623,0.971-1.631,0.21-2.886l-36.966-60.945c-1.471-2.426-1.448-5.473,0.06-7.876s4.248-3.76,7.065-3.479l70.957,6.771  c1.47,0.137,2.171-0.709,2.508-1.445c0.338-0.737,0.518-1.831-0.545-2.851c-5.378-5.154-10.693-11.133-11.464-22.448  s3.686-17.961,8.316-23.797c0.915-1.153,0.588-2.212,0.154-2.897c-0.434-0.684-1.252-1.43-2.682-1.092l-69.384,16.324  c-2.763,0.647-5.653-0.314-7.472-2.49c-1.819-2.177-2.255-5.193-1.126-7.795l28.366-65.392c0.584-1.348-0.003-2.284-0.599-2.832  c-0.597-0.549-1.582-1.062-2.879-0.362c-6.563,3.521-13.895,6.733-24.893,3.965c-10.999-2.764-15.942-9.055-20.062-15.263  c-0.815-1.227-1.923-1.243-2.708-1.041c-0.784,0.201-1.745,0.749-1.867,2.212l-0.594,7.13c-0.344,4.128-3.976,7.19-8.097,6.853  c-4.127-0.344-7.195-3.969-6.852-8.097l0.594-7.13c0.627-7.533,5.763-13.615,13.083-15.496c7.325-1.88,14.756,0.974,18.938,7.274  c3.069,4.623,5.355,7.536,11.22,9.011c5.866,1.475,9.257-0.013,14.146-2.636c6.665-3.576,14.565-2.576,20.127,2.542  c5.561,5.117,7.211,12.904,4.203,19.839l-22.42,51.685l54.84-12.902c7.361-1.732,14.73,1.274,18.78,7.655  c4.051,6.383,3.632,14.335-1.067,20.258c-3.449,4.347-5.513,7.422-5.102,13.456c0.411,6.033,2.873,8.799,6.878,12.638  c5.459,5.233,6.951,13.056,3.802,19.929c-3.148,6.87-10.044,10.842-17.568,10.128l-56.084-5.352l29.218,48.17  c3.92,6.462,3.341,14.401-1.476,20.226c-4.818,5.825-12.51,7.887-19.598,5.246c-5.2-1.937-8.761-2.951-14.373-0.694  c-5.611,2.255-7.172,5.613-9.896,10.447C143.86,357.671,132.997,356.513,132.289,356.431z"/>
<path d="M369.815,247.914c-7.11,0.001-13.362-4.154-16.118-10.809c-2.123-5.127-3.806-8.425-9.279-10.998  c-5.471-2.574-9.085-1.768-14.39-0.133c-7.224,2.229-14.787-0.269-19.264-6.362c-4.474-6.09-4.597-14.049-0.313-20.276l6.769-9.838  c2.348-3.413,7.018-4.275,10.43-1.928s4.275,7.018,1.928,10.43l-6.769,9.838c-0.832,1.21-0.436,2.241,0.044,2.894  c0.48,0.654,1.351,1.345,2.756,0.909c7.121-2.195,14.929-3.934,25.192,0.893s13.904,11.95,16.754,18.834  c0.563,1.359,1.649,1.579,2.458,1.542c0.809-0.048,1.855-0.4,2.257-1.813l19.455-68.573c0.773-2.729,3.021-4.787,5.808-5.32  c2.779-0.528,5.634,0.553,7.359,2.805l43.363,56.572c0.894,1.165,1.996,1.107,2.767,0.853s1.693-0.868,1.716-2.34  c0.111-7.448,0.87-15.412,8.632-23.683c7.761-8.269,15.662-9.531,23.09-10.115c1.468-0.116,2.021-1.076,2.227-1.86  c0.205-0.784,0.193-1.89-1.026-2.707l-59.205-39.693c-2.355-1.579-3.619-4.354-3.265-7.168c0.355-2.813,2.268-5.188,4.941-6.133  l67.203-23.759c1.385-0.489,1.67-1.557,1.666-2.366c-0.004-0.812-0.302-1.879-1.695-2.355c-7.05-2.408-14.391-5.592-19.856-15.529  c-5.467-9.938-4.225-17.841-2.485-25.085c0.345-1.432-0.397-2.254-1.081-2.692c-0.682-0.437-1.734-0.767-2.891,0.141l-56.047,44.041  c-2.23,1.752-5.26,2.097-7.825,0.89c-2.567-1.207-4.233-3.759-4.306-6.595l-1.828-71.256c-0.038-1.468-0.966-2.069-1.737-2.315  c-0.774-0.245-1.879-0.293-2.764,0.885c-4.47,5.96-9.765,11.957-20.904,14.086c-11.134,2.124-18.272-1.496-24.625-5.389  c-1.253-0.769-2.267-0.317-2.896,0.197c-0.626,0.513-1.267,1.413-0.761,2.792l24.566,66.912c0.979,2.663,0.37,5.649-1.571,7.718  s-4.883,2.861-7.603,2.058l-68.334-20.279c-1.406-0.416-2.266,0.278-2.738,0.935c-0.474,0.659-0.86,1.698-0.013,2.903  c4.287,6.092,8.354,12.982,6.937,24.233c-1.419,11.253-7.069,16.917-12.734,21.755c-1.119,0.955-1.003,2.058-0.707,2.814  c0.294,0.754,0.968,1.647,2.421,1.585l71.229-2.687c2.847-0.089,5.486,1.395,6.854,3.88s1.215,5.529-0.393,7.866l-16.541,24.041  c-2.347,3.414-7.018,4.275-10.43,1.928c-3.413-2.348-4.275-7.018-1.928-10.43l8.072-11.732l-56.299,2.124  c-7.551,0.29-14.21-4.08-16.958-11.12c-2.75-7.042-0.812-14.767,4.938-19.677c4.22-3.604,6.837-6.224,7.593-12.225  c0.757-5.999-1.128-9.187-4.321-13.725c-4.352-6.186-4.313-14.148,0.1-20.288c4.409-6.138,11.944-8.713,19.187-6.563l54.01,16.029  L331.22,34.593c-2.605-7.096-0.512-14.775,5.334-19.565c5.849-4.792,13.794-5.334,20.24-1.383c4.732,2.9,8.032,4.582,13.973,3.443  c5.939-1.135,8.39-3.912,11.719-8.352c4.536-6.049,12.122-8.474,19.323-6.175c7.199,2.297,11.978,8.664,12.172,16.22l1.445,56.32  l44.299-34.81c5.943-4.67,13.895-5.051,20.256-0.972c6.364,4.081,9.335,11.47,7.569,18.822c-1.296,5.395-1.873,9.053,1.042,14.353  c2.915,5.299,6.313,6.771,11.563,8.564c7.156,2.444,11.806,8.91,11.846,16.47c0.04,7.558-4.539,14.068-11.666,16.588l-53.116,18.778  l46.795,31.373c6.278,4.21,9.098,11.654,7.184,18.966c-1.916,7.313-8.023,12.422-15.562,13.014  c-5.532,0.436-9.189,1.019-13.328,5.428s-4.488,8.096-4.571,13.643c-0.114,7.562-4.826,13.981-12.004,16.355  c-7.176,2.374-14.783,0.029-19.381-5.969l-34.274-44.714l-15.378,54.2C382.9,249.027,370.17,247.914,369.815,247.914z"/>
<path d="M328.636,509.177c-6.879-3.131-10.872-10.017-10.173-17.544l5.207-56.096l-48.094,29.341  c-6.455,3.937-14.395,3.377-20.23-1.424c-5.838-4.804-7.917-12.49-5.296-19.584c1.923-5.205,2.927-8.77,0.657-14.375  c-2.269-5.605-5.47-7.468-10.473-9.868c-6.817-3.272-10.671-10.241-9.819-17.753c0.852-7.51,6.167-13.435,13.542-15.096  l54.959-12.383l-42.767-36.673c-5.738-4.92-7.66-12.645-4.897-19.68c2.765-7.037,9.467-11.379,16.988-11.089  c5.55,0.219,9.245,0.073,13.875-3.817c4.629-3.89,5.411-7.51,6.148-13.009c1.006-7.495,6.441-13.314,13.85-14.825  c7.406-1.51,14.683,1.714,18.542,8.214l28.76,48.443l21.662-52.007c2.906-6.978,9.644-11.196,17.203-10.738  c7.548,0.455,13.748,5.451,15.797,12.73c1.503,5.341,2.786,8.815,7.917,12.016c5.13,3.2,8.814,2.824,14.273,1.828  c7.435-1.359,14.652,2.012,18.379,8.59c3.725,6.576,2.908,14.495-2.082,20.173l-37.186,42.322l56.156,4.531  c7.535,0.608,13.63,5.729,15.528,13.044c1.899,7.317-0.937,14.758-7.226,18.956c-4.615,3.08-7.522,5.374-8.981,11.242  c-1.459,5.869,0.036,9.257,2.672,14.139c3.593,6.655,2.614,14.56-2.491,20.136c-5.103,5.574-12.888,7.243-19.828,4.253  L414.802,441.8c-3.805-1.638-5.56-6.051-3.921-9.854s6.052-5.559,9.854-3.922l26.408,11.375c1.351,0.583,2.283-0.009,2.83-0.605  c0.548-0.599,1.055-1.585,0.355-2.881c-3.539-6.555-6.766-13.877-4.029-24.883c2.735-11.006,9.014-15.965,15.21-20.101  c1.226-0.817,1.239-1.926,1.035-2.711c-0.203-0.784-0.753-1.743-2.217-1.861l-71.049-5.733c-2.827-0.228-5.284-2.032-6.349-4.661  s-0.555-5.634,1.318-7.765l47.048-53.546c0.969-1.104,0.697-2.175,0.298-2.879c-0.4-0.706-1.185-1.493-2.629-1.228  c-7.329,1.338-15.289,2.145-24.911-3.857s-12.397-13.506-14.417-20.678c-0.398-1.418-1.448-1.773-2.259-1.822  c-0.799-0.052-1.89,0.178-2.454,1.533l-27.407,65.8c-1.091,2.618-3.565,4.397-6.396,4.598c-2.829,0.196-5.529-1.214-6.978-3.652  l-36.388-61.292c-0.749-1.263-1.852-1.332-2.646-1.174c-0.796,0.162-1.785,0.662-1.98,2.122c-0.99,7.384-2.684,15.203-11.365,22.499  c-8.684,7.296-16.678,7.613-24.122,7.321c-1.474-0.057-2.133,0.83-2.43,1.585c-0.296,0.754-0.415,1.853,0.699,2.809l54.109,46.399  c2.153,1.847,3.081,4.75,2.396,7.503c-0.684,2.752-2.862,4.884-5.63,5.507l-69.536,15.666c-1.433,0.323-1.842,1.35-1.934,2.153  c-0.091,0.807,0.078,1.902,1.406,2.539c6.716,3.224,13.629,7.251,17.886,17.763c4.255,10.511,2.091,18.214-0.491,25.202  c-0.511,1.382,0.13,2.286,0.756,2.802c0.626,0.515,1.632,0.966,2.889,0.203l60.848-37.123c2.422-1.479,5.47-1.463,7.876,0.039  c2.406,1.501,3.761,4.232,3.498,7.057l-6.588,70.974c-0.136,1.463,0.714,2.169,1.451,2.505c0.739,0.338,1.832,0.514,2.849-0.553  c5.142-5.392,11.108-10.723,22.421-11.521c11.311-0.8,17.968,3.64,23.816,8.255c1.155,0.911,2.214,0.583,2.898,0.146  c0.683-0.436,1.425-1.255,1.085-2.684l-16.503-69.343c-0.657-2.76,0.299-5.653,2.471-7.479s5.188-2.267,7.792-1.146l12.198,5.254  c3.805,1.639,5.56,6.051,3.922,9.855c-1.43,3.318-4.971,5.081-8.377,4.386l13.089,55c1.75,7.354-1.235,14.732-7.604,18.799  c-6.372,4.068-14.325,3.672-20.262-1.014c-4.357-3.438-7.445-5.491-13.468-5.067c-6.033,0.426-8.553,3.139-12.623,6.91  C341.082,512.246,331.018,510.261,328.636,509.177z"/>
<g>
</g>
<g>
</g>
<g>
</g>
<g>
</g>
<g>
</g>
<g>
</g>
<g>
</g>
<g>
</g>
<g>
</g>
<g>
</g>
<g>
</g>
<g>
</g>
<g>
</g>
<g>
</g>
<g>
</g>
</svg>
