<?xml version="1.0" encoding="iso-8859-1"?>
<!-- Generator: Adobe Illustrator 19.0.0, SVG Export Plug-In . SVG Version: 6.00 Build 0)  -->
<svg xmlns="http://www.w3.org/2000/svg" xmlns:xlink="http://www.w3.org/1999/xlink" version="1.1" id="Capa_1" x="0px" y="0px" viewBox="0 0 512 512" style="enable-background:new 0 0 512 512;" xml:space="preserve">
<path style="fill:#B9D8F4;" d="M376.899,388.406l-79.145-40.348h-83.507l-79.145,40.348c-23.069,11.76-38.513,34.51-40.93,60.29  l-2.85,30.395c-1.278,13.632,9.447,25.409,23.139,25.409h283.078c13.692,0,24.417-11.777,23.139-25.409l-2.85-30.395  C415.412,422.916,399.968,400.166,376.899,388.406z"/>
<path style="fill:#96C8EF;" d="M148.538,412.235c14.784,9.174,39.692,24.889,53.226,33.441c7.032,4.442,15.144,6.791,23.458,6.792  c0.001,0,0.002,0,0.003,0c11.605,0,22.51-4.473,30.775-12.59c8.264,8.117,19.17,12.59,30.776,12.59  c8.315,0,16.428-2.349,23.463-6.794c13.521-8.544,38.416-24.251,53.226-33.44c8.154-5.061,14.18-12.845,17.155-21.791  c-1.218-0.71-2.456-1.393-3.72-2.038l-79.145-40.348h-83.507l-79.145,40.348c-1.266,0.645-2.504,1.329-3.723,2.039  C134.356,399.391,140.383,407.174,148.538,412.235z"/>
<polygon style="fill:#FFA733;" points="216.426,355.766 295.576,355.766 255.998,397.39 "/>
<path style="fill:#57565C;" d="M135.103,388.406c-23.069,11.76-38.513,34.51-40.93,60.29l-2.85,30.395  c-1.278,13.632,9.447,25.409,23.139,25.409h89.704c-27.756-62.496-29.25-136.39-29.25-136.392L135.103,388.406z"/>
<path style="fill:#3E3D42;" d="M174.917,368.109l-39.814,20.297c-1.266,0.645-2.504,1.329-3.723,2.039  c2.975,8.945,9.002,16.729,17.157,21.79c9.186,5.7,22.281,13.926,34.128,21.39C175.498,396.842,174.917,368.11,174.917,368.109z"/>
<path style="fill:#57565C;" d="M376.899,388.406c23.069,11.76,38.513,34.51,40.93,60.291l2.85,30.395  c1.278,13.632-9.447,25.409-23.139,25.409h-89.704c27.756-62.496,29.25-136.39,29.25-136.392L376.899,388.406z"/>
<path style="fill:#3E3D42;" d="M337.086,368.109l39.814,20.297c1.266,0.645,2.504,1.329,3.723,2.039  c-2.975,8.945-9.002,16.729-17.157,21.79c-9.186,5.7-22.281,13.926-34.128,21.39C336.504,396.842,337.086,368.11,337.086,368.109z"/>
<g>
	<path style="fill:#D1E7F8;" d="M214.248,348.057c0,0-22.291-2.974-51.231,21.548c-5.493,4.655-4.781,13.341,1.337,17.138   c14.832,9.204,39.861,24.995,53.432,33.57c5.515,3.485,12.709,2.676,17.313-1.946l20.898-20.978L214.248,348.057z"/>
	<path style="fill:#D1E7F8;" d="M297.751,348.057c0,0,22.291-2.974,51.231,21.548c5.493,4.655,4.78,13.341-1.337,17.138   c-14.832,9.204-39.861,24.995-53.432,33.57c-5.515,3.485-12.709,2.676-17.313-1.946l-20.899-20.977L297.751,348.057z"/>
</g>
<path style="fill:#FFD422;" d="M258.954,458.176c3.038,6.376,10.664,8.853,17.01,5.755c11.027-5.384,21.223-1.485,32.931-14.465  c11.709-12.98,6.782-22.721,11.005-34.243c2.43-6.631-0.818-13.962-7.472-16.329c-17.336-6.166-46.027-13.337-58.748,0.766  C240.959,413.763,251.04,441.565,258.954,458.176z"/>
<path style="fill:#EEBF00;" d="M256.065,397.414c-0.844,0.682-1.644,1.424-2.385,2.245c-12.721,14.103-2.64,41.905,5.274,58.516  c3.038,6.376,10.664,8.854,17.01,5.755c6.507-3.177,12.724-3.124,19.133-5.211C290.763,400.138,258.342,397.525,256.065,397.414z"/>
<path style="fill:#FFE477;" d="M253.048,458.176c-3.038,6.376-10.664,8.853-17.01,5.755c-11.028-5.384-21.223-1.485-32.931-14.465  c-11.709-12.98-6.782-22.721-11.005-34.243c-2.43-6.631,0.818-13.962,7.472-16.329c17.336-6.166,46.027-13.337,58.748,0.766  S260.962,441.565,253.048,458.176z"/>
<path style="fill:#FFD422;" d="M255.937,397.409c-13.645-11.018-40.037-4.327-56.363,1.479c-6.654,2.367-9.902,9.698-7.472,16.329  c4.223,11.522-0.704,21.263,11.005,34.243c3.208,3.557,6.303,5.841,9.332,7.401C222.62,411.016,254.44,397.998,255.937,397.409z"/>
<circle style="fill:#FFA733;" cx="145.121" cy="267.29" r="29.794"/>
<circle style="fill:#FFB655;" cx="365.911" cy="267.29" r="29.794"/>
<path style="fill:#FFC477;" d="M378.104,198.31c0,67.436-39.933,172.521-122.103,172.521S133.898,265.746,133.898,198.31  S188.565,76.206,256.001,76.206S378.104,130.874,378.104,198.31z"/>
<path style="fill:#FFB655;" d="M184.662,187.56c0-49.549,29.514-92.204,71.92-111.346c-0.194-0.001-0.387-0.007-0.581-0.007  c-67.436,0-122.103,54.668-122.103,122.103s39.933,172.521,122.103,172.521c16.096,0,30.564-4.046,43.436-11.038  C222.221,353.762,184.662,252.959,184.662,187.56z"/>
<path style="fill:#957856;" d="M293.723,278.932c-12.25-8.074-28.382-5.6-37.722,5.213c-9.34-10.813-25.472-13.288-37.722-5.213  c-13.317,8.778-46.576,46.185-37.798,59.502c8.778,13.317,56.267-2.499,69.584-11.276c2.264-1.492,4.242-3.253,5.935-5.206  c1.693,1.953,3.671,3.714,5.935,5.206c13.317,8.778,60.807,24.593,69.584,11.276C340.299,325.117,307.04,287.71,293.723,278.932z"/>
<path style="fill:#806749;" d="M218.279,278.932c-13.317,8.778-46.576,46.185-37.798,59.502c6.033,9.152,30.35,4.544,49.293-2.082  c-0.063-32.429,10.686-49.48,19.417-57.968C239.947,272.76,227.913,272.582,218.279,278.932z"/>
<path style="fill:#FFA733;" d="M256.001,305.476L256.001,305.476c-8.736,0-15.883-7.147-15.883-15.883v-16.42  c0-8.736,7.147-15.883,15.883-15.883l0,0c8.736,0,15.883,7.147,15.883,15.883v16.42  C271.884,298.329,264.737,305.476,256.001,305.476z"/>
<path style="fill:#806749;" d="M179.026,212.769c0,0-4.187,18.781-21.01,39.821c-6.291,7.868-18.613,6.286-22.691-2.924  c-9.124-20.606-17.737-57.986,8.693-100.084C143.615,152.981,179.026,212.769,179.026,212.769z"/>
<path style="fill:#957856;" d="M332.976,212.769c0,0,4.187,18.781,21.01,39.821c6.291,7.868,18.613,6.286,22.691-2.924  c9.124-20.606,17.737-57.986-8.693-100.084C368.387,152.981,332.976,212.769,332.976,212.769z"/>
<path style="fill:#3E3D42;" d="M256.001,7.5c-108.075,0-117.719,179.022-117.719,179.022H373.72  C373.72,186.523,364.076,7.5,256.001,7.5z"/>
<path style="fill:#2D2D30;" d="M301.277,20.155C288.53,12.233,273.567,7.5,256.001,7.5c-108.075,0-117.719,179.022-117.719,179.022  h90.552C228.834,186.523,235.6,60.969,301.277,20.155z"/>
<path style="fill:#57565C;" d="M79.515,118.298c-13.897,0-23.948,13.167-20.406,26.605c7.366,27.94,28.417,67.866,88.579,67.866  h216.627c60.162,0,81.213-39.926,88.579-67.866c3.543-13.438-6.509-26.605-20.406-26.605  C432.488,118.298,79.515,118.298,79.515,118.298z"/>
<path style="fill:#3E3D42;" d="M162.428,144.903c-3.543-13.438,6.509-26.605,20.406-26.605H79.515  c-13.897,0-23.948,13.167-20.406,26.605c7.366,27.94,28.417,67.866,88.579,67.866h103.319  C190.844,212.769,169.793,172.843,162.428,144.903z"/>
<path style="fill:#A4E276;" d="M432.487,118.298H79.515c-13.897,0-23.948,13.167-20.406,26.605c0.792,3.004,1.743,6.147,2.883,9.364  h388.017c1.14-3.217,2.091-6.36,2.883-9.364C456.435,131.465,446.384,118.298,432.487,118.298z"/>
<path style="fill:#7ED63E;" d="M59.109,144.903c0.792,3.004,1.743,6.147,2.883,9.364h103.319c-1.14-3.217-2.091-6.36-2.883-9.364  c-3.543-13.438,6.509-26.605,20.406-26.605H79.515C65.618,118.298,55.567,131.465,59.109,144.903z"/>
<g>
	<circle style="fill:#FF3F62;" cx="65.829" cy="165.06" r="15.476"/>
	<circle style="fill:#FF3F62;" cx="120.161" cy="165.06" r="15.476"/>
	<circle style="fill:#FF3F62;" cx="174.501" cy="165.06" r="15.476"/>
	<circle style="fill:#FF3F62;" cx="228.831" cy="165.06" r="15.476"/>
	<circle style="fill:#FF3F62;" cx="283.171" cy="165.06" r="15.476"/>
	<circle style="fill:#FF3F62;" cx="337.501" cy="165.06" r="15.476"/>
	<circle style="fill:#FF3F62;" cx="391.841" cy="165.06" r="15.476"/>
	<circle style="fill:#FF3F62;" cx="446.171" cy="165.06" r="15.476"/>
</g>
<g>
	<path style="fill:#D80027;" d="M65.829,165.057c0-5.725,3.117-10.712,7.738-13.389c-2.278-1.32-4.916-2.087-7.738-2.087   c-8.547,0-15.476,6.929-15.476,15.476s6.929,15.476,15.476,15.476c2.822,0,5.46-0.768,7.738-2.087   C68.945,175.769,65.829,170.782,65.829,165.057z"/>
	<path style="fill:#D80027;" d="M120.164,165.057c0-5.725,3.117-10.712,7.738-13.389c-2.278-1.32-4.916-2.087-7.738-2.087   c-8.547,0-15.476,6.929-15.476,15.476s6.929,15.476,15.476,15.476c2.822,0,5.46-0.768,7.738-2.087   C123.28,175.769,120.164,170.782,120.164,165.057z"/>
	<path style="fill:#D80027;" d="M174.499,165.057c0-5.725,3.117-10.712,7.738-13.389c-2.278-1.32-4.916-2.087-7.738-2.087   c-8.547,0-15.476,6.929-15.476,15.476s6.929,15.476,15.476,15.476c2.822,0,5.46-0.768,7.738-2.087   C177.615,175.769,174.499,170.782,174.499,165.057z"/>
	<path style="fill:#D80027;" d="M228.834,165.057c0-5.725,3.117-10.712,7.738-13.389c-2.278-1.32-4.916-2.087-7.738-2.087   c-8.547,0-15.476,6.929-15.476,15.476s6.929,15.476,15.476,15.476c2.822,0,5.46-0.768,7.738-2.087   C231.95,175.769,228.834,170.782,228.834,165.057z"/>
	<path style="fill:#D80027;" d="M283.169,165.057c0-5.725,3.117-10.712,7.738-13.389c-2.278-1.32-4.916-2.087-7.738-2.087   c-8.547,0-15.476,6.929-15.476,15.476s6.929,15.476,15.476,15.476c2.822,0,5.46-0.768,7.738-2.087   C286.285,175.769,283.169,170.782,283.169,165.057z"/>
	<path style="fill:#D80027;" d="M337.503,165.057c0-5.725,3.117-10.712,7.738-13.389c-2.278-1.32-4.916-2.087-7.738-2.087   c-8.547,0-15.476,6.929-15.476,15.476s6.929,15.476,15.476,15.476c2.822,0,5.46-0.768,7.738-2.087   C340.62,175.769,337.503,170.782,337.503,165.057z"/>
	<path style="fill:#D80027;" d="M391.838,165.057c0-5.725,3.117-10.712,7.738-13.389c-2.278-1.32-4.916-2.087-7.738-2.087   c-8.547,0-15.476,6.929-15.476,15.476s6.929,15.476,15.476,15.476c2.822,0,5.46-0.768,7.738-2.087   C394.955,175.769,391.838,170.782,391.838,165.057z"/>
	<path style="fill:#D80027;" d="M446.173,165.057c0-5.725,3.117-10.712,7.738-13.389c-2.278-1.32-4.916-2.087-7.738-2.087   c-8.547,0-15.476,6.929-15.476,15.476s6.929,15.476,15.476,15.476c2.822,0,5.46-0.768,7.738-2.087   C449.29,175.769,446.173,170.782,446.173,165.057z"/>
</g>
<path d="M220.21,239.783c-8.991-7.734-24.763-7.734-33.754,0c-3.14,2.701-3.496,7.437-0.795,10.576  c2.702,3.14,7.436,3.495,10.577,0.795c3.381-2.908,10.534-2.555,14.189,0c4.496,3.142,9.094,0.93,10.577-0.795  C223.707,247.22,223.351,242.484,220.21,239.783z"/>
<path d="M325.545,239.783c-8.991-7.734-24.763-7.734-33.754,0c-3.14,2.701-3.496,7.437-0.795,10.576  c2.702,3.14,7.436,3.495,10.577,0.795c3.381-2.908,10.665-2.733,14.189,0c4.75,3.683,9.094,0.93,10.577-0.795  C329.042,247.22,328.686,242.484,325.545,239.783z"/>
<path d="M460.141,146.832c0.002-0.006,0.003-0.012,0.005-0.017c2.293-8.701,0.466-17.77-5.014-24.882  c-5.453-7.076-13.706-11.135-22.645-11.135h-64.782c-5.47-18.757-12.218-35.47-20.098-49.737c-2.002-3.626-6.564-4.942-10.191-2.939  c-3.625,2.003-4.941,6.566-2.938,10.191c6.761,12.241,12.653,26.503,17.571,42.485h-192.1C174.017,65.087,201.805,15,256.001,15  c22.98,0,43.019,8.984,59.559,26.704c2.826,3.027,7.572,3.191,10.6,0.364c3.028-2.826,3.191-7.572,0.365-10.601  C307.034,10.588,283.306,0,256.001,0c-52.05,0-90.597,38.284-111.707,110.798H79.515c-8.938,0-17.192,4.059-22.645,11.135  c-5.48,7.112-7.307,16.181-5.013,24.883c0.001,0.005,0.003,0.011,0.005,0.016c-5.472,4.204-9.009,10.808-9.009,18.226  c0,12.669,10.307,22.976,22.976,22.976c2.015,0,3.969-0.263,5.833-0.752c2.104,2.602,4.442,4.975,6.673,7.373  c4.042,4.345,9.138,1.404,10.606-0.089c2.904-2.953,2.865-7.701-0.088-10.606c-1.622-1.595-3.183-3.304-4.678-5.087  c2.905-3.848,6.105-9.959,4.391-17.106h8.861c-0.155,1.075-0.239,2.173-0.239,3.291c0,12.669,10.307,22.976,22.976,22.976  s22.976-10.307,22.976-22.976c0-1.118-0.084-2.216-0.239-3.291h8.861c-0.155,1.075-0.239,2.173-0.239,3.291  c0,12.669,10.307,22.976,22.976,22.976s22.976-10.307,22.976-22.976c0-1.118-0.084-2.216-0.239-3.291h8.861  c-0.155,1.075-0.239,2.173-0.239,3.291c0,12.669,10.307,22.976,22.976,22.976s22.976-10.307,22.976-22.976  c0-1.118-0.084-2.216-0.239-3.291h8.861c-0.155,1.075-0.239,2.173-0.239,3.291c0,12.669,10.307,22.976,22.976,22.976  s22.976-10.307,22.976-22.976c0-1.118-0.084-2.216-0.239-3.291h8.861c-0.155,1.075-0.239,2.173-0.239,3.291  c0,12.669,10.307,22.976,22.976,22.976s22.976-10.307,22.976-22.976c0-1.118-0.084-2.216-0.239-3.291h8.861  c-0.155,1.075-0.239,2.173-0.239,3.291c0,12.669,10.307,22.976,22.976,22.976s22.976-10.307,22.976-22.976  c0-1.118-0.084-2.216-0.239-3.291h8.861c-0.155,1.075-0.239,2.173-0.239,3.291c0,5.183,1.727,9.969,4.632,13.817  c-14.691,17.515-36.024,26.394-63.515,26.394H147.688c-12.777,0-24.352-1.936-34.402-5.752c-3.871-1.472-8.204,0.477-9.674,4.35  c-1.471,3.872,0.476,8.203,4.349,9.674c3.608,1.37,7.384,2.507,11.284,3.461c0.589,6.867,1.823,13.657,3.692,20.324  c-9.432,6.968-15.108,17.99-15.108,29.965c0,20.563,19.053,41.575,44.496,36.592c5.685,11.105,12.143,21.256,19.26,30.209  c0.153,3.175,0.634,11.598,9.691,14.38c-7.801,3.843-15.532,8.992-23.109,15.413c-2.262,1.917-3.967,4.286-5.042,6.916  l-21.429,10.925c-17.151,8.743-30.819,23.285-38.486,40.947c-1.649,3.8,0.094,8.217,3.894,9.866  c0.973,0.422,7.236,2.061,9.866-3.894c6.376-14.433,17.483-26.392,31.539-33.557l15.879-8.095c1.472,2.461,3.52,4.578,6.012,6.125  c2.69,1.669,5.821,3.621,9.367,5.838c3.011,26.595,9.433,63.265,23.133,98.045h-78.438c-4.485,0-8.618-1.826-11.638-5.143  c-3.02-3.315-4.452-7.601-4.034-12.066l2.25-23.999c0.387-4.124-2.643-7.781-6.767-8.167c-4.126-0.382-7.781,2.643-8.167,6.767  l-2.25,23.999c-0.806,8.595,2.066,17.185,7.877,23.566C97.545,508.34,105.83,512,114.462,512H397.54  c8.632,0,16.917-3.66,22.728-10.043c5.812-6.382,8.684-14.972,7.878-23.566l-2.85-30.395c-2.672-28.498-19.491-53.272-44.99-66.271  l-21.435-10.928c-1.075-2.629-2.779-4.996-5.041-6.913c-7.562-6.408-15.291-11.552-23.095-15.398  c9.526-3.074,9.527-11.216,9.68-14.387c15.402-19.375,27.747-44.426,35.793-72.575c2.987-2.036,5.425-4.853,7.051-8.251  c3.165,3.9,4.948,8.795,4.948,14.017c0,7.799-3.97,14.901-10.621,18.998c-3.527,2.173-4.625,6.793-2.452,10.319  c1.417,2.301,4.452,5.771,10.319,2.452c11.365-6.428,17.753-18.725,17.753-31.77c0-11.647-5.282-22.329-14.309-29.364  c1.959-6.839,3.244-13.81,3.853-20.86c19.491-4.727,35.424-14.685,47.593-29.784c1.862,0.489,3.815,0.751,5.828,0.751  c12.669,0,22.976-10.307,22.976-22.976C469.149,157.64,465.613,151.036,460.141,146.832z M326.956,302.546  c-8.791-11.989-21.032-24.554-29.104-29.875c-5.803-3.826-12.53-5.874-19.391-5.989c-2.821-9.744-11.818-16.891-22.459-16.891  c-10.638,0-19.633,7.143-22.456,16.882c-6.85,0.104-13.541,2.141-19.393,5.999c-8.073,5.321-20.314,17.886-29.105,29.875  c-3.446,4.7-6.215,9.091-8.344,13.185c-9.919-14.589-18.188-31.948-24.326-51.143c4.463-1.053,8.507-3.575,11.497-7.314  c12.165-15.214,18.134-29.366,20.739-37.005H327.39c2.605,7.639,8.575,21.791,20.739,37.005c2.989,3.738,7.029,6.258,11.488,7.312  c-6.14,19.189-14.408,36.563-24.318,51.143C333.17,311.636,330.402,307.245,326.956,302.546z M252.753,404.683  c7.267,8.056,4.906,26.378-6.476,50.268c-0.728,1.527-1.927,2.214-2.805,2.521c-1.342,0.468-2.814,0.368-4.143-0.279  c-4.801-2.345-9.362-3.232-13.387-4.017c-6.363-1.239-11.39-2.219-17.267-8.733c-5.876-6.515-6.333-11.615-6.913-18.072  c-0.366-4.084-0.781-8.712-2.619-13.729c-0.509-1.389-0.457-2.862,0.147-4.149c0.396-0.842,1.201-1.964,2.795-2.531  c13.108-4.662,24.429-7.002,33.274-7.002C243.341,398.958,249.307,400.862,252.753,404.683z M267.688,399.981  c9.505-2.43,24.287-0.399,42.227,5.979c1.594,0.567,2.4,1.689,2.795,2.531c0.604,1.287,0.656,2.761,0.147,4.149  c-1.838,5.017-2.253,9.645-2.619,13.729c-0.579,6.457-1.036,11.558-6.913,18.072c-5.876,6.515-10.903,7.494-17.266,8.733  c-4.024,0.784-8.586,1.672-13.386,4.017c-1.331,0.647-2.801,0.747-4.144,0.279c-0.878-0.307-2.078-0.993-2.805-2.521  c-0.541-1.134-1.064-2.27-1.572-3.402C271.141,434.181,275.542,414.185,267.688,399.981z M249.516,378.122  c2.145,0.135,10.833,0.116,12.984-0.02l-6.501,7.681L249.516,378.122z M256.001,363.331c-16.549,0-31.978-4.656-46.073-13.837  c27.456-4.637,45.484-16.905,46.073-17.347c0.589,0.442,23.671,15.797,46.08,17.361  C287.983,358.691,272.544,363.331,256.001,363.331z M300.122,333.774c-14.005-3.24-28.314-9.093-34.056-12.877  c-1.63-1.075-3.11-2.374-4.398-3.859c-1.424-1.644-3.492-2.587-5.667-2.587s-4.243,0.944-5.667,2.588  c-1.287,1.484-2.766,2.782-4.396,3.857c-5.744,3.785-20.053,9.638-34.058,12.878c-18.363,4.249-24.499,1.502-25.137,0.531  c-0.639-0.968-0.744-7.691,10.4-22.89c8.5-11.593,19.52-22.436,25.264-26.222c3.1-2.044,6.603-3.205,10.211-3.461v7.86  c0,12.894,10.489,23.383,23.383,23.383c12.894,0,23.383-10.489,23.383-23.383v-7.851c3.618,0.262,7.136,1.424,10.212,3.452  c5.743,3.786,16.763,14.629,25.263,26.222c11.144,15.198,11.039,21.922,10.4,22.89C324.621,335.275,318.483,338.023,300.122,333.774  z M247.618,289.593v-16.42c0-4.622,3.761-8.383,8.383-8.383c4.622,0,8.383,3.761,8.383,8.383v16.42c0,4.622-3.761,8.383-8.383,8.383  S247.618,294.215,247.618,289.593z M168.576,220.269c-2.831,6.904-7.893,16.976-16.417,27.638c-1.885,2.356-4.381,2.314-5.366,2.187  c-0.981-0.127-3.395-0.72-4.61-3.464c-2.778-6.274-6.099-15.665-7.57-27.025C138.853,220.029,168.576,220.269,168.576,220.269z   M122.829,267.29c-0.326-5.532,2.039-10.74,5.572-14.742c0.023,0.052,2.086,6.763,7.395,8.978  c2.787,9.756,6.083,19.138,9.851,28.036C145.472,289.567,124.109,288.982,122.829,267.29z M167.865,375.327  c9.454-8.011,19.035-13.695,28.532-16.945c9.377,6.937,19.326,12.076,29.795,15.4l8.653,10.224  c-28.985,2.121-41.683,9.587-43.341,10.875c-9.625-6.049-17.56-10.693-23.195-14.508  C165.577,378.522,166.843,376.193,167.865,375.327z M193.852,449.828c1.055,1.527,9.28,13.971,29.222,18.07  c3.559,0.732,6.647,1.294,9.673,2.771c2.859,1.396,5.922,2.101,8.991,2.101c2.249,0,4.501-0.378,6.679-1.139  c2.914-1.018,5.479-2.674,7.583-4.809c2.104,2.134,4.669,3.791,7.583,4.809c2.178,0.761,4.43,1.139,6.679,1.139  c3.069,0,6.132-0.704,8.992-2.101c3.025-1.478,6.109-2.06,9.672-2.771c17.979-3.588,28.167-16.543,29.223-18.071  c-3.756,15.508-8.711,31.636-15.248,47.172H209.1C202.563,481.464,197.608,465.336,193.852,449.828z M410.362,449.396l2.85,30.395  c0.418,4.466-1.014,8.751-4.034,12.066c-3.02,3.316-7.153,5.143-11.638,5.143h-78.438c13.7-34.781,20.122-71.452,23.133-98.047  c3.545-2.217,6.675-4.168,9.365-5.837c2.492-1.547,4.539-3.663,6.011-6.125l15.882,8.097  C394.39,405.741,408.172,426.043,410.362,449.396z M343.69,380.371c-5.824,3.522-13.569,8.46-23.194,14.508  c-1.657-1.287-16.145-9.673-43.357-10.857l8.694-10.273c10.448-3.322,20.38-8.455,29.744-15.377  c9.518,3.26,19.113,8.953,28.556,16.954C345.155,376.193,347.103,378.308,343.69,380.371z M369.819,246.629  c-1.215,2.744-3.629,3.337-4.61,3.464c-0.987,0.128-3.481,0.17-5.365-2.187c-8.525-10.661-13.587-20.734-16.418-27.638  c0,0,29.739-0.212,33.959-0.627C375.911,230.983,372.594,240.362,369.819,246.629z M68.752,131.088  c2.59-3.361,6.513-5.29,10.763-5.29h352.973c4.25,0,8.172,1.929,10.763,5.29c2.43,3.154,3.333,7.118,2.575,11.002  c-5.079,0.076-9.762,1.805-13.536,4.677h-26.566c-3.86-2.937-8.671-4.686-13.884-4.686s-10.024,1.748-13.884,4.686H351.39  c-3.86-2.937-8.671-4.686-13.884-4.686s-10.024,1.748-13.884,4.686h-26.566c-3.86-2.937-8.671-4.686-13.884-4.686  s-10.024,1.748-13.884,4.686h-26.566c-3.86-2.937-8.671-4.686-13.884-4.686s-10.024,1.748-13.884,4.686h-26.566  c-3.86-2.937-8.671-4.686-13.884-4.686s-10.024,1.748-13.884,4.686h-26.566c-3.86-2.937-8.671-4.686-13.884-4.686  s-10.024,1.748-13.884,4.686H79.713c-3.773-2.871-8.457-4.6-13.535-4.677C65.419,138.205,66.322,134.242,68.752,131.088z   M57.853,165.058c0-4.398,3.578-7.977,7.976-7.977s7.976,3.578,7.976,7.977c0,4.397-3.578,7.976-7.976,7.976  S57.853,169.455,57.853,165.058z M120.164,173.033c-4.398,0-7.976-3.578-7.976-7.976s3.578-7.977,7.976-7.977  s7.976,3.578,7.976,7.977C128.14,169.455,124.562,173.033,120.164,173.033z M174.499,173.033c-4.398,0-7.976-3.578-7.976-7.976  s3.578-7.977,7.976-7.977s7.976,3.578,7.976,7.977C182.475,169.455,178.897,173.033,174.499,173.033z M228.834,173.033  c-4.398,0-7.976-3.578-7.976-7.976s3.578-7.977,7.976-7.977s7.976,3.578,7.976,7.977  C236.81,169.455,233.231,173.033,228.834,173.033z M283.168,173.033c-4.398,0-7.976-3.578-7.976-7.976s3.578-7.977,7.976-7.977  s7.976,3.578,7.976,7.977C291.145,169.455,287.566,173.033,283.168,173.033z M337.503,173.033c-4.398,0-7.976-3.578-7.976-7.976  s3.578-7.977,7.976-7.977s7.976,3.578,7.976,7.977C345.48,169.455,341.901,173.033,337.503,173.033z M391.838,173.033  c-4.398,0-7.976-3.578-7.976-7.976s3.578-7.977,7.976-7.977s7.976,3.578,7.976,7.977  C399.814,169.455,396.236,173.033,391.838,173.033z M446.173,173.033c-4.398,0-7.976-3.578-7.976-7.976s3.578-7.977,7.976-7.977  s7.976,3.578,7.976,7.977C454.149,169.455,450.571,173.033,446.173,173.033z"/>
<g>
</g>
<g>
</g>
<g>
</g>
<g>
</g>
<g>
</g>
<g>
</g>
<g>
</g>
<g>
</g>
<g>
</g>
<g>
</g>
<g>
</g>
<g>
</g>
<g>
</g>
<g>
</g>
<g>
</g>
</svg>
