<?xml version="1.0" encoding="iso-8859-1"?>
<!-- Generator: Adobe Illustrator 19.0.0, SVG Export Plug-In . SVG Version: 6.00 Build 0)  -->
<svg xmlns="http://www.w3.org/2000/svg" xmlns:xlink="http://www.w3.org/1999/xlink" version="1.1" id="Capa_1" x="0px" y="0px" viewBox="0 0 512 512" style="enable-background:new 0 0 512 512;" xml:space="preserve">
<path style="fill:#6DC82A;" d="M274.354,174.263c0,0,36.546-50.016,92.699-70.17c13.296-4.772,25.901,8.471,20.532,21.538  c-14.021,34.119-30.685,92.662-12.072,146.475C373.025,272.147,274.354,174.263,274.354,174.263z"/>
<path style="fill:#5EAC24;" d="M224.392,174.263c0,0-36.546-50.016-92.699-70.17c-13.296-4.772-25.901,8.471-20.532,21.538  c14.021,34.119,30.685,92.662,12.072,146.475C125.721,272.147,224.392,174.263,224.392,174.263z"/>
<path style="fill:#4E901E;" d="M146.886,110.45c-6.824,13.128-14.388,34.359-19.599,68.311c5.647,28.856,6.822,61.904-4.053,93.345  c2.488,0.041,101.159-97.843,101.159-97.843S194.348,133.145,146.886,110.45z"/>
<g>
	<path style="fill:#5EAC24;" d="M351.86,110.45c6.824,13.128,14.388,34.359,19.599,68.311c-5.647,28.856-6.822,61.904,4.053,93.345   c-2.488,0.041-101.159-97.843-101.159-97.843S304.398,133.145,351.86,110.45z"/>
	<ellipse style="fill:#5EAC24;" cx="249.37" cy="460.05" rx="51.53" ry="44.45"/>
</g>
<path style="fill:#4E901E;" d="M248.297,460.049c0-16.641,10.608-31.137,26.303-38.756c-7.458-3.62-16.06-5.695-25.228-5.695  c-28.46,0-51.531,19.901-51.531,44.451s23.071,44.451,51.531,44.451c9.168,0,17.769-2.074,25.228-5.695  C258.906,491.187,248.297,476.691,248.297,460.049z"/>
<path style="fill:#FFE477;" d="M351.543,359.377c0,56.427-45.743,102.17-102.17,102.17s-102.17-45.743-102.17-102.17  S158.199,7.5,249.373,7.5S351.543,302.95,351.543,359.377z"/>
<g>
	<path style="fill:#FFD422;" d="M197.266,359.377c0-50.78,8.907-295.128,77.138-343.529c-7.588-5.382-15.907-8.348-25.031-8.348   c-91.174,0-102.17,295.45-102.17,351.877s45.743,102.17,102.17,102.17c8.637,0,17.021-1.076,25.031-3.094   C230.08,447.289,197.266,407.167,197.266,359.377z"/>
	<path style="fill:#FFD422;" d="M249.021,234.461L237.47,222.91c-3.855-3.855-3.855-10.104,0-13.959l11.551-11.551   c3.855-3.855,10.104-3.855,13.959,0l11.551,11.551c3.855,3.855,3.855,10.104,0,13.959l-11.551,11.551   C259.125,238.316,252.875,238.316,249.021,234.461z"/>
	<path style="fill:#FFD422;" d="M291.457,192.025l-11.551-11.551c-3.855-3.855-3.855-10.104,0-13.959l11.551-11.551   c3.855-3.855,10.104-3.855,13.959,0l11.551,11.551c3.855,3.855,3.855,10.104,0,13.959l-11.551,11.551   C301.561,195.879,295.311,195.879,291.457,192.025z"/>
	<path style="fill:#FFD422;" d="M249.017,149.084l-11.049-11.049c-3.855-3.855-3.855-10.104,0-13.959l11.049-11.049   c3.855-3.855,10.104-3.855,13.959,0l11.049,11.049c3.855,3.855,3.855,10.104,0,13.959l-11.049,11.049   C259.122,152.939,252.872,152.939,249.017,149.084z"/>
</g>
<path style="fill:#6DC82A;" d="M262.711,467.785c0,0,18.978-246.932-157.275-328.927c-15.455-7.19-31.46,8.653-24.434,24.183  c12.439,27.494,24.484,68.417,22.642,121.839c-3.539,102.626,25.381,179.049,145.728,184.181L262.711,467.785z"/>
<g>
	<path style="fill:#91DC5A;" d="M249.373,469.06c0,0-19.063-248.207,157.191-330.203c15.455-7.19,31.46,8.653,24.434,24.183   c-12.439,27.494-24.484,68.417-22.642,121.839C412.02,391.173,380.865,469.06,249.373,469.06z"/>
	<path style="fill:#91DC5A;" d="M167.048,324.337c-13.241-99.673-79.859-146.274-79.868-146.281   c9.919,26.605,17.998,62.385,16.466,106.823c-3.539,102.626,25.381,179.049,145.728,184.181   C249.373,469.06,180.289,424.017,167.048,324.337z"/>
</g>
<path style="fill:#B6E892;" d="M424.815,178.057c0,0-66.63,46.601-79.872,146.281c-12.612,94.942-75.883,140.316-81.868,144.415  c119.958-5.307,148.814-81.379,145.28-183.873c-1.532-44.437,6.546-80.217,16.466-106.823  C424.819,178.057,424.817,178.057,424.815,178.057z"/>
<path d="M432.483,137.096c-7.753-7.673-19.173-9.649-29.083-5.039c-4.326,2.012-8.569,4.147-12.738,6.389  c1.231-3.338,2.503-6.667,3.858-9.965c3.633-8.837,1.794-18.612-4.798-25.509c-6.577-6.883-16.235-9.157-25.203-5.938  c-3.778,1.356-7.6,2.89-11.358,4.558c-3.786,1.681-5.492,6.112-3.812,9.898c1.681,3.786,6.111,5.493,9.897,3.812  c3.426-1.521,6.904-2.917,10.339-4.15c3.359-1.206,6.834-0.39,9.292,2.184c2.475,2.589,3.136,6.119,1.769,9.445  c-3.729,9.077-7.024,18.345-9.822,27.59c-9.494,6.35-18.512,13.363-27.038,21.031C325.374,57.654,293.634,0,249.373,0  c-22.784,0-42.444,15.423-58.435,45.84c-1.928,3.666-0.518,8.201,3.148,10.128c3.667,1.928,8.202,0.518,10.129-3.149  C217.408,27.724,232.602,15,249.373,15c19.519,0,36.799,17.116,51.36,50.873c10.772,24.973,19.806,58.551,26.924,99.997  c1.387,7.625,2.512,15.444,2.945,18.323c-10.633,11.111-20.385,23.356-29.214,36.715c-19.832,30.009-35.045,65.628-45.287,105.933  c-13.349-52.502-38.648-110.468-86.183-153.962c5.802-35.545,13.01-65.773,21.438-89.844c1.368-3.91-0.691-8.188-4.601-9.557  c-3.909-1.368-8.188,0.691-9.558,4.6c-3.673,10.492-7.114,22.096-10.314,34.719c-10.76-6.535-21.706-11.833-32.657-15.763  c-8.969-3.219-18.97-1.257-25.203,5.938c-12,13.852-4.197,27.013-3.895,27.765c-9.018-2.751-18.748-0.432-25.612,6.359  c-7.757,7.674-9.855,19.072-5.347,29.037C85.218,190.555,98,230.937,96.149,284.622c-2.026,58.744,7.025,102.277,27.672,133.084  c11.993,17.897,28.225,31.891,48.241,41.592c5.877,2.848,12.154,5.342,18.789,7.502c3.797,25.86,28.682,45.2,58.521,45.2  c14.052,0,27.661-4.408,38.321-12.413c10.027-7.529,16.87-17.763,19.498-29.044c28.133-6.617,50.522-18.729,67.725-36.535  c30.357-31.423,43.364-78.891,40.933-149.386c-1.851-53.686,10.932-94.067,21.98-118.489  C442.339,156.168,440.24,144.77,432.483,137.096z M313.902,229.179c24.659-37.312,56.898-65.412,95.824-83.521  c1.705-0.793,8.139-2.496,12.207,2.1c1.17,1.322,5.126,5.792,2.23,12.192c-1.834,4.053-3.712,8.519-5.57,13.387  c-5.057,3.881-19.32,15.665-34.721,35.944C366.616,232,344.565,270.232,337.509,323.35c-5.105,38.435-19.217,72.99-41.942,102.706  c-15.242,19.932-29.658,31.382-35.034,35.307c-1.332,0.048-2.67,0.09-4.023,0.12c-0.628-18.02-0.831-68.54,12.659-125.033  C278.989,295.326,294.04,259.234,313.902,229.179z M119.868,113.335c2.459-2.573,5.932-3.388,9.292-2.184  c11.395,4.09,22.829,9.814,34.056,17.028c-2.355,10.516-4.556,21.654-6.598,33.379c-9.792-7.732-20.428-14.871-31.959-21.295  c-2.006-5.869-4.2-11.738-6.56-17.484C116.732,119.455,117.394,115.924,119.868,113.335z M136.282,409.355  c-18.831-28.099-27.055-68.73-25.142-124.217c1.117-32.401-2.851-60.249-8.643-83.002c4.358,4.652,9.144,10.213,14.035,16.69  c16.017,21.21,36.491,56.903,43.08,106.499c2.939,22.133,8.075,43.746,17.468,63.226c2.726,5.653,8.897,4.299,9.874,3.873  c3.797-1.657,5.53-6.078,3.874-9.874c-8.092-18.537-13.591-38.455-16.347-59.2c-12.397-93.318-69.614-141.263-81.078-150.016  c-1.857-4.866-3.735-9.332-5.568-13.383c-2.896-6.4,0.976-10.95,2.23-12.192c1.255-1.241,5.842-5.06,12.207-2.1  c97.216,45.226,133.172,142.913,146.2,217.208c-6.583,38.513-7.441,71.382-7.199,90.13c-9.578-8.569-23.358-22.823-36-43.039  c-2.198-3.513-6.826-4.58-10.336-2.382c-3.512,2.196-4.579,6.824-2.382,10.335c11.503,18.395,23.781,32.141,33.599,41.575  C184.469,453.701,154.938,437.193,136.282,409.355z M249.373,497c-19.588,0-36.267-10.617-41.95-25.682  c12.782,2.845,41.95,8.17,82.827,2.439C283.677,487.456,267.587,497,249.373,497z M364.129,423.585  c-18.489,19.138-44.191,30.907-77.997,35.612c22.361-21.556,57.117-65.147,66.246-133.871  c6.587-49.582,27.054-85.268,43.063-106.474c4.901-6.492,9.697-12.065,14.063-16.724c-5.793,22.754-9.762,50.605-8.645,83.011  C403.141,351.293,391.47,395.285,364.129,423.585z"/>
<g>
</g>
<g>
</g>
<g>
</g>
<g>
</g>
<g>
</g>
<g>
</g>
<g>
</g>
<g>
</g>
<g>
</g>
<g>
</g>
<g>
</g>
<g>
</g>
<g>
</g>
<g>
</g>
<g>
</g>
</svg>
