<?xml version="1.0" encoding="iso-8859-1"?>
<!-- Generator: Adobe Illustrator 19.0.0, SVG Export Plug-In . SVG Version: 6.00 Build 0)  -->
<svg xmlns="http://www.w3.org/2000/svg" xmlns:xlink="http://www.w3.org/1999/xlink" version="1.1" id="Capa_1" x="0px" y="0px" viewBox="0 0 512 512" style="enable-background:new 0 0 512 512;" xml:space="preserve">
<path style="fill:#683611;" d="M340.79,494.635c-100.981,0-163.712-51.767-163.712-135.098c0-36.963,5.443-118.885,25.843-191.47  c11.791-41.95,27.097-75.61,45.493-100.042c31.524-41.871,67.634-50.66,92.375-50.66s60.849,8.789,92.375,50.66  c18.396,24.433,33.701,58.092,45.492,100.042c20.4,72.584,25.843,154.507,25.843,191.47  C504.5,442.868,441.771,494.635,340.79,494.635z"/>
<g>
	<path style="fill:#51260A;" d="M312.006,21.437c-20.156,5.832-42.865,19.059-63.591,46.588   c-18.396,24.432-33.702,58.092-45.493,100.042c-20.4,72.584-25.843,154.507-25.843,191.47c0,83.331,62.731,135.098,163.712,135.098   c20.328,0,39.103-2.101,56.131-6.132C437.517,245.96,365.855,95.821,312.006,21.437z"/>
	<circle style="fill:#51260A;" cx="386.88" cy="87.13" r="7.5"/>
	<circle style="fill:#51260A;" cx="398.44" cy="133.65" r="7.5"/>
	<circle style="fill:#51260A;" cx="429.69" cy="111.96" r="7.5"/>
</g>
<path style="fill:#7F4719;" d="M171.211,494.635C70.23,494.635,7.5,442.868,7.5,359.537c0-36.963,5.443-118.885,25.843-191.47  c11.791-41.95,27.097-75.61,45.493-100.042c31.524-41.871,67.634-50.66,92.375-50.66s60.849,8.789,92.375,50.66  c18.396,24.433,33.701,58.092,45.492,100.042c20.4,72.584,25.843,154.507,25.843,191.47  C334.921,442.868,272.192,494.635,171.211,494.635z"/>
<path style="fill:#683611;" d="M171.211,494.635c9.668,0,18.983-0.479,27.929-1.41c-48.713-41.036-89.02-106.163-86.429-209.129  c6.338-251.852,95.87-259.384,96.663-259.446c-0.013-0.005-0.027-0.011-0.041-0.017l-13.77-4.364  c-8.827-2.134-17.083-2.904-24.352-2.904c-24.741,0-60.851,8.789-92.375,50.66C60.44,92.458,45.134,126.117,33.343,168.068  C12.943,240.652,7.5,322.574,7.5,359.537C7.5,442.868,70.23,494.635,171.211,494.635z"/>
<path style="fill:#FF6243;" d="M303.947,359.537c0,73.308-59.428,104.123-132.736,104.123S38.475,432.845,38.475,359.537  S60.065,48.34,171.211,48.34S303.947,286.229,303.947,359.537z"/>
<g>
	<path style="fill:#FF3501;" d="M38.475,359.537c0,73.308,59.428,104.123,132.736,104.123l0,0   c-54.145-47.337-85.208-115.752-85.208-187.673v-33.621c0-56.526,19.211-111.373,54.481-155.545l30.727-38.481   C60.065,48.341,38.475,286.229,38.475,359.537z"/>
	<circle style="fill:#FF3501;" cx="229.71" cy="422.94" r="7.5"/>
	<circle style="fill:#FF3501;" cx="237.21" cy="379.68" r="7.5"/>
	<circle style="fill:#FF3501;" cx="279.29" cy="381.18" r="7.5"/>
</g>
<ellipse style="fill:#602F0B;" cx="171.21" cy="284.1" rx="58.5" ry="116.36"/>
<path style="fill:#3D1803;" d="M171.21,283.779c0-42.956,11.705-80.471,29.115-100.628c-8.574-9.805-18.515-15.412-29.115-15.412  c-32.308,0-58.5,52.095-58.5,116.356s26.191,116.356,58.5,116.356c10.712,0,20.75-5.731,29.385-15.729  C183.035,364.643,171.21,326.958,171.21,283.779z"/>
<path d="M240.185,76.284c-19.666-23.519-42.871-35.443-68.974-35.443c-28.216,0-52.986,13.897-73.621,41.304  c-16.637,22.096-30.648,53.141-41.647,92.274c-19.709,70.125-24.968,149.357-24.968,185.118  c0,69.895,52.425,111.623,140.236,111.623s140.235-41.728,140.235-111.623c0-54.839-10.826-178.521-51.801-254.099  c-1.975-3.641-6.526-4.992-10.168-3.019c-3.642,1.974-4.993,6.526-3.02,10.168c17.297,31.903,31.13,77.756,40.005,132.602  c7.36,45.487,9.983,88.894,9.983,114.348c0,29.052-12.203,96.623-125.235,96.623c-113.033,0-125.236-67.571-125.236-96.623  c0-34.993,5.141-112.506,24.408-181.06c10.493-37.333,23.679-66.709,39.189-87.311c17.649-23.441,38.388-35.327,61.639-35.327  c21.45,0,40.785,10.115,57.466,30.065c2.657,3.177,7.388,3.599,10.564,0.942C242.419,84.191,242.842,79.461,240.185,76.284z"/>
<path d="M171.211,160.24c-37.01,0-66,54.404-66,123.856s28.99,123.856,66,123.856c37.009,0,65.999-54.404,65.999-123.856  S208.22,160.24,171.211,160.24z M222.21,284.096c0,29.932-5.801,57.956-16.335,78.907c-9.569,19.033-22.203,29.949-34.664,29.949  s-25.096-10.916-34.665-29.949c-10.534-20.952-16.335-48.975-16.335-78.907s5.801-57.956,16.335-78.908  c9.569-19.033,22.204-29.949,34.665-29.949s25.095,10.916,34.664,29.949C216.409,226.14,222.21,254.164,222.21,284.096z"/>
<path d="M485.876,166.038c-12.044-42.852-27.763-77.346-46.72-102.524C405.77,19.173,367.236,9.865,340.79,9.865  c-22.282,0-54.606,6.723-84.785,37.755c-29.863-30.744-61.869-37.755-84.794-37.755c-26.448,0-64.982,9.308-98.366,53.649  c-18.959,25.18-34.678,59.674-46.723,102.524C5.502,239.41,0,322.191,0,359.537c0,43.199,16.153,79.364,46.714,104.583  c30.138,24.87,73.188,38.015,124.497,38.015s94.36-13.145,124.497-38.015c30.561-25.219,46.714-61.383,46.714-104.583  c0-3.267-0.042-6.794-0.125-10.485c-0.092-4.084-3.431-7.332-7.495-7.332c-0.057,0-0.114,0-0.171,0.002  c-4.142,0.093-7.423,3.525-7.33,7.667c0.08,3.579,0.121,6.994,0.121,10.148c0,38.575-14.268,70.738-41.261,93.014  c-27.417,22.625-67.166,34.584-114.95,34.584c-47.783,0-87.532-11.959-114.949-34.584C29.268,430.275,15,398.112,15,359.537  c0-36.578,5.384-117.64,25.563-189.44c11.537-41.05,26.431-73.874,44.264-97.56c29.665-39.401,63.35-47.671,86.384-47.671  s56.718,8.271,86.384,47.671c17.832,23.684,32.725,56.507,44.263,97.56c16.188,57.596,22.031,118.227,24.074,149.242  c0.272,4.134,3.839,7.259,7.977,6.991c4.133-0.272,7.263-3.844,6.99-7.977c-2.081-31.599-8.044-93.406-24.601-152.315  c-12.044-42.853-39.816-97.869-50.33-107.144c26.8-27.995,55.292-34.029,74.822-34.029c23.033,0,56.717,8.271,86.384,47.671  c17.831,23.684,32.724,56.508,44.262,97.56C491.616,241.896,497,322.958,497,359.537c0,38.575-14.268,70.738-41.261,93.014  c-27.417,22.625-67.166,34.584-114.949,34.584c-19.671,0-38.132-2.031-54.87-6.037c-4.028-0.966-8.075,1.521-9.039,5.548  c-0.964,4.028,1.52,8.076,5.549,9.04c17.88,4.279,37.516,6.448,58.36,6.448c51.31,0,94.359-13.145,124.496-38.015  C495.847,438.901,512,402.737,512,359.537C512,322.19,506.498,239.409,485.876,166.038z"/>
<g>
</g>
<g>
</g>
<g>
</g>
<g>
</g>
<g>
</g>
<g>
</g>
<g>
</g>
<g>
</g>
<g>
</g>
<g>
</g>
<g>
</g>
<g>
</g>
<g>
</g>
<g>
</g>
<g>
</g>
</svg>
