<?xml version="1.0" encoding="iso-8859-1"?>
<!-- Generator: Adobe Illustrator 19.0.0, SVG Export Plug-In . SVG Version: 6.00 Build 0)  -->
<svg xmlns="http://www.w3.org/2000/svg" xmlns:xlink="http://www.w3.org/1999/xlink" version="1.1" id="Capa_1" x="0px" y="0px" viewBox="0 0 512 512" style="enable-background:new 0 0 512 512;" xml:space="preserve">
<path style="fill:#806749;" d="M267.475,53.629h-22.95c-9.108,0-16.885,6.632-18.267,15.634  c-6.124,39.886-26.637,64.389-26.637,64.389H312.38c0,0-20.514-24.503-26.637-64.389C284.36,60.261,276.583,53.629,267.475,53.629z"/>
<path style="fill:#5F4D37;" d="M271.52,54.093c-1.307-0.293-2.658-0.464-4.045-0.464h-22.95c-9.108,0-16.885,6.632-18.267,15.634  c-6.124,39.886-26.637,64.389-26.637,64.389h31.04c0,0,20.514-24.503,26.637-64.389C258.469,61.632,264.242,55.722,271.52,54.093z"/>
<ellipse style="fill:#FFB655;" cx="124.27" cy="284.961" rx="116.77" ry="173"/>
<path style="fill:#FFA733;" d="M241.036,284.962c0,95.546-52.279,173.002-116.768,173.002c-1.993,0-84.561-201.967,42.494-334.186  C210.239,148.958,241.036,211.629,241.036,284.962z"/>
<ellipse style="fill:#FFB655;" cx="387.73" cy="285.371" rx="116.77" ry="173"/>
<path style="fill:#FFA733;" d="M270.964,285.37c0,95.546,52.279,173.002,116.768,173.002c1.993,0,86.157-198.927-42.494-334.186  C301.761,149.366,270.964,212.037,270.964,285.37z"/>
<ellipse style="fill:#FFC477;" cx="256" cy="285.171" rx="116.77" ry="173"/>
<path style="fill:#FFB655;" d="M221.523,284.962c0-73.986,31.351-137.113,75.441-161.841c-12.748-7.077-26.549-10.957-40.964-10.957  c-64.489,0-116.768,77.456-116.768,173.002S191.511,458.168,256,458.168c14.552,0,28.479-3.956,41.327-11.161  C253.046,422.423,221.523,359.151,221.523,284.962z"/>
<g>
	<circle style="fill:#FFA733;" cx="302.55" cy="248.501" r="7.5"/>
	<circle style="fill:#FFA733;" cx="287.04" cy="291.281" r="7.5"/>
	<circle style="fill:#FFA733;" cx="332.3" cy="283.781" r="7.5"/>
</g>
<path d="M476.516,158.844c-23.493-34.807-55.023-53.976-88.784-53.976c-23.472,0-46.07,9.357-65.725,27.123  c-1.461-1.33-11.717-9.833-21.08-34.62c-1.464-3.875-5.818-5.799-9.689-4.316c-3.867,1.483-5.8,5.821-4.316,9.688  c1.221,3.184,2.489,6.158,3.764,8.952c-11.113-4.628-22.758-7.031-34.684-7.031c-11.916,0-23.552,2.399-34.658,7.02  c4.969-10.9,9.803-24.832,12.329-41.283c0.812-5.286,5.478-9.272,10.854-9.272h22.951c5.376,0,10.042,3.986,10.854,9.271  c0.629,4.095,4.47,6.903,8.551,6.275c4.095-0.628,6.904-4.457,6.275-8.551c-1.956-12.746-12.756-21.996-25.68-21.996h-22.951  c-12.923,0-23.589,9.272-25.68,21.996c-6.981,42.468-27.239,62.405-28.625,63.661c-19.708-17.898-42.395-27.326-65.951-27.326  c-33.761,0-65.292,19.169-88.784,53.975C12.602,192.337,0,237.272,0,284.962s12.602,92.625,35.484,126.527  c23.493,34.806,55.023,53.975,88.784,53.975c16.267,0,32.07-4.455,46.969-13.241c3.568-2.104,4.755-6.702,2.651-10.27  c-2.104-3.569-6.703-4.756-10.27-2.651c-12.56,7.407-25.799,11.162-39.35,11.162C64.018,450.464,15,376.22,15,284.962  S64.018,119.46,124.268,119.46c19.565,0,38.608,7.954,55.406,23.034c-4.358,4.936-8.523,10.316-12.458,16.145  c-22.882,33.902-35.484,78.837-35.484,126.527s12.602,92.625,35.484,126.527c23.493,34.806,55.023,53.975,88.784,53.975  c23.627,0,46.298-9.573,65.754-27.147c19.714,17.915,42.406,27.351,65.977,27.351c33.761,0,65.291-19.169,88.784-53.975  C499.398,377.995,512,333.061,512,285.371S499.398,192.746,476.516,158.844z M387.731,450.873c-19.569,0-38.608-7.956-55.406-23.037  c7.165-8.09,13.764-17.379,19.657-27.775c2.043-3.604,0.777-8.181-2.826-10.223c-3.602-2.043-8.181-0.778-10.223,2.826  c-20.896,36.863-51.125,58.005-82.934,58.005c-60.25,0-109.268-74.244-109.268-165.502S195.75,119.664,256,119.664  c60.251,0,109.269,74.244,109.269,165.502c0,27.7-4.643,55.123-13.425,79.304c-1.414,3.894,0.596,8.196,4.489,9.61  c3.899,1.416,8.196-0.596,9.61-4.489c9.371-25.804,14.325-54.998,14.325-84.425c0-47.69-12.602-92.625-35.484-126.527  c-3.874-5.739-7.97-11.043-12.254-15.916c16.748-14.962,35.711-22.855,55.201-22.855c60.251,0,109.269,74.244,109.269,165.503  S447.982,450.873,387.731,450.873z"/>
<g>
</g>
<g>
</g>
<g>
</g>
<g>
</g>
<g>
</g>
<g>
</g>
<g>
</g>
<g>
</g>
<g>
</g>
<g>
</g>
<g>
</g>
<g>
</g>
<g>
</g>
<g>
</g>
<g>
</g>
</svg>
