<?xml version="1.0" encoding="iso-8859-1"?>
<!-- Generator: Adobe Illustrator 19.0.0, SVG Export Plug-In . SVG Version: 6.00 Build 0)  -->
<svg xmlns="http://www.w3.org/2000/svg" xmlns:xlink="http://www.w3.org/1999/xlink" version="1.1" id="Capa_1" x="0px" y="0px" viewBox="0 0 512 512" style="enable-background:new 0 0 512 512;" xml:space="preserve">
<path style="fill:#D1E7F8;" d="M409.313,131.188h-79.288c-16.105,0-29.161-13.056-29.161-29.162V28.62  c0-11.664-9.456-21.12-21.12-21.12h-47.486c-11.664,0-21.12,9.456-21.12,21.12v73.406c0,16.105-13.056,29.162-29.161,29.162h-79.288  c-11.664,0-21.12,9.456-21.12,21.12v47.486c0,11.664,9.456,21.12,21.12,21.12h79.288c16.105,0,29.161,13.056,29.161,29.161V483.38  c0,11.664,9.456,21.12,21.12,21.12h47.486c11.664,0,21.12-9.456,21.12-21.12V250.075c0-16.105,13.056-29.161,29.161-29.161h79.288  c11.664,0,21.12-9.456,21.12-21.12v-47.486C430.433,140.643,420.977,131.188,409.313,131.188z"/>
<g>
	<path style="fill:#B9D8F4;" d="M255.397,102.026V28.62c0-11.664,9.456-21.12,21.12-21.12h-44.26c-11.664,0-21.12,9.456-21.12,21.12   v73.406c0,16.105-13.056,29.161-29.161,29.161h44.26C242.341,131.188,255.397,118.132,255.397,102.026z"/>
	<path style="fill:#B9D8F4;" d="M125.827,199.794v-47.486c0-11.664,9.456-21.12,21.12-21.12h-44.26   c-11.664,0-21.12,9.456-21.12,21.12v47.486c0,11.664,9.456,21.12,21.12,21.12h44.26   C135.283,220.913,125.827,211.458,125.827,199.794z"/>
	<path style="fill:#B9D8F4;" d="M255.397,483.38V250.075c0-16.105-13.056-29.161-29.161-29.161h-44.26   c16.105,0,29.161,13.056,29.161,29.161V483.38c0,11.664,9.456,21.12,21.12,21.12h44.26   C264.853,504.5,255.397,495.044,255.397,483.38z"/>
</g>
<path style="fill:#00DDC2;" d="M264.557,149.714c11.893-36.603-29.007-36.603-17.114,0c-11.893-36.603-44.982-12.562-13.846,10.06  c-31.136-22.622-43.775,16.277-5.289,16.277c-38.487,0-25.848,38.899,5.289,16.277c-31.136,22.622,1.953,46.662,13.846,10.06  c-11.893,36.603,29.007,36.603,17.114,0c11.893,36.603,44.982,12.562,13.846-10.06c31.136,22.622,43.775-16.277,5.289-16.277  c38.487,0,25.848-38.899-5.289-16.277C309.539,137.152,276.45,113.111,264.557,149.714z"/>
<path style="fill:#00CCB3;" d="M292.558,176.867c-2.589-0.519-5.531-0.817-8.867-0.817c3.335,0,6.278-0.298,8.867-0.817  c-0.164-7.421-2.544-14.302-6.51-20.008c-2.397,1.101-4.95,2.589-7.645,4.547c2.695-1.958,4.899-3.926,6.687-5.866  c-4.301-5.637-10.199-9.988-17.014-12.379c-1.294,2.303-2.488,5.011-3.519,8.185c1.032-3.175,1.658-6.069,1.964-8.693  c-3.334-1.003-6.865-1.549-10.521-1.549c-3.657,0-7.187,0.546-10.521,1.549c0.306,2.624,0.933,5.518,1.964,8.693  c-1.031-3.174-2.225-5.882-3.519-8.185c-6.815,2.391-12.713,6.742-17.014,12.379c1.788,1.939,3.992,3.907,6.687,5.866  c-2.695-1.958-5.248-3.446-7.645-4.547c-3.966,5.705-6.346,12.586-6.51,20.007c2.589,0.519,5.531,0.817,8.867,0.817  c-3.335,0-6.278,0.298-8.867,0.817c0.164,7.421,2.544,14.302,6.51,20.007c2.397-1.101,4.95-2.589,7.645-4.547  c-2.695,1.958-4.899,3.926-6.687,5.866c4.301,5.637,10.199,9.988,17.014,12.379c1.294-2.303,2.488-5.011,3.519-8.185  c-1.032,3.175-1.658,6.069-1.964,8.693c3.334,1.003,6.865,1.549,10.521,1.549c3.657,0,7.187-0.546,10.522-1.549  c-0.306-2.625-0.933-5.518-1.964-8.693c1.031,3.174,2.225,5.882,3.519,8.185c6.815-2.391,12.713-6.742,17.014-12.379  c-1.788-1.939-3.992-3.907-6.687-5.866c2.695,1.958,5.248,3.446,7.645,4.547C290.014,191.169,292.394,184.288,292.558,176.867z"/>
<circle style="fill:#FFEB99;" cx="256" cy="176.05" r="16.579"/>
<path style="fill:#FF3F62;" d="M269.365,72.799c0,7.383-5.985,30.668-13.368,30.668c-7.383,0-13.368-23.285-13.368-30.668  s5.985-13.368,13.368-13.368C263.38,59.431,269.365,65.416,269.365,72.799z"/>
<path style="fill:#D80027;" d="M242.629,72.768c0,7.17,5.645,29.333,12.733,30.606c0.021-0.457,0.035-43.943,0.035-43.943  C248.295,59.747,242.629,65.588,242.629,72.768z"/>
<path style="fill:#FF3F62;" d="M269.365,279.302c0-7.383-5.985-30.668-13.368-30.668c-7.383,0-13.368,23.285-13.368,30.668  s5.985,13.368,13.368,13.368C263.38,292.67,269.365,286.685,269.365,279.302z"/>
<path style="fill:#D80027;" d="M255.397,292.67c0,0-0.014-43.486-0.035-43.943c-7.088,1.273-12.733,23.436-12.733,30.606  C242.629,286.513,248.294,292.354,255.397,292.67z"/>
<g>
	<path style="fill:#FFB655;" d="M359.249,189.418c-7.383,0-30.668-5.985-30.668-13.368s23.285-13.368,30.668-13.368   s13.368,5.985,13.368,13.368S366.631,189.418,359.249,189.418z"/>
	<path style="fill:#FFB655;" d="M152.745,189.418c7.383,0,30.668-5.985,30.668-13.368s-23.285-13.368-30.668-13.368   s-13.368,5.985-13.368,13.368S145.362,189.418,152.745,189.418z"/>
</g>
<circle style="fill:#FFE477;" cx="256" cy="330.95" r="15"/>
<path style="fill:#FFD422;" d="M255.397,345.952v-29.939c-8.003,0.319-14.397,6.889-14.397,14.97S247.394,345.633,255.397,345.952z"/>
<circle style="fill:#91DC5A;" cx="256" cy="32.15" r="7.5"/>
<g>
	<path style="fill:#6DC82A;" d="M248.5,32.158c0,3.939,3.038,7.162,6.897,7.47V28.629c0-1.355,0.14-2.676,0.384-3.96   C251.741,24.786,248.5,28.09,248.5,32.158z"/>
	<circle style="fill:#6DC82A;" cx="113.67" cy="176.05" r="7.5"/>
</g>
<g>
	<circle style="fill:#91DC5A;" cx="398.33" cy="176.05" r="7.5"/>
	<circle style="fill:#91DC5A;" cx="256" cy="376.74" r="7.5"/>
</g>
<path style="fill:#6DC82A;" d="M255.397,384.235v-14.939c-3.861,0.306-6.9,3.53-6.9,7.47  C248.497,380.704,251.536,383.928,255.397,384.235z"/>
<path d="M279.743,512h-47.486c-15.781,0-28.62-12.839-28.62-28.62v-38.542c0-4.142,3.358-7.5,7.5-7.5s7.5,3.358,7.5,7.5v38.542  c0,7.51,6.11,13.62,13.62,13.62h47.486c7.51,0,13.62-6.11,13.62-13.62V250.075c0-20.215,16.446-36.661,36.662-36.661h79.289  c7.51,0,13.62-6.11,13.62-13.62v-47.486c0-7.51-6.11-13.62-13.62-13.62h-79.289c-20.215,0-36.662-16.446-36.662-36.662V28.62  c0-7.51-6.11-13.62-13.62-13.62h-47.486c-7.51,0-13.62,6.11-13.62,13.62v73.406c0,20.215-16.446,36.662-36.662,36.662h-79.289  c-7.51,0-13.62,6.11-13.62,13.62v47.486c0,7.51,6.11,13.62,13.62,13.62h79.289c20.215,0,36.662,16.446,36.662,36.661v160.161  c0,4.142-3.358,7.5-7.5,7.5s-7.5-3.358-7.5-7.5V250.075c0-11.944-9.717-21.661-21.662-21.661h-79.289  c-15.781,0-28.62-12.839-28.62-28.62v-47.486c0-15.781,12.839-28.62,28.62-28.62h79.289c11.944,0,21.662-9.717,21.662-21.662V28.62  c0-15.781,12.839-28.62,28.62-28.62h47.486c15.781,0,28.62,12.839,28.62,28.62v73.406c0,11.944,9.717,21.662,21.662,21.662h79.289  c15.781,0,28.62,12.839,28.62,28.62v47.486c0,15.781-12.839,28.62-28.62,28.62h-79.289c-11.944,0-21.662,9.717-21.662,21.661V483.38  C308.363,499.161,295.524,512,279.743,512z"/>
<path d="M256,237.352c-3.384,0-6.767-1.073-9.719-3.217c-1.494-1.085-4.429-3.676-6.44-8.349c-4.374,2.599-8.271,2.969-10.118,2.969  c-7.298,0-13.471-4.485-15.726-11.426c-0.571-1.756-1.423-5.577-0.303-10.54c-5.067-0.468-8.437-2.46-9.931-3.545  c-5.904-4.29-8.262-11.546-6.007-18.487c0.571-1.756,2.127-5.349,5.95-8.706c-3.823-3.357-5.379-6.949-5.95-8.706  c-2.255-6.94,0.103-14.197,6.007-18.487c1.494-1.085,4.865-3.077,9.931-3.545c-1.12-4.963-0.268-8.784,0.303-10.54  c2.255-6.941,8.428-11.426,15.726-11.426c1.847,0,5.744,0.37,10.118,2.969c2.011-4.673,4.946-7.264,6.44-8.349  c5.904-4.289,13.534-4.289,19.438,0c1.494,1.085,4.429,3.676,6.44,8.349c4.374-2.599,8.271-2.969,10.118-2.969  c7.298,0,13.471,4.485,15.726,11.426c0.571,1.756,1.423,5.577,0.303,10.54c5.067,0.468,8.437,2.46,9.931,3.545  c5.904,4.29,8.262,11.546,6.007,18.487c-0.571,1.756-2.127,5.349-5.95,8.706c3.823,3.357,5.379,6.949,5.95,8.706  c2.255,6.941-0.103,14.198-6.007,18.487c-1.494,1.085-4.865,3.077-9.931,3.545c1.12,4.963,0.268,8.784-0.303,10.54  c-2.255,6.941-8.428,11.426-15.726,11.426c-1.847,0-5.744-0.37-10.118-2.969c-2.011,4.673-4.946,7.264-6.44,8.349  C262.767,236.279,259.384,237.352,256,237.352z M254.576,204.705c-3.517,10.825-1.197,16.046,0.522,17.295  c0.624,0.453,1.181,0.453,1.805,0c1.719-1.249,3.876-6.419,0.522-17.295c-2.081-6.748,1.645-8.421,4.815-9.451  c3.939-1.283,8.171,0.875,9.451,4.815c3.518,10.825,8.464,13.685,10.588,13.685c0.771,0,1.222-0.327,1.46-1.061  c0.657-2.02-0.535-7.608-9.743-14.299c-2.02-1.467-3.092-3.753-3.092-6.071c0-1.529,0.465-3.073,1.433-4.404  c2.434-3.352,7.124-4.095,10.476-1.659c9.208,6.689,14.891,6.095,16.61,4.848c0.624-0.454,0.796-0.983,0.558-1.717  c-0.656-2.021-4.905-5.841-16.287-5.841c-4.142,0-7.5-3.358-7.5-7.5s3.358-7.5,7.5-7.5c11.382,0,15.631-3.82,16.287-5.841  c0.239-0.733,0.066-1.263-0.558-1.716c-1.719-1.248-7.402-1.842-16.61,4.848c-3.351,2.436-8.041,1.693-10.476-1.659  c-0.968-1.332-1.434-2.875-1.433-4.404c0-2.318,1.073-4.604,3.092-6.071c9.208-6.69,10.4-12.279,9.743-14.299  c-0.238-0.734-0.688-1.061-1.46-1.061c-2.124,0-7.07,2.86-10.588,13.686c-1.28,3.938-5.509,6.097-9.451,4.815  c-3.17-1.03-6.546-3.994-4.815-9.451c3.443-10.849,1.197-16.046-0.522-17.295c-0.624-0.453-1.181-0.453-1.805,0  c-1.719,1.249-4.076,6.482-0.522,17.295c1.816,5.526-1.645,8.421-4.815,9.451c-3.94,1.282-8.171-0.876-9.451-4.815  c-3.518-10.825-8.464-13.686-10.588-13.686c-0.771,0-1.222,0.327-1.46,1.061c-0.657,2.02,0.535,7.608,9.743,14.299  c2.02,1.467,3.092,3.753,3.092,6.071c0,1.529-0.465,3.073-1.433,4.404c-2.435,3.351-7.125,4.094-10.476,1.659  c-9.209-6.69-14.892-6.097-16.61-4.848c-0.624,0.454-0.796,0.983-0.558,1.716c0.656,2.021,4.905,5.841,16.287,5.841  c4.142,0,7.5,3.358,7.5,7.5s-3.358,7.5-7.5,7.5c-11.382,0-15.631,3.82-16.287,5.841c-0.239,0.734-0.066,1.263,0.558,1.717  c1.719,1.248,7.4,1.843,16.61-4.848c3.352-2.435,8.042-1.691,10.476,1.659c0.968,1.332,1.434,2.875,1.433,4.404  c0,2.318-1.073,4.604-3.092,6.071c-9.208,6.69-10.4,12.279-9.743,14.299c0.238,0.734,0.688,1.061,1.46,1.061  c2.124,0,7.07-2.86,10.588-13.685c1.28-3.939,5.509-6.098,9.451-4.815C252.931,196.284,256.322,198.796,254.576,204.705z"/>
<path d="M255.997,110.966c-10.223,0-14.957-13.196-16.512-17.533c-2.523-7.037-4.355-15.714-4.355-20.635  c0-11.507,9.361-20.868,20.868-20.868s20.868,9.361,20.868,20.868c0,4.92-1.832,13.599-4.356,20.635  C270.954,97.77,266.22,110.966,255.997,110.966z M255.997,66.931c-3.235,0-5.868,2.632-5.868,5.868  c0,5.685,3.227,16.109,5.868,21.096c2.642-4.987,5.868-15.411,5.868-21.096C261.865,69.563,259.232,66.931,255.997,66.931z"/>
<path d="M255.997,300.17c-11.506,0-20.868-9.361-20.868-20.868c0-4.92,1.832-13.598,4.355-20.635  c1.556-4.336,6.289-17.533,16.512-17.533c10.223,0,14.957,13.196,16.512,17.533c2.524,7.036,4.356,15.714,4.356,20.635  C276.865,290.809,267.503,300.17,255.997,300.17z M255.997,258.206c-2.641,4.987-5.868,15.411-5.868,21.096  c0,3.236,2.632,5.868,5.868,5.868c3.236,0,5.868-2.632,5.868-5.868C261.865,273.617,258.638,263.193,255.997,258.206z"/>
<path d="M346.894,195.044c-11.878-2.447-25.813-8.551-25.813-18.994c0-10.223,13.196-14.957,17.533-16.512  c7.037-2.523,15.714-4.355,20.635-4.355c11.507,0,20.868,9.361,20.868,20.868c0,4.142-3.358,7.5-7.5,7.5s-7.5-3.358-7.5-7.5  c0-3.235-2.632-5.868-5.868-5.868c-5.682,0-16.096,3.222-21.086,5.863c2.547,1.371,6.783,3.07,12.319,4.434  c4.022,0.991,6.479,5.054,5.488,9.076C355.127,192.975,351.654,196.025,346.894,195.044z"/>
<path d="M152.745,196.918c-11.507,0-20.868-9.361-20.868-20.868c0-11.506,9.361-20.868,20.868-20.868  c4.92,0,13.598,1.832,20.635,4.355c4.336,1.556,17.533,6.289,17.533,16.512s-13.196,14.957-17.533,16.512  C166.344,195.086,157.666,196.918,152.745,196.918z M152.745,170.183c-3.236,0-5.868,2.632-5.868,5.868s2.632,5.868,5.868,5.868  c5.685,0,16.109-3.227,21.096-5.868C168.854,173.409,158.43,170.183,152.745,170.183z"/>
<path d="M256,353.452c-12.407,0-22.5-10.093-22.5-22.5s10.093-22.5,22.5-22.5c12.407,0,22.5,10.093,22.5,22.5  S268.407,353.452,256,353.452z M256,323.452c-4.136,0-7.5,3.364-7.5,7.5s3.364,7.5,7.5,7.5c4.136,0,7.5-3.364,7.5-7.5  S260.136,323.452,256,323.452z"/>
<g>
</g>
<g>
</g>
<g>
</g>
<g>
</g>
<g>
</g>
<g>
</g>
<g>
</g>
<g>
</g>
<g>
</g>
<g>
</g>
<g>
</g>
<g>
</g>
<g>
</g>
<g>
</g>
<g>
</g>
</svg>
