<?xml version="1.0" encoding="iso-8859-1"?>
<!-- Generator: Adobe Illustrator 19.0.0, SVG Export Plug-In . SVG Version: 6.00 Build 0)  -->
<svg xmlns="http://www.w3.org/2000/svg" xmlns:xlink="http://www.w3.org/1999/xlink" version="1.1" id="Capa_1" x="0px" y="0px" viewBox="0 0 512 512" style="enable-background:new 0 0 512 512;" xml:space="preserve">
<path style="fill:#FFC477;" d="M256.001,135.727c-24.728,0-44.846-20.118-44.846-44.847c0-10.171,3.633-28.542,8.638-43.682  C223.039,37.38,232.917,7.5,256.001,7.5s32.962,29.879,36.208,39.698c5.006,15.14,8.639,33.511,8.639,43.682  C300.848,115.608,280.73,135.727,256.001,135.727z"/>
<path style="fill:#FFB655;" d="M256.001,90.88c0-10.171,3.633-28.542,8.638-43.682c1.895-5.733,6.058-18.3,13.785-27.771  C272.918,12.679,265.606,7.5,256.001,7.5c-23.084,0-32.962,29.88-36.208,39.698c-5.006,15.14-8.638,33.511-8.638,43.682  c0,24.729,20.118,44.847,44.846,44.847c8.166,0,15.822-2.204,22.423-6.033C265.034,121.927,256.001,107.443,256.001,90.88z"/>
<path style="fill:#FF9478;" d="M282.292,90.88c0,14.52-11.771,26.291-26.291,26.291c-14.52,0-26.291-11.771-26.291-26.291  s11.771-64.824,26.291-64.824C270.521,26.056,282.292,76.36,282.292,90.88z"/>
<path style="fill:#FF7956;" d="M264.639,47.198c0.771-2.331,1.921-5.799,3.527-9.723c-3.638-6.817-7.776-11.419-12.166-11.419  c-14.52,0-26.291,50.304-26.291,64.824S241.48,117.171,256,117.171c2.689,0,5.283-0.406,7.726-1.156  c-4.873-7.174-7.725-15.827-7.725-25.135C256.001,80.709,259.634,62.338,264.639,47.198z"/>
<path style="fill:#57565C;" d="M256.001,134.198c-4.142,0-7.5-3.358-7.5-7.5V79.343c0-4.142,3.358-7.5,7.5-7.5s7.5,3.358,7.5,7.5  v47.354C263.501,130.84,260.143,134.198,256.001,134.198z"/>
<path style="fill:#FFEB99;" d="M304.024,504.5h-96.046c-14.899,0-26.977-12.078-26.977-26.977V134.195  c0-14.899,12.078-26.977,26.977-26.977h96.046c14.899,0,26.977,12.078,26.977,26.977v343.328  C331.001,492.422,318.923,504.5,304.024,504.5z"/>
<path style="fill:#FFDE55;" d="M227.883,477.523V134.195c0-14.899,12.078-26.977,26.977-26.977h-46.882  c-14.899,0-26.977,12.078-26.977,26.977v343.328c0,14.899,12.078,26.977,26.977,26.977h46.882  C239.961,504.5,227.883,492.422,227.883,477.523z"/>
<path style="fill:#FFF5CC;" d="M304.024,107.218h-96.046c-14.899,0-26.977,12.078-26.977,26.977v61.295  c0,9.995,8.178,18.173,18.173,18.173s18.173-8.178,18.173-18.173v-44.068c0-5.632,4.608-10.241,10.241-10.241l0,0  c5.632,0,10.241,4.608,10.241,10.241v5.664c0,9.995,8.178,18.173,18.173,18.173l0,0c9.995,0,18.173-8.178,18.173-18.173v-18.401  c0-5.632,4.608-10.241,10.241-10.241s10.241,4.608,10.241,10.241v74.414c0,9.995,8.178,18.173,18.173,18.173l0,0  c9.995,0,18.173-8.178,18.173-18.173v-78.906C331.001,119.296,318.923,107.218,304.024,107.218z"/>
<path style="fill:#FFEB99;" d="M254.859,107.218h-46.882c-14.899,0-26.977,12.078-26.977,26.977v61.295  c0,9.995,8.178,18.173,18.173,18.173s18.173-8.178,18.173-18.173v-44.068c0-5.632,4.608-10.241,10.241-10.241l0,0  c0.1,0,0.196,0.012,0.295,0.015v-7.002C227.883,119.296,239.961,107.218,254.859,107.218z"/>
<path style="fill:#FF3F62;" d="M331.001,477.523v-98.588h-150v98.588c0,14.899,12.078,26.977,26.977,26.977h96.046  C318.923,504.5,331.001,492.422,331.001,477.523z"/>
<path style="fill:#D80027;" d="M181.001,477.523c0,14.899,12.078,26.977,26.977,26.977h46.882  c-14.899,0-26.977-12.078-26.977-26.977v-98.588h-46.882V477.523z"/>
<g>
	<rect x="181.001" y="406.23" style="fill:#FFDA44;" width="150" height="15"/>
	<rect x="181.001" y="455.3" style="fill:#FFDA44;" width="150" height="15"/>
</g>
<g>
	<rect x="181.001" y="406.23" style="fill:#EEBF00;" width="46.882" height="15"/>
	<rect x="181.001" y="455.3" style="fill:#EEBF00;" width="46.882" height="15"/>
</g>
<path style="fill:#FF3F62;" d="M300.811,257.816h-17.925c-6.564,0-11.886-5.321-11.886-11.886v-17.558c0-5.341-4.33-9.67-9.67-9.67  h-10.659c-5.341,0-9.67,4.33-9.67,9.67v17.558c0,6.564-5.321,11.886-11.886,11.886h-17.924c-5.341,0-9.67,4.33-9.67,9.67v10.659  c0,5.341,4.33,9.67,9.67,9.67h17.925c6.564,0,11.886,5.321,11.886,11.886v55.638c0,5.341,4.33,9.67,9.67,9.67h10.659  c5.341,0,9.67-4.33,9.67-9.67v-55.638c0-6.564,5.321-11.886,11.886-11.886h17.925c5.341,0,9.67-4.33,9.67-9.67v-10.659  C310.482,262.146,306.152,257.816,300.811,257.816z"/>
<path style="fill:#D80027;" d="M211.191,257.816c-5.341,0-9.67,4.33-9.67,9.67v10.659c0,5.341,4.33,9.67,9.67,9.67h16.692v-30  L211.191,257.816L211.191,257.816z"/>
<circle style="fill:#FFE477;" cx="256.001" cy="272.82" r="15"/>
<path d="M307.56,99.899c0.516-2.961,0.788-5.972,0.788-9.019c0-6.266-1.175-13.912-2.161-19.223  c-0.756-4.074-4.672-6.764-8.743-6.005c-4.073,0.756-6.761,4.67-6.005,8.743c1.231,6.633,1.909,12.487,1.909,16.486  c0,3.006-0.358,5.963-1.059,8.838h-3.688c0.773-2.86,1.192-5.823,1.192-8.838c0-8.992-3.474-26.279-8.08-40.211  c-7.145-21.61-15.555-32.114-25.712-32.114S237.434,29.06,230.29,50.669c-4.606,13.933-8.08,31.22-8.08,40.211  c0,3.016,0.418,5.979,1.192,8.838h-3.688c-0.701-2.876-1.059-5.832-1.059-8.838c0-9.32,3.551-27.087,8.259-41.328  C229.739,41.006,238.336,15,256.001,15c11.399,0,20.837,10.589,28.052,31.474c1.352,3.916,5.625,5.994,9.538,4.64  c3.916-1.353,5.993-5.623,4.64-9.538C286.36,7.213,268.714,0,256.001,0c-28.505,0-39.663,33.753-43.329,44.844  c-5.31,16.057-9.018,34.988-9.018,46.036c0,3.047,0.271,6.057,0.788,9.019c-17.356,1.776-30.942,16.479-30.942,34.297v285.703  c0,4.142,3.358,7.5,7.5,7.5s7.5-3.358,7.5-7.5v-33.463h135v91.087c0,10.74-8.737,19.477-19.477,19.477h-96.046  c-10.74,0-19.477-8.737-19.477-19.477V451.67c0-4.142-3.358-7.5-7.5-7.5s-7.5,3.358-7.5,7.5v25.853  c0,19.01,15.466,34.477,34.477,34.477h96.046c19.011,0,34.477-15.467,34.477-34.477V134.195  C338.501,116.378,324.916,101.675,307.56,99.899z M237.21,90.88c0-6.049,2.498-20.237,6.678-33.509  c5.381-17.085,10.41-22.795,12.113-23.733c1.703,0.938,6.732,6.647,12.113,23.733c4.18,13.271,6.678,27.459,6.678,33.509  c0,3.114-0.769,6.131-2.217,8.838h-33.149C237.979,97.011,237.21,93.994,237.21,90.88z M229.115,280.316H211.19  c-1.196,0-2.17-0.974-2.17-2.17v-10.659c0-1.197,0.974-2.17,2.17-2.17h17.925c10.689,0,19.386-8.696,19.386-19.386v-17.558  c0-1.197,0.974-2.17,2.17-2.17h10.659c1.197,0,2.17,0.974,2.17,2.17v17.558c0,10.689,8.696,19.386,19.386,19.386h17.925  c1.196,0,2.17,0.974,2.17,2.17v10.659c0,1.197-0.974,2.17-2.17,2.17h-17.925c-10.689,0-19.386,8.696-19.386,19.386v55.638  c0,1.197-0.974,2.17-2.17,2.17h-10.659c-1.197,0-2.17-0.974-2.17-2.17v-55.638C248.501,289.013,239.805,280.316,229.115,280.316z   M267.253,371.436c6.554-2.42,11.248-8.712,11.248-16.096v-55.638c0-2.418,1.967-4.386,4.386-4.386h17.925  c9.468,0,17.17-7.703,17.17-17.17v-10.659c0-9.468-7.702-17.17-17.17-17.17h-17.925c-2.418,0-4.386-1.967-4.386-4.386v-17.558  c0-9.468-7.703-17.17-17.17-17.17h-10.66c-9.468,0-17.17,7.703-17.17,17.17v17.558c0,2.418-1.967,4.386-4.386,4.386H211.19  c-9.468,0-17.17,7.703-17.17,17.17v10.659c0,9.468,7.702,17.17,17.17,17.17h17.925c2.418,0,4.386,1.967,4.386,4.386v55.638  c0,7.384,4.694,13.676,11.248,16.096h-56.248V218.831c3.253,1.493,6.866,2.333,10.673,2.333c14.156,0,25.673-11.517,25.673-25.673  v-44.068c0-1.486,1.255-2.741,2.741-2.741s2.741,1.255,2.741,2.741v5.665c0,14.156,11.517,25.673,25.673,25.673  s25.673-11.517,25.673-25.673v-18.4c0-1.486,1.255-2.741,2.741-2.741s2.741,1.255,2.741,2.741v35.859c0,4.142,3.358,7.5,7.5,7.5  s7.5-3.358,7.5-7.5v-35.859c0-9.782-7.958-17.741-17.741-17.741s-17.741,7.958-17.741,17.741v18.4  c0,5.885-4.788,10.673-10.673,10.673s-10.673-4.788-10.673-10.673v-5.665c0-9.782-7.958-17.741-17.741-17.741  s-17.741,7.958-17.741,17.741v44.068c0,5.885-4.788,10.673-10.673,10.673s-10.673-4.788-10.673-10.673v-61.295  c0-10.74,8.737-19.477,19.477-19.477h96.046c10.74,0,19.477,8.737,19.477,19.477v78.905c0,5.885-4.788,10.673-10.673,10.673  s-10.673-4.788-10.673-10.673v-7.071c0-4.142-3.358-7.5-7.5-7.5s-7.5,3.358-7.5,7.5v7.071c0,14.156,11.517,25.673,25.673,25.673  c3.807,0,7.42-0.839,10.673-2.333v134.995L267.253,371.436L267.253,371.436z"/>
<g>
</g>
<g>
</g>
<g>
</g>
<g>
</g>
<g>
</g>
<g>
</g>
<g>
</g>
<g>
</g>
<g>
</g>
<g>
</g>
<g>
</g>
<g>
</g>
<g>
</g>
<g>
</g>
<g>
</g>
</svg>
