<?xml version="1.0" encoding="iso-8859-1"?>
<!-- Generator: Adobe Illustrator 19.0.0, SVG Export Plug-In . SVG Version: 6.00 Build 0)  -->
<svg xmlns="http://www.w3.org/2000/svg" xmlns:xlink="http://www.w3.org/1999/xlink" version="1.1" id="Capa_1" x="0px" y="0px" viewBox="0 0 512 512" style="enable-background:new 0 0 512 512;" xml:space="preserve">
<path style="fill:#9A4C00;" d="M415.735,196.714c-35.507-26.674-94.576-7.983-131.935,41.747s-38.861,111.668-3.354,138.342  c35.507,26.674,94.576,7.983,131.935-41.747C449.74,285.325,451.242,223.388,415.735,196.714z M299.611,351.289  c-18.342-13.779-18.869-55.634,9.7-93.663c28.57-38.03,68.916-49.179,87.257-35.4c18.342,13.779,18.869,55.634-9.701,93.664  C358.299,353.919,317.953,365.068,299.611,351.289z"/>
<path style="fill:#663A00;" d="M283.8,238.461c-37.359,49.73-38.861,111.668-3.354,138.342  c26.134,19.633,65.031,14.688,98.643-9.119c8.46-19.106,16.271-35.176,18.701-69.064c-3.015,5.771-6.634,11.564-10.921,17.271  c-28.569,38.029-68.915,49.179-87.257,35.4s-18.869-55.634,9.7-93.663c27.482-36.583,65.852-48.28,85.06-36.852  c-2.823-12.792-6.751-24.875-11.668-36.021C349.906,182.406,311.07,202.161,283.8,238.461z"/>
<path style="fill:#EE8700;" d="M202.076,201.451l-44.263,11.32L108.394,19.526C106.835,13.43,111.44,7.5,117.732,7.5h25.326  c5.542,0,10.38,3.756,11.753,9.125L202.076,201.451z"/>
<path style="fill:#CC7400;" d="M137.671,7.5h-19.94c-6.292,0-10.897,5.931-9.338,12.026l49.419,193.244l44.263-11.32L173.211,88.579  h-13.092c-7.14,0-13.376-4.831-15.16-11.745l-12.693-49.186C126.37,7.502,137.671,7.5,137.671,7.5z"/>
<path style="fill:#9A4C00;" d="M133.43,442.034l8.678,41.944c2.473,11.951,12.999,20.522,25.203,20.522h91.846  c12.204,0,22.73-8.571,25.203-20.522l8.678-41.944H133.43z"/>
<path style="fill:#663A00;" d="M230.592,483.978l-8.678-41.944H133.43l8.678,41.944c2.473,11.951,12.999,20.522,25.203,20.522  h88.484C243.591,504.5,233.064,495.929,230.592,483.978z"/>
<path style="fill:#CC7400;" d="M319.699,110.135H106.77c-19.821,0-35.829,16.163-35.633,35.983  c0.59,59.787,5.353,183.161,32.316,285.703c4.883,18.57,21.587,31.568,40.789,31.559c37.666-0.018,100.32-0.018,137.986,0  c19.201,0.009,35.906-12.989,40.789-31.559c26.963-102.542,31.726-225.916,32.316-285.703  C355.528,126.299,339.52,110.135,319.699,110.135z"/>
<path style="fill:#AA6100;" d="M214.007,431.822c-26.963-102.542-31.726-225.916-32.316-285.704  c-0.196-19.82,15.812-35.983,35.633-35.983H106.77c-19.821,0-35.829,16.163-35.633,35.983c0.59,59.787,5.353,183.161,32.316,285.704  c4.883,18.57,21.587,31.568,40.789,31.559c29.397-0.014,74.014-0.018,110.094-0.009C235.328,463.174,218.85,450.243,214.007,431.822  z"/>
<path d="M440.399,271.027c-4.05-0.864-8.037,1.717-8.901,5.767c-3.972,18.585-12.656,37.174-25.113,53.756  c-17.247,22.959-40.458,39.955-63.796,47.131c1.115-6.064,2.229-12.454,3.329-19.177c17.313-7.291,33.854-20.683,46.947-38.11  c14.084-18.748,22.583-40.029,23.93-59.924c1.327-19.613-4.402-35.739-15.72-44.241c-9.891-7.429-24.386-9.084-40.133-4.896  c0.282-5.759,0.537-11.621,0.763-17.58c19.039-3.952,36.466-0.855,49.527,8.957c12.427,9.335,20.081,23.903,22.137,42.13  c0.433,3.831,3.678,6.66,7.444,6.66c0.28,0,8.497-0.907,7.462-8.341c-3.113-22.357-12.225-40.565-28.033-52.441  c-15.743-11.827-36.062-16.084-58.026-12.344c0.299-10.439,0.51-21.162,0.619-32.181c0.114-11.602-4.318-22.531-12.479-30.773  c-8.163-8.244-19.05-12.784-30.654-12.784H184.547l-22.47-87.868C159.853,6.073,152.032,0,143.057,0h-25.325  c-5.332,0-10.267,2.416-13.536,6.627c-3.271,4.212-4.389,9.59-3.068,14.757l15.077,58.958c1.026,4.012,5.108,6.436,9.125,5.408  c4.013-1.026,6.434-5.111,5.408-9.125l-15.077-58.957c-0.227-0.883-0.085-2.668,2.071-2.668h25.325c2.117,0,3.962,1.433,4.486,3.484  l21.52,84.151H106.77c-11.605,0-22.492,4.54-30.654,12.784c-8.161,8.243-12.593,19.171-12.479,30.773  c0.489,49.679,3.92,146.649,21.399,237.935c0.778,4.067,4.708,6.735,8.776,5.956s6.735-4.708,5.956-8.777  C82.51,291.173,79.122,195.22,78.637,146.044c-0.075-7.567,2.814-14.695,8.138-20.071c5.323-5.376,12.425-8.338,19.995-8.338  h212.929c7.57,0,14.671,2.961,19.995,8.338c5.323,5.375,8.214,12.504,8.139,20.071c-0.619,62.824-5.61,183.241-32.07,283.87  c-4.021,15.292-17.8,25.966-33.515,25.966c-0.005,0-0.012,0-0.017,0c-37.401-0.018-100.594-0.018-137.993,0  c-0.006,0-0.011,0-0.017,0c-15.714,0-29.495-10.676-33.515-25.966c-1.447-5.504-2.869-11.225-4.228-17.003  c-0.947-4.033-4.984-6.53-9.017-5.586c-4.032,0.948-6.533,4.984-5.585,9.017c1.388,5.906,2.842,11.755,4.321,17.387  c4.626,17.592,18.3,30.905,35.189,35.45l3.375,16.318c3.18,15.357,16.868,26.503,32.55,26.503h91.847  c15.682,0,29.37-11.146,32.548-26.503l3.376-16.318c16.889-4.546,30.563-17.859,35.189-35.45c2.719-10.341,5.885-23.564,9.154-39.67  c29.194-6.606,57.703-26.211,78.953-54.499c13.757-18.311,23.366-38.931,27.789-59.631  C447.032,275.878,444.45,271.893,440.399,271.027z M259.158,497h-91.847c-8.604,0-16.115-6.116-17.858-14.542l-2.395-11.579  c36.732-0.017,95.62-0.017,132.354,0l-2.395,11.578C275.273,490.884,267.762,497,259.158,497z M392.064,228.222  c7.078,5.317,10.728,16.994,9.764,31.235c-1.153,17.033-8.596,35.474-20.956,51.928c-9.278,12.35-20.403,22.349-32.157,29.044  c4.614-31.532,8.755-69.235,11.359-113.128C373.108,222.725,385.108,222.996,392.064,228.222z"/>
<g>
</g>
<g>
</g>
<g>
</g>
<g>
</g>
<g>
</g>
<g>
</g>
<g>
</g>
<g>
</g>
<g>
</g>
<g>
</g>
<g>
</g>
<g>
</g>
<g>
</g>
<g>
</g>
<g>
</g>
</svg>
