<?xml version="1.0" encoding="iso-8859-1"?>
<!-- Generator: Adobe Illustrator 19.0.0, SVG Export Plug-In . SVG Version: 6.00 Build 0)  -->
<svg xmlns="http://www.w3.org/2000/svg" xmlns:xlink="http://www.w3.org/1999/xlink" version="1.1" id="Capa_1" x="0px" y="0px" viewBox="0 0 512.002 512.002" style="enable-background:new 0 0 512.002 512.002;" xml:space="preserve">
<path style="fill:#96C8EF;" d="M114.807,172.48c-46.095,30.954-51.421,103.761-11.895,162.622s108.934,81.485,155.03,50.531  s51.421-103.762,11.896-162.623S160.903,141.527,114.807,172.48z M234.758,351.109c-26.528,17.814-71.095-0.134-97.321-39.19  s-25.974-87.102,0.554-104.914s71.095,0.134,97.321,39.19S261.286,333.297,234.758,351.109z"/>
<path style="fill:#78B9EB;" d="M130.786,164.246c0.268,14.539,0.74,30.498,1.51,47.479c1.745-1.733,3.631-3.322,5.695-4.708  c26.528-17.814,71.095,0.134,97.321,39.19s25.974,87.102-0.554,104.914c-25.533,17.145-67.77,1.151-94.289-34.897  c2.439,21.306,5.449,42.97,9.151,64.496c35.879,22.305,77.356,25.72,108.321,4.927c46.095-30.954,51.421-103.762,11.896-162.623  C234.654,170.63,175.805,146.986,130.786,164.246z"/>
<path style="fill:#96C8EF;" d="M342.005,504.501h-81.249c-16.011,0-29.111-13.1-29.111-29.111v-15.918  c0-16.011,13.1-29.111,29.111-29.111h81.249c16.011,0,29.111,13.1,29.111,29.111v15.918  C371.114,491.401,358.016,504.501,342.005,504.501z"/>
<path style="fill:#78B9EB;" d="M315.844,475.39v-15.918c0-25.78,26.655-29.111,26.16-29.111h-81.249  c-16.011,0-29.111,13.1-29.111,29.111v15.918c0,16.011,13.1,29.111,29.111,29.111h81.249  C342.499,504.501,315.844,500.377,315.844,475.39z"/>
<path style="fill:#D1E7F8;" d="M390.423,87.357H212.337c-22.184,0-40.198,17.937-40.258,40.12  c-0.175,64.671,3.382,195.898,31.096,306.41c5.435,21.673,24.915,36.869,47.258,36.869h101.895  c22.344,0,41.823-15.197,47.258-36.869c27.714-110.511,31.271-241.739,31.096-306.41C430.621,105.294,412.607,87.357,390.423,87.357  z"/>
<path style="fill:#B9D8F4;" d="M281.812,433.888c-27.714-110.511-31.271-241.739-31.096-306.41  c0.06-22.184,18.075-40.12,40.258-40.12h-78.638c-22.184,0-40.198,17.937-40.258,40.12c-0.175,64.671,3.382,195.898,31.096,306.41  c5.435,21.673,24.915,36.869,47.258,36.869h78.638C306.726,470.757,287.247,455.561,281.812,433.888z"/>
<path style="fill:#FFFFFF;" d="M200.33,174.491c1.734,69.689,8.402,167.587,29.737,252.66c2.342,9.338,10.738,15.883,20.365,15.883  h101.896c9.626,0,18.022-6.544,20.364-15.882c21.336-85.076,28.004-182.973,29.739-252.661  c0.429-17.245-13.429-31.449-30.678-31.449H231.008C213.759,143.042,199.901,157.246,200.33,174.491z"/>
<path style="fill:#EEF8FF;" d="M250.748,143.042h-19.74c-17.25,0-31.108,14.204-30.679,31.449  c1.734,69.689,8.402,167.587,29.737,252.66c2.342,9.338,10.738,15.883,20.365,15.883h34.677c-1.379-2.89-2.495-5.945-3.298-9.145  C256.167,331.625,251.208,211.63,250.748,143.042z"/>
<path style="fill:#96C8EF;" d="M215.949,356.647c-11.292,0-21.053,6.811-25.43,16.518c3.526,20.571,7.703,40.978,12.654,60.723  c4.893,19.511,21.169,33.765,40.668,36.417v-85.765C243.843,369.199,231.29,356.647,215.949,356.647z"/>
<g>
	<path style="fill:#B9D8F4;" d="M386.811,356.647c11.292,0,21.053,6.811,25.43,16.518c-3.526,20.571-7.703,40.978-12.654,60.723   c-4.893,19.511-21.169,33.765-40.668,36.417v-85.765C358.917,369.199,371.47,356.647,386.811,356.647z"/>
	<path style="fill:#B9D8F4;" d="M329.274,470.757v-86.217c0-15.342-12.552-27.894-27.894-27.894l0,0   c-15.342,0-27.894,12.552-27.894,27.894v86.217L329.274,470.757L329.274,470.757z"/>
</g>
<path style="fill:#96C8EF;" d="M329.07,470.757c-22.344,0-41.822-15.197-47.258-36.869c-3.061-12.207-5.826-24.666-8.326-37.26  v74.13L329.07,470.757L329.07,470.757z"/>
<path style="fill:#D1E7F8;" d="M386.811,356.647c-15.342,0-27.894,12.552-27.894,27.894v57.422  c6.683-2.211,11.989-7.694,13.774-14.811c5.728-22.841,10.391-46.607,14.193-70.502C386.86,356.649,386.836,356.647,386.811,356.647  z"/>
<path style="fill:#B9D8F4;" d="M215.95,356.647c15.342,0,27.894,12.552,27.894,27.894v57.422  c-6.683-2.211-11.989-7.694-13.774-14.811c-5.728-22.841-10.391-46.607-14.193-70.502  C215.901,356.649,215.925,356.647,215.95,356.647z"/>
<path style="fill:#D1E7F8;" d="M301.38,356.647c-15.342,0-27.894,12.552-27.894,27.894v58.492h55.788v-58.492  C329.274,369.199,316.722,356.647,301.38,356.647z"/>
<path style="fill:#B9D8F4;" d="M273.487,396.628v46.405h11.624c-1.379-2.89-2.495-5.945-3.298-9.145  C278.751,421.681,275.986,409.222,273.487,396.628z"/>
<path style="fill:#FFE477;" d="M434.609,16.277c-2.816-7.119-10.871-10.61-17.989-7.793l-60.499,23.921  c-15.657,6.19-26.797,19.777-29.797,36.345l-13.455,74.292h28.175l12.56-69.351c1.281-7.068,6.031-12.864,12.71-15.504  l60.499-23.922C433.933,31.45,437.423,23.397,434.609,16.277z"/>
<g>
	<path style="fill:#FFDA44;" d="M338.482,77.504c3-16.568,14.14-30.156,29.797-36.345l60.499-23.921   c1.919-0.759,3.903-1.046,5.837-0.941c-0.003-0.006-0.004-0.013-0.006-0.019c-2.816-7.119-10.87-10.61-17.989-7.794l-60.499,23.921   c-15.657,6.19-26.797,19.777-29.797,36.345l-13.454,74.292h13.743L338.482,77.504z"/>
	<polygon style="fill:#FFDA44;" points="322.955,87.357 312.87,143.042 341.046,143.042 351.13,87.357  "/>
</g>
<polygon style="fill:#FFCD00;" points="322.955,87.357 312.87,143.042 326.613,143.042 336.698,87.357 "/>
<path d="M390.423,79.857h-30.314l0.874-4.829c0.815-4.499,3.839-8.188,8.089-9.868l60.499-23.922  c10.953-4.331,16.342-16.766,12.011-27.722c-2.099-5.305-6.138-9.477-11.373-11.745c-5.236-2.27-11.043-2.362-16.347-0.264  L353.364,25.43c-18.087,7.15-30.953,22.846-34.418,41.983l-2.253,12.444H212.337c-26.264,0-47.687,21.354-47.758,47.6  c-0.02,7.228,0.007,15.172,0.103,23.721c-19.87-0.553-38.453,4.599-54.055,15.076c-24.25,16.284-38.937,43.46-41.354,76.525  c-2.369,32.379,7.367,66.652,27.414,96.505c16.347,24.344,38.508,42.367,62.491,55.265c3.453,1.857,8.719-0.821,10.011-3.504  c1.797-3.732,0.228-8.214-3.505-10.011c-22.133-10.655-41.685-27.983-56.544-50.112c-18.187-27.083-27.032-57.998-24.907-87.049  c2.074-28.367,14.418-51.509,34.756-65.166c13.147-8.829,28.952-13.114,45.927-12.521c0.166,8.408,0.401,17.272,0.725,26.529  c-11.953-0.708-22.826,2.016-31.831,8.063c-14.956,10.044-23.259,28.042-23.378,50.678c-0.114,21.563,7.266,44.52,20.779,64.644  c12.928,19.253,30.352,34.253,49.333,42.573c4.051,26.058,9.091,52.055,15.356,77.04c3.99,15.91,14.497,28.763,28.246,36.03v3.647  c0,20.188,16.424,36.61,36.609,36.61h81.249c20.188,0,36.61-16.423,36.61-36.61v-3.647c13.749-7.268,24.256-20.122,28.246-36.031  c27.679-110.37,31.503-240.505,31.32-308.254C438.111,101.21,416.687,79.857,390.423,79.857z M333.704,70.087  c2.535-13.999,11.945-25.478,25.175-30.708l60.502-23.922c1.579-0.625,5.338-1.925,8.254,3.577c1.643,3.1-0.315,6.966-3.578,8.256  l-60.498,23.922c-9.106,3.6-15.587,11.503-17.334,21.143l-1.359,7.503h-12.931L333.704,70.087z M179.579,127.498  c0.048-17.999,14.744-32.64,32.758-32.64h101.637l-7.368,40.685h-75.599c-10.383,0-20.093,4.092-27.34,11.522  c-7.247,7.43-11.095,17.236-10.837,27.613c1.199,48.161,4.833,111.873,14.472,175.576c-4.321,1.101-8.374,3.004-11.961,5.588  C186.818,300.966,179.316,224.821,179.579,127.498z M321.774,435.533h-40.787v-50.992c0-11.246,9.149-20.395,20.395-20.395  c11.246,0,20.394,9.149,20.394,20.395L321.774,435.533L321.774,435.533z M321.774,450.533v12.725h-40.787v-12.725H321.774z   M351.418,463.258h-14.645v-12.725h14.645V463.258z M265.987,463.258h-14.644v-12.725h14.644V463.258z M236.343,421.239  c-4.367-17.892-8.095-36.324-11.268-54.91c6.67,3.357,11.268,10.25,11.268,18.212V421.239z M143.663,307.738  c-11.684-17.399-18.33-37.884-18.232-56.203c0.092-17.514,6.037-31.118,16.74-38.304c6.569-4.411,14.808-6.248,24.064-5.43  c1.754,40.069,5.193,86.104,11.634,132.662C164.897,332.839,152.825,321.382,143.663,307.738z M210.449,432.064  c-3.557-14.185-7.84-33.451-12.069-57.767c2.559-4.365,6.603-7.592,11.294-9.132c3.602,21.615,7.923,43.089,13.12,63.81  c1.946,7.762,6.961,14.079,13.551,17.826v13.979C223.755,456.21,213.858,445.658,210.449,432.064z M342.004,497.001h-81.249  c-11.331,0-20.646-8.767-21.534-19.873c3.636,0.736,7.385,1.129,11.211,1.129h101.895c3.826,0,7.575-0.393,11.211-1.129  C362.65,488.234,353.336,497.001,342.004,497.001z M366.417,460.78V446.8c6.589-3.747,11.603-10.063,13.549-17.824  c4.954-19.754,9.337-41.079,13.129-63.809c4.687,1.542,8.728,4.767,11.285,9.129c-4.229,24.317-8.512,43.582-12.069,57.767  C388.902,445.657,379.006,456.21,366.417,460.78z M366.417,421.239v-36.698c0-7.961,4.596-14.853,11.265-18.211  C374.364,385.751,370.604,404.086,366.417,421.239z M407.417,355.841c-3.585-2.583-7.636-4.486-11.954-5.587  c2.896-19.109,5.397-39.126,7.475-59.999c0.41-4.122-2.598-7.796-6.72-8.206c-4.132-0.417-7.797,2.598-8.206,6.72  c-2.116,21.258-4.674,41.603-7.643,60.976c-16.449,3.039-28.951,17.48-28.951,34.795v50.992h-14.645v-50.992  c0-19.517-15.878-35.394-35.393-35.394c-19.517,0-35.394,15.878-35.394,35.394v50.992h-14.644v-50.992  c0-17.315-12.502-31.756-28.951-34.795c-9.723-63.507-13.367-127.308-14.565-175.442c-0.157-6.301,2.179-12.255,6.578-16.766  c4.401-4.511,10.297-6.996,16.603-6.996h81.838c0.011,0,0.022,0.001,0.033,0.001s0.022-0.001,0.033-0.001h58.839  c6.306,0,12.201,2.485,16.603,6.996c4.399,4.511,6.735,10.465,6.578,16.766c-0.697,28.024-2.073,55.672-4.091,82.177  c-0.314,4.13,2.779,7.733,6.909,8.048c4.129,0.306,7.732-2.779,8.048-6.909c2.036-26.759,3.426-54.664,4.13-82.942  c0.258-10.377-3.59-20.184-10.837-27.613c-7.247-7.43-16.957-11.522-27.34-11.522h-49.901l7.368-40.685h12.932l-2.686,14.833  c-0.738,4.076,1.968,7.979,6.044,8.716c4.068,0.741,7.978-1.968,8.716-6.043l3.17-17.506h33.029  c18.015,0,32.71,14.643,32.758,32.641C423.444,224.821,415.942,300.967,407.417,355.841z"/>
<g>
</g>
<g>
</g>
<g>
</g>
<g>
</g>
<g>
</g>
<g>
</g>
<g>
</g>
<g>
</g>
<g>
</g>
<g>
</g>
<g>
</g>
<g>
</g>
<g>
</g>
<g>
</g>
<g>
</g>
</svg>
