<?xml version="1.0" encoding="iso-8859-1"?>
<!-- Generator: Adobe Illustrator 19.0.0, SVG Export Plug-In . SVG Version: 6.00 Build 0)  -->
<svg xmlns="http://www.w3.org/2000/svg" xmlns:xlink="http://www.w3.org/1999/xlink" version="1.1" id="Capa_1" x="0px" y="0px" viewBox="0 0 512 512" style="enable-background:new 0 0 512 512;" xml:space="preserve">
<path style="fill:#FF9811;" d="M448.027,52.921C399.555,0.519,320.668-6.932,263.646,32.603c-8.765,6.077-9.994,18.586-2.752,26.416  l166.495,179.994c7.242,7.83,19.809,7.577,26.55-0.688C497.79,184.551,496.498,105.323,448.027,52.921z"/>
<path style="fill:#EE8700;" d="M303.835,97.969c52.096-36.119,121.305-35.452,172.566,0.624  c-6.259-16.434-15.701-31.971-28.374-45.672C399.555,0.52,320.668-6.932,263.646,32.603c-8.765,6.077-9.995,18.586-2.752,26.416  l39.223,42.403C301.171,100.142,302.396,98.967,303.835,97.969z"/>
<path style="fill:#FFB655;" d="M423.404,234.705c47.249-43.706,50.132-117.703,6.426-164.953  c-43.705-47.249-117.702-50.132-164.952-6.426L423.404,234.705z"/>
<path style="fill:#FFA733;" d="M303.835,97.969c39.786-27.585,89.554-33.713,133.687-19c-2.38-3.168-4.943-6.245-7.692-9.216  c-43.705-47.249-117.702-50.132-164.952-6.426l35.238,38.095C301.171,100.142,302.396,98.967,303.835,97.969z"/>
<path style="fill:#FFC477;" d="M429.83,69.753c-14.461-15.634-32.247-26.378-51.275-32.217l-34.414,111.48l113.82-25.636  C453.62,103.955,444.292,85.387,429.83,69.753z"/>
<path style="fill:#FFB655;" d="M437.514,78.966c-2.378-3.167-4.937-6.244-7.684-9.214c-14.461-15.634-32.247-26.378-51.275-32.217  L367.666,72.81C391.034,69.389,415.006,71.464,437.514,78.966z"/>
<path style="fill:#D1E7F8;" d="M26.476,139.14l11.043,129.504c0.754,8.845,4.277,17.227,10.066,23.956l21.272,24.721  c8.253,9.592,13.536,21.379,15.204,33.922l16.12,121.259c2.435,18.316,18.056,31.997,36.532,31.997h143.36  c18.477,0,34.098-13.682,36.532-31.997l16.12-121.259c1.668-12.544,6.95-24.331,15.204-33.922l21.272-24.722  c5.79-6.729,9.312-15.111,10.066-23.956L390.31,139.14c1.866-21.882-15.393-40.675-37.354-40.675H63.831  C41.869,98.465,24.61,117.258,26.476,139.14z"/>
<path style="fill:#B9D8F4;" d="M212.218,472.503l-16.119-121.259c-1.668-12.544-6.95-24.331-15.204-33.922L159.623,292.6  c-5.79-6.729-9.312-15.111-10.066-23.956L138.513,139.14c-1.866-21.882,15.393-40.675,37.354-40.675H63.831  c-21.962,0-39.22,18.793-37.354,40.675l11.042,129.504c0.754,8.845,4.276,17.227,10.066,23.956l21.272,24.721  c8.253,9.592,13.536,21.379,15.204,33.922l16.12,121.259c2.435,18.315,18.056,31.997,36.532,31.997H248.75  C230.274,504.5,214.653,490.819,212.218,472.503z"/>
<path style="fill:#96C8EF;" d="M93.54,313.05L93.54,313.05c-8.315,0-16.03,2.674-22.348,7.192  c6.904,9.023,11.367,19.697,12.869,31.001l16.12,121.259c2.23,16.774,15.53,29.628,31.945,31.678V351.636  C132.126,330.414,114.763,313.05,93.54,313.05z"/>
<g>
	<path style="fill:#B9D8F4;" d="M323.247,313.05L323.247,313.05c8.315,0,16.03,2.674,22.348,7.192   c-6.904,9.023-11.367,19.697-12.869,31.001l-16.12,121.259c-2.23,16.774-15.53,29.628-31.945,31.678V351.636   C284.661,330.414,302.025,313.05,323.247,313.05z"/>
	<path style="fill:#B9D8F4;" d="M246.98,504.181V351.636c0-21.222-17.364-38.586-38.586-38.586s-38.586,17.364-38.586,38.586   v152.545L246.98,504.181L246.98,504.181z"/>
</g>
<path style="fill:#96C8EF;" d="M212.218,472.503l-16.12-121.259c-1.428-10.74-5.514-20.921-11.838-29.649  c-8.796,7.088-14.453,17.933-14.453,30.041v152.545h74.124C227.619,502.042,214.438,489.201,212.218,472.503z"/>
<path style="fill:#FFDAAA;" d="M87.682,197.666c-16.859,0-30.108,14.426-28.675,31.225l3.21,37.647  c0.313,3.677,1.752,7.099,4.158,9.896l21.272,24.721c11.421,13.274,18.678,29.464,20.986,46.823l16.12,121.259  c0.797,5.997,5.912,10.477,11.961,10.477h143.36c6.05,0,11.164-4.48,11.961-10.476l16.12-121.258  c2.306-17.357,9.563-33.548,20.985-46.824l21.273-24.72c2.406-2.797,3.844-6.22,4.159-9.896l3.21-37.647  c1.432-16.798-11.816-31.225-28.675-31.225H87.682V197.666z"/>
<path style="fill:#FFC477;" d="M196.099,351.244c-1.668-12.544-6.95-24.331-15.204-33.922L159.623,292.6  c-5.79-6.729-9.312-15.111-10.067-23.956l-6.052-70.978H87.682c-16.859,0-30.108,14.426-28.675,31.225l3.21,37.647  c0.313,3.677,1.752,7.099,4.158,9.896l21.272,24.721c11.422,13.274,18.678,29.464,20.986,46.823l16.12,121.259  c0.797,5.997,5.912,10.477,11.961,10.477h77.219c-0.797-2.303-1.382-4.711-1.714-7.21L196.099,351.244z"/>
<path style="fill:#FFB655;" d="M96.357,313.05c6.429,10.582,10.625,22.394,12.276,34.812l16.12,121.259  c0.584,4.392,3.488,7.961,7.374,9.562V351.522C132.126,331.247,116.276,314.506,96.357,313.05z"/>
<path style="fill:#FFC477;" d="M208.394,313.05c-21.222,0-38.586,17.364-38.586,38.586v128.076h77.173V351.636  C246.98,330.414,229.616,313.05,208.394,313.05z"/>
<path style="fill:#FFB655;" d="M196.098,351.244c-1.428-10.74-5.514-20.921-11.838-29.649c-8.796,7.088-14.453,17.933-14.453,30.041  v128.076h44.125c-0.797-2.303-1.382-4.711-1.714-7.21L196.098,351.244z"/>
<path style="fill:#FFC477;" d="M320.431,313.05c-6.429,10.582-10.625,22.394-12.276,34.812l-16.12,121.259  c-0.584,4.392-3.488,7.961-7.374,9.562V351.522C284.661,331.247,300.511,314.506,320.431,313.05z"/>
<path d="M493.101,144.904c-0.981-36.077-15.034-70.553-39.568-97.076c-24.535-26.523-57.812-43.215-93.704-47.001  c-35.558-3.752-71.228,5.347-100.457,25.612c-5.916,4.102-9.76,10.579-10.547,17.771c-0.797,7.276,1.595,14.53,6.563,19.9  l24.84,26.854H113.721c-4.142,0-7.5,3.358-7.5,7.5s3.358,7.5,7.5,7.5h239.235c8.497,0,16.342,3.447,22.089,9.705  s8.515,14.367,7.793,22.833l-11.043,129.503c-0.624,7.32-3.487,14.132-8.279,19.702l-19.594,22.773  c-3.121-1.582-6.396-2.792-9.774-3.618c0.227-0.271,21.952-25.538,21.952-25.538c3.439-3.999,5.496-8.891,5.945-14.149l3.21-37.647  c0.861-10.093-2.575-20.161-9.427-27.622s-16.591-11.74-26.721-11.74H87.682c-10.129,0-19.869,4.279-26.721,11.74  s-10.288,17.528-9.427,27.622l3.21,37.646c0.448,5.257,2.503,10.15,5.946,14.151c0,0,21.722,25.267,21.95,25.539  c-3.378,0.826-6.653,2.036-9.774,3.618l-19.595-22.773c-4.792-5.569-7.654-12.381-8.279-19.702L33.949,138.503  c-0.722-8.466,2.045-16.575,7.793-22.833c5.747-6.258,13.592-9.705,22.088-9.705h15.731c4.142,0,7.5-3.358,7.5-7.5  s-3.358-7.5-7.5-7.5h-15.73c-12.562,0-24.64,5.306-33.136,14.559c-8.497,9.252-12.758,21.737-11.691,34.254l11.043,129.503  c0.894,10.482,4.993,20.237,11.854,28.21l21.272,24.722c7.323,8.51,11.975,18.89,13.455,30.019l16.12,121.259  C95.666,495.445,114.567,512,136.714,512h143.359c22.147,0,41.049-16.555,43.967-38.509l16.12-121.259  c1.479-11.13,6.133-21.51,13.455-30.02l21.271-24.722c6.861-7.974,10.96-17.729,11.854-28.21l4.932-57.836l30.211,32.66  c4.788,5.177,11.507,8.104,18.539,8.104c0.262,0,0.525-0.004,0.789-0.012c7.232-0.225,13.989-3.554,18.54-9.133  C482.23,215.499,494.073,180.638,493.101,144.904z M124.627,411.376l-8.56-64.387c-0.97-7.299-2.758-14.403-5.294-21.21  c8.346,5.58,13.854,15.086,13.854,25.857C124.627,351.636,124.627,411.376,124.627,411.376z M139.627,487.213h22.681V497h-22.681  V487.213z M177.307,487.213h62.173v9.468h-62.173V487.213z M254.48,487.213h22.681V497H254.48L254.48,487.213L254.48,487.213z   M72.06,271.541c-1.373-1.595-2.192-3.545-2.371-5.641l-3.21-37.647c-0.512-6.007,1.451-11.761,5.529-16.201  s9.644-6.886,15.673-6.886h241.425c6.029,0,11.595,2.445,15.673,6.886s6.041,10.194,5.529,16.201l-3.21,37.646  c-0.18,2.097-0.999,4.049-2.37,5.643l-21.274,24.722c-2.701,3.14-5.173,6.438-7.435,9.858c-21.99,3.479-38.858,22.562-38.858,45.515  v120.576H254.48V351.636c0-25.412-20.674-46.086-46.086-46.086s-46.086,20.674-46.086,46.086v61.251c0,4.142,3.358,7.5,7.5,7.5  s7.5-3.358,7.5-7.5v-61.251c0-17.141,13.945-31.086,31.086-31.086s31.086,13.945,31.086,31.086v120.576h-62.173v-25.74  c0-4.142-3.358-7.5-7.5-7.5s-7.5,3.358-7.5,7.5v25.74h-22.681V351.636c0-22.953-16.868-42.036-38.858-45.515  c-2.262-3.421-4.735-6.72-7.437-9.859L72.06,271.541z M306.014,325.78c-2.536,6.807-4.324,13.912-5.294,21.21l-8.559,64.383v-59.737  C292.161,340.866,297.669,331.36,306.014,325.78z M107.616,471.515l-16.12-121.259c-1.299-9.769-4.543-19.078-9.509-27.454  c3.179-1.289,6.551-2.02,10.009-2.192c4.742,8.763,7.87,18.347,9.201,28.356l16.12,121.259c0.691,5.198,3.424,9.695,7.309,12.76  v11.386C115.651,490.285,108.983,481.797,107.616,471.515z M309.171,471.515c-1.367,10.283-8.035,18.77-17.01,22.856v-11.386  c3.884-3.065,6.618-7.563,7.309-12.76l16.119-121.258c1.33-10.008,4.459-19.592,9.201-28.356c3.459,0.172,6.832,0.902,10.01,2.192  c-4.965,8.375-8.21,17.684-9.509,27.454L309.171,471.515z M386.093,105.524c-4.758-5.181-10.639-9.123-17.099-11.59l14.474-46.889  c15.313,5.891,29.273,15.279,40.856,27.801c11.718,12.668,19.85,27.392,24.459,42.913l-32.991,7.43  c-4.041,0.91-6.579,4.924-5.669,8.965c0.785,3.486,3.472,6.487,8.964,5.669l32.974-7.427c4.93,32.333-4.685,66.357-28.422,91.518  l-30.242-32.694l4.386-51.442C398.851,127.261,394.59,114.777,386.093,105.524z M448.126,233.584  c-1.829,2.244-4.451,3.529-7.382,3.621c-2.5,0.081-4.918-0.766-6.826-2.335c45.015-47.013,46.197-121.8,1.418-170.21  c-26.429-28.572-65.396-43.199-104.259-39.139c-4.12,0.431-7.11,4.12-6.679,8.24s4.132,7.106,8.239,6.679  c12.459-1.304,24.752-0.51,36.489,2.211l-14.924,48.347c-0.415-0.012-53.542-0.033-53.542-0.033l-24.997-27.024  c7.493-6.041,15.696-11.055,24.491-14.915c3.793-1.664,5.519-6.088,3.854-9.881c-1.664-3.792-6.087-5.519-9.882-3.854  c-10.295,4.517-19.872,10.422-28.586,17.554c-1.421-2.026-2.079-4.508-1.806-7.002c0.319-2.915,1.805-5.428,4.184-7.077  c26.277-18.219,58.356-26.397,90.337-23.022c32.274,3.404,62.2,18.416,84.265,42.27s34.703,54.856,35.586,87.298  C478.982,177.455,468.334,208.803,448.126,233.584z"/>
<g>
</g>
<g>
</g>
<g>
</g>
<g>
</g>
<g>
</g>
<g>
</g>
<g>
</g>
<g>
</g>
<g>
</g>
<g>
</g>
<g>
</g>
<g>
</g>
<g>
</g>
<g>
</g>
<g>
</g>
</svg>
