<?xml version="1.0" encoding="iso-8859-1"?>
<!-- Generator: Adobe Illustrator 19.0.0, SVG Export Plug-In . SVG Version: 6.00 Build 0)  -->
<svg xmlns="http://www.w3.org/2000/svg" xmlns:xlink="http://www.w3.org/1999/xlink" version="1.1" id="Capa_1" x="0px" y="0px" viewBox="0 0 512 512" style="enable-background:new 0 0 512 512;" xml:space="preserve">
<ellipse transform="matrix(0.1253 -0.9921 0.9921 0.1253 -13.2603 545.551)" style="fill:#91DC5A;" cx="302.763" cy="280.296" rx="40.229" ry="18.18"/>
<path style="fill:#6DC82A;" d="M303.462,278.021c1.737-13.756,6.416-25.488,12.11-32.059c-2.13-3.195-4.757-5.191-7.765-5.571  c-9.964-1.258-20.298,15.589-23.082,37.63c-2.784,22.041,3.037,40.928,13.001,42.187c3.745,0.473,7.543-1.613,10.972-5.571  C303.772,307.249,301.519,293.408,303.462,278.021z"/>
<ellipse transform="matrix(0.891 0.4539 -0.4539 0.891 192.7669 -115.2878)" style="fill:#91DC5A;" cx="336.529" cy="343.891" rx="40.228" ry="18.179"/>
<path style="fill:#6DC82A;" d="M336.639,343.646c-13.144-6.696-22.999-15.747-26.808-23.694c-4.386,0.805-7.637,2.693-9.169,5.699  c-4.559,8.949,7.793,24.378,27.588,34.462s39.538,11.004,44.097,2.055c1.532-3.007,1.147-6.746-0.78-10.768  C362.899,352.992,349.784,350.342,336.639,343.646z"/>
<ellipse transform="matrix(0.9348 0.3551 -0.3551 0.9348 152.7038 -73.4287)" style="fill:#91DC5A;" cx="276.391" cy="379.291" rx="40.229" ry="18.18"/>
<path style="fill:#6DC82A;" d="M276.566,378.799c-13.686-5.199-24.406-13.054-29.107-20.494c-4.375,1.264-7.472,3.513-8.688,6.715  c-3.566,9.389,10.379,23.395,31.147,31.283c20.768,7.889,40.495,6.672,44.061-2.716c1.216-3.201,0.393-6.94-2.04-10.79  C303.484,385.24,290.252,383.997,276.566,378.799z"/>
<path style="fill:#5EAC24;" d="M197.05,424.485c-3.847-1.538-5.718-5.902-4.181-9.748c1.078-2.697,27.025-66.287,81.21-87.06  c49.553-18.998,85.154-54.048,85.508-54.4c2.937-2.919,7.684-2.909,10.605,0.025c2.921,2.935,2.914,7.679-0.019,10.602  c-1.531,1.526-38.1,37.604-90.725,57.779c-48.126,18.451-72.384,78.034-72.651,78.622  C203.615,427.311,197.963,424.85,197.05,424.485z"/>
<ellipse transform="matrix(0.772 -0.6357 0.6357 0.772 -75.4255 307.2441)" style="fill:#91DC5A;" cx="390.517" cy="258.748" rx="40.232" ry="18.181"/>
<path style="fill:#6DC82A;" d="M390.965,259.278c11.242-9.257,23.311-14.663,32.091-15.107c1.114-4.484,0.709-8.34-1.49-11.011  c-6.384-7.753-25.462-2.59-42.612,11.532c-17.15,14.122-25.877,31.855-19.493,39.608c2.199,2.671,5.906,3.808,10.521,3.575  C372.101,279.343,379.723,268.535,390.965,259.278z"/>
<ellipse transform="matrix(-0.9864 -0.1644 0.1644 -0.9864 208.8041 657.7994)" style="fill:#91DC5A;" cx="131.623" cy="320.259" rx="40.23" ry="18.18"/>
<path style="fill:#6DC82A;" d="M131.542,320.719c-14.897-2.482-27.251-8.357-33.121-14.977c-3.626,2.053-5.951,4.726-6.48,7.898  c-1.651,9.907,14.776,20.898,36.689,24.549s41.016-1.419,42.667-11.326c0.529-3.172-0.804-6.454-3.568-9.572  C160.03,321.649,146.439,323.201,131.542,320.719z"/>
<ellipse transform="matrix(-0.2655 -0.9641 0.9641 -0.2655 -51.4085 431.1696)" style="fill:#91DC5A;" cx="138.537" cy="235.167" rx="40.23" ry="18.18"/>
<path style="fill:#6DC82A;" d="M138.552,235.168c-3.948-14.34-3.872-27.822-0.489-35.973c-3.495-2.602-7.016-3.682-10.217-2.801  c-9.683,2.666-12.752,22.191-6.854,43.609c5.897,21.419,18.527,36.621,28.21,33.955c3.2-0.881,5.673-3.612,7.343-7.636  C149.467,261.052,142.501,249.508,138.552,235.168z"/>
<path style="fill:#91DC5A;" d="M196.357,504.5c-6.482,0-12.153-4.749-13.121-11.352c-0.658-4.486-15.724-110.806,18.226-192.534  c29.177-70.241,31.004-150.726,31.019-151.531c0.137-7.331,6.203-13.196,13.521-13.032c7.331,0.134,13.167,6.181,13.036,13.512  c-0.062,3.485-1.882,86.214-33.048,161.24c-31.095,74.857-16.623,177.468-16.474,178.496c1.058,7.255-3.964,13.998-11.219,15.059  C197.644,504.454,196.996,504.5,196.357,504.5z"/>
<path style="fill:#6DC82A;" d="M246.001,136.052c-7.318-0.164-13.384,5.701-13.521,13.032c-0.01,0.548-0.863,37.982-10.593,83.975  c4.945,1.182,15.516,3.988,26.909,1.414c9.397-46.081,10.199-82.619,10.24-84.91C259.168,142.233,253.332,136.185,246.001,136.052z"/>
<path style="fill:#DDB200;" d="M341.83,68.885c-24.162,1.438-66.468,23.612-65.031,47.774s46.075,41.163,70.237,39.725  c24.162-1.438,42.584-22.191,41.147-46.353C386.746,85.869,365.993,67.447,341.83,68.885z"/>
<path style="fill:#CCA400;" d="M379.128,85.855c-8.563-11.074-22.269-17.865-37.297-16.971  c-24.162,1.438-66.468,23.612-65.031,47.774c0.578,9.715,8.143,18.271,18.549,24.937  C331.444,131.276,361.222,111.302,379.128,85.855z"/>
<path style="fill:#DDB200;" d="M134.768,68.885c24.162,1.438,66.468,23.612,65.031,47.774s-46.075,41.163-70.237,39.725  c-24.162-1.438-42.584-22.191-41.147-46.353S110.605,67.447,134.768,68.885z"/>
<path style="fill:#CCA400;" d="M97.47,85.855c8.563-11.074,22.269-17.865,37.297-16.971c24.162,1.438,66.468,23.612,65.031,47.774  c-0.578,9.715-8.143,18.271-18.549,24.937C145.154,131.276,115.376,111.302,97.47,85.855z"/>
<path style="fill:#EEBF00;" d="M155.898,106.599c21.129-11.809,68.716-15.925,80.525,5.204s-16.633,59.503-37.762,71.312  c-21.129,11.809-47.831,4.253-59.639-16.876C127.213,145.109,134.769,118.407,155.898,106.599z"/>
<path style="fill:#DDB200;" d="M236.424,111.803c5.656,10.121,2.075,24.197-5.511,37.416c-34.669-1.054-66.464-10.503-91.9-25.727  c3.821-6.86,9.528-12.781,16.886-16.893C177.028,94.79,224.615,90.673,236.424,111.803z"/>
<path style="fill:#EEBF00;" d="M320.7,106.599c-21.129-11.809-68.716-15.925-80.525,5.204  c-11.809,21.129,16.633,59.503,37.762,71.312c21.129,11.809,47.831,4.253,59.639-16.876S341.83,118.407,320.7,106.599z"/>
<path style="fill:#DDB200;" d="M240.174,111.803c-5.656,10.121-2.075,24.197,5.511,37.416c34.669-1.054,66.464-10.503,91.9-25.727  c-3.821-6.86-9.528-12.781-16.886-16.893C299.57,94.79,251.983,90.673,240.174,111.803z"/>
<path style="fill:#FFCD00;" d="M195.385,160.056c0.676-24.196,21.508-67.179,45.703-66.502  c24.196,0.676,42.593,44.756,41.917,68.952s-20.839,43.262-45.035,42.586C213.775,204.414,194.708,184.251,195.385,160.056z"/>
<path style="fill:#EEBF00;" d="M280.992,145.111c-5.358-23.48-20.83-51.006-39.911-51.539  c-19.833-0.554-37.403,28.225-43.467,51.947C208.316,147.606,239.303,153.178,280.992,145.111z"/>
<path style="fill:#FFDA44;" d="M214.436,33.131c16.792,17.433,32.871,62.411,15.438,79.203s-61.777-0.96-78.569-18.393  s-16.272-45.178,1.161-61.97S197.644,15.698,214.436,33.131z"/>
<path style="fill:#FFCD00;" d="M172.993,20.84c-4.237,9.302-6.618,19.621-6.618,30.492c0,38.668,19.027,61.626,20.198,63.438  c16.561,5.617,33.869,6.654,43.301-2.431c17.433-16.792,1.354-61.769-15.438-79.203C203.354,21.632,187.503,17.498,172.993,20.84z"/>
<path style="fill:#FFDA44;" d="M265.968,33.131c-16.792,17.433-32.871,62.411-15.438,79.203s61.777-0.96,78.569-18.393  c16.792-17.433,16.272-45.178-1.161-61.97C310.505,15.178,282.76,15.698,265.968,33.131z"/>
<path style="fill:#FFCD00;" d="M307.411,20.84c4.237,9.302,6.618,19.621,6.618,30.492c0,35.668-19.027,61.626-20.198,63.438  c-16.561,5.617-33.869,6.654-43.301-2.431c-17.433-16.792-1.354-61.769,15.438-79.203C277.05,21.632,292.901,17.498,307.411,20.84z"/>
<path style="fill:#FFE477;" d="M284.029,51.327c0,24.205-19.622,67.754-43.827,67.754s-43.827-43.548-43.827-67.754  S215.997,7.5,240.202,7.5S284.029,27.122,284.029,51.327z"/>
<path d="M427.356,228.393c-2.938-3.567-10.093-8.948-25.018-4.909c-9.054,2.451-19.052,7.927-28.151,15.419  s-16.391,16.253-20.533,24.67c-3.832,7.787-4.281,13.74-3.419,18.096c-6.104,5.171-14.99,12.209-26.021,19.605  c1.862-5.471,3.244-11.489,4.036-17.756c1.477-11.694,0.769-23.071-1.994-32.036c-4.554-14.775-12.924-17.953-17.509-18.532  c-4.584-0.579-13.482,0.418-21.566,13.597c-4.905,7.996-8.419,18.84-9.896,30.534s-0.769,23.071,1.994,32.036  c1.947,6.319,4.593,10.512,7.342,13.292c-4.068,1.853-8.249,3.622-12.541,5.268c-24.569,9.419-43.323,27.638-56.593,44.994  c1.779-12.286,4.274-24.682,7.708-36.702c1.138-3.983-1.168-8.134-5.151-9.271c-3.983-1.139-8.134,1.168-9.271,5.151  c-20.771,72.708-8.811,157.68-8.678,158.533c1.027,6.608-5.454,6.619-5.737,6.619c-2.837,0-5.288-2.124-5.701-4.94  c-0.646-4.402-15.437-108.722,17.731-188.568c11.006-26.497,19.414-57.151,25.036-91.208c1.43,0.16,9.826,0.193,11.804-0.036  c-5.255,32.524-13.104,62.355-23.391,88.782c-1.502,3.86,0.409,8.208,4.269,9.71c0.894,0.348,7.458,1.993,9.71-4.269  c10.634-29.571,19.898-62.502,25.295-98.763c4.841-2.291,9.347-5.348,13.35-9.134c2.031-1.921,3.875-3.986,5.543-6.163  c6.154,2.514,19.784,5.366,33.291,1.833c26.335-6.888,34.021-30.364,34.188-30.374c13.686-0.814,26.235-6.909,35.337-17.163  c9.101-10.253,13.665-23.437,12.851-37.123c-0.899-15.098-8.362-28.964-20.476-38.041c-3.316-2.484-8.016-1.81-10.5,1.504  c-2.484,3.315-1.81,8.016,1.504,10.5c8.577,6.427,13.861,16.242,14.498,26.928c0.576,9.687-2.654,19.017-9.096,26.274  c-5.562,6.266-12.945,10.331-21.093,11.697c1.178-17.168-6.357-34.31-20.746-44.899c1.72-1.452,3.312-2.924,4.738-4.405  c19.634-20.384,19.024-52.941-1.359-72.576c-14.925-14.375-36.874-18.202-55.537-10.337C268.235,6.252,254.939,0,240.202,0  c-14.735,0-28.031,6.251-37.4,16.229c-18.65-7.831-40.7-3.954-55.539,10.34c-9.868,9.505-15.087,22.039-15.633,34.754  c-12.389,0.111-24.184,4.623-33.539,12.927c-10.254,9.1-16.349,21.65-17.163,35.336c-1.681,28.252,19.936,52.604,48.188,54.285  c0.167,0.01,5.462,21.117,34.188,30.374c11.057,3.563,28.067,0.473,34.605-2.412c5.379,7.275,12.608,13.015,20.948,16.6  c-5.433,33.487-13.605,63.506-24.321,89.305c-4.823,11.609-8.677,23.695-11.742,35.911c-4.825-11.29-10.619-23.979-17.297-37.076  c-3.297-6.466-5.796-12.922-7.714-19.015c3.384-3.007,6.686-8.208,8.1-17.208c1.457-9.267,0.535-20.628-2.594-31.992  s-8.153-21.596-14.147-28.812c-9.881-11.893-18.833-11.61-23.285-10.384c-4.455,1.227-12.287,5.565-14.688,20.839  c-1.457,9.267-0.536,20.628,2.593,31.992c3.129,11.364,8.153,21.596,14.148,28.812c5.632,6.779,10.957,9.594,15.323,10.542  c1.687,5.435,3.802,11.148,6.459,16.959c-4.338-1.43-8.99-2.58-13.851-3.39c-11.627-1.937-23.022-1.678-32.089,0.728  c-14.943,3.967-18.449,12.206-19.208,16.763s-0.035,13.368,12.735,22.086c4.133,2.822,8.958,0.1,10.404-2.062  c2.304-3.443,1.381-8.101-2.062-10.404c-4.898-3.278-6.452-6.128-6.281-7.155c0.511-3.059,13.069-8.652,34.036-5.161  c11.319,1.886,21.661,6.102,27.23,11.062c0.921,1.974,1.818,3.927,2.693,5.857c-1.033,1.116-3.437,2.61-7.66,3.731  c-6.949,1.845-16.344,2.001-25.775,0.43c-4.086-0.684-7.95,2.08-8.631,6.165c-0.681,4.086,2.08,7.95,6.165,8.631  c5.154,0.859,22.364,2.56,42.088-4.858c3.031,7.141,5.661,13.69,7.859,19.362c-11.053,67.066-2.04,130.668-1.53,134.145  C177.299,504.363,186.13,512,196.357,512c1.011,0,23.499-1.6,20.581-23.775c-0.073-0.551-5.272-37.681-2.674-83.041  c4.355-7.87,10.617-17.907,18.78-27.874c1.418,2.839,3.598,5.929,6.861,9.206c6.618,6.647,16.332,12.613,27.351,16.799  c9.769,3.711,47.28,7.517,53.735-7.064c1.871-4.225,2.764-13.202-8.145-24.159c-6.618-6.647-16.332-12.613-27.35-16.799  c-7.554-2.87-15.204-4.705-22.286-5.39c5.073-3.212,10.484-6.013,16.24-8.219c4.714-1.807,9.29-3.747,13.732-5.773  c1.021,3.312,2.956,7.073,6.288,11.234c5.862,7.323,14.875,14.302,25.377,19.652l0,0c10.503,5.35,45.128,14.728,54.184-1.224  c2.281-4.019,4.174-12.827-5.489-24.897c-5.862-7.323-14.875-14.302-25.378-19.652c-5.509-2.807-11.138-5.011-16.599-6.542  c11.806-7.834,21.322-15.339,27.953-20.957c2.383,1.105,20.355,6.309,47.323-14.966c9.254-7.3,16.391-16.253,20.533-24.67  C434.201,240.016,430.293,231.96,427.356,228.393z M334.71,153.022c-5.097,16.804-16.163,24.147-25.5,26.789  c-7.296,2.065-14.876,1.802-21.884-0.666c1.924-5.198,3.017-10.728,3.176-16.431c0.301-10.769-2.718-24.566-7.938-37.267  c11.61-2.036,23.631-6.736,33.847-12.631C316.617,112.927,341.361,125.66,334.71,153.022z M322.736,37.372  c14.426,13.896,14.858,36.939,0.962,51.366c-12.378,12.85-38.389,23.837-55.496,22.767c14.448-16.556,23.328-43.06,23.328-60.178  c0-8.016-1.85-15.607-5.141-22.373C298.901,24.928,312.95,27.946,322.736,37.372z M240.202,15c20.031,0,36.327,16.296,36.327,36.327  c0,11.034-4.763,26.804-11.853,39.24c-7.613,13.354-16.534,21.014-24.475,21.014s-16.862-7.66-24.475-21.014  c-7.089-12.436-11.853-28.206-11.853-39.24C203.875,31.296,220.171,15,240.202,15z M157.669,37.372  c9.728-9.371,23.832-12.415,36.344-8.413c-3.289,6.765-5.138,14.354-5.138,22.368c0,17.118,8.879,43.621,23.328,60.178  c-17.107,1.069-43.119-9.917-55.496-22.767C142.81,74.311,143.242,51.268,157.669,37.372z M104.997,136.75  c-6.442-7.257-9.672-16.588-9.096-26.273c0.576-9.687,4.89-18.569,12.147-25.01c6.972-6.189,15.864-9.405,25.14-9.135  c3.905,15.196,14.683,24.772,15.76,25.743c-15.76,10.422-24.092,28.384-22.858,46.374  C117.942,147.082,110.559,143.016,104.997,136.75z M203.695,169.038c-0.881-4.048-4.881-6.615-8.923-5.734  c-4.048,0.881-6.615,4.875-5.734,8.923c0.472,2.168,1.076,4.279,1.803,6.325c-7.436,3.01-15.608,3.479-23.453,1.26  c-9.337-2.642-17.086-8.762-21.82-17.233c-9.772-17.485-3.548-41.126,16.668-50.8c10.302,6.211,22.656,11.248,34.64,13.497  c-1.539,3.395-2.939,6.868-4.147,10.411c-1.337,3.92,0.758,8.182,4.678,9.519c0.802,0.273,7.324,1.587,9.519-4.678  c1.675-4.781,3.729-9.62,6.066-14.087c4.959-0.301,9.614-1.317,13.765-3.169c4.23,2.116,8.727,3.31,13.444,3.31  s9.214-1.194,13.444-3.31c3.917,1.748,8.283,2.744,12.931,3.103c5.68,11.937,9.211,25.924,8.931,35.921  c-0.271,9.7-4.303,18.713-11.354,25.38s-16.293,10.625-25.975,9.918C217.608,196.092,206.505,181.952,203.695,169.038z   M128.223,238.012c-5.643-20.495-1.375-33.564,1.614-34.388c0.087-0.024,11.269-0.747,18.989,28.715s-0.611,34.111-1.615,34.388  c-1.001,0.276-3.999-0.976-7.765-5.507C134.852,255.689,130.762,247.23,128.223,238.012z M306.967,390.923  c-1.101,2.898-14.514,5.917-34.387-1.632c-8.938-3.395-16.974-8.265-22.047-13.359c-4.158-4.176-5.121-7.276-4.751-8.25  s11.674-7.398,34.387,1.632C299.922,377.168,308.068,388.024,306.967,390.923z M292.166,278.961  c2.616-20.712,11.305-31.139,14.529-31.139c0.059,0,10.618,0.839,6.672,33.816c-3.573,29.864-11.62,31.501-14.701,31.129  c-1.033-0.13-3.318-2.436-5.053-8.068C291.495,297.829,290.968,288.447,292.166,278.961z M341.355,334.389  c8.62,4.138,15.983,10.048,20.477,15.661c3.683,4.601,4.306,7.786,3.833,8.714c-0.472,0.928-3.413,2.293-9.302,2.022  c-7.182-0.335-16.187-3.016-24.707-7.356l0,0c-18.941-9.649-25.717-21.612-24.31-24.375  C307.38,328.987,313.245,320.897,341.355,334.389z M397.305,266.979c-7.381,6.078-15.595,10.641-22.535,12.519  c-5.688,1.539-8.857,0.838-9.52,0.035c-0.662-0.804-0.741-4.049,1.861-9.336c3.175-6.451,8.895-14.066,16.61-19.714  c23.092-16.904,31.679-13.01,32.054-12.554C417.747,240.322,413.716,253.466,397.305,266.979z"/>
<g>
</g>
<g>
</g>
<g>
</g>
<g>
</g>
<g>
</g>
<g>
</g>
<g>
</g>
<g>
</g>
<g>
</g>
<g>
</g>
<g>
</g>
<g>
</g>
<g>
</g>
<g>
</g>
<g>
</g>
</svg>
