<?xml version="1.0" encoding="iso-8859-1"?>
<!-- Generator: Adobe Illustrator 19.0.0, SVG Export Plug-In . SVG Version: 6.00 Build 0)  -->
<svg xmlns="http://www.w3.org/2000/svg" xmlns:xlink="http://www.w3.org/1999/xlink" version="1.1" id="Capa_1" x="0px" y="0px" viewBox="0 0 512.001 512.001" style="enable-background:new 0 0 512.001 512.001;" xml:space="preserve">
<circle style="fill:#FFB655;" cx="251.483" cy="153.409" r="58.921"/>
<path style="fill:#FFA733;" d="M310.406,153.411c0-10.267-2.631-19.918-7.248-28.323c-16.919-3.57-34.24-5.416-51.672-5.416  s-34.754,1.846-51.672,5.416c-4.617,8.405-7.248,18.056-7.248,28.323c0,32.541,26.379,58.921,58.921,58.921  S310.406,185.953,310.406,153.411z"/>
<path style="fill:#FFB655;" d="M142.683,212.557c22.339-22.942,27.229-54.414,10.92-70.294s-47.639-10.154-69.979,12.788  c-6.576,6.754-11.634,14.245-15.087,21.86c-3.879,8.555-10.57,15.428-19.019,19.533c-7.521,3.654-14.875,8.91-21.451,15.664  c-22.339,22.941-27.229,54.413-10.92,70.293c16.309,15.88,47.639,10.154,69.979-12.788c6.576-6.754,11.634-14.245,15.087-21.86  c3.879-8.555,10.57-15.428,19.019-19.533C128.753,224.567,136.107,219.311,142.683,212.557z"/>
<path style="fill:#FFA733;" d="M17.147,282.401c16.309,15.88,47.639,10.154,69.979-12.788c6.576-6.754,11.634-14.245,15.087-21.86  c3.879-8.555,10.57-15.428,19.02-19.533c7.52-3.654,14.875-8.91,21.451-15.664c22.339-22.942,27.229-54.414,10.92-70.294  c-0.655-0.638-1.342-1.228-2.044-1.796c-20.351,8.817-39.643,20.217-56.998,34.299C34.776,223.275,16.984,282.242,17.147,282.401z"/>
<path style="fill:#FFB655;" d="M369.305,212.557c-22.339-22.942-27.229-54.414-10.92-70.294  c16.309-15.88,47.639-10.154,69.979,12.788c6.576,6.754,11.634,14.245,15.087,21.86c3.879,8.555,10.57,15.428,19.019,19.533  c7.521,3.654,14.875,8.91,21.451,15.664c22.339,22.942,27.229,54.414,10.92,70.294c-16.309,15.88-47.639,10.154-69.979-12.788  c-6.576-6.754-11.634-14.245-15.087-21.86c-3.879-8.555-10.57-15.428-19.019-19.533  C383.235,224.567,375.882,219.311,369.305,212.557z"/>
<path style="fill:#FFA733;" d="M488.245,287.249c-15.51-43.855-43.246-83.129-79.843-112.479  c-15.689-12.582-32.818-23.151-50.918-31.569c-15.209,16.151-10.101,46.855,11.813,69.361c6.576,6.754,13.93,12.01,21.452,15.664  c8.449,4.105,15.141,10.977,19.02,19.533c3.453,7.615,8.511,15.107,15.087,21.86C444.472,289.767,471.021,296.63,488.245,287.249z"/>
<path style="fill:#FFDAAA;" d="M251.487,139.672c-109.291,0-200.856,75.899-224.86,177.862  c-7.038,29.893,10.211,60.138,39.53,69.277c43.448,13.545,112.79,30.698,185.331,30.698s141.882-17.153,185.331-30.698  c29.319-9.14,46.568-39.384,39.53-69.277C452.342,215.571,360.778,139.672,251.487,139.672z"/>
<g>
	<path style="fill:#FFC477;" d="M251.486,139.672c-109.291,0-200.856,75.899-224.86,177.862   c-7.038,29.893,10.211,60.138,39.53,69.277c29.645,9.241,71.348,20.159,117.893,26.165   C94.589,227.93,251.486,139.672,251.486,139.672z"/>
	<path style="fill:#FFC477;" d="M292.702,230.682c0-32.022-18.453-57.981-41.216-57.981c-22.762,0-41.215,25.959-41.215,57.981   c0,9.426,1.602,18.323,4.442,26.187c3.19,8.835,3.19,18.427,0,27.262c-2.84,7.864-4.442,16.761-4.442,26.187   c0,32.022,18.453,57.981,41.215,57.981s41.216-25.959,41.216-57.981c0-9.426-1.602-18.323-4.442-26.187   c-3.19-8.835-3.19-18.427,0-27.262C291.1,249.004,292.702,240.108,292.702,230.682z"/>
</g>
<path style="fill:#FFB655;" d="M247.793,310.319c0-9.426,1.602-18.323,4.442-26.187c3.19-8.835,3.19-18.427,0-27.262  c-2.84-7.864-4.442-16.761-4.442-26.187c0-22.513,9.127-42.015,22.454-51.62c-5.629-4.057-12.002-6.361-18.761-6.361  c-22.762,0-41.216,25.959-41.216,57.981c0,9.426,1.602,18.323,4.442,26.187c3.19,8.835,3.19,18.427,0,27.262  c-2.84,7.864-4.442,16.761-4.442,26.187c0,32.022,18.453,57.981,41.216,57.981c6.76,0,13.132-2.304,18.761-6.361  C256.92,352.334,247.793,332.833,247.793,310.319z"/>
<path d="M202.771,310.319c0,17.031,4.78,33.135,13.459,45.344c9.23,12.985,21.751,20.137,35.257,20.137s26.025-7.152,35.257-20.137  c8.678-12.209,13.458-28.313,13.458-45.344c0-10.085-1.645-19.753-4.888-28.734c-2.581-7.148-2.581-15.021,0-22.168  c3.243-8.981,4.888-18.649,4.888-28.734c0-17.031-4.78-33.135-13.458-45.344c-9.23-12.985-21.751-20.137-35.257-20.137  c-12.909,0-25.038,6.618-34.153,18.633c-2.503,3.3-1.857,8.004,1.443,10.507c3.299,2.503,8.003,1.857,10.507-1.443  c6.212-8.188,14.097-12.699,22.202-12.699c18.276,0,33.716,23.118,33.716,50.481c0,8.343-1.345,16.297-3.996,23.64  c-3.767,10.432-3.767,21.923,0,32.356c2.651,7.343,3.996,15.298,3.996,23.641c0,27.364-15.44,50.481-33.716,50.481  s-33.717-23.118-33.717-50.481c0-8.343,1.345-16.297,3.996-23.641c3.767-10.432,3.767-21.923,0-32.356  c-2.651-7.343-3.996-15.297-3.996-23.64c0-4.249,0.36-8.47,1.07-12.549c0.71-4.081-2.022-7.963-6.104-8.674  c-4.08-0.709-7.963,2.022-8.674,6.104c-0.857,4.926-1.292,10.012-1.292,15.121c0,10.084,1.645,19.752,4.888,28.734  c2.581,7.148,2.581,15.021,0,22.168C204.415,290.567,202.771,300.234,202.771,310.319z"/>
<path d="M511.285,248.751c-2.3-14.803-10.109-29.674-21.99-41.876c-7.035-7.225-14.957-13.004-23.547-17.178  c-6.836-3.321-12.328-8.961-15.466-15.883c-3.943-8.698-9.509-16.772-16.544-23.996c-11.881-12.202-26.54-20.406-41.276-23.098  c-15.672-2.865-29.632,0.748-39.308,10.168c-3.984,3.879-7.039,8.657-9.059,14.031c-8.894-3.742-18.011-6.944-27.294-9.589  c-5.741-31.218-33.206-54.339-65.313-54.339c-32.113,0-59.573,23.12-65.313,54.339c-6.612,1.884-13.138,4.055-19.561,6.498  c-1.943-4.116-4.537-7.783-7.777-10.939c-9.676-9.421-23.638-13.032-39.308-10.168c-14.736,2.693-29.395,10.896-41.275,23.098  c-7.036,7.225-12.602,15.298-16.545,23.996c-3.138,6.922-8.63,12.562-15.466,15.883c-8.59,4.174-16.513,9.953-23.547,17.178  c-11.881,12.202-19.691,27.074-21.99,41.876c-2.446,15.743,1.536,29.602,11.211,39.023c3.676,3.58,8.092,6.35,13.014,8.233  c-2.152,6.51-4.125,13.095-5.603,19.808c-13.21,59.984,48.03,79.219,49.804,79.757c3.965,1.207,8.151-1.034,9.354-4.997  c1.204-3.963-1.034-8.151-4.997-9.354c-1.737-0.528-50.076-14.822-39.562-61.969c10.774-48.313,38.987-91.878,77.84-123.035  c40.009-32.086,88.325-49.046,139.721-49.046s99.712,16.96,139.721,49.046c38.852,31.158,66.496,74.853,77.84,123.035  c6.107,25.94-9.031,52.471-34.463,60.399c-44.424,13.849-112.25,30.358-183.098,30.358c-46.504,0-97.045-7.047-150.22-20.944  c-4.009-1.048-8.104,1.353-9.152,5.36c-1.047,4.008,1.353,8.104,5.36,9.152c54.413,14.221,106.231,21.431,154.013,21.431  c72.736,0,142.144-16.878,187.562-31.038c32.911-10.259,52.5-44.59,44.599-78.156c-12.107-51.426-41.603-98.056-83.056-131.3  c-13.294-10.661-27.674-19.805-42.828-27.333c1.23-3.743,3.185-6.949,5.855-9.547c6.1-5.94,15.385-8.125,26.147-6.161  c11.698,2.138,23.498,8.816,33.227,18.808c5.821,5.977,10.405,12.613,13.629,19.725c4.58,10.102,12.596,18.335,22.572,23.181  c7.023,3.413,13.535,8.172,19.355,14.15c19.09,19.605,24.156,46.939,11.062,59.689c-2.967,2.89-3.031,7.637-0.141,10.605  c1.47,1.51,5.492,4.976,10.605,0.141C509.886,278.496,513.731,264.494,511.285,248.751z M102.381,184.516  c-32.131,25.767-57.07,59.581-72.304,97.433c-2.935-1.146-5.512-2.791-7.698-4.921c-13.094-12.75-8.028-40.084,11.062-59.69  c5.82-5.978,12.332-10.737,19.355-14.15c9.976-4.847,17.993-13.079,22.572-23.182c3.224-7.111,7.808-13.748,13.629-19.725  c9.727-9.99,21.526-16.669,33.226-18.807c10.762-1.968,20.049,0.221,26.148,6.161c1.771,1.724,3.226,3.727,4.37,5.974  C134.81,161.75,117.859,172.103,102.381,184.516z M202.656,137.262c6.828-20.653,26.358-35.273,48.831-35.273  c22.468,0,42.002,14.621,48.831,35.273c-15.991-3.355-32.358-5.091-48.831-5.091C235.014,132.173,218.647,133.908,202.656,137.262z"/>
<g>
</g>
<g>
</g>
<g>
</g>
<g>
</g>
<g>
</g>
<g>
</g>
<g>
</g>
<g>
</g>
<g>
</g>
<g>
</g>
<g>
</g>
<g>
</g>
<g>
</g>
<g>
</g>
<g>
</g>
</svg>
