<?xml version="1.0" encoding="iso-8859-1"?>
<!-- Generator: Adobe Illustrator 19.0.0, SVG Export Plug-In . SVG Version: 6.00 Build 0)  -->
<svg xmlns="http://www.w3.org/2000/svg" xmlns:xlink="http://www.w3.org/1999/xlink" version="1.1" id="Capa_1" x="0px" y="0px" viewBox="0 0 511.999 511.999" style="enable-background:new 0 0 511.999 511.999;" xml:space="preserve">
<g>
	<path style="fill:#00CCB3;" d="M391.182,426.632h82.312c17.124,0,31.006-13.882,31.006-31.006v-32.757   c0-17.124-13.882-31.006-31.006-31.006h-82.312V426.632z"/>
	<path style="fill:#00CCB3;" d="M120.818,426.632H38.506c-17.124,0-31.006-13.882-31.006-31.006v-32.757   c0-17.124,13.882-31.006,31.006-31.006h82.312C120.818,331.863,120.818,426.632,120.818,426.632z"/>
</g>
<g>
	<rect x="68.05" y="331.859" style="fill:#04BCA1;" width="52.772" height="94.77"/>
	<rect x="391.18" y="331.859" style="fill:#04BCA1;" width="52.772" height="94.77"/>
</g>
<path style="fill:#FFC477;" d="M62.207,471.662L62.207,471.662c-7.323,0-13.314-5.991-13.314-13.314v-63.432  c0-7.323,5.991-13.314,13.314-13.314l0,0c7.323,0,13.314,5.991,13.314,13.314v63.432C75.521,465.671,69.53,471.662,62.207,471.662z"/>
<path style="fill:#FFA733;" d="M62.207,381.602c-2.201,0-4.276,0.549-6.11,1.505c4.268,2.224,7.204,6.687,7.204,11.809v63.432  c0,5.122-2.936,9.584-7.204,11.809c1.834,0.956,3.909,1.505,6.11,1.505c7.323,0,13.314-5.991,13.314-13.314v-63.432  C75.521,387.593,69.53,381.602,62.207,381.602z"/>
<path style="fill:#FFC477;" d="M449.793,471.662L449.793,471.662c7.323,0,13.314-5.991,13.314-13.314v-63.432  c0-7.323-5.991-13.314-13.314-13.314l0,0c-7.323,0-13.314,5.991-13.314,13.314v63.432  C436.479,465.671,442.47,471.662,449.793,471.662z"/>
<g>
	<path style="fill:#FFA733;" d="M449.793,381.602c2.201,0,4.276,0.549,6.11,1.505c-4.268,2.224-7.204,6.687-7.204,11.809v63.432   c0,5.122,2.936,9.584,7.204,11.809c-1.834,0.956-3.909,1.505-6.11,1.505c-7.323,0-13.314-5.991-13.314-13.314v-63.432   C436.479,387.593,442.47,381.602,449.793,381.602z"/>
	<path style="fill:#FFA733;" d="M422.049,225.949h-66.363l23.368-172.564c4.418-27.303,29.131-25.452,29.131-25.452   c7.657,0,13.864,6.207,13.864,13.864L422.049,225.949L422.049,225.949z"/>
	<path style="fill:#FFA733;" d="M269.633,27.933h-27.267c-14.843,0-27.401,10.972-29.393,25.681l-23.336,172.335h132.726   L299.026,53.614C297.035,38.905,284.477,27.933,269.633,27.933z"/>
</g>
<path style="fill:#FF9811;" d="M279.608,29.663c-3.128-1.118-6.487-1.73-9.975-1.73h-27.267c-14.843,0-27.401,10.972-29.393,25.681  l-23.336,172.335h47.216L260.19,53.614C261.713,42.361,269.424,33.302,279.608,29.663z"/>
<path style="fill:#FFA733;" d="M89.952,225.949h66.363L132.947,53.385c-4.418-27.303-29.131-25.452-29.131-25.452  c-7.657,0-13.864,6.207-13.864,13.864C89.952,41.797,89.952,225.949,89.952,225.949z"/>
<g>
	<path style="fill:#FF9811;" d="M123.028,34.307c-8.566-7.171-19.212-6.374-19.212-6.374c-7.657,0-13.864,6.207-13.864,13.864   v184.152h30.867V41.797C120.818,39.035,121.635,36.468,123.028,34.307z"/>
	<path style="fill:#FF9811;" d="M388.973,34.307c8.566-7.171,19.212-6.374,19.212-6.374c7.657,0,13.864,6.207,13.864,13.864v184.152   h-30.867V41.797C391.182,39.035,390.365,36.468,388.973,34.307z"/>
</g>
<path style="fill:#FFC477;" d="M48.047,192.706v138.398c0,11.524,9.429,20.952,20.952,20.952l0,0  c11.524,0,20.952-9.429,20.952-20.952v-92.938h332.097v92.385c0,10.69,7.783,20.078,18.397,21.353  c12.652,1.52,23.508-8.433,23.508-20.799V192.706c0-18.434-14.944-33.378-33.378-33.378H81.425  C62.991,159.328,48.047,174.272,48.047,192.706z"/>
<path style="fill:#FFA733;" d="M443.953,203.73c0-13.477-10.925-24.402-24.402-24.402H92.449c-13.477,0-24.402,10.925-24.402,24.402  v148.278c0.318,0.015,0.631,0.049,0.952,0.049l0,0c11.524,0,20.952-9.429,20.952-20.952v-92.938h332.097v92.453  c0,10.794,7.971,20.185,18.706,21.319c1.082,0.114,2.15,0.145,3.199,0.097L443.953,203.73L443.953,203.73z"/>
<path style="fill:#00DDC2;" d="M394.154,212.932H117.846c-15.406,0-27.895,12.489-27.895,27.895v194.595  c0,26.868,21.781,48.65,48.65,48.65h234.797c26.868,0,48.65-21.781,48.65-48.65V240.827  C422.048,225.421,409.559,212.932,394.154,212.932z"/>
<path style="fill:#00AA95;" d="M89.952,240.816c0,51.846,0,157.857,0,157.702c30.638,0,31.021-35.948,31.021-35.948v-56.891h270.056  v56.891c0,0,0.382,35.948,31.02,35.948c0,0.155,0-105.856,0-157.702c0-15.406-12.489-27.884-27.895-27.884H117.846  C102.44,212.932,89.952,225.41,89.952,240.816z"/>
<path style="fill:#00EED1;" d="M323.514,238.165c-37.287,0-67.514,30.227-67.514,67.514c0,5.878,0,5.878,0,0  c0-37.287-30.227-67.514-67.514-67.514s-67.514,30.227-67.514,67.514s30.227,67.514,67.514,67.514h135.028  c37.287,0,67.514-30.227,67.514-67.514C391.028,268.392,360.801,238.165,323.514,238.165z"/>
<circle style="fill:#57565C;" cx="188.49" cy="305.679" r="32.753"/>
<path style="fill:#3E3D42;" d="M184.311,305.679c0-12.966,7.535-24.17,18.464-29.478c-4.319-2.097-9.166-3.276-14.289-3.276  c-18.089,0-32.754,14.664-32.754,32.753s14.664,32.753,32.754,32.753c5.123,0,9.971-1.178,14.289-3.276  C191.847,329.849,184.311,318.645,184.311,305.679z"/>
<circle style="fill:#57565C;" cx="323.51" cy="305.679" r="32.753"/>
<path style="fill:#3E3D42;" d="M319.339,305.679c0-12.966,7.535-24.17,18.464-29.478c-4.319-2.097-9.166-3.276-14.289-3.276  c-18.089,0-32.754,14.664-32.754,32.753s14.664,32.753,32.754,32.753c5.123,0,9.971-1.178,14.289-3.276  C326.874,329.849,319.339,318.645,319.339,305.679z"/>
<path style="fill:#44FFE8;" d="M327.583,484.071H184.417c-30.492,0-55.439-24.948-55.439-55.439l0,0  c0-30.492,24.948-55.439,55.439-55.439h143.166c30.492,0,55.439,24.948,55.439,55.439l0,0  C383.022,459.124,358.075,484.071,327.583,484.071z"/>
<path style="fill:#00EED1;" d="M184.417,463.672c-18.993,0-35.04-16.046-35.04-35.04s16.047-35.04,35.04-35.04h143.166  c18.994,0,35.041,16.046,35.041,35.04s-16.047,35.04-35.041,35.04H184.417z"/>
<path style="fill:#57565C;" d="M184.417,448.672c-10.862,0-20.039-9.177-20.039-20.04s9.178-20.04,20.039-20.04h143.166  c10.863,0,20.041,9.177,20.041,20.04s-9.178,20.04-20.041,20.04H184.417z"/>
<path style="fill:#3E3D42;" d="M184.417,427.983h143.166c7.372,0,13.959,4.232,17.437,10.344c1.647-2.894,2.604-6.205,2.604-9.696  c0-10.863-9.177-20.04-20.041-20.04H184.417c-10.862,0-20.039,9.177-20.039,20.04c0,3.491,0.957,6.802,2.604,9.696  C170.459,432.216,177.045,427.983,184.417,427.983z"/>
<path style="fill:#FFC477;" d="M188.487,408.592h48.366l-16.548,44.568c-2.629,7.08-12.642,7.08-15.271,0L188.487,408.592z"/>
<path style="fill:#FFA733;" d="M207.634,408.592h-19.147l16.548,44.568c2.629,7.08,12.642,7.08,15.271,0l1.938-5.22L207.634,408.592  z"/>
<path style="fill:#FFC477;" d="M275.148,408.592h48.366l-16.548,44.568c-2.629,7.08-12.642,7.08-15.271,0L275.148,408.592z"/>
<path style="fill:#FFA733;" d="M294.295,408.592h-19.147l16.548,44.568c2.629,7.08,12.642,7.08,15.271,0l1.938-5.22L294.295,408.592  z"/>
<path style="fill:#00CCB3;" d="M288.453,386.061h-64.906c-12.921,0-23.492-10.571-23.492-23.492l0,0  c0-12.921,10.571-23.492,23.492-23.492h64.906c12.921,0,23.492,10.571,23.492,23.492l0,0  C311.945,375.49,301.374,386.061,288.453,386.061z"/>
<path style="fill:#00AA95;" d="M288.453,339.078h-64.906c-3.763,0-7.323,0.902-10.484,2.492v34.011c0,2.869,0.288,5.672,0.828,8.385  c2.95,1.342,6.219,2.097,9.657,2.097h64.906c3.438,0,6.706-0.755,9.657-2.097c0.539-2.713,0.828-5.515,0.828-8.384v-34.013  C295.776,339.979,292.216,339.078,288.453,339.078z"/>
<path style="fill:#00DDC2;" d="M256,398.518L256,398.518c-12.616,0-22.937-10.322-22.937-22.937v-73.005  c0-12.616,10.322-22.937,22.937-22.937l0,0c12.616,0,22.937,10.322,22.937,22.937v73.005  C278.937,388.196,268.616,398.518,256,398.518z"/>
<path style="fill:#00CCB3;" d="M254.211,375.58v-73.005c0-8.807,5.034-16.491,12.363-20.331c-3.169-1.66-6.766-2.606-10.574-2.606  l0,0c-12.615,0-22.937,10.322-22.937,22.937v73.005c0,12.616,10.322,22.937,22.937,22.937l0,0c3.808,0,7.405-0.946,10.574-2.606  C259.245,392.072,254.211,384.388,254.211,375.58z"/>
<path d="M471.453,324.363V192.706c0-40.023-41.904-40.878-41.904-40.878V41.797c0-11.768-9.563-21.344-21.327-21.364  c-4.135-0.095-31.51,0.46-36.572,31.754c-0.011,0.064-13.496,99.641-13.496,99.641h-38.259l-13.436-99.221  c-2.484-18.342-18.316-32.174-36.825-32.174h-27.268c-18.511,0-34.342,13.832-36.825,32.175l-10.226,75.515  c-0.556,4.104,2.321,7.883,6.426,8.438c4.104,0.552,7.883-2.321,8.439-6.426l10.226-75.515c1.48-10.939,10.921-19.188,21.96-19.188  h27.268c11.038,0,20.479,8.249,21.96,19.188l13.163,97.208H153.846c0,0-13.485-99.577-13.496-99.641  c-5.064-31.296-32.436-31.845-36.571-31.754c-11.765,0.02-21.328,9.596-21.328,21.364v110.031c0,0-41.904,0.317-41.904,40.878  v131.657c0,0-40.547-2.079-40.547,38.506v32.756c0,12.812,6.312,24.795,16.973,31.926c3.977,2.66,8.964,0.129,10.413-2.017  c2.318-3.432,1.416-8.094-2.017-10.413C18.876,410.736,15,403.448,15,395.626v-32.757c0-24.568,26.774-23.506,26.774-23.506  c3.548,11.673,14.409,20.193,27.225,20.193c4.863,0,9.444-1.229,13.452-3.388v33.993c-2.159-9.19-10.406-16.059-20.244-16.059  c-11.478,0-20.814,9.337-20.814,20.814v63.433c0,11.477,9.337,20.814,20.814,20.814s20.813-9.337,20.813-20.814v-15.013  c3.859,27.226,27.307,48.236,55.581,48.236h234.797c28.274,0,51.722-21.011,55.581-48.236v15.013  c0,11.477,9.337,20.814,20.813,20.814c11.478,0,20.814-9.337,20.814-20.814v-24.216c0,0,41.393-0.648,41.393-38.506v-32.758  C512,322.534,471.453,324.363,471.453,324.363z M68.021,458.348c0,3.206-2.608,5.814-5.813,5.814c-3.206,0-5.814-2.608-5.814-5.814  v-63.433c0-3.206,2.608-5.814,5.814-5.814c3.205,0,5.813,2.608,5.813,5.814V458.348z M386.472,54.492  c2.395-18.776,21.526-19.059,21.713-19.059c3.509,0,6.364,2.855,6.364,6.364v110.031h-41.257L386.472,54.492z M97.451,41.797  c0-3.509,2.855-6.364,6.365-6.364c0.187,0,18.396-1.124,21.712,19.06l13.18,97.335H97.451V41.797z M68.999,344.556  c-7.418,0-13.452-6.035-13.452-13.453V192.706c0-14.269,11.608-25.878,25.878-25.878h349.15c14.27,0,25.878,11.609,25.878,25.878  v138.397c0,3.823-1.66,7.489-4.556,10.057c-2.922,2.592-6.672,3.758-10.558,3.295c-6.716-0.807-11.78-6.774-11.791-13.884v-89.756  c0-19.51-15.878-35.383-35.395-35.383H117.847c-19.518,0-35.396,15.873-35.396,35.383v90.288  C82.451,338.521,76.417,344.556,68.999,344.556z M398.527,305.679c0-14.8-4.307-29.119-12.454-41.406  c-2.29-3.452-6.944-4.396-10.396-2.106c-3.452,2.289-4.396,6.943-2.106,10.395c6.514,9.823,9.956,21.274,9.956,33.117  c0,33.092-26.922,60.014-60.014,60.014h-4.226c0.103-1.027,1.361-13.637-5.513-20.959c3.12,0.778,6.381,1.198,9.738,1.198  c22.196,0,40.254-18.058,40.254-40.253s-18.058-40.253-40.254-40.253c-18.006,0-33.287,11.885-38.415,28.221  c-2.277-7.404-7.31-13.608-13.894-17.422c10.552-18.762,30.417-30.56,52.308-30.56c10.195,0,20.263,2.601,29.112,7.521  c3.618,2.012,8.187,0.709,10.199-2.911c2.013-3.62,0.71-8.187-2.91-10.199c-11.074-6.156-23.661-9.41-36.401-9.41  c-28.615,0-54.454,16.135-67.109,41.483c-0.135-0.002-0.674-0.002-0.81,0c-12.655-25.348-38.494-41.483-67.109-41.483  c-41.362,0-75.014,33.651-75.014,75.014v56.817c-0.015,0.551-0.282,8.14-3.546,15.387c-2.825,6.276-6.939,10.262-12.476,12.045  V240.816c0-11.239,9.149-20.383,20.396-20.383h276.308c11.245,0,20.395,9.144,20.395,20.383v89.734h-0.001  c0,0.014,0.001,0.029,0.001,0.043v59.336c-5.535-1.784-9.649-5.77-12.475-12.045c-3.268-7.257-3.531-14.856-3.546-15.389  L398.527,305.679L398.527,305.679z M286.438,321.351c1.642,3.87,3.881,7.426,6.589,10.567c-1.493-0.222-6.589-0.34-6.589-0.34  V321.351z M298.261,305.679c0-13.925,11.328-25.253,25.253-25.253s25.254,11.329,25.254,25.253s-11.329,25.253-25.254,25.253  S298.261,319.604,298.261,305.679z M286.438,346.578c0,0,18.008-1.109,18.008,15.992c0,17.1-18.156,15.992-18.156,15.992  C286.385,377.58,286.438,346.578,286.438,346.578z M328.708,416.153c6.199,0.611,11.416,6.177,11.416,12.479  c0,6.68-5.86,12.54-12.541,12.54h-8.165L328.708,416.153z M299.331,450.97c-0.447,0-13.397-34.878-13.397-34.878h26.796  C312.729,416.092,299.779,450.97,299.331,450.97z M183.293,416.153l9.289,25.019h-8.166c-6.681,0-12.54-5.86-12.54-12.54  C171.877,422.33,177.093,416.763,183.293,416.153z M199.271,416.092h26.796c0,0-12.95,34.878-13.397,34.878  C212.222,450.97,199.271,416.092,199.271,416.092z M242.068,416.092h27.864l9.312,25.08h-46.489L242.068,416.092z M271.438,375.58  c0,8.512-6.925,15.438-15.438,15.438c-8.513,0-15.438-6.925-15.438-15.438v-73.005c0-8.512,6.925-15.438,15.438-15.438  s15.438,6.925,15.438,15.438V375.58z M225.563,331.578c0,0-2.914-0.364-6.589,0.34c2.707-3.141,4.946-6.696,6.589-10.567V331.578z   M188.486,330.932c-13.925,0-25.254-11.329-25.254-25.253s11.329-25.253,25.254-25.253s25.253,11.329,25.253,25.253  S202.411,330.932,188.486,330.932z M207.555,362.57c0-17.322,18.008-15.992,18.008-15.992s0.052,31.002,0.148,31.983  C225.71,378.561,207.555,379.892,207.555,362.57z M226.901,293.647c-5.128-16.337-20.409-28.221-38.415-28.221  c-22.196,0-40.254,18.058-40.254,40.253s18.058,40.253,40.254,40.253c3.358,0,6.618-0.42,9.738-1.198  c-6.339,8.26-5.616,19.931-5.513,20.959h-4.226c-33.092,0-60.014-26.922-60.014-60.014s26.922-60.014,60.014-60.014  c21.891,0,41.756,11.798,52.308,30.56C234.211,280.039,229.177,286.242,226.901,293.647z M184.417,476.572  c-23.265,0-43.115-16.637-47.2-39.56c-0.728-4.078-4.619-6.794-8.7-6.068c-4.077,0.727-6.794,4.622-6.067,8.7  c2.651,14.875,10.367,27.727,21.176,36.928h-5.024c-22.689,0-41.149-18.46-41.149-41.15V405.33  c11.883-2.196,21.105-9.727,26.372-21.784c4.484-10.266,4.644-20.467,4.648-20.976v-11.938c7.021,9.35,16.18,17.001,26.735,22.25  c-12.731,6.684-23.073,17.694-28.895,31.617c-1.599,3.821,0.204,8.215,4.025,9.813c0.945,0.396,7.208,2.116,9.813-4.026  c7.608-17.939,24.894-29.592,44.266-29.592h14.013c5.635,7.788,14.792,12.868,25.117,12.868h7.915  c2.178,2.965,4.88,5.518,7.968,7.531h-55.013c-14.929,0-27.54,12.612-27.54,27.54s12.611,27.54,27.54,27.54h13.752  c2.398,5.964,8.038,9.799,14.502,9.798c6.462,0,12.101-3.835,14.499-9.798h57.662c2.397,5.963,8.036,9.798,14.498,9.798  c0.001,0,0.001,0,0.001,0c6.463,0,12.103-3.834,14.5-9.798h13.751c14.929,0,27.541-12.612,27.541-27.54s-12.612-27.54-27.541-27.54  H272.57c3.088-2.012,5.79-4.566,7.968-7.531h7.915c10.326,0,19.482-5.081,25.117-12.868h14.013  c26.434,0,47.939,21.505,47.939,47.939s-21.506,47.939-47.939,47.939H184.417z M373.398,476.572h-5.099  c13.583-11.554,22.223-28.752,22.223-47.939c0-24.176-13.709-45.199-33.756-55.738c10.567-5.249,19.734-12.906,26.761-22.264v12.019  c0.005,0.429,0.164,10.63,4.648,20.896c5.266,12.058,14.489,19.588,26.371,21.784v30.092  C414.548,458.112,396.088,476.572,373.398,476.572z M455.607,458.348c0,3.206-2.608,5.814-5.814,5.814  c-3.205,0-5.813-2.608-5.813-5.814v-63.433c0-3.206,2.608-5.814,5.813-5.814c3.206,0,5.814,2.608,5.814,5.814V458.348z M497,395.626  c0,22.412-26.393,23.506-26.393,23.506v-24.216c0-11.477-9.337-20.814-20.814-20.814c-9.838,0-18.085,6.869-20.244,16.059v-34.013  c3.034,1.656,6.406,2.769,10.002,3.201c8.088,0.971,16.215-1.568,22.301-6.967c3.977-3.527,6.838-8.052,8.356-13.019  c0,0,26.792-0.931,26.792,23.506V395.626z"/>
<g>
</g>
<g>
</g>
<g>
</g>
<g>
</g>
<g>
</g>
<g>
</g>
<g>
</g>
<g>
</g>
<g>
</g>
<g>
</g>
<g>
</g>
<g>
</g>
<g>
</g>
<g>
</g>
<g>
</g>
</svg>
