<?xml version="1.0" encoding="iso-8859-1"?>
<!-- Generator: Adobe Illustrator 19.0.0, SVG Export Plug-In . SVG Version: 6.00 Build 0)  -->
<svg xmlns="http://www.w3.org/2000/svg" xmlns:xlink="http://www.w3.org/1999/xlink" version="1.1" id="Capa_1" x="0px" y="0px" viewBox="0 0 512 512" style="enable-background:new 0 0 512 512;" xml:space="preserve">
<circle style="fill:#FFC477;" cx="255.99" cy="159.17" r="119.04"/>
<path style="fill:#FFB655;" d="M249.315,122.188c0-30.635,11.576-58.564,30.587-79.66c-7.726-1.576-15.723-2.404-23.914-2.404  c-65.746,0-119.043,53.297-119.043,119.043S190.242,278.21,255.988,278.21c35.111,0,66.667-15.204,88.456-39.382  C290.159,227.756,249.315,179.743,249.315,122.188z"/>
<path style="fill:#FF7956;" d="M255.988,245.028c-47.345,0-85.861-38.517-85.861-85.861s38.517-85.861,85.861-85.861  s85.861,38.517,85.861,85.861S303.332,245.028,255.988,245.028z"/>
<path style="fill:#FF6243;" d="M249.315,122.188c0-17.385,3.729-33.898,10.427-48.787c-1.246-0.054-2.495-0.095-3.754-0.095  c-47.344,0-85.861,38.517-85.861,85.861s38.517,85.861,85.861,85.861c20.414,0,39.176-7.173,53.928-19.115  C273.742,205.488,249.315,166.693,249.315,122.188z"/>
<path style="fill:#933EC5;" d="M102.69,467.77c0,0,35.106,36.73,153.298,36.73s153.298-36.73,153.298-36.73  s13.983-50.247-43.515-133.848c0.601,0,0.931-77.926,0.931-77.926l-224.964,1.046l-10.211,88.893  C131.526,345.935,91.272,406.415,102.69,467.77z"/>
<path style="fill:#6D2C93;" d="M249.784,256.54l-108.048,0.502l-10.211,88.893c0,0-40.254,60.48-28.836,121.836  c0,0,26.531,27.739,111.063,35.002C201.671,407.014,222.645,321.795,249.784,256.54z"/>
<path style="fill:#FFFFFF;" d="M270.703,437.62h-29.431c-7.102,0-12.913-5.811-12.913-12.913l0,0  c0-7.102,5.811-12.913,12.913-12.913h29.431c7.102,0,12.913,5.811,12.913,12.913l0,0C283.616,431.809,277.805,437.62,270.703,437.62  z"/>
<path style="fill:#D1E7F8;" d="M250.028,424.706c0-7.102,5.811-12.913,12.914-12.913h-21.67c-7.102,0-12.913,5.811-12.913,12.913  s5.811,12.913,12.913,12.913h21.67C255.84,437.62,250.028,431.809,250.028,424.706z"/>
<path style="fill:#FFFFFF;" d="M270.703,481.703h-29.431c-7.102,0-12.913-5.811-12.913-12.913l0,0  c0-7.102,5.811-12.913,12.913-12.913h29.431c7.102,0,12.913,5.811,12.913,12.913l0,0  C283.617,475.892,277.805,481.703,270.703,481.703z"/>
<g>
	<path style="fill:#D1E7F8;" d="M250.029,468.79c0-7.102,5.811-12.913,12.914-12.913h-21.67c-7.102,0-12.913,5.811-12.913,12.913   s5.811,12.913,12.913,12.913h21.67C255.84,481.703,250.029,475.892,250.029,468.79z"/>
	<path style="fill:#D1E7F8;" d="M270.947,383.537h-29.919c-23.303,0-42.369-19.066-42.369-42.369v-60.453   c0-23.303,19.066-42.369,42.369-42.369h29.919c23.303,0,42.369,19.066,42.369,42.369v60.453   C313.316,364.471,294.25,383.537,270.947,383.537z"/>
</g>
<path style="fill:#B9D8F4;" d="M233.754,341.168v-60.453c0-22.434,17.672-40.932,39.781-42.282  c-0.857-0.052-1.719-0.087-2.588-0.087h-29.919c-23.303,0-42.369,19.066-42.369,42.369v60.453c0,23.303,19.066,42.369,42.369,42.369  h29.919c0.87,0,1.731-0.035,2.588-0.087C251.426,382.099,233.754,363.601,233.754,341.168z"/>
<path style="fill:#FFFFFF;" d="M341.329,265.607c-1.756-3.502-1.915-7.581-0.645-11.288c3.131-9.138,4.825-18.942,4.811-29.145  c-0.071-48.945-41.087-89.369-89.508-89.369s-89.436,40.423-89.508,89.369c-0.015,10.203,1.68,20.007,4.811,29.145  c1.27,3.707,1.111,7.785-0.645,11.288c-2.663,5.311-4.166,11.305-4.166,17.652c0,34.348,28.004,38.892,39.827,39.231  c3.155,0.09,5.925,2.126,6.996,5.095l1.217,3.375c1.481,4.105,5.376,6.842,9.74,6.842h63.453c4.364,0,8.26-2.736,9.741-6.842  l1.217-3.375c1.071-2.969,3.841-5.004,6.996-5.095c11.823-0.339,39.827-4.882,39.827-39.231  C345.495,276.912,343.993,270.918,341.329,265.607z"/>
<path style="fill:#D1E7F8;" d="M222.802,305.747c-56.036-57.6,33.186-146.58,33.186-146.58v-23.362l0,0  c-48.42,0-89.436,40.423-89.508,89.369c-0.015,10.203,1.68,20.007,4.811,29.145c1.27,3.707,1.111,7.785-0.645,11.288  c-2.663,5.311-4.166,11.305-4.166,17.652c0,34.348,28.004,38.891,39.828,39.231c3.155,0.091,5.925,2.126,6.996,5.095l1.217,3.375  c1.481,4.105,5.376,6.842,9.74,6.842h9.3c-1.274-6.229-2.704-13.284-3.745-18.6C228.825,314.134,226.403,309.448,222.802,305.747z"/>
<path style="fill:#57565C;" d="M269.019,306.705c0,7.197-5.834,8.688-13.032,8.688c-7.197,0-13.032-1.491-13.032-8.688  s5.834-24.326,13.032-24.326C263.185,282.38,269.019,299.508,269.019,306.705z"/>
<path style="fill:#3E3D42;" d="M255.359,307.025c0-4.999,2.816-14.785,6.947-20.299c-1.872-2.603-4.026-4.346-6.319-4.346  c-7.197,0-13.031,17.128-13.031,24.326s5.834,8.688,13.031,8.688c1.97,0,3.831-0.119,5.505-0.429  C257.814,313.945,255.359,311.685,255.359,307.025z"/>
<g>
	<path style="fill:#57565C;" d="M217.758,290.01c-10.96,3.881-22.99-1.858-26.871-12.818s1.858-22.99,12.818-26.87   c10.96-3.881,32.579-1.537,36.459,9.422C244.045,270.703,228.718,286.129,217.758,290.01z"/>
	<path style="fill:#57565C;" d="M294.219,290.01c10.96,3.881,22.99-1.858,26.871-12.818s-1.858-22.99-12.818-26.87   s-32.579-1.537-36.46,9.422C267.932,270.703,283.259,286.129,294.219,290.01z"/>
</g>
<g>
	<path style="fill:#3E3D42;" d="M210.435,277.192c-3.881-10.96,1.858-22.99,12.817-26.87c0.695-0.246,1.434-0.467,2.208-0.662   c-7.472-1.686-16.054-1.356-21.755,0.662c-10.959,3.881-16.698,15.911-12.818,26.87s15.911,16.698,26.87,12.818   c0.906-0.321,1.845-0.728,2.798-1.198C215.999,286.437,212.285,282.418,210.435,277.192z"/>
	<path style="fill:#3E3D42;" d="M291.359,259.751c1.862-5.259,7.812-8.529,14.705-10.084c-11.424-2.886-30.617-0.18-34.252,10.084   c-3.881,10.96,11.447,26.385,22.406,30.266c5.734,2.03,11.75,1.408,16.749-1.198C300.4,283.608,287.799,269.804,291.359,259.751z"/>
</g>
<path style="fill:#B87FD9;" d="M409.409,375.289c-21.24-68.749-16.909-71.001-15.285-126.715s-37.004-135.29-138.137-135.29  c-101.132,0-139.76,79.576-138.136,135.29s5.955,57.966-15.285,126.715c-20.716,67.053,0.124,92.482,0.124,92.482  c-1.587-26.494,12.788-51.858,12.788-51.858l13.741-22.76l13.533-42.224l49.802-161.858l63.433-23.277l63.433,23.277l49.803,161.858  l13.533,42.224l13.741,22.76c0,0,14.376,25.364,12.788,51.858C409.285,467.77,430.124,442.342,409.409,375.289z"/>
<path style="fill:#A258CD;" d="M278.885,114.739c-7.247-0.95-14.874-1.455-22.897-1.455c-101.132,0-139.76,79.576-138.136,135.29  s5.955,57.966-15.285,126.715c-20.716,67.053,0.124,92.482,0.124,92.482c-1.588-26.494,12.788-51.858,12.788-51.858l13.741-22.76  l13.533-42.224l49.802-161.858l41.4-15.192C232.125,117.514,278.413,114.765,278.885,114.739z"/>
<path style="fill:#FFEB99;" d="M367.773,291.223c-9.778-100.208-71.027-142.211-111.787-142.211S153.98,191.014,144.202,291.223  c-9.778,100.21-28.724,124.69-28.724,124.69s31.779-28.112,43.391-91.919c10.836-63.902,35.617-103.252,57.433-126.522  c21.507-22.939,57.864-22.939,79.371,0c21.816,23.27,46.597,62.62,57.433,126.522c11.612,63.806,43.391,91.919,43.391,91.919  S377.551,391.433,367.773,291.223z"/>
<path style="fill:#FFDA44;" d="M236.041,152.04c-38.395,11.232-83.561,54.346-91.839,139.182  c-9.778,100.21-28.724,124.69-28.724,124.69s31.779-28.112,43.391-91.919c10.836-63.902,35.617-103.252,57.433-126.522  c5.391-5.75,11.715-10.057,18.505-12.925v-0.001C233.153,171.386,233.855,160.712,236.041,152.04z"/>
<path d="M270.703,404.293h-29.432c-11.256,0-20.413,9.158-20.413,20.414s9.157,20.414,20.413,20.414h29.432  c11.256,0,20.413-9.158,20.413-20.414S281.959,404.293,270.703,404.293z M270.703,430.12h-29.432c-2.984,0-5.413-2.429-5.413-5.414  s2.429-5.414,5.413-5.414h29.432c2.984,0,5.413,2.429,5.413,5.414S273.688,430.12,270.703,430.12z"/>
<path d="M270.703,448.376h-29.431c-11.257,0-20.414,9.158-20.414,20.414s9.157,20.414,20.414,20.414h29.431  c11.256,0,20.413-9.158,20.413-20.414S281.959,448.376,270.703,448.376z M270.703,474.203h-29.431c-2.985,0-5.414-2.429-5.414-5.414  s2.429-5.414,5.414-5.414h29.431c2.984,0,5.413,2.429,5.413,5.414S273.688,474.203,270.703,474.203z"/>
<path d="M255.987,274.88c-14.354,0-20.531,24.154-20.531,31.826c0,6.045,2.667,16.188,20.531,16.188  c17.864,0,20.531-10.142,20.531-16.188C276.519,299.034,270.342,274.88,255.987,274.88z M261.49,307.222  c-0.497,0.218-1.956,0.671-5.503,0.671c-3.547,0-5.006-0.453-5.503-0.671c-0.015-0.12,0.925-10.493,5.503-16.524  C259.687,294.593,261.505,307.102,261.49,307.222z"/>
<path d="M416.575,373.075c-17.69-57.257-17.283-66.825-15.771-102.423c0.269-6.328,0.573-13.5,0.817-21.859  c0.765-26.249-6.428-52.963-19.858-75.766c0.24-2.2,0.425-4.411,0.55-6.631h25.341c4.143,0,7.5-3.358,7.5-7.5s-3.357-7.5-7.5-7.5  h-25.37c-0.719-11.805-3.062-23.177-6.811-33.897l9.294-3.85c3.827-1.585,5.645-5.973,4.059-9.799  c-1.585-3.827-5.972-5.646-9.799-4.059l-9.34,3.869c-5.118-10.442-11.634-20.078-19.302-28.668l17.958-17.958  c2.929-2.929,2.929-7.678,0-10.606c-2.93-2.929-7.678-2.929-10.607,0l-17.98,17.981c-8.621-7.63-18.282-14.109-28.748-19.183  l3.854-9.305c1.586-3.827-0.231-8.214-4.059-9.799c-3.824-1.584-8.214,0.232-9.799,4.059l-3.861,9.321  c-10.734-3.702-22.116-5.997-33.927-6.665V7.5c0-4.142-3.357-7.5-7.5-7.5c-4.143,0-7.5,3.358-7.5,7.5v25.37  c-11.806,0.719-23.178,3.062-33.898,6.812l-3.85-9.294c-1.585-3.827-5.972-5.644-9.799-4.059s-5.645,5.973-4.059,9.799l3.869,9.34  c-10.442,5.119-20.078,11.634-28.668,19.301l-17.958-17.958c-2.93-2.929-7.678-2.929-10.607,0s-2.929,7.678,0,10.606l17.981,17.981  c-7.63,8.621-14.109,18.282-19.183,28.748l-9.305-3.854c-3.825-1.584-8.213,0.231-9.799,4.059c-1.586,3.827,0.231,8.214,4.059,9.799  l9.321,3.861c-3.702,10.734-5.997,22.116-6.665,33.927H104.32c-4.143,0-7.5,3.358-7.5,7.5s3.357,7.5,7.5,7.5h25.369  c0.114,1.885,0.26,3.766,0.456,5.628l0.357-0.038c-13.619,22.911-20.92,49.824-20.149,76.264c0.244,8.36,0.549,15.532,0.817,21.859  c1.512,35.598,1.919,45.166-15.771,102.423c-21.655,70.098,1.868,99.878,1.868,99.878C98.792,474.547,135.97,512,255.987,512  s158.712-39.055,158.712-39.055C414.831,472.808,438.231,443.172,416.575,373.075z M255.987,47.624  c59.393,0,108.088,46.662,111.362,105.251c-1.697-1.967-3.443-3.889-5.25-5.749c-26.27-27.046-62.962-41.342-106.112-41.342  c-25.044,0-47.906,4.825-67.825,14.155c13.757-23.754,39.379-39.133,67.825-39.133c23.758,0,45.983,10.643,60.977,29.2  c2.604,3.221,7.324,3.725,10.548,1.121c3.222-2.604,3.723-7.326,1.12-10.547c-17.855-22.099-44.333-34.773-72.645-34.773  c-41.443,0-77.865,27.394-89.536,66.94c-5.902,4.301-11.441,9.094-16.576,14.381c-1.807,1.86-3.553,3.781-5.25,5.749  C147.9,94.287,196.594,47.624,255.987,47.624z M109.732,377.502c18.454-59.732,17.984-70.804,16.426-107.487  c-0.267-6.281-0.569-13.4-0.81-21.661c-0.745-25.554,8.134-62.821,35.287-90.777c23.379-24.07,56.352-36.793,95.353-36.793  s71.974,12.723,95.353,36.793c27.153,27.956,36.032,65.223,35.287,90.777c-0.24,8.26-0.543,15.379-0.81,21.661  c-1.559,36.683-2.028,47.754,16.426,107.487c6.97,22.561,9.001,40.068,8.771,53.2c-2.989-8.799-13.31-26.437-18.654-43.698  c-5.133-16.577-12.271-46.777-17.123-96.51c-5.744-58.869-28.334-93.992-46.272-113.09c-21.111-22.475-48.393-35.893-72.979-35.893  c-27.096,0-68.373,17.62-95.532,67.277c-1.987,3.634-0.653,8.191,2.981,10.179c3.634,1.989,8.192,0.653,10.179-2.981  c24.009-43.898,59.379-59.474,82.372-59.474c20.521,0,43.716,11.649,62.045,31.162c16.343,17.398,36.943,49.612,42.276,104.277  c2.338,23.953,5.344,45.332,8.989,63.964c-3.456-9.684-6.531-20.724-8.797-33.175c-11.479-67.693-38.613-108.274-59.355-130.398  c-11.835-12.623-27.872-19.575-45.157-19.575s-33.322,6.952-45.157,19.575c-20.742,22.124-47.877,62.705-59.34,130.309  c-2.269,12.466-5.347,23.522-8.803,33.215c3.641-18.621,6.644-39.982,8.979-63.915c1.627-16.677,4.811-32.404,9.461-46.745  c1.278-3.94-0.88-8.17-4.82-9.448c-3.935-1.274-8.17,0.88-9.447,4.82c-4.985,15.369-8.391,32.163-10.123,49.916  c-9.121,93.474-23.991,114.487-27.226,120.873c-3.234,6.386-5.56,10.527-8.552,19.336  C100.731,417.57,102.762,400.063,109.732,377.502z M305.453,314.992c-6.27,0.18-11.701,4.124-13.836,10.046l-1.219,3.376  c-0.406,1.128-1.485,1.886-2.685,1.886H224.26c-1.199,0-2.278-0.758-2.686-1.887l-1.217-3.374  c-2.136-5.925-7.567-9.869-13.837-10.048c-10.654-0.306-28.988-3.942-32.066-24.861c0,0,5.046-16.355,7.962-23.679  c-0.583,4.411-0.127,8.928,1.401,13.244c4.144,11.701,15.182,19.023,26.94,19.023c3.155,0,6.364-0.527,9.503-1.639  c12.869-4.557,32.885-23.143,26.975-39.839c-5.913-16.696-33.166-18.545-46.033-13.988c-4.936,1.748-9.201,4.743-12.453,8.677  c10.636-22.292,22.686-38.3,33.024-49.327c8.969-9.566,21.119-14.834,34.214-14.834c13.095,0,25.245,5.268,34.214,14.834  c10.334,11.022,22.378,27.021,33.013,49.312c-3.25-3.926-7.51-6.917-12.44-8.662c-12.867-4.558-40.119-2.708-46.033,13.989  c-5.91,16.696,14.105,35.282,26.975,39.839c3.14,1.112,6.347,1.639,9.503,1.639c11.758,0,22.797-7.323,26.94-19.023  c1.525-4.307,1.982-8.814,1.404-13.217c2.918,7.334,7.948,23.713,7.948,23.713C334.407,311.06,316.094,314.687,305.453,314.992z   M198.5,264.331c1.559-3.267,4.296-5.731,7.708-6.939c2.586-0.916,5.758-1.327,9.009-1.327c8.05,0,16.583,2.526,17.878,6.182  c1.817,5.134-8.854,17.511-17.84,20.693c-7.049,2.493-14.804-1.208-17.297-8.251C196.749,271.277,196.943,267.598,198.5,264.331z   M314.02,274.689c-2.495,7.043-10.252,10.743-17.298,8.251c-8.986-3.182-19.657-15.56-17.841-20.693  c1.819-5.133,17.898-8.037,26.888-4.855c3.412,1.208,6.149,3.673,7.708,6.939C315.034,267.598,315.228,271.277,314.02,274.689z   M255.987,497c-32.504,0-79.154-3.001-116.81-17.3c-16.387-6.222-25.408-12.485-29.099-15.427  c-0.202-20.14,9.161-39.378,11.429-43.734c5.876-5.679,33.851-35.365,44.756-95.292c0.686-4.044,1.43-7.983,2.226-11.822  c5.489,6.852,13.193,11.772,22.668,14.396v13.345c0,27.498,22.371,49.869,49.869,49.869h29.92c4.577,0,9.121-0.628,13.503-1.868  c3.986-1.127,6.303-5.272,5.176-9.258c-1.128-3.986-5.277-6.302-9.258-5.175c-3.055,0.864-6.224,1.302-9.421,1.302h-29.92  c-19.227,0-34.869-15.642-34.869-34.869v-11.151c0.036,0.024,0.07,0.059,0.09,0.113l1.217,3.375  c2.545,7.056,9.295,11.797,16.796,11.797h63.453c7.501,0,14.251-4.741,16.795-11.796l1.219-3.377  c0.019-0.053,0.053-0.087,0.089-0.111v11.151c0,6.84-2.007,13.475-5.803,19.188c-2.292,3.45-1.354,8.105,2.097,10.397  c1.276,0.849,7.375,2.744,10.397-2.096c5.202-8.331,8.309-17.687,8.309-27.489v-13.345c9.473-2.625,17.177-7.544,22.666-14.394  c0.803,3.866,1.553,7.833,2.244,11.909c10.895,59.869,38.885,89.547,44.746,95.209c2.281,4.356,11.635,23.502,11.423,43.727  c-3.69,2.941-12.711,9.205-29.099,15.428C335.142,493.999,288.491,497,255.987,497z"/>
<g>
</g>
<g>
</g>
<g>
</g>
<g>
</g>
<g>
</g>
<g>
</g>
<g>
</g>
<g>
</g>
<g>
</g>
<g>
</g>
<g>
</g>
<g>
</g>
<g>
</g>
<g>
</g>
<g>
</g>
</svg>
