<?xml version="1.0" encoding="iso-8859-1"?>
<!-- Generator: Adobe Illustrator 19.0.0, SVG Export Plug-In . SVG Version: 6.00 Build 0)  -->
<svg xmlns="http://www.w3.org/2000/svg" xmlns:xlink="http://www.w3.org/1999/xlink" version="1.1" id="Capa_1" x="0px" y="0px" viewBox="0 0 512 512" style="enable-background:new 0 0 512 512;" xml:space="preserve">
<path style="fill:#B9D8F4;" d="M256,504.5c-54.326,0-98.775-44.449-98.775-98.775v-26.292c0-54.326,43.079-98.775,98.775-98.775  s98.775,44.449,98.775,98.775v26.292C354.775,460.051,310.326,504.5,256,504.5z"/>
<path style="fill:#96C8EF;" d="M223.997,418.639V285.831c-39.361,13.218-66.773,50.267-66.773,93.602v26.292  c0,54.326,44.449,98.775,98.775,98.775C214,476,223.997,418.639,223.997,418.639z"/>
<path style="fill:#FF728B;" d="M256,456.123c-19.226,0-34.812,15.586-34.812,34.812c0,2.576,0.288,5.084,0.819,7.5  c10.611,3.92,22.063,6.065,33.992,6.065c11.929,0,23.382-2.145,33.993-6.065c0.531-2.417,0.819-4.924,0.819-7.5  C290.812,471.709,275.226,456.123,256,456.123z"/>
<circle style="fill:#00EED1;" cx="256" cy="487.1" r="7.5"/>
<path style="fill:#FF3F62;" d="M228.876,469.124c-4.805,5.969-7.688,13.551-7.688,21.81c0,2.576,0.288,5.084,0.819,7.5  c10.611,3.92,22.063,6.065,33.992,6.065C241.835,494.888,233.59,481.994,228.876,469.124z"/>
<path style="fill:#D1E7F8;" d="M428.964,270.572c-3.559-7.099-3.88-15.365-1.307-22.877c6.345-18.52,9.78-38.391,9.75-59.069  C437.262,89.427,356.098,7.5,256,7.5S74.737,89.427,74.593,188.626c-0.03,20.679,3.405,40.549,9.75,59.069  c2.574,7.512,2.253,15.779-1.307,22.877c-5.398,10.765-8.443,22.912-8.443,35.775c0,69.615,56.757,78.822,80.719,79.51h15.351  C188.561,407.999,220.089,422.7,256,422.7s67.439-14.701,85.336-36.843h15.351c23.962-0.687,80.719-9.895,80.719-79.51  C437.407,293.484,434.362,281.337,428.964,270.572z"/>
<path style="fill:#B9D8F4;" d="M74.593,188.626c-0.03,20.679,3.405,40.549,9.75,59.069c2.574,7.512,2.253,15.779-1.307,22.877  c-5.398,10.765-8.443,22.912-8.443,35.775c0,69.615,56.757,78.822,80.719,79.51h15.351c12.323,15.245,31.107,26.961,53.334,32.782  c-12.049-13.486-15.949-32.899-17.211-47.088c-1.089-12.248-5.31-24.014-12.349-34.096C90.83,189.048,160.319,34.98,160.323,34.973  C108.929,67.125,74.687,124.231,74.593,188.626z"/>
<path style="fill:#57565C;" d="M282.411,353.867c0,14.587-11.825,17.607-26.411,17.607c-14.586,0-26.411-3.021-26.411-17.607  c0-14.587,11.825-49.301,26.411-49.301C270.586,304.566,282.411,339.281,282.411,353.867z"/>
<path style="fill:#3E3D42;" d="M256,354.731c0-9.899,5.449-29.057,13.508-40.355c-3.953-5.827-8.571-9.81-13.508-9.81  c-14.587,0-26.411,34.715-26.411,49.301c0,14.587,11.825,17.607,26.411,17.607c4.116,0,8.012-0.241,11.485-0.914  C260.55,368.373,256,363.778,256,354.731z"/>
<g>
	<path style="fill:#57565C;" d="M178.52,320.03c-22.212,7.865-46.594-3.766-54.459-25.978s3.766-46.594,25.977-54.459   s66.028-3.116,73.893,19.096C231.797,280.901,200.732,312.165,178.52,320.03z"/>
	<path style="fill:#57565C;" d="M333.484,320.03c22.212,7.865,46.594-3.766,54.459-25.978s-3.766-46.594-25.977-54.459   c-22.212-7.865-66.028-3.116-73.893,19.096C280.207,280.901,311.272,312.165,333.484,320.03z"/>
</g>
<g>
	<path style="fill:#3E3D42;" d="M148.541,240.166c-21.229,8.412-32.167,32.181-24.481,53.886   c7.865,22.212,32.247,33.842,54.459,25.977c1.195-0.423,2.416-0.918,3.654-1.471l0,0   C135.735,291.579,148.42,240.647,148.541,240.166z"/>
	<path style="fill:#3E3D42;" d="M318.668,238.08c-14.306,3.078-26.751,9.753-30.596,20.613c-7.865,22.212,23.2,53.475,45.412,61.34   c9.589,3.396,19.581,3.15,28.476-0.004C308.737,291.051,318.577,238.562,318.668,238.08z"/>
</g>
<circle style="fill:#00EED1;" cx="407.38" cy="314.86" r="7.5"/>
<circle style="fill:#FFE477;" cx="384.44" cy="341.45" r="7.5"/>
<circle style="fill:#FF728B;" cx="344.18" cy="345.65" r="7.5"/>
<path style="fill:#00DDC2;" d="M277.75,183.462c0,12.011-9.737,54.25-21.748,54.25c-12.011,0-21.748-42.239-21.748-54.25  s9.737-21.748,21.748-21.748S277.75,171.451,277.75,183.462z"/>
<path style="fill:#00CCB3;" d="M256.002,183.462c0-8.048,4.375-15.07,10.874-18.831c-3.2-1.852-6.911-2.917-10.874-2.917  c-12.011,0-21.748,9.737-21.748,21.748s9.737,54.25,21.748,54.25c3.961,0,7.675-4.596,10.874-11.185  C260.375,213.137,256.002,191.512,256.002,183.462z"/>
<g>
	<path style="fill:#FFE477;" d="M191.397,203.387c-3.317-11.61-10.676-27.962-24.625-40.603   c-24.893-22.561-16.737-55.309-8.947-69.473c1.997-3.629,6.558-4.952,10.186-2.958c3.629,1.997,4.954,6.557,2.958,10.186   c-0.669,1.235-16.393,30.946,5.877,51.129c16.478,14.933,24.808,33.979,28.895,47.326c1.213,3.961-1.015,8.155-4.976,9.367   C200.033,208.586,193.29,210.012,191.397,203.387z"/>
	<path style="fill:#FFE477;" d="M320.603,203.387c3.317-11.61,10.676-27.962,24.625-40.603   c24.893-22.561,16.737-55.309,8.947-69.473c-1.997-3.629-6.558-4.952-10.186-2.958c-3.629,1.997-4.954,6.557-2.958,10.186   c0.669,1.235,16.393,30.946-5.877,51.129c-16.478,14.933-24.808,33.979-28.895,47.326c-1.213,3.961,1.015,8.155,4.976,9.367   C311.967,208.586,318.71,210.012,320.603,203.387z"/>
</g>
<path style="fill:#91DC5A;" d="M146.262,178.268c4.45,6.037,15.204,30.876,9.166,35.326c-6.037,4.45-26.58-13.175-31.03-19.212  s-3.163-14.539,2.875-18.989C133.311,170.944,141.813,172.231,146.262,178.268z"/>
<path style="fill:#6DC82A;" d="M137.919,172.997c-3.598-0.699-7.463,0.038-10.646,2.384c-6.037,4.45-7.325,12.951-2.875,18.989  c2.518,3.416,10.187,10.54,17.467,15.277C139.762,197.047,138.506,184.79,137.919,172.997z"/>
<path style="fill:#91DC5A;" d="M365.737,178.268c-4.45,6.037-15.204,30.876-9.166,35.326c6.037,4.45,26.58-13.175,31.03-19.212  s3.163-14.539-2.875-18.989S370.187,172.231,365.737,178.268z"/>
<path style="fill:#FF728B;" d="M266.323,59.811c20.645-49.842-41.291-49.842-20.645,0c-20.645-49.842-64.441-6.047-14.598,14.598  c-49.842-20.645-49.842,41.291,0,20.645c-49.842,20.645-6.047,64.441,14.598,14.598c-20.645,49.842,41.291,49.842,20.645,0  c20.645,49.842,64.441,6.047,14.598-14.598c49.842,20.645,49.842-41.291,0-20.645C330.763,53.764,286.968,9.969,266.323,59.811z"/>
<path style="fill:#FF3F62;" d="M294.261,102.667c-3.392-2.717-7.78-5.309-13.34-7.612c5.564,2.305,10.503,3.575,14.825,4.051  c1.629-4.489,2.52-9.329,2.52-14.373c0-5.045-0.892-9.884-2.52-14.374c-4.322,0.476-9.261,1.746-14.825,4.051  c5.56-2.303,9.948-4.895,13.34-7.612c-4.195-8.914-11.412-16.13-20.326-20.326c-2.717,3.392-5.309,7.78-7.612,13.34  c2.305-5.564,3.575-10.503,4.051-14.825c-4.489-1.628-9.329-2.52-14.374-2.52s-9.884,0.891-14.373,2.52  c0.476,4.322,1.746,9.261,4.051,14.825c-2.303-5.56-4.895-9.948-7.612-13.34c-8.914,4.195-16.131,11.412-20.326,20.326  c3.392,2.717,7.78,5.309,13.34,7.612c-5.564-2.305-10.503-3.575-14.825-4.051c-1.628,4.489-2.52,9.329-2.52,14.374  s0.891,9.884,2.52,14.373c4.322-0.476,9.261-1.746,14.825-4.051c-5.56,2.303-9.948,4.895-13.34,7.612  c4.195,8.914,11.412,16.131,20.326,20.326c2.717-3.392,5.309-7.78,7.612-13.34c-2.305,5.564-3.575,10.503-4.051,14.825  c4.489,1.628,9.329,2.52,14.374,2.52c5.045,0,9.884-0.891,14.374-2.52c-0.476-4.322-1.746-9.261-4.051-14.825  c2.303,5.56,4.895,9.948,7.612,13.34C282.848,118.797,290.065,111.58,294.261,102.667z"/>
<circle style="fill:#FFE477;" cx="256" cy="84.73" r="20.266"/>
<circle style="fill:#00CCB3;" cx="104.62" cy="314.86" r="7.5"/>
<circle style="fill:#FFCD00;" cx="127.56" cy="341.45" r="7.5"/>
<circle style="fill:#FF3F62;" cx="167.82" cy="345.65" r="7.5"/>
<path d="M233.763,374.742c5.353,2.888,12.419,4.233,22.237,4.233c9.818,0,16.884-1.345,22.236-4.233  c5.326-2.874,11.675-8.827,11.675-20.875c0-8.822-3.379-22.175-8.409-33.227c-7.019-15.422-15.837-23.574-25.502-23.574  c-9.665,0-18.483,8.152-25.502,23.574c-5.03,11.052-8.41,24.405-8.41,33.227C222.088,365.915,228.437,371.869,233.763,374.742z   M244.15,326.854c4.938-10.85,9.792-14.788,11.85-14.788c2.058,0,6.912,3.938,11.85,14.787c4.636,10.188,7.062,21.301,7.062,27.014  c0,4.503,0,10.107-18.911,10.107c-18.912,0-18.912-5.604-18.912-10.107C237.088,348.154,239.514,337.041,244.15,326.854z"/>
<path d="M434.752,250.126c6.77-19.759,10.187-40.454,10.155-61.511c-0.042-28.606-6.412-56.15-18.934-81.867  c-1.813-3.724-6.304-5.272-10.026-3.46c-3.725,1.813-5.273,6.302-3.46,10.026c11.521,23.661,17.382,49.002,17.42,75.322  c0.028,19.392-3.116,38.444-9.346,56.628c-3.27,9.547-2.651,19.997,1.698,28.669c5.074,10.12,7.647,21.025,7.647,32.413  c0,27.385-9.4,47.336-27.94,59.301c-16.04,10.351-35.278,12.409-45.39,12.709h-15.241c-2.266,0-4.409,1.024-5.833,2.785  c-4.604,5.696-10.106,10.772-16.307,15.163v-1.948c0-4.125-3.375-7.5-7.5-7.5s-7.5,3.375-7.5,7.5v10.604  c-6.746,3.124-13.997,5.582-21.601,7.305v-5.064c0-4.125-3.375-7.5-7.5-7.5s-7.5,3.375-7.5,7.5v7.449  c-3.813,0.361-7.683,0.549-11.595,0.549c-3.912,0-7.781-0.189-11.595-0.549v-7.449c0-4.125-3.375-7.5-7.5-7.5s-7.5,3.375-7.5,7.5  v5.064c-7.604-1.723-14.855-4.181-21.601-7.305v-10.604c0-4.125-3.375-7.5-7.5-7.5s-7.5,3.375-7.5,7.5v1.948  c-6.201-4.391-11.703-9.467-16.307-15.163c-1.424-1.761-3.568-2.785-5.833-2.785h-15.242c-10.111-0.3-29.35-2.358-45.389-12.709  c-18.54-11.964-27.94-31.916-27.94-59.301c0-11.388,2.573-22.293,7.648-32.413c4.349-8.674,4.968-19.124,1.697-28.669  c-6.229-18.183-9.373-37.235-9.345-56.628c0.067-46.079,18.189-89.575,51.029-122.475C165.564,33.66,208.4,15.557,253.939,15.025  c-3.697,0.38-7.323,1.772-10.489,4.201c-2.188,1.68-6.795,6.057-8.711,14.175c-7.095-4.385-13.449-4.224-16.183-3.864  c-9.381,1.235-16.514,8.368-17.749,17.749c-0.36,2.735-0.521,9.088,3.864,16.184c-8.118,1.917-12.496,6.522-14.175,8.711  c-5.76,7.506-5.76,17.594,0,25.1c1.68,2.189,6.056,6.796,14.175,8.712c-4.385,7.095-4.223,13.448-3.863,16.183  c1.235,9.381,8.368,16.514,17.749,17.749c2.735,0.359,9.088,0.522,16.183-3.864c1.917,8.118,6.523,12.496,8.712,14.176  c2.96,2.271,6.322,3.632,9.768,4.112c-14.826,1.407-26.464,13.924-26.464,29.112c0,7.583,2.897,22.181,6.74,33.956  c6.103,18.703,13.465,27.794,22.508,27.794s16.405-9.091,22.508-27.794c3.843-11.775,6.74-26.373,6.74-33.956  c0-15.189-11.64-27.707-26.467-29.112c3.446-0.48,6.807-1.841,9.767-4.113c2.188-1.679,6.795-6.057,8.712-14.175  c7.096,4.385,13.449,4.222,16.184,3.863c9.381-1.235,16.514-8.368,17.748-17.749c0.36-2.735,0.521-9.088-3.863-16.183  c8.118-1.917,12.496-6.523,14.176-8.712c5.76-7.506,5.76-17.594,0-25.1c-1.68-2.189-6.056-6.796-14.176-8.711  c4.385-7.096,4.224-13.448,3.863-16.183c-1.234-9.381-8.367-16.514-17.748-17.749c-2.739-0.362-9.089-0.521-16.184,3.863  c-1.917-8.118-6.523-12.496-8.712-14.175c-3.154-2.42-6.764-3.81-10.446-4.196c26.946,0.316,52.741,6.679,76.696,18.961  c23.402,11.998,44.182,29.498,60.092,50.606c2.494,3.308,7.193,3.969,10.504,1.475c3.308-2.493,3.968-7.196,1.475-10.503  c-17.266-22.907-39.82-41.9-65.227-54.926C314.926,6.945,286.111,0,256,0c-50.319,0-97.729,19.733-133.494,55.565  c-35.661,35.726-55.34,82.978-55.413,133.05c-0.031,21.058,3.386,41.753,10.154,61.511c1.974,5.761,1.64,11.988-0.916,17.084  c-6.131,12.225-9.239,25.393-9.239,39.137c0,32.808,11.711,57,34.807,71.904c19.156,12.362,41.552,14.768,53.197,15.103  c0.071,0.002,0.143,0.003,0.215,0.003h11.866c7.13,8.123,15.818,15.079,25.626,20.693v11.305c0,4.125,3.375,7.5,7.5,7.5  s7.5-3.375,7.5-7.5v-4.117c6.866,2.712,14.102,4.844,21.601,6.346V438.2c0,4.125,3.375,7.5,7.5,7.5s7.5-3.375,7.5-7.5v-8.496  c3.825,0.324,7.692,0.498,11.595,0.498c3.903,0,7.77-0.174,11.595-0.498v8.496c0,4.125,3.375,7.5,7.5,7.5s7.5-3.375,7.5-7.5v-10.616  c7.499-1.501,14.735-3.634,21.601-6.346v4.117c0,4.125,3.375,7.5,7.5,7.5s7.5-3.375,7.5-7.5V414.05  c9.808-5.614,18.496-12.569,25.626-20.692h2.453v12.368c0,35.154-19.979,65.725-49.177,80.968  c-2.135-21.346-20.199-38.07-42.099-38.07c-21.855,0-39.891,16.656-42.086,37.94c-25.267-13.271-43.927-38.062-48.243-67.724  c-0.596-4.099-4.398-6.94-8.502-6.342c-4.099,0.597-6.938,4.403-6.342,8.502c7.551,51.878,52.765,91,105.175,91  c58.601,0,106.275-47.675,106.275-106.275v-12.648c12.366-0.907,31.297-4.16,47.824-14.825  c23.097-14.905,34.808-39.097,34.808-71.904c0-13.744-3.108-26.912-9.239-39.137C433.112,262.114,432.779,255.887,434.752,250.126z   M202.395,88.15c-1.593-2.077-1.593-4.761,0-6.837c2.865-3.734,11.343-5.968,25.814,0.025c0.076,0.031,0.153,0.053,0.229,0.082  c-0.13,1.087-0.13,5.537,0,6.624c-0.076,0.029-0.154,0.05-0.229,0.082C213.739,94.119,205.26,91.884,202.395,88.15z   M238.748,106.783c-5.993,14.469-13.573,18.88-18.235,18.271c-2.595-0.342-4.493-2.24-4.835-4.835  c-0.614-4.666,3.802-12.242,18.271-18.235c0.08-0.033,0.15-0.08,0.228-0.116c1.369,1.74,2.941,3.312,4.681,4.682  C238.823,106.629,238.781,106.703,238.748,106.783z M234.177,67.596c-0.078-0.036-0.148-0.082-0.228-0.116  c-14.469-5.993-18.885-13.569-18.271-18.235c0.342-2.595,2.24-4.493,4.835-4.834c4.671-0.619,12.242,3.802,18.235,18.271  c0.033,0.08,0.075,0.154,0.11,0.233C237.118,64.283,235.547,65.855,234.177,67.596z M296.322,120.219  c-0.342,2.595-2.24,4.493-4.835,4.835c-4.666,0.607-12.242-3.801-18.236-18.271c-0.033-0.08-0.074-0.153-0.11-0.231  c1.74-1.37,3.312-2.942,4.682-4.683c0.078,0.036,0.148,0.082,0.228,0.115C292.519,107.977,296.936,115.552,296.322,120.219z   M309.605,81.313c1.594,2.077,1.594,4.761,0,6.837c-2.866,3.734-11.346,5.968-25.814-0.025c-0.076-0.031-0.153-0.053-0.229-0.081  c0.13-1.087,0.13-5.537,0-6.624c0.076-0.029,0.153-0.05,0.229-0.081C298.26,75.345,306.739,77.579,309.605,81.313z M273.251,62.681  c5.994-14.468,13.556-18.885,18.236-18.271c2.595,0.341,4.493,2.239,4.835,4.834c0.614,4.667-3.803,12.242-18.271,18.235  c-0.08,0.033-0.15,0.08-0.228,0.115c-1.37-1.741-2.942-3.313-4.682-4.683C273.176,62.834,273.218,62.761,273.251,62.681z   M270.25,183.462c0,4.712-1.94,15.996-5.188,26.72c-3.779,12.483-7.328,17.854-9.06,19.574c-1.732-1.72-5.28-7.091-9.06-19.574  c-3.248-10.724-5.188-22.007-5.188-26.72c0-7.856,6.392-14.248,14.248-14.248S270.25,175.605,270.25,183.462z M259.419,138.337  c-2.078,1.593-4.761,1.594-6.837,0c-3.734-2.865-5.968-11.345,0.025-25.814c0.031-0.076,0.053-0.153,0.082-0.229  c1.087,0.13,5.536,0.13,6.623,0c0.029,0.076,0.051,0.153,0.082,0.229C265.387,126.992,263.152,135.472,259.419,138.337z   M268.767,84.732c0,7.039-5.728,12.766-12.767,12.766c-7.039,0-12.766-5.727-12.766-12.766S248.961,71.966,256,71.966  C263.039,71.966,268.767,77.693,268.767,84.732z M259.419,31.127c3.733,2.865,5.968,11.345-0.025,25.813  c-0.031,0.076-0.053,0.153-0.082,0.23c-1.087-0.13-5.536-0.13-6.623,0c-0.029-0.076-0.051-0.154-0.082-0.23  c-5.993-14.469-3.759-22.948-0.025-25.813C254.658,29.533,257.341,29.533,259.419,31.127z M283.235,492.85  C274.63,495.545,265.482,497,256,497c-9.435,0-18.591-1.494-27.242-4.238c-0.041-0.61-0.09-29.139,27.242-29.139  S283.28,492.211,283.235,492.85z"/>
<path d="M212.72,295.071c3.432,2.319,8.094,1.418,10.414-2.014c8.982-13.29,11.703-26.04,7.868-36.871  c-4.464-12.608-17.657-21.726-37.147-25.674c-15.944-3.229-33.692-2.459-46.319,2.012c-26.075,9.233-39.777,37.958-30.544,64.032  c4.472,12.631,13.596,22.765,25.69,28.534c6.851,3.268,30.709,10.04,54.317-6.295c3.406-2.357,4.344-6.976,2.03-10.411  c-2.315-3.436-6.976-4.344-10.411-2.03c-4.388,2.957-8.745,5.241-12.601,6.606c-8.855,3.135-18.398,2.635-26.877-1.409  c-8.478-4.044-14.873-11.147-18.008-20.002c-6.472-18.278,3.133-38.414,21.411-44.886c19.313-6.837,58.382-2.238,64.32,14.53  c2.902,8.197-2.611,18.219-6.156,23.464C208.386,288.089,209.287,292.751,212.72,295.071z"/>
<path d="M347.761,330.003c7.371,0,14.711-1.646,21.562-4.914c12.095-5.769,21.218-15.903,25.69-28.534  c9.232-26.075-4.469-54.799-30.544-64.032c-12.627-4.47-30.374-5.242-46.319-2.012c-19.49,3.949-32.683,13.066-37.147,25.674  s0.051,27.996,12.714,43.33c10.359,12.544,24.638,23.113,37.265,27.584h-0.001C336.457,329.039,342.117,330.003,347.761,330.003z   M305.282,289.964c-9.042-10.948-12.737-21.435-10.14-28.771c4.179-11.803,24.773-17.576,43.34-17.576  c7.81,0,15.262,1.022,20.979,3.046c18.278,6.472,27.883,26.608,21.41,44.886c-3.135,8.854-9.53,15.957-18.008,20.001  c-8.479,4.044-18.025,4.544-26.877,1.409c-0.001,0-0.001,0-0.001,0C325.93,309.399,313.878,300.373,305.282,289.964z"/>
<path d="M134.959,214.024c5.096,3.64,18.245,10.707,24.919,5.608c7.433-5.678,4.759-17.19,2.02-25.462  c-2.512-7.585-6.638-16.334-9.599-20.351c-6.896-9.357-20.119-11.358-29.475-4.462c-9.357,6.896-11.359,20.119-4.462,29.476  C121.322,202.849,128.457,209.38,134.959,214.024z M131.724,181.431c3.88-2.972,7.538-0.02,8.501,1.287  c3.207,4.351,7.96,16.152,9.225,22.764c-5.941-3.164-15.807-11.199-19.013-15.549C129.473,188.625,127.843,184.402,131.724,181.431z  "/>
<path d="M377.041,214.024c6.501-4.644,13.637-11.174,16.599-15.192c6.895-9.357,4.893-22.579-4.464-29.476  c-9.356-6.896-22.578-4.895-29.476,4.462c0,0,0,0-0.001,0.001c-2.96,4.017-7.086,12.766-9.598,20.351  c-2.738,8.272-5.629,20.079,2.02,25.462C359.538,224.851,371.945,217.663,377.041,214.024z M371.774,182.718  c1.988-2.697,5.804-3.277,8.502-1.288c2.699,1.989,3.276,5.803,1.288,8.501c-3.207,4.35-13.072,12.384-19.014,15.549  C363.815,198.87,368.568,187.069,371.774,182.718z"/>
<g>
</g>
<g>
</g>
<g>
</g>
<g>
</g>
<g>
</g>
<g>
</g>
<g>
</g>
<g>
</g>
<g>
</g>
<g>
</g>
<g>
</g>
<g>
</g>
<g>
</g>
<g>
</g>
<g>
</g>
</svg>
