<?xml version="1.0" encoding="iso-8859-1"?>
<!-- Generator: Adobe Illustrator 19.0.0, SVG Export Plug-In . SVG Version: 6.00 Build 0)  -->
<svg xmlns="http://www.w3.org/2000/svg" xmlns:xlink="http://www.w3.org/1999/xlink" version="1.1" id="Capa_1" x="0px" y="0px" viewBox="0 0 511.999 511.999" style="enable-background:new 0 0 511.999 511.999;" xml:space="preserve">
<path style="fill:#CC7400;" d="M499.372,329.118c-79.571-85.496-107.571-148.032-147.245-169.446  c-27.737-14.972-59.906-13.602-85.487,0.787c-6.586,3.704-14.695,3.704-21.282,0c-25.581-14.389-57.75-15.759-85.487-0.787  c-39.674,21.416-67.674,83.952-147.246,169.446c-10.724,11.523-3.643,30.337,12.009,32.007  c101.247,10.791,186.001-28.055,217.911-45.664c8.379-4.623,18.527-4.623,26.906,0c31.91,17.608,116.664,56.454,217.911,45.664  C503.016,359.455,510.096,340.641,499.372,329.118z"/>
<g>
	<path style="fill:#AA6100;" d="M192.152,149.573c-10.996,1.213-21.946,4.519-32.281,10.099   c-39.674,21.416-67.674,83.952-147.246,169.446c-10.724,11.523-3.643,30.337,12.009,32.007   c59.403,6.331,113.121-4.425,153.827-17.953C129.858,249.478,168.115,180.075,192.152,149.573z"/>
	<path style="fill:#AA6100;" d="M275.545,295.593l-32.999,19.867c8.379-4.623,18.527-4.623,26.906,0   c26.77,14.772,90.734,44.484,170.422,47.305c-72.521-21.308-120.985-51.821-141.327-66.283   C291.734,291.637,282.707,291.282,275.545,295.593z"/>
</g>
<path d="M84.639,312.333c-2.531-3.278-1.926-7.989,1.353-10.521c4.837-3.735,19.918-17.732,55.367-66.905  c7.03-9.751,14.689-18.179,22.764-25.051c3.155-2.684,7.89-2.303,10.573,0.852c2.685,3.155,2.303,7.889-0.852,10.573  c-7.157,6.089-13.992,13.626-20.317,22.399c-35.284,48.942-51.773,64.795-58.369,70.006  C90.976,316.992,86.117,314.248,84.639,312.333z"/>
<path d="M416.839,313.687c-6.943-4.74-23.085-21.065-58.369-70.006c-6.324-8.774-13.16-16.309-20.317-22.399  c-3.155-2.684-3.536-7.418-0.852-10.573c2.684-3.155,7.418-3.537,10.573-0.852c8.075,6.871,15.733,15.299,22.764,25.05  c35.45,49.173,50.53,63.171,55.367,66.906c3.279,2.532,3.884,7.243,1.353,10.521C425.882,314.248,421.615,316.948,416.839,313.687z"/>
<path d="M145.835,313.496c-2.212-3.502-1.166-8.135,2.337-10.347c31.261-19.743,53.327-51.107,53.546-51.421  c2.368-3.396,7.042-4.234,10.44-1.868c3.398,2.366,4.237,7.037,1.874,10.436c-0.962,1.383-24.205,33.73-57.852,55.537  C151.725,318.721,147.261,315.755,145.835,313.496z"/>
<path d="M355.817,315.833c-33.979-21.287-56.889-54.154-57.852-55.537c-2.365-3.401-1.525-8.076,1.876-10.44  c3.4-2.364,8.073-1.525,10.438,1.873l0,0c0.219,0.314,22.285,31.679,53.546,51.421c3.502,2.211,4.549,6.845,2.337,10.347  C364.738,315.755,360.135,318.538,355.817,315.833z"/>
<path d="M451.743,370.506c-87.634,0.004-157.649-32.881-185.915-48.479c-6.154-3.396-13.504-3.396-19.659,0  c-19.417,10.714-71.883,36.586-139.55,45.397c-4.107,0.534-7.872-2.361-8.406-6.47c-0.535-4.107,2.361-7.872,6.47-8.406  c65.121-8.48,115.571-33.355,134.238-43.654c10.693-5.9,23.461-5.901,34.154,0c30.837,17.016,113.372,55.442,213.493,44.773  c4.481-0.478,8.099-3.284,9.677-7.508c1.567-4.196,0.684-8.656-2.363-11.93c-35.778-38.441-61.32-72.426-81.843-99.732  c-24.935-33.177-42.951-57.146-63.475-68.224c-3.645-1.968-5.005-6.519-3.038-10.164c1.969-3.645,6.519-5.005,10.164-3.038  c23.416,12.639,42.259,37.711,68.34,72.413c20.313,27.025,45.592,60.66,80.833,98.525c6.898,7.412,8.981,17.91,5.434,27.401  c-3.555,9.517-12.039,16.097-22.139,17.173C475.743,369.905,463.576,370.505,451.743,370.506z"/>
<path d="M23.84,368.582c-10.101-1.076-18.584-7.657-22.139-17.173c-3.545-9.49-1.463-19.99,5.434-27.4  c35.241-37.864,60.521-71.499,80.833-98.525c26.081-34.702,44.926-59.774,68.34-72.413c29.145-15.732,63.809-15.415,92.726,0.85  c4.295,2.416,9.632,2.416,13.926,0c17.421-9.8,37.921-13.991,57.718-11.805c4.117,0.455,7.087,4.161,6.632,8.279  c-0.455,4.118-4.159,7.089-8.279,6.632c-16.706-1.844-34.008,1.695-48.718,9.969c-8.832,4.967-19.805,4.968-28.635,0  c-24.404-13.726-53.655-13.998-78.246-0.723c-20.524,11.078-38.54,35.048-63.475,68.224c-20.524,27.306-46.066,61.29-81.843,99.732  c-3.047,3.274-3.931,7.734-2.363,11.93c1.578,4.223,5.195,7.03,9.677,7.507c14.315,1.526,29.015,2.096,43.692,1.696  c4.106-0.117,7.59,3.151,7.703,7.293c0.113,4.141-3.15,7.671-7.293,7.703C50.151,370.506,35.724,369.848,23.84,368.582z"/>
<g>
</g>
<g>
</g>
<g>
</g>
<g>
</g>
<g>
</g>
<g>
</g>
<g>
</g>
<g>
</g>
<g>
</g>
<g>
</g>
<g>
</g>
<g>
</g>
<g>
</g>
<g>
</g>
<g>
</g>
</svg>
