<?xml version="1.0" encoding="iso-8859-1"?>
<!-- Generator: Adobe Illustrator 19.0.0, SVG Export Plug-In . SVG Version: 6.00 Build 0)  -->
<svg xmlns="http://www.w3.org/2000/svg" xmlns:xlink="http://www.w3.org/1999/xlink" version="1.1" id="Capa_1" x="0px" y="0px" viewBox="0 0 511.998 511.998" style="enable-background:new 0 0 511.998 511.998;" xml:space="preserve">
<path style="fill:#FF0C38;" d="M354.192,146.617c0,0,19.015-65.123-47.097-62.73s-50.086,73.047-50.086,73.047L354.192,146.617z"/>
<path style="fill:#D80027;" d="M333.498,137.354c0,0,33.346-59.081,77.792-10.078s-17.328,86.857-17.328,86.857L333.498,137.354z"/>
<path style="fill:#FF0C38;" d="M314.842,124.269c0,0-48.905-48.065-83.626,10.856C206.422,177.2,146.651,346.922,82.022,453.91  c-17.131,28.359,13.227,61.561,43.022,47.072c85.53-41.594,206.717-109.296,299.333-274.541  c36.337-63.518-33.011-75.342-33.011-75.342L314.842,124.269z"/>
<path style="fill:#FF3F62;" d="M337.265,194.272l18.08-55.803l-40.503-14.2c0,0-48.905-48.065-83.626,10.856  C206.421,177.2,146.65,346.921,82.021,453.91c-17.131,28.359,13.227,61.561,43.022,47.072  C272.937,393.849,337.265,194.272,337.265,194.272z"/>
<path style="fill:#FF728B;" d="M92.513,499.114c148.541-181.001,138.703-363.988,138.703-363.988  C206.421,177.2,146.65,346.921,82.021,453.91C71.638,471.1,78.704,490.065,92.513,499.114z"/>
<path style="fill:#6DC82A;" d="M362.055,117.762l-6.313-2.661c0,0-75.41-14.824-55.748,40.834l71.747,30.247  C425.317,161.401,362.055,117.762,362.055,117.762z"/>
<path style="fill:#5EAC24;" d="M362.055,117.762l-6.313-2.661c0,0-75.41-14.824-55.748,40.834l37.269,15.712  C345.817,154.052,362.055,117.762,362.055,117.762z"/>
<path style="fill:#91DC5A;" d="M367.618,143.278c-1.347-3.889-1.39-8.112-0.079-12.013c1.507-4.484,2.976-9.291,4.324-14.362  c10.213-38.434,8.462-73.672-5.062-101.903c-3.301-6.893-11.797-9.615-18.544-5.725c-6.002,3.46-7.926,11.077-5.156,17.426  c19.091,43.751,1.843,88.396,1.025,91.048c-1.565,5.069-5.155,9.263-9.956,11.52l-33.412,15.707  c-9.281,4.363-11.702,16.531-4.693,24.017c6.516,6.959,16.627,14.92,32.046,21.42c15.419,6.5,28.177,8.181,37.709,7.987  c10.253-0.209,17.274-10.438,13.918-20.128L367.618,143.278z"/>
<path style="fill:#6DC82A;" d="M350.404,8.265c-2.492,0.902-4.888,2.406-6.654,5.965c-2.096,4.223-2.027,9.167-0.191,13.509  c18.354,43.407,1.379,87.352,0.567,89.982c-1.565,5.069-5.155,9.263-9.956,11.52l-33.412,15.707  c-9.281,4.363-11.702,16.531-4.693,24.017c6.516,6.959,16.627,14.92,32.046,21.42c3.112,1.312,6.109,2.419,9,3.362  c-6.349-19.317,0.186-31.603,5.981-38.153c5.289-5.979,9.495-12.851,12.006-20.428C377.127,68.695,360.02,25.389,350.404,8.265z"/>
<path d="M434.608,168.197c1.58-15.745-4.374-31.198-17.763-45.96c-10.885-12.002-22.218-19.085-33.794-21.205  c0.989-5.598,1.729-11.129,2.204-16.555c0.361-4.126-2.69-7.764-6.817-8.125c-4.131-0.366-7.765,2.69-8.125,6.817  c-0.899,10.261-2.815,20.962-5.697,31.807c-1.22,4.59-2.627,9.266-4.185,13.899c-1.822,5.421-1.786,11.407,0.101,16.857  l12.12,34.995c0.816,2.358,0.465,4.886-0.963,6.937c-1.399,2.008-3.593,3.188-6.02,3.238c-10.82,0.23-22.472-2.269-34.642-7.4  c-12.169-5.13-22.089-11.736-29.484-19.635c-1.659-1.771-2.346-4.166-1.885-6.57c0.471-2.455,2.036-4.472,4.294-5.533l33.411-15.707  c11.755-5.225,14.019-16.349,14.099-16.58c5.355-15.502,15.93-55.868-1.484-95.775c-1.344-3.079-0.472-6.487,2.028-7.929  c1.413-0.814,5.71-2.215,8.033,2.467c4.841,9.756,7.927,20.693,9.574,32.311c0.582,4.101,4.373,6.957,8.479,6.373  c4.101-0.582,6.955-4.377,6.373-8.479c-1.863-13.137-5.529-25.479-10.897-36.685c-2.483-5.186-7.058-9.136-12.551-10.839  c-5.489-1.701-11.505-1.025-16.503,1.856c-9.125,5.261-12.687,16.836-8.284,26.923c8.429,19.317,9.336,38.902,7.656,54.919  c-9.412-6.008-21.811-8.779-37.059-8.228c-8.829,0.32-16.842,1.806-23.817,4.417c-3.879,1.453-5.846,5.775-4.394,9.654  c1.453,3.879,5.775,5.845,9.654,4.394c5.461-2.045,11.887-3.214,19.1-3.475c15.563-0.561,26.859,2.882,33.641,10.216  c-0.353,1.507-0.714,2.94-1.078,4.295c-10.061-0.387-21.407,0.438-30.866,4.357c-9.806-6.471-26.901-14.883-45.405-10.93  c-15.218,3.25-28.308,14.015-38.903,31.997c-9.564,16.23-23.691,49.754-41.576,92.196c-28.484,67.593-67.494,160.166-107.576,226.52  c-9.56,15.826-7.683,34.873,4.782,48.525c8.049,8.815,18.737,13.441,29.778,13.441c6.073,0,12.254-1.4,18.161-4.272  c43.78-21.291,95.654-48.851,148.463-91.829c61.866-50.35,111.365-111.644,154.099-185.733  C453.665,190.672,436.006,170.176,434.608,168.197z M405.734,132.314c6.411,7.069,10.635,14.176,12.683,21.252  c-8.362-5.058-16.842-7.725-21.706-8.959c-4.287-8.779-11.368-16.759-18.316-23.165c0.243-0.872,1.254-4.699,1.515-5.741  C388.336,117.12,397.004,122.689,405.734,132.314z M385.754,161.512c-0.119,2.075-0.727,4.052-1.823,5.951  c0,0-9.671-28.229-9.764-29.042C381.985,146.999,386.119,155.111,385.754,161.512z M304.734,134.819  c0.559-2.371,1.569-4.404,3.09-6.085c4.416-4.882,13.52-7.618,25.657-7.894C332.725,121.49,304.734,134.819,304.734,134.819z   M417.834,222.774c-40.908,72.989-90.142,132.356-150.515,181.49c-29.341,23.879-58.456,42.919-86.021,58.751  c37.218-36.565,71.409-81.59,102.092-134.54c2.077-3.583,0.855-8.172-2.729-10.25c-3.583-2.077-8.172-0.856-10.25,2.729  c-43.239,74.614-93.437,132.994-149.207,173.541c-12.54,5.794-23.56,0.721-29.744-6.052c-6.266-6.862-10.35-18.519-3.02-30.654  c40.644-67.284,79.898-160.435,108.56-228.451c17.667-41.925,31.622-75.041,40.676-90.405c8.376-14.214,18.171-22.606,29.113-24.943  c10.715-2.29,21.289,1.534,28.997,5.755c-5.325,6.489-7.417,14.804-6.242,24.773c-2.3,2.86-3.916,6.267-4.623,9.955  c-1.375,7.17,0.691,14.332,5.667,19.646c8.843,9.445,24.822,19.629,37.31,24.307c-5.031,14.116-18.658,49.994-41.568,93.662  c-1.924,3.668-0.511,8.202,3.157,10.126c1.112,0.583,7.411,1.905,10.126-3.157c24.165-45.056,37.518-81.708,42.572-96.005  c23.66,5.504,37.632-0.821,41.807-6.813c2.321-3.331,3.672-7.194,3.996-11.15c13.915-10.065,12.753-23.224,12.761-23.475  c8.302,3.16,19.2,9.09,24.06,19.443C429.864,191.815,427.526,205.831,417.834,222.774z"/>
<g>
</g>
<g>
</g>
<g>
</g>
<g>
</g>
<g>
</g>
<g>
</g>
<g>
</g>
<g>
</g>
<g>
</g>
<g>
</g>
<g>
</g>
<g>
</g>
<g>
</g>
<g>
</g>
<g>
</g>
</svg>
