<?xml version="1.0" encoding="iso-8859-1"?>
<!-- Generator: Adobe Illustrator 19.0.0, SVG Export Plug-In . SVG Version: 6.00 Build 0)  -->
<svg xmlns="http://www.w3.org/2000/svg" xmlns:xlink="http://www.w3.org/1999/xlink" version="1.1" id="Capa_1" x="0px" y="0px" viewBox="0 0 511.999 511.999" style="enable-background:new 0 0 511.999 511.999;" xml:space="preserve">
<path style="fill:#FFC477;" d="M288.398,122.098V30.434h-64.797v91.664c0,18.612-6.682,36.605-18.83,50.704l-17.217,19.984  c-9.272,10.762-14.372,24.495-14.372,38.7v229.318h165.637V231.486c0-14.205-5.1-27.938-14.372-38.7l-17.217-19.984  C295.081,158.702,288.398,140.709,288.398,122.098z"/>
<path style="fill:#FFB655;" d="M228.511,238.407c0-6.672,2.393-13.123,6.745-18.181l11.545-13.417  c5.932-6.895,9.195-15.689,9.195-24.784V30.434h-32.395v91.664c0,18.612-6.682,36.604-18.83,50.704l-17.218,19.984  c-9.272,10.762-14.372,24.495-14.372,38.7v229.318h55.331L228.511,238.407L228.511,238.407z"/>
<path style="fill:#FF7956;" d="M203.182,445.368V231.486c0-7.015,2.521-13.804,7.1-19.119l17.218-19.983  c16.833-19.537,40.169-19.537,57.002,0l17.218,19.983c4.578,5.314,7.1,12.104,7.1,19.118v213.882H203.182V445.368z"/>
<path style="fill:#FF5023;" d="M228.511,238.406c0-6.672,2.393-13.123,6.745-18.181l11.545-13.417  c5.932-6.895,9.195-15.688,9.195-24.784v-4.292c-10.041,0.001-20.082,4.885-28.498,14.652l-17.218,19.983  c-4.578,5.314-7.1,12.104-7.1,19.119v213.882h25.331L228.511,238.406L228.511,238.406z"/>
<rect x="173.179" y="253.16" style="fill:#FFE477;" width="165.64" height="155.33"/>
<rect x="173.179" y="253.16" style="fill:#FFDA44;" width="55.33" height="155.33"/>
<g>
	<rect x="173.179" y="253.16" style="fill:#91DC5A;" width="165.64" height="30"/>
	<rect x="173.179" y="378.49" style="fill:#91DC5A;" width="165.64" height="30"/>
</g>
<g>
	<rect x="173.179" y="253.16" style="fill:#6DC82A;" width="55.33" height="30"/>
	<rect x="173.179" y="378.49" style="fill:#6DC82A;" width="55.33" height="30"/>
</g>
<circle style="fill:#FFFFFF;" cx="255.999" cy="330.82" r="30.969"/>
<path style="fill:#FFE477;" d="M288.667,128.41c-0.171-2.094-0.268-4.198-0.268-6.313V30.434h-64.797v91.664  c0,2.114-0.098,4.219-0.269,6.313L288.667,128.41L288.667,128.41z"/>
<g>
	<path style="fill:#FFDA44;" d="M255.996,30.434h-32.395v91.664c0,2.114-0.098,4.219-0.269,6.313h32.664V30.434z"/>
	<rect x="223.6" y="68.55" style="fill:#FFDA44;" width="64.797" height="15"/>
</g>
<rect x="223.6" y="68.55" style="fill:#FFCD00;" width="32.395" height="15"/>
<path style="fill:#FFDA44;" d="M285.672,42.47h-59.343c-9.617,0-17.485-7.868-17.485-17.485l0,0c0-9.617,7.868-17.485,17.485-17.485  h59.343c9.617,0,17.485,7.868,17.485,17.485l0,0C303.156,34.602,295.287,42.47,285.672,42.47z"/>
<path style="fill:#FFCD00;" d="M241.509,24.985L241.509,24.985c0-9.617,7.868-17.485,17.485-17.485h-32.667  c-9.617,0-17.485,7.868-17.485,17.485l0,0c0,9.617,7.868,17.485,17.485,17.485h32.667C249.378,42.47,241.509,34.602,241.509,24.985z  "/>
<path style="fill:#FFA733;" d="M335.135,504.5h-158.27c-11.895,0-21.537-9.642-21.537-21.537v-16.058  c0-11.895,9.642-21.537,21.537-21.537h158.269c11.895,0,21.537,9.642,21.537,21.537v16.058  C356.672,494.858,347.029,504.5,335.135,504.5z"/>
<path style="fill:#FF9811;" d="M228.511,482.963v-16.058c0-11.895,9.643-21.537,21.537-21.537h-73.184  c-11.895,0-21.537,9.642-21.537,21.537v16.058c0,11.895,9.642,21.537,21.537,21.537h73.184  C238.154,504.5,228.511,494.858,228.511,482.963z"/>
<path style="fill:#FF5023;" d="M293.719,481.298h-75.44c-8.339,0-15.099-6.76-15.099-15.099v-20.831h105.637v20.831  C308.818,474.538,302.057,481.298,293.719,481.298z"/>
<path style="fill:#FF3501;" d="M228.511,445.368H203.18v20.831c0,8.339,6.76,15.099,15.099,15.099h10.232V445.368z"/>
<path d="M346.318,440.11v-89.563c0-4.142-3.357-7.5-7.5-7.5s-7.5,3.358-7.5,7.5v20.438H180.682V290.66h150.637v27.226  c0,4.142,3.357,7.5,7.5,7.5s7.5-3.358,7.5-7.5v-86.4c0-15.996-5.75-31.478-16.19-43.596l-17.218-19.983  c-10.97-12.733-17.012-29.001-17.012-45.809V47.772c8.69-3.916,14.758-12.654,14.758-22.787C310.656,11.208,299.448,0,285.672,0  h-59.344c-13.776,0-24.984,11.208-24.984,24.985c0,10.134,6.068,18.872,14.758,22.787v74.325c0,16.808-6.042,33.076-17.012,45.809  l-17.218,19.983c-10.44,12.118-16.19,27.601-16.19,43.596V440.11c-10.475,4.389-17.854,14.745-17.854,26.794v16.058  c0,16.011,13.026,29.037,29.037,29.037h158.27c16.011,0,29.037-13.026,29.037-29.037v-16.058  C364.172,454.855,356.792,444.499,346.318,440.11z M301.318,415.986v21.881H210.68v-21.881H301.318z M195.682,437.868h-15v-21.881  h15V437.868z M210.682,452.868h90.637v13.331c0,4.19-3.409,7.599-7.599,7.599h-75.44c-4.189,0-7.599-3.409-7.599-7.599v-13.331  H210.682z M316.318,415.986h15v21.881h-15V415.986z M331.318,385.986v15H180.682v-15H331.318z M180.682,275.66v-15h150.637v15  H180.682z M226.327,15h59.344c5.506,0,9.984,4.479,9.984,9.985c0,10.263-9.656,9.985-9.984,9.985h-6.339c-4.143,0-7.5,3.358-7.5,7.5  s3.357,7.5,7.5,7.5h1.565v70.94h-49.797V49.97h19.104c4.143,0,7.5-3.358,7.5-7.5s-3.357-7.5-7.5-7.5h-23.877  c-5.506,0-9.984-4.479-9.984-9.985S220.822,15,226.327,15z M193.234,197.681l17.218-19.983  c10.278-11.928,16.972-26.418,19.501-41.787h52.092c2.528,15.369,9.223,29.859,19.501,41.787l17.218,19.983  c8.096,9.396,12.554,21.402,12.554,33.805v14.174h-15v-14.174c0-8.811-3.167-17.338-8.918-24.014l-17.218-19.983  c-9.588-11.128-21.728-17.257-34.183-17.257c-12.455,0-24.595,6.128-34.183,17.257c-2.704,3.138-2.352,7.874,0.786,10.577  c3.137,2.704,7.873,2.354,10.577-0.786c6.791-7.882,14.682-12.048,22.819-12.048c8.137,0,16.028,4.166,22.819,12.048l17.218,19.983  c3.405,3.953,5.281,9.004,5.281,14.223v14.174h-90.637v-14.174c0-3.693,0.948-7.352,2.743-10.583  c2.011-3.621,0.706-8.187-2.915-10.198c-3.621-2.011-8.187-0.707-10.198,2.915c-3.029,5.453-4.63,11.631-4.63,17.866v14.174h-15  v-14.174C180.682,219.083,185.139,207.077,193.234,197.681z M349.172,482.963c0,7.74-6.297,14.037-14.037,14.037h-158.27  c-7.74,0-14.037-6.297-14.037-14.037v-16.058c0-7.74,6.297-14.037,14.037-14.037h18.816v13.331  c0,12.461,10.138,22.599,22.599,22.599h75.439c12.461,0,22.599-10.138,22.599-22.599v-13.331h18.816  c7.74,0,14.037,6.297,14.037,14.037v16.058H349.172z"/>
<path d="M217.531,330.823c0,21.212,17.257,38.469,38.469,38.469s38.469-17.257,38.469-38.469s-17.257-38.469-38.469-38.469  S217.531,309.611,217.531,330.823z M279.469,330.823c0,12.941-10.528,23.469-23.469,23.469c-12.941,0-23.469-10.528-23.469-23.469  s10.529-23.469,23.469-23.469C268.94,307.354,279.469,317.882,279.469,330.823z"/>
<g>
</g>
<g>
</g>
<g>
</g>
<g>
</g>
<g>
</g>
<g>
</g>
<g>
</g>
<g>
</g>
<g>
</g>
<g>
</g>
<g>
</g>
<g>
</g>
<g>
</g>
<g>
</g>
<g>
</g>
</svg>
