<?xml version="1.0" encoding="iso-8859-1"?>
<!-- Generator: Adobe Illustrator 19.0.0, SVG Export Plug-In . SVG Version: 6.00 Build 0)  -->
<svg xmlns="http://www.w3.org/2000/svg" xmlns:xlink="http://www.w3.org/1999/xlink" version="1.1" id="Capa_1" x="0px" y="0px" viewBox="0 0 511.999 511.999" style="enable-background:new 0 0 511.999 511.999;" xml:space="preserve">
<path style="fill:#FF9478;" d="M237.649,417.626L237.649,417.626c6.2-28.576,26.081-39.896,47.255-53.573  c0.006-0.002,0.032-0.013,0.032-0.013l-0.003-0.004c8.708-4.615,16.887-10.581,24.219-17.913c39.57-39.57,39.57-103.727,0-143.297  s-103.727-39.57-143.297,0c-7.332,7.332-13.298,15.511-17.913,24.219l-0.004-0.003c0,0-0.01,0.026-0.013,0.032  c-13.677,21.174-24.997,41.054-53.573,47.254l0,0c-20.945,4.88-40.829,15.474-57.155,31.801  C-9.375,352.702,2.119,416.716,48.69,463.288s110.586,58.066,157.158,11.494C222.175,458.455,232.769,438.572,237.649,417.626z"/>
<path style="fill:#FF6243;" d="M309.151,202.827c-39.57-39.57-103.727-39.57-143.297,0c-7.332,7.332-13.298,15.511-17.913,24.219  l-0.004-0.003c0,0-0.01,0.026-0.013,0.032c-13.677,21.174-24.997,41.054-53.573,47.255l0,0c-20.945,4.88-40.829,15.474-57.155,31.8  c-39.713,39.713-37.197,92.107-6.72,135.556c54.613-63.776,118.77-97.642,143.701-109.546c6.679-3.189,12.293-8.279,15.973-14.702  c36.732-64.107,87.193-94.428,124.458-108.705C312.881,206.711,311.064,204.74,309.151,202.827z"/>
<path style="fill:#FF3F62;" d="M127.172,307.584l20.561-6.603l-14.493-16.017c-4.631-5.119,0.025-13.167,6.771-11.703l21.123,4.585  l-4.584-21.123c-1.464-6.746,6.585-11.403,11.703-6.771l16.016,14.493l6.603-20.561c2.111-6.573,11.41-6.573,13.521,0l6.604,20.561  l16.016-14.493c5.119-4.632,13.167,0.025,11.703,6.771l-4.585,21.123l21.123-4.585c6.746-1.464,11.403,6.585,6.771,11.703  l-14.493,16.016l20.561,6.603c6.573,2.111,6.573,11.41,0,13.521l-20.561,6.604l14.493,16.017c4.632,5.118-0.025,13.167-6.771,11.703  l-21.123-4.585l4.585,21.123c1.464,6.746-6.585,11.403-11.703,6.771l-16.016-14.493l-6.603,20.561  c-2.111,6.573-11.41,6.573-13.521,0l-6.604-20.561l-16.017,14.493c-5.119,4.632-13.167-0.025-11.703-6.771l4.585-21.123  l-21.123,4.585c-6.746,1.464-11.403-6.585-6.771-11.703l14.493-16.016l-20.561-6.603  C120.599,318.995,120.599,309.695,127.172,307.584z"/>
<path style="fill:#D80027;" d="M238.82,255.864c0.621-6.259-6.927-10.325-11.82-5.897l-16.016,14.493l-6.604-20.561  c-2.111-6.572-11.41-6.572-13.521,0l-6.603,20.561l-16.016-14.493c-5.118-4.632-13.167,0.025-11.703,6.771l4.584,21.123  l-21.123-4.585c-6.746-1.464-11.403,6.585-6.771,11.703l14.493,16.017l-20.561,6.604c-6.572,2.111-6.572,11.41,0,13.521  l20.561,6.603l-14.493,16.016c-3.029,3.348-2.072,7.934,0.832,10.308c16.957-10.416,31.095-17.59,40.106-21.893  c6.679-3.189,12.293-8.279,15.973-14.702C204.755,291.94,221.55,271.793,238.82,255.864z"/>
<path style="fill:#FFE477;" d="M143.029,359.388l9.87-19.208l-21.573-1.078c-6.894-0.344-9.293-9.329-3.487-13.063l18.178-11.694  l-18.178-11.694c-5.805-3.735-3.407-12.719,3.488-13.063l21.573-1.077l-9.87-19.208c-3.155-6.14,3.421-12.716,9.561-9.561  l19.208,9.87l1.078-21.573c0.344-6.894,9.329-9.293,13.063-3.487l11.694,18.178l11.694-18.178  c3.735-5.805,12.719-3.407,13.063,3.488l1.077,21.573l19.208-9.87c6.14-3.155,12.716,3.421,9.561,9.561l-9.87,19.208l21.573,1.078  c6.894,0.344,9.293,9.329,3.487,13.063l-18.178,11.694l18.178,11.694c5.805,3.735,3.407,12.719-3.487,13.063l-21.573,1.077  l9.87,19.208c3.155,6.14-3.421,12.716-9.561,9.561l-19.208-9.87l-1.078,21.573c-0.344,6.894-9.329,9.293-13.063,3.487  l-11.694-18.178l-11.694,18.178c-3.735,5.805-12.719,3.407-13.063-3.488l-1.077-21.573l-19.208,9.87  C146.45,372.104,139.874,365.528,143.029,359.388z"/>
<path style="fill:#FFD422;" d="M226.537,268.036l-3.074,1.579l-1.077-21.573c-0.344-6.894-9.328-9.293-13.063-3.488l-11.694,18.178  l-11.694-18.178c-3.735-5.805-12.719-3.407-13.063,3.487l-1.077,21.573l-19.209-9.87c-6.14-3.155-12.716,3.421-9.561,9.561  l9.87,19.208l-21.573,1.077c-6.894,0.344-9.293,9.328-3.488,13.063l18.178,11.695l-18.178,11.694  c-5.805,3.735-3.407,12.719,3.487,13.063l21.573,1.078l-2.08,4.048c9.522-5.303,17.517-9.298,23.359-12.088  c6.679-3.189,12.293-8.279,15.973-14.701C201.266,298.036,213.648,281.743,226.537,268.036z"/>
<circle style="fill:#3E3D42;" cx="197.631" cy="314.349" r="41.685"/>
<path style="fill:#2D2D30;" d="M191.991,308.703c12.037-12.037,29.6-15.163,44.518-9.4c-2.031-5.258-5.157-10.191-9.4-14.434  c-16.279-16.279-42.673-16.279-58.952,0s-16.279,42.673,0,58.952c4.243,4.243,9.175,7.369,14.434,9.4  C176.828,338.302,179.954,320.739,191.991,308.703z"/>
<path style="fill:#806749;" d="M128.475,430.857l-47.354-47.354c-6.515-6.515-6.515-17.176,0-23.691l0,0  c6.515-6.515,17.176-6.515,23.691,0l47.354,47.354c6.515,6.515,6.515,17.176,0,23.691l0,0  C145.651,437.372,134.99,437.372,128.475,430.857z"/>
<path style="fill:#6A563D;" d="M105.749,384.441c6.515-6.515,17.176-6.515,23.691,0l-24.628-24.628  c-6.515-6.515-17.176-6.515-23.691,0s-6.515,17.176,0,23.691l24.628,24.628C99.234,401.617,99.234,390.956,105.749,384.441z"/>
<path style="fill:#B6E892;" d="M53.266,437.982l20.735,20.735c2.805,2.805,7.594,1.527,8.628-2.303l7.67-28.404  c1.037-3.842-2.483-7.362-6.325-6.325l-28.404,7.669C51.74,430.389,50.462,435.177,53.266,437.982z"/>
<circle style="fill:#00AA95;" cx="52.68" cy="397.299" r="7.474"/>
<circle style="fill:#00CCB3;" cx="114.681" cy="459.299" r="7.474"/>
<path style="fill:#806749;" d="M227.109,284.869c6.611,6.611,10.537,14.89,11.779,23.482L448.04,99.199l-35.261-35.261  L203.627,273.091C212.219,274.332,220.498,278.258,227.109,284.869z"/>
<path style="fill:#6A563D;" d="M430.412,81.571l-17.633-17.633L203.627,273.091c8.592,1.242,16.871,5.167,23.482,11.778  c0.001,0.001,0.001,0.001,0.002,0.002L430.412,81.571z"/>
<g>
	
		<rect x="361.928" y="110.163" transform="matrix(-0.7071 -0.7071 0.7071 -0.7071 571.9456 487.1287)" style="fill:#5F4D37;" width="49.866" height="29.896"/>
	
		<rect x="325.998" y="146.11" transform="matrix(-0.7071 -0.7071 0.7071 -0.7071 485.1921 523.0884)" style="fill:#5F4D37;" width="49.866" height="29.896"/>
	
		<rect x="290.059" y="182.033" transform="matrix(-0.7071 -0.7071 0.7071 -0.7071 398.4386 558.9998)" style="fill:#5F4D37;" width="49.866" height="29.896"/>
	
		<rect x="254.123" y="217.973" transform="matrix(-0.7071 -0.7071 0.7071 -0.7071 311.6779 594.9423)" style="fill:#5F4D37;" width="49.866" height="29.896"/>
	
		<rect x="218.191" y="253.913" transform="matrix(-0.7071 -0.7071 0.7071 -0.7071 224.9244 630.8878)" style="fill:#5F4D37;" width="49.866" height="29.896"/>
</g>
<g>
	
		<rect x="365.589" y="101.353" transform="matrix(0.7071 0.7071 -0.7071 0.7071 192.9669 -233.2618)" style="fill:#554431;" width="24.933" height="29.896"/>
	
		<rect x="329.641" y="137.293" transform="matrix(0.7071 0.7071 -0.7071 0.7071 207.8514 -197.3162)" style="fill:#554431;" width="24.933" height="29.896"/>
	
		<rect x="293.717" y="173.233" transform="matrix(0.7071 0.7071 -0.7071 0.7071 222.743 -161.3878)" style="fill:#554431;" width="24.933" height="29.896"/>
	
		<rect x="257.777" y="209.17" transform="matrix(0.7071 0.7071 -0.7071 0.7071 237.6276 -125.4482)" style="fill:#554431;" width="24.933" height="29.896"/>
	
		<rect x="221.836" y="245.103" transform="matrix(0.7071 0.7071 -0.7071 0.7071 252.5092 -89.5097)" style="fill:#554431;" width="24.933" height="29.896"/>
</g>
<path style="fill:#CC7400;" d="M488.602,10.761l-32.441-3.159c-6.429-0.626-12.8,1.658-17.368,6.225l-34.192,34.192  c-3.509,3.509-5.703,8.12-6.213,13.057l-1.995,19.337l35.245,35.245l19.337-1.995c4.937-0.509,9.548-2.703,13.057-6.213  l34.117-34.117c4.61-4.61,6.891-11.056,6.208-17.54l-3.463-32.838C500.212,16.487,495.075,11.391,488.602,10.761z"/>
<path style="fill:#AA6100;" d="M422.233,65.649l34.192-34.192c4.567-4.567,10.939-6.851,17.368-6.225l27.626,2.69l-0.524-4.968  c-0.682-6.468-5.819-11.564-12.292-12.194l-32.441-3.159c-6.429-0.626-12.8,1.658-17.368,6.225l-34.192,34.192  c-3.509,3.509-5.703,8.12-6.213,13.057l-1.995,19.337l17.63,17.63l1.995-19.337C416.53,73.769,418.723,69.158,422.233,65.649z"/>
<g>
	<path style="fill:#9A4C00;" d="M418.066,73.981c-2.919-2.919-2.919-7.651,0-10.57l36.786-36.786c2.919-2.919,7.651-2.919,10.57,0   s2.919,7.651,0,10.57l-36.786,36.786C425.717,76.899,420.985,76.899,418.066,73.981z"/>
	<path style="fill:#9A4C00;" d="M438.071,93.986c-2.919-2.919-2.919-7.651,0-10.57l36.786-36.786c2.919-2.919,7.651-2.919,10.57,0   s2.919,7.651,0,10.57l-36.786,36.786C445.723,96.904,440.99,96.904,438.071,93.986z"/>
</g>
<path d="M334.317,243.58c-4.029,0.961-6.517,5.006-5.556,9.035c7.631,32.001-1.683,64.974-24.914,88.206  c-6.639,6.639-25.344,18.433-26.501,19.176c-19.904,12.777-40.485,25.989-47.015,55.984c-4.727,20.239-15.025,38.737-29.787,53.498  c-20.481,20.481-45.552,29.825-72.5,27.025c-25.57-2.658-51.869-16.337-74.051-38.52c-37.384-37.385-48.865-83.901-29.962-121.396  c1.864-3.699,0.378-8.209-3.321-10.073c-3.699-1.866-8.208-0.378-10.074,3.32c-21.916,43.471-9.367,96.639,32.75,138.756  c24.608,24.608,54.123,39.82,83.107,42.833c3.693,0.384,7.352,0.575,10.977,0.575c27.386,0,52.675-10.907,73.681-31.913  c16.757-16.756,28.445-37.766,33.802-60.757c0.009-0.037,0.017-0.074,0.025-0.111c5.197-23.953,20.764-33.946,40.472-46.598  c1.083-0.695,21.38-13.568,29.004-21.192c26.944-26.944,37.747-65.184,28.898-102.292  C342.392,245.107,338.347,242.62,334.317,243.58z"/>
<path d="M154.382,430.821c3.989,1.125,8.131-1.195,9.255-5.182c2.39-8.472,0.027-17.583-6.167-23.776l-47.354-47.354  c-4.567-4.567-10.658-7.083-17.149-7.083s-12.582,2.515-17.149,7.083c-4.567,4.567-7.083,10.657-7.083,17.148  s2.516,12.581,7.083,17.148l47.354,47.354c4.403,3.677,9.142,1.464,10.606,0c2.929-2.929,2.929-7.678,0-10.606l-47.354-47.354  c-1.734-1.734-2.689-4.058-2.689-6.542s0.955-4.808,2.69-6.542c1.734-1.734,4.057-2.689,6.542-2.689s4.808,0.955,6.542,2.689  l47.354,47.354c2.359,2.359,3.254,5.845,2.337,9.097C148.075,425.553,150.395,429.697,154.382,430.821z"/>
<path d="M44.684,431.07c-1.179,4.417,0.047,8.983,3.279,12.215l20.734,20.734c2.423,2.423,5.596,3.719,8.894,3.719  c1.101,0,2.216-0.145,3.322-0.44c4.417-1.179,7.765-4.518,8.956-8.93l7.67-28.404c1.178-4.362-0.076-9.056-3.271-12.251  c-3.194-3.194-7.888-4.446-12.25-3.269l-28.405,7.669C49.2,423.306,45.862,426.654,44.684,431.07z M81.995,429.988l-5.553,20.563  L61.431,435.54L81.995,429.988z"/>
<path d="M501.415,80.674l2.038-2.038c6.24-6.24,9.288-14.853,8.363-23.629l-3.463-32.838c-1.051-9.964-9.052-17.901-19.024-18.872  l-32.44-3.159c-8.692-0.843-17.222,2.21-23.398,8.387l-2.113,2.113l-2.672-2.672c-2.919-2.919-7.651-2.919-10.57,0  s-2.919,7.651,0,10.57l2.672,2.672l-7.531,7.531l-2.672-2.672c-2.919-2.919-7.651-2.919-10.57,0s-2.919,7.651,0,10.57l2.672,2.672  l-3.408,3.408c-4.713,4.713-7.686,10.96-8.37,17.591l-1.711,16.587L288.027,178.084c-41.852-21.948-93.892-14.145-127.476,19.44  c-7.562,7.562-20.526,27.967-21.192,29.004c-12.651,19.708-22.645,35.274-46.597,40.471c-0.037,0.008-0.074,0.017-0.111,0.025  c-22.991,5.356-44,17.045-60.757,33.802c-2.929,2.929-2.929,7.678,0,10.606c1.464,1.464,3.384,2.197,5.303,2.197  s3.839-0.732,5.303-2.197c14.762-14.762,33.26-25.061,53.5-29.787c29.991-6.531,43.205-27.112,55.981-47.015  c0.743-1.157,12.537-19.862,19.176-26.501c27.836-27.837,70.378-35.138,105.678-18.855l-75.999,75.999  c-14.392-1-28.692,5.001-37.982,14.292c-9.29,9.29-14.406,21.641-14.406,34.779s5.116,25.49,14.406,34.779  c9.29,9.29,21.642,14.406,34.779,14.406s25.489-5.116,34.779-14.406s15.615-25.771,14.292-37.982L434.995,122.85l16.751-1.728  c6.63-0.684,12.878-3.657,17.591-8.37l3.407-3.407l2.672,2.672c2.919,2.919,7.651,2.919,10.57,0s2.919-7.651,0-10.57l-2.672-2.672  l7.531-7.531l2.672,2.672c2.919,2.919,7.651,2.919,10.57,0s2.919-7.651,0-10.57L501.415,80.674z M286.116,250.517l-8.816-8.816  c-2.929-2.93-7.678-2.929-10.606,0c-2.929,2.929-2.929,7.678,0,10.606l8.816,8.816l-4.19,4.19l-24.654-24.655l25.329-25.329  l24.655,24.654L286.116,250.517z M225.526,261.798l10.533-10.533l24.654,24.655l-10.533,10.533L225.526,261.798z M282.601,204.723  l4.19-4.19l24.655,24.655l-4.19,4.19L282.601,204.723z M297.397,189.927l10.533-10.533l24.655,24.655l-10.533,10.533  L297.397,189.927z M318.537,168.787l4.19-4.19l24.655,24.655l-4.19,4.19L318.537,168.787z M333.333,153.991l10.533-10.533  l24.655,24.655l-10.533,10.533L333.333,153.991z M354.472,132.851l4.19-4.19l24.655,24.655l-4.19,4.19L354.472,132.851z   M369.269,118.055l10.533-10.533l24.655,24.655l-10.533,10.533L369.269,118.055z M390.408,96.915l5.941-5.941l24.655,24.655  l-5.941,5.941L390.408,96.915z M221.806,338.518c-6.457,6.457-15.042,10.013-24.172,10.013c-9.131,0-17.716-3.556-24.173-10.013  s-10.013-15.042-10.013-24.173s3.556-17.716,10.013-24.172s15.042-10.013,24.173-10.013c9.131,0,17.716,3.556,24.172,10.013  s10.013,15.042,10.013,24.172C231.819,323.476,228.262,332.061,221.806,338.518z M450.207,106.202l-15.788,1.629l-30.198-30.199  l1.629-15.788c0.332-3.213,1.771-6.24,4.055-8.523l34.192-34.191c2.993-2.993,7.125-4.474,11.337-4.063l32.44,3.159  c2.915,0.284,5.254,2.604,5.561,5.516l3.463,32.838c0.448,4.253-1.029,8.427-4.052,11.45l-34.117,34.117  C456.446,104.43,453.42,105.87,450.207,106.202z"/>
<g>
</g>
<g>
</g>
<g>
</g>
<g>
</g>
<g>
</g>
<g>
</g>
<g>
</g>
<g>
</g>
<g>
</g>
<g>
</g>
<g>
</g>
<g>
</g>
<g>
</g>
<g>
</g>
<g>
</g>
</svg>
