<?xml version="1.0" encoding="iso-8859-1"?>
<!-- Generator: Adobe Illustrator 19.0.0, SVG Export Plug-In . SVG Version: 6.00 Build 0)  -->
<svg xmlns="http://www.w3.org/2000/svg" xmlns:xlink="http://www.w3.org/1999/xlink" version="1.1" id="Capa_1" x="0px" y="0px" viewBox="0 0 512 512" style="enable-background:new 0 0 512 512;" xml:space="preserve">
<path style="fill:#44FFE8;" d="M235.325,409.592c-5.96-2.498-10.449-7.498-12.948-13.458c-5.088-12.138-17.061-20.666-31.049-20.666  c-14.294,0-26.482,8.905-31.371,21.467c-2.307,5.928-6.995,10.548-12.803,13.142c-13.177,5.885-22.159,19.466-21.214,35.037  c1.08,17.788,15.375,32.278,33.148,33.582c15.237,1.118,52.149-3.843,64.664-4.371c17.255-0.728,31.359-14.725,32.205-31.974  C256.68,427.637,247.956,414.886,235.325,409.592z"/>
<path style="fill:#00EED1;" d="M235.325,409.592c-5.96-2.498-10.449-7.498-12.948-13.458c-5.088-12.138-17.061-20.666-31.049-20.666  c-1.06,0-2.103,0.064-3.138,0.16c-5.498,7.514-10.504,18.552-10.662,33.923c-0.097,9.407-5.254,17.939-13.268,22.866  c-8.695,5.346-18.961,16.28-24.413,38.859c5.411,4.199,12.04,6.893,19.24,7.421c15.237,1.118,52.149-3.844,64.663-4.371  c17.255-0.728,31.359-14.724,32.206-31.973C256.68,427.637,247.956,414.886,235.325,409.592z"/>
<circle style="fill:#898890;" cx="255.999" cy="192.2" r="140.9"/>
<circle style="fill:#787680;" cx="255.999" cy="192.2" r="102.56"/>
<path style="fill:#C6C5CA;" d="M307.439,220.558l115.266,17.452c8.685,1.315,16.504-5.409,16.504-14.194v-66.177  c0-8.784-7.819-15.509-16.504-14.194l-113.952,17.253c-13.299,2.014-24.745-9.432-22.731-22.732L303.28,24.004  c1.315-8.685-5.409-16.505-14.194-16.505h-66.182c-8.783,0-15.506,7.816-14.194,16.5l17.218,113.967  c2.009,13.297-9.435,24.738-22.732,22.725L89.293,143.446c-8.685-1.315-16.504,5.409-16.504,14.194v66.177  c0,8.784,7.819,15.509,16.504,14.194l115.213-17.444c12.9-1.953,24.177,8.789,22.853,21.769l-21.142,207.23h99.562l-21.193-207.233  C283.259,229.349,294.537,218.604,307.439,220.558z"/>
<g>
	<path style="fill:#ACABB1;" d="M108.654,223.816v-66.177c0-4.22,1.816-7.951,4.653-10.558l-24.014-3.636   c-8.685-1.315-16.504,5.409-16.504,14.194v66.177c0,8.784,7.819,15.509,16.504,14.194l24.014-3.636   C110.469,231.768,108.654,228.036,108.654,223.816z"/>
	<path style="fill:#ACABB1;" d="M258.769,7.5h-35.865c-8.783,0-15.506,7.816-14.194,16.5l17.218,113.967   c2.009,13.297-9.435,24.738-22.732,22.725l20.648,3.777c13.297,2.013,27.58-10.873,26.519-30.231L244.575,24   C243.263,15.316,249.986,7.5,258.769,7.5z"/>
	<path style="fill:#ACABB1;" d="M222.412,217.723l-17.905,2.842c12.9-1.953,24.177,8.789,22.853,21.769l-21.142,207.229h35.865   L252.644,256C254.077,228.532,235.312,215.77,222.412,217.723z"/>
	<circle style="fill:#ACABB1;" cx="255.999" cy="190.99" r="27.738"/>
</g>
<path style="fill:#FF728B;" d="M364.7,409.288c-5.418-2.118-9.654-6.374-11.673-11.829c-4.751-12.837-17.08-21.99-31.571-21.99  c-14.605,0-27.013,9.298-31.681,22.294c-1.929,5.371-6.012,9.672-11.303,11.809c-13.175,5.32-22.473,18.22-22.473,33.302  c0,19.84,16.083,35.923,35.923,35.923c14.1,0,48.589-4.44,60.501-4.44c18.613,0,33.703-15.089,33.703-33.703  C386.125,426.375,377.24,414.19,364.7,409.288z"/>
<path style="fill:#FF3F62;" d="M311.595,414.054c1.986-15.898,8.985-28.686,16.133-37.978c-2.034-0.384-4.126-0.608-6.273-0.608  c-14.605,0-27.012,9.297-31.68,22.293c-1.929,5.371-6.012,9.673-11.304,11.81c-13.174,5.321-22.472,18.221-22.472,33.302  c0,20.029,16.392,36.23,36.492,35.918l0.001-0.001c-0.708-22.282,5.567-35.931,11.03-43.559  C307.986,428.998,310.645,421.663,311.595,414.054z"/>
<path style="fill:#898890;" d="M380.08,446.035H131.918c-13.064,0-24.965,7.511-30.586,19.303l-8.087,16.964  c-4.91,10.299,2.599,22.197,14.009,22.197h297.49c11.409,0,18.919-11.898,14.009-22.197l-8.087-16.964  C405.045,453.546,393.144,446.035,380.08,446.035z"/>
<path style="fill:#787680;" d="M164.974,482.303l8.087-16.964c5.622-11.793,17.522-19.304,30.586-19.304h-71.729  c-13.064,0-24.965,7.511-30.586,19.304l-8.087,16.964c-4.91,10.299,2.599,22.197,14.009,22.197h71.729  C167.574,504.5,160.065,492.602,164.974,482.303z"/>
<path d="M439.103,141.068c-4.833-4.156-11.219-5.993-17.521-5.038l-26.616,4.03c-12.037-32.084-34.862-59.081-64.695-76.36  c-3.583-2.075-8.173-0.853-10.249,2.731c-2.076,3.584-0.853,8.173,2.731,10.249c25.901,15.001,45.925,38.144,57.015,65.68  l-23.865,3.613c-11.206-24.201-30.863-43.575-55.269-54.407l10.061-66.44c0.955-6.303-0.882-12.689-5.038-17.523  C301.501,2.772,295.461,0,289.086,0h-66.182c-6.373,0-12.412,2.771-16.568,7.602c-4.156,4.832-5.994,11.217-5.042,17.519  l4.16,27.533c-40.724,14.754-73.184,46.824-88.418,87.407l-26.62-4.031c-6.303-0.955-12.689,0.883-17.522,5.039  c-4.833,4.156-7.604,10.196-7.604,16.57v66.177c0,6.375,2.772,12.415,7.605,16.571s11.219,5.991,17.522,5.039l25.61-3.878  c7.557,21.408,20.045,40.988,36.406,56.933c16.422,16.004,36.4,28.01,58.089,34.996l-3.821,37.457  c-4.842-1.953-10.035-2.967-15.371-2.967c-17.098,0-32.155,10.302-38.36,26.247c-1.535,3.943-4.686,7.145-8.872,9.015  c-14.981,6.69-24.865,21.428-25.664,37.612c-10.306,3.583-19.048,11.152-23.871,21.27l-8.086,16.963  c-3.42,7.174-2.929,15.47,1.313,22.191C92.029,507.987,99.306,512,107.254,512h297.49c7.948,0,15.225-4.013,19.467-10.733  c4.242-6.721,4.732-15.017,1.312-22.191l-8.086-16.964c-4.815-10.102-13.537-17.663-23.821-21.254  c0.002-0.069,0.01-0.136,0.01-0.205c0-17.077-10.282-32.13-26.195-38.351c-3.478-1.359-6.096-4.004-7.37-7.446  c-0.908-2.454-2.058-4.834-3.419-7.074c-2.15-3.539-6.764-4.667-10.304-2.516c-3.54,2.15-4.667,6.764-2.516,10.304  c0.865,1.423,1.595,2.935,2.171,4.493c2.742,7.405,8.565,13.313,15.977,16.21c9.454,3.696,15.779,12.295,16.569,22.263H263.828  c1.496-9.821,8.014-18.198,17.452-22.01c7.229-2.919,12.897-8.834,15.553-16.229c3.723-10.365,13.618-17.329,24.622-17.329  c1.645,0,3.29,0.153,4.888,0.454c4.074,0.766,7.993-1.91,8.76-5.98c0.768-4.071-1.91-7.993-5.98-8.76  c-2.513-0.474-5.092-0.714-7.667-0.714c-5.661,0-11.133,1.178-16.142,3.324l-3.866-37.805c21.555-6.938,41.434-18.84,57.799-34.695  c16.511-15.996,29.126-35.696,36.731-57.243l25.605,3.877c6.306,0.954,12.689-0.882,17.522-5.039  c4.833-4.156,7.605-10.196,7.605-16.571v-66.177C446.709,151.265,443.937,145.225,439.103,141.068z M340.353,148.329l-32.722,4.954  c-3.959,0.601-7.851-0.68-10.682-3.511c-2.831-2.831-4.11-6.725-3.511-10.682l4.853-32.049  C316.327,116.006,331.065,130.486,340.353,148.329z M218.512,139.087c0.598,3.957-0.682,7.85-3.512,10.679  c-2.831,2.831-6.724,4.112-10.681,3.51l-32.674-4.947c9.282-17.797,24.056-32.306,42.029-41.265L218.512,139.087z M207.743,67.807  l3.592,23.779c-24.323,10.818-44.051,30.249-55.245,54.388l-23.865-3.613C145.987,108.213,173.444,81.121,207.743,67.807z   M131.147,239.259l23.725-3.592c7.699,17.921,19.752,33.752,35.815,45.133c4.732,3.353,9.018,0.413,10.488-1.579  c2.46-3.332,1.753-8.028-1.579-10.488c-12.617-9.315-22.618-21.437-29.316-35.398l35.349-5.352  c3.839-0.583,7.654,0.622,10.465,3.299c2.812,2.678,4.198,6.43,3.804,10.293l-7.816,76.615  C175.046,305.228,145.04,275.973,131.147,239.259z M150.214,416.925c7.815-3.491,13.757-9.624,16.733-17.27  c3.945-10.137,13.516-16.687,24.382-16.687c4.911,0,9.624,1.352,13.745,3.91l-5.27,51.657h-66.093  C135.14,429.085,141.192,420.955,150.214,416.925z M403.896,468.566l8.086,16.964c1.209,2.537,1.042,5.354-0.457,7.73  c-1.5,2.376-3.972,3.739-6.782,3.739h-297.49c-2.81,0-5.282-1.363-6.781-3.739c-1.5-2.376-1.667-5.194-0.458-7.731l8.086-16.963  c4.353-9.131,13.702-15.031,23.816-15.031h248.162C390.195,453.536,399.544,459.436,403.896,468.566z M292.047,241.568  c-0.395-3.863,0.991-7.616,3.803-10.294s6.623-3.882,10.466-3.3l35.392,5.359c-9.559,19.784-25.962,35.939-45.882,45.193  L292.047,241.568z M348.809,288.019c-13.945,13.51-30.72,23.833-48.925,30.183l-2.455-24.003  c26.933-10.912,48.264-31.819,59.717-58.529l23.706,3.589C373.937,257.571,362.964,274.305,348.809,288.019z M431.709,223.816  c0,2.029-0.847,3.875-2.385,5.198s-3.488,1.885-5.497,1.581l-115.265-17.453c-8.457-1.278-16.864,1.37-23.059,7.271  c-6.194,5.902-9.248,14.169-8.377,22.681l14.124,138.113c-3.688,3.979-6.628,8.714-8.533,14.019  c-1.212,3.376-3.783,6.07-7.053,7.391c-15.146,6.117-25.366,19.933-26.944,35.918h-33.838l19.939-195.44  c0.868-8.511-2.187-16.776-8.381-22.676c-6.195-5.901-14.598-8.549-23.057-7.27l-44.838,6.789c-0.016,0.002-0.031,0.005-0.046,0.007  l-70.328,10.649c-2.006,0.304-3.958-0.257-5.497-1.581c-1.538-1.323-2.385-3.169-2.385-5.198v-66.177  c0-2.029,0.847-3.875,2.385-5.197c1.539-1.323,3.491-1.881,5.497-1.581l113.903,17.246c8.719,1.318,17.295-1.499,23.531-7.732  c6.236-6.234,9.057-14.81,7.739-23.528L216.126,22.879c-0.303-2.005,0.258-3.957,1.582-5.495c1.323-1.538,3.168-2.385,5.197-2.385  h66.182c2.029,0,3.875,0.847,5.198,2.385c1.323,1.539,1.884,3.491,1.58,5.497l-17.258,113.963c-1.32,8.72,1.499,17.298,7.735,23.534  s14.813,9.054,23.534,7.735l113.952-17.253c2.007-0.304,3.958,0.257,5.496,1.58c1.539,1.323,2.386,3.169,2.386,5.198  L431.709,223.816L431.709,223.816z"/>
<path d="M255.999,155.749c-19.431,0-35.238,15.808-35.238,35.238s15.808,35.238,35.238,35.238s35.238-15.808,35.238-35.238  S275.43,155.749,255.999,155.749z M255.999,211.226c-11.16,0-20.238-9.079-20.238-20.238s9.079-20.238,20.238-20.238  c11.159,0,20.238,9.079,20.238,20.238S267.159,211.226,255.999,211.226z"/>
<g>
</g>
<g>
</g>
<g>
</g>
<g>
</g>
<g>
</g>
<g>
</g>
<g>
</g>
<g>
</g>
<g>
</g>
<g>
</g>
<g>
</g>
<g>
</g>
<g>
</g>
<g>
</g>
<g>
</g>
</svg>
