<?xml version="1.0" encoding="iso-8859-1"?>
<!-- Generator: Adobe Illustrator 19.0.0, SVG Export Plug-In . SVG Version: 6.00 Build 0)  -->
<svg xmlns="http://www.w3.org/2000/svg" xmlns:xlink="http://www.w3.org/1999/xlink" version="1.1" id="Capa_1" x="0px" y="0px" viewBox="0 0 512 512" style="enable-background:new 0 0 512 512;" xml:space="preserve">
<path style="fill:#FFE477;" d="M402.902,245.667l-16.816,19.381c-2.813,3.242-3.979,7.598-3.162,11.812l4.881,25.175  c1.325,6.835-2.586,13.603-9.17,15.867l-24.242,8.336c-4.07,1.4-7.267,4.597-8.666,8.666l-8.336,24.241  c-2.264,6.584-9.032,10.495-15.867,9.17l-25.174-4.881c-4.214-0.817-8.57,0.349-11.812,3.162l-19.381,16.816  c-5.252,4.557-13.056,4.557-18.308,0l-19.381-16.816c-3.242-2.813-7.598-3.979-11.812-3.162l-25.175,4.881  c-6.835,1.325-13.603-2.586-15.867-9.17l-8.336-24.242c-1.399-4.07-4.597-7.267-8.666-8.666l-24.241-8.336  c-6.584-2.264-10.495-9.032-9.17-15.867l4.881-25.174c0.817-4.214-0.349-8.57-3.162-11.812l-16.816-19.381  c-4.557-5.252-4.557-13.056,0-18.308l16.816-19.381c2.813-3.242,3.979-7.598,3.162-11.812l-4.881-25.175  c-1.325-6.835,2.586-13.603,9.17-15.867l24.242-8.336c4.07-1.399,7.267-4.597,8.666-8.666l8.336-24.241  c2.264-6.584,9.032-10.495,15.867-9.17l25.174,4.881c4.214,0.817,8.57-0.349,11.812-3.162l19.381-16.816  c5.252-4.557,13.056-4.557,18.308,0l19.381,16.816c3.242,2.813,7.598,3.979,11.812,3.162l25.175-4.881  c6.835-1.325,13.603,2.586,15.867,9.17l8.336,24.242c1.4,4.07,4.597,7.267,8.666,8.666l24.241,8.336  c6.584,2.264,10.495,9.032,9.17,15.867l-4.881,25.174c-0.817,4.214,0.349,8.57,3.162,11.812l16.816,19.381  C407.458,232.611,407.458,240.415,402.902,245.667z"/>
<circle style="fill:#91DC5A;" cx="256" cy="236.51" r="111.54"/>
<path style="fill:#FF9478;" d="M255.999,190.244c-34.611,0-62.77-28.158-62.77-62.771c0-15.054,7.072-42.281,14.079-62.587  C217.593,35.081,230.611,7.5,255.999,7.5s38.406,27.581,48.693,57.386c7.008,20.305,14.079,47.532,14.079,62.587  C318.771,162.085,290.613,190.244,255.999,190.244z"/>
<path style="fill:#FF7956;" d="M252.815,130.973c0-15.054,7.072-42.281,14.079-62.587c5.47-15.851,11.713-31.072,20.178-41.85  C279.18,15.062,269.285,7.5,255.999,7.5c-25.388,0-38.406,27.581-48.69,57.386c-7.008,20.305-14.079,47.533-14.079,62.587  c0,34.613,28.158,62.771,62.77,62.771c9.493,0,18.494-2.129,26.568-5.917C264.725,173.244,252.815,153.478,252.815,130.973z"/>
<path style="fill:#FFC477;" d="M291.466,127.473c0,19.587-15.878,35.466-35.466,35.466s-35.466-15.878-35.466-35.466  S242.271,34.805,256,34.805C269.729,34.805,291.466,107.886,291.466,127.473z"/>
<path style="fill:#FFB655;" d="M266.894,68.386c1.526-4.423,3.115-8.795,4.794-13.037C266.314,43.337,260.69,34.805,256,34.805  c-13.729,0-35.465,73.081-35.465,92.668s15.878,35.466,35.465,35.466c1.823,0,3.613-0.138,5.362-0.404  c-5.423-9.28-8.547-20.06-8.547-31.563C252.815,115.919,259.887,88.691,266.894,68.386z"/>
<path style="fill:#B9D8F4;" d="M326.359,463.824H185.641V193.571c0-16.918,13.715-30.632,30.632-30.632h79.453  c16.918,0,30.632,13.715,30.632,30.632v270.253H326.359z"/>
<path style="fill:#96C8EF;" d="M259.145,162.939h-42.871c-16.918,0-30.632,13.715-30.632,30.633v270.253h42.871V193.571  C228.512,176.654,242.227,162.939,259.145,162.939z"/>
<path style="fill:#D1E7F8;" d="M295.727,162.939h-79.454c-16.918,0-30.632,13.715-30.632,30.632v56.136  c0.001,8.249,6.75,14.999,15,14.999s15-6.75,15-15v-14.424c0-6.974,5.706-12.68,12.68-12.68l0,0c6.974,0,12.679,5.706,12.679,12.68  v58.273c0,8.25,6.75,15,15,15c8.25,0,15-6.75,15-15v-34.881c0-6.974,5.706-12.68,12.679-12.68l0,0  c6.974,0,12.679,5.706,12.679,12.68v11.711c0,8.25,6.75,15,15,15s14.999-6.749,15-14.999v-76.815  C326.359,176.654,312.645,162.939,295.727,162.939z"/>
<path style="fill:#B9D8F4;" d="M259.145,162.939h-42.871c-16.918,0-30.632,13.715-30.632,30.632v56.136  c0.001,8.249,6.75,14.999,15,14.999s15-6.75,15-15v-14.424c0-6.974,5.706-12.68,12.68-12.68c0.065,0,0.127,0.009,0.192,0.01v-29.041  C228.512,176.653,242.227,162.939,259.145,162.939z"/>
<path style="fill:#D1E7F8;" d="M256,373.098L256,373.098c-8.25,0-15-6.75-15-15v-14.274c0-8.25,6.75-15,15-15l0,0  c8.25,0,15,6.75,15,15v14.274C271,366.348,264.25,373.098,256,373.098z"/>
<path style="fill:#FFE477;" d="M86.307,412.823c-13.079,0-22.865,12.09-20.019,24.855c6.055,27.149,22.714,66.822,68.375,66.822  h242.672c45.661,0,62.321-39.672,68.375-66.822c2.847-12.766-6.939-24.855-20.019-24.855H86.307z"/>
<path style="fill:#FFDA44;" d="M160.137,437.678c-2.847-12.766,6.939-24.855,20.019-24.855H86.307  c-13.079,0-22.865,12.09-20.019,24.855c6.055,27.149,22.714,66.822,68.375,66.822h93.848  C182.851,504.5,166.191,464.828,160.137,437.678z"/>
<path style="fill:#FF728B;" d="M425.693,412.823H86.307c-13.079,0-22.865,12.09-20.019,24.855  c1.453,6.514,3.518,13.748,6.446,20.983h366.531c2.927-7.235,4.993-14.469,6.446-20.983  C448.558,424.913,438.772,412.823,425.693,412.823z"/>
<path style="fill:#FF3F62;" d="M180.155,412.823H86.307c-13.079,0-22.865,12.09-20.019,24.855  c1.453,6.514,3.518,13.748,6.446,20.983h93.848c-2.927-7.235-4.993-14.469-6.446-20.983  C157.29,424.913,167.076,412.823,180.155,412.823z"/>
<path d="M447.567,415.825c-5.349-6.674-13.322-10.501-21.875-10.501h-91.833v-31.567c4.918-2.487,8.778-6.806,10.623-12.17  l8.336-24.242c0.652-1.897,2.115-3.36,4.014-4.013l24.241-8.336c10.059-3.459,16.118-13.943,14.094-24.387l-4.881-25.176  c-0.381-1.964,0.153-3.958,1.465-5.469l16.815-19.381c6.959-8.021,6.959-20.117,0-28.138l-16.815-19.382  c-1.312-1.511-1.846-3.504-1.464-5.469l4.881-25.175c2.024-10.443-4.035-20.927-14.095-24.387l-24.241-8.336  c-1.897-0.652-3.36-2.115-4.013-4.013l-8.338-24.242c-3.269-9.504-12.806-15.429-22.656-14.347  c-2.823-12.104-6.583-24.624-10.044-34.654C300.588,30.009,286.083,0,255.999,0c-17.817,0-32.096,10.803-43.649,33.025  c-1.911,3.675-0.48,8.204,3.194,10.114c3.673,1.91,8.203,0.481,10.114-3.194C234.507,22.926,244.147,15,255.999,15  c12.227,0,25.729,6.34,41.603,52.333c6.583,19.076,13.669,46.032,13.669,60.14c0,10.196-2.785,20.064-8.064,28.707  c-2.42-0.483-14.628-0.741-14.628-0.741c6.467-7.522,10.388-17.292,10.388-27.965c0-10.704-5.465-34.308-12.995-56.126  c-3.988-11.557-8.165-21.396-12.078-28.454c-4.024-7.258-9.694-15.588-17.893-15.588c-8.199,0-13.868,8.331-17.893,15.588  c-3.913,7.057-8.09,16.896-12.078,28.454c-7.53,21.818-12.995,45.423-12.995,56.126c0,10.674,3.922,20.443,10.388,27.965  c0,0-12.208,0.258-14.628,0.741c-5.285-8.633-8.065-18.452-8.065-28.707c0-14.108,7.086-41.064,13.669-60.14  c1.352-3.916-0.728-8.185-4.644-9.537c-3.913-1.351-8.185,0.728-9.536,4.643c-3.461,10.03-7.221,22.55-10.044,34.654  c-9.845-1.079-19.387,4.844-22.657,14.347l-8.336,24.241c-0.652,1.898-2.115,3.36-4.014,4.013l-24.241,8.336  c-10.059,3.459-16.118,13.943-14.094,24.387l4.881,25.176c0.381,1.964-0.153,3.957-1.465,5.469l-16.815,19.381  c-6.959,8.021-6.959,20.117,0,28.138l16.815,19.382c1.312,1.511,1.846,3.504,1.464,5.469l-4.881,25.175  c-2.024,10.443,4.035,20.927,14.095,24.387l24.241,8.336c1.897,0.653,3.36,2.116,4.013,4.013l8.338,24.242  c1.838,5.343,5.679,9.677,10.622,12.173v31.563H86.308c-8.553,0-16.526,3.828-21.875,10.501c-5.321,6.638-7.313,15.199-5.464,23.486  C69.423,486.185,96.305,512,134.664,512h242.672c38.359,0,65.241-25.815,75.695-72.689  C454.88,431.023,452.889,422.463,447.567,415.825z M326.271,127.473c0-4.479-0.545-9.77-1.464-15.482  c2.458,0.247,4.656,1.898,5.491,4.327l8.337,24.242c2.167,6.299,7.021,11.154,13.319,13.32l24.242,8.336  c3.03,1.042,4.856,4.201,4.246,7.347l-4.88,25.174c-1.266,6.521,0.506,13.139,4.859,18.156l16.815,19.381  c2.097,2.417,2.097,6.061,0,8.478l-16.815,19.381c-4.354,5.017-6.125,11.635-4.86,18.155l4.88,25.175  c0.61,3.146-1.215,6.305-4.246,7.348l-24.24,8.336c-6.3,2.166-11.155,7.021-13.321,13.32l-4.773,13.881v-19.792  c26.208-22.666,41.181-55.311,41.181-90.043c0-28.926-10.501-56.813-29.569-78.522c-2.732-3.112-7.472-3.419-10.584-0.686  s-3.419,7.472-0.686,10.584c16.662,18.971,25.839,43.342,25.839,68.624c0,25.708-9.392,50.105-26.181,69.009V193.571  c0-13.086-6.628-24.651-16.701-31.521C323.132,151.527,326.271,139.683,326.271,127.473z M239.033,79.715  C246.892,56.007,253.141,46.122,256,43.08c2.859,3.042,9.108,12.928,16.967,36.636c6.271,18.918,10.999,39.45,10.999,47.758  c0,12.822-8.677,23.649-20.466,26.936v-46.869c0-4.142-3.357-7.5-7.5-7.5c-4.143,0-7.5,3.358-7.5,7.5v46.869  c-11.788-3.287-20.466-14.114-20.466-26.936C228.034,119.166,232.763,98.634,239.033,79.715z M216.273,170.439h79.453  c12.756,0,23.133,10.377,23.133,23.132v76.814c0,4.135-3.365,7.5-7.5,7.5c-4.136,0-7.5-3.364-7.5-7.5v-11.711  c0-11.127-9.053-20.18-20.18-20.18s-20.18,9.053-20.18,20.18v6.905c0,4.142,3.357,7.5,7.5,7.5s7.5-3.358,7.5-7.5v-6.905  c0-2.808,2.372-5.18,5.18-5.18s5.18,2.372,5.18,5.18v11.711c0,12.407,10.094,22.5,22.5,22.5c2.629,0,5.153-0.458,7.5-1.29v113.728  H193.141V270.916c2.347,0.833,4.871,1.29,7.5,1.29c12.406,0,22.5-10.093,22.5-22.5v-14.424c0-2.808,2.372-5.18,5.18-5.18  s5.18,2.372,5.18,5.18v58.273c0,12.407,10.094,22.5,22.5,22.5s22.5-10.093,22.5-22.5c0-4.142-3.357-7.5-7.5-7.5s-7.5,3.358-7.5,7.5  c0,4.136-3.364,7.5-7.5,7.5c-4.136,0-7.5-3.364-7.5-7.5v-58.273c0-11.127-9.053-20.18-20.18-20.18s-20.18,9.053-20.18,20.18v14.424  c0,4.136-3.364,7.5-7.5,7.5c-4.135,0-7.5-3.364-7.5-7.5v-56.135C193.141,180.816,203.518,170.439,216.273,170.439z M191.335,155.018  c1.028,2.402,2.203,4.746,3.505,7.034c-10.072,6.871-16.699,18.435-16.699,31.52v111.96c-16.794-18.901-26.181-43.284-26.181-69.018  C151.96,204.627,166.554,174.7,191.335,155.018z M173.366,332.466c-2.166-6.298-7.021-11.153-13.319-13.32l-24.241-8.336  c-3.031-1.042-4.857-4.201-4.247-7.347l4.881-25.174c1.265-6.521-0.507-13.139-4.86-18.156l-16.815-19.381  c-2.097-2.417-2.097-6.061,0-8.478l16.815-19.381c4.354-5.017,6.125-11.635,4.86-18.155l-4.88-25.175  c-0.61-3.146,1.215-6.305,4.246-7.348l24.24-8.336c6.3-2.166,11.155-7.021,13.321-13.32l8.335-24.241  c0.836-2.431,3.029-4.082,5.492-4.328c-0.919,5.711-1.464,11.002-1.464,15.482c0,4.13,0.365,8.202,1.061,12.191  c-31.25,22.362-49.83,58.358-49.83,96.85c0,34.765,14.965,67.377,41.181,90.046v19.792L173.366,332.466z M438.391,436.046  c-1.102,4.942-2.51,10.052-4.287,15.116H105.681c-4.143,0-7.5,3.358-7.5,7.5s3.357,7.5,7.5,7.5h321.782  C417.984,483.316,402.535,497,377.336,497H134.664c-39.228,0-54.854-33.147-61.055-60.955c-0.853-3.821,0.068-7.772,2.527-10.839  c2.486-3.103,6.194-4.883,10.171-4.883h339.385c3.977,0,7.685,1.78,10.171,4.883C438.322,428.273,439.243,432.224,438.391,436.046z"/>
<path d="M256,321.324c-12.406,0-22.5,10.093-22.5,22.5v14.274c0,12.407,10.094,22.5,22.5,22.5c12.406,0,22.5-10.093,22.5-22.5  v-14.274C278.5,331.417,268.406,321.324,256,321.324z M263.5,358.098c0,4.136-3.364,7.5-7.5,7.5c-4.136,0-7.5-3.364-7.5-7.5v-14.274  c0-4.136,3.364-7.5,7.5-7.5s7.5,3.364,7.5,7.5V358.098z"/>
<g>
</g>
<g>
</g>
<g>
</g>
<g>
</g>
<g>
</g>
<g>
</g>
<g>
</g>
<g>
</g>
<g>
</g>
<g>
</g>
<g>
</g>
<g>
</g>
<g>
</g>
<g>
</g>
<g>
</g>
</svg>
