<?xml version="1.0" encoding="iso-8859-1"?>
<!-- Generator: Adobe Illustrator 19.0.0, SVG Export Plug-In . SVG Version: 6.00 Build 0)  -->
<svg xmlns="http://www.w3.org/2000/svg" xmlns:xlink="http://www.w3.org/1999/xlink" version="1.1" id="Capa_1" x="0px" y="0px" viewBox="0 0 512 512" style="enable-background:new 0 0 512 512;" xml:space="preserve">
<path style="fill:#00EED1;" d="M11.101,189.317c1.275-15.447,9.256-32.086,39.975-23.998c8.084,2.129,16.652,0.16,23.033-5.241  c9.857-8.345,25.331-16.95,37.554-2.692c8.657,10.099,9.262,24.857,1.987,35.993c-12.031,18.416-38.154,44.428-83.339,26.475  C17.942,214.94,10.006,202.581,11.101,189.317z"/>
<path style="fill:#00CCB3;" d="M113.649,193.386c7.275-11.135,6.67-25.894-1.987-35.992c-12.223-14.259-27.696-5.653-37.554,2.691  c-6.38,5.402-14.948,7.37-23.033,5.241c-1.514-0.399-2.958-0.721-4.364-1.002c-8.828,13.856-16.564,32.856-15.258,55.977  C75.934,237.365,101.72,211.645,113.649,193.386z"/>
<path style="fill:#FF3F62;" d="M11.77,252.988c-6.608-12.157-8.793-28.485,18.101-37.481c7.078-2.367,12.511-8.031,14.631-15.186  c3.275-11.054,10.616-25.052,26.72-20.389c11.406,3.303,19.081,14.025,19.099,25.899c0.031,19.638-6.742,51.843-49.263,60.554  C29.418,268.77,17.444,263.427,11.77,252.988z"/>
<path style="fill:#D80027;" d="M34.874,266.94c2.047,0.048,4.12-0.12,6.183-0.542c42.521-8.711,49.294-40.917,49.263-60.554  c-0.006-4.043-0.918-7.942-2.545-11.47C64.096,198.657,38.778,215.553,34.874,266.94z"/>
<circle style="fill:#1D1D1F;" cx="140.98" cy="386.829" r="71.5"/>
<circle style="fill:#3E3D42;" cx="95.68" cy="324.419" r="88.18"/>
<path style="fill:#2D2D30;" d="M95.684,236.235c-5.114,0-10.124,0.441-15,1.276c-0.127,0.146-56.308,64.822-34.365,159.991  c14.086,9.533,31.075,15.102,49.365,15.102c48.703,0,88.184-39.481,88.184-88.184C183.869,275.717,144.387,236.235,95.684,236.235z"/>
<path style="fill:#57565C;" d="M88.905,292.662c0,0,8.786,160.823,200.584,160.823s200.418-159.756,200.418-159.756L88.905,292.662z  "/>
<path style="fill:#3E3D42;" d="M289.554,293.195l-200.649-0.534c0,0,8.786,160.823,200.584,160.823c0.022,0,0.043,0,0.064,0V293.195  H289.554z"/>
<circle style="fill:#FFDAAA;" cx="118.96" cy="327.259" r="45.839"/>
<path style="fill:#FFC477;" d="M164.801,327.255c0-25.316-20.523-45.839-45.839-45.839c-3.805,0-7.498,0.472-11.033,1.346  c-0.003,0.007-18.202,39.108-6.971,86.657c5.528,2.364,11.612,3.675,18.004,3.675C144.278,373.094,164.801,352.571,164.801,327.255z  "/>
<circle style="fill:#FFDAAA;" cx="458.66" cy="327.259" r="45.839"/>
<path style="fill:#FFC477;" d="M412.822,327.255c0-25.316,20.523-45.839,45.839-45.839c3.805,0,7.498,0.472,11.033,1.346  c0.003,0.007,18.202,39.108,6.971,86.657c-5.528,2.364-11.612,3.675-18.004,3.675C433.345,373.094,412.822,352.571,412.822,327.255z  "/>
<path style="fill:#D1E7F8;" d="M477.417,221.125c0,103.754-61.439,265.433-187.863,265.433s-187.863-161.68-187.863-265.433  S185.8,33.262,289.554,33.262S477.417,117.371,477.417,221.125z"/>
<path style="fill:#B9D8F4;" d="M311.876,484.812C142.335,327.87,195.787,132.385,235.07,41.297  c-77.182,23.354-133.379,95.023-133.379,179.828c0,103.754,61.439,265.433,187.863,265.433  C297.235,486.558,304.674,485.956,311.876,484.812z"/>
<path style="fill:#FF728B;" d="M264.454,270.301c3.013-2.757,4.914-6.709,4.914-11.114c0-8.328-6.751-15.078-15.078-15.078  c-2.013,0-3.93,0.402-5.685,1.118c0.169-0.903,0.267-1.831,0.267-2.783c0-8.327-6.751-15.078-15.078-15.078  c-4.594,0-8.7,2.061-11.466,5.301c-2.26-5.476-7.647-9.332-13.939-9.332c-6.029,0-11.216,3.546-13.629,8.659  c-2.75-3.673-7.124-6.148-12.064-6.061c-15.973,0.282-15.05,15.7-15.031,16.01c-1.617-0.592-3.355-0.931-5.177-0.931  c-8.328,0-15.078,6.751-15.078,15.078c0,3.46,1.178,6.639,3.138,9.183c-6.889,1.392-12.077,7.478-12.077,14.778  c0,6.121,3.654,11.379,8.894,13.742c-2.812,2.739-4.515,6.561-4.564,10.796c-0.185,15.999,16.744,15.046,16.744,15.078  c0,8.327,6.751,15.078,15.078,15.078c3.047,0,5.878-0.911,8.249-2.465c2.651,4.325,7.407,7.22,12.851,7.22  c6.859,0,12.638-4.584,14.467-10.852c2.659,2.349,6.15,4.031,9.968,3.786c16.296-1.044,15.057-15.447,15.05-15.633  c1.277,0.351,2.615,0.554,4.003,0.554c8.328,0,15.078-6.751,15.078-15.078c0-2.071-0.419-4.044-1.175-5.841  c0.389,0.03,15.74,0.029,16.253-15.019C269.518,277.013,267.467,273.058,264.454,270.301z"/>
<path style="fill:#FF3F62;" d="M194.76,231.992c-2.75-3.673-7.124-6.148-12.064-6.061c-15.973,0.282-15.05,15.7-15.031,16.01  c-1.616-0.592-3.355-0.932-5.177-0.932c-8.328,0-15.078,6.751-15.078,15.078c0,3.46,1.178,6.639,3.138,9.183  c-6.889,1.392-12.077,7.478-12.077,14.778c0,6.122,3.654,11.38,8.895,13.742c-2.812,2.739-4.515,6.561-4.564,10.796  c-0.185,15.999,16.744,15.045,16.744,15.078c0,8.327,6.751,15.078,15.078,15.078c3.047,0,5.878-0.911,8.249-2.465  c2.651,4.325,7.407,7.22,12.851,7.22c6.859,0,12.638-4.583,14.467-10.852C210.19,328.646,195.672,278.322,194.76,231.992z"/>
<path style="fill:#57565C;" d="M210.184,321.974c-22.102,7.826-46.363-3.747-54.189-25.848  c-7.826-22.102,3.747-46.363,25.848-54.189s65.7-3.1,73.526,19.001C263.196,283.039,232.286,314.148,210.184,321.974z"/>
<path style="fill:#3E3D42;" d="M208.535,322.519c-3.588-13.841-11.896-49-13.534-83.48c-4.831,0.577-9.321,1.547-13.156,2.905  c-22.102,7.826-33.674,32.087-25.849,54.188C163.627,317.687,186.888,329.218,208.535,322.519z"/>
<path style="fill:#FF728B;" d="M309.74,281.416c0.513,15.048,15.864,15.049,16.253,15.019c-0.756,1.797-1.175,3.77-1.175,5.841  c0,8.327,6.751,15.078,15.078,15.078c1.388,0,2.726-0.203,4.003-0.554c-0.007,0.185-1.245,14.589,15.05,15.633  c3.819,0.245,7.31-1.437,9.968-3.786c1.829,6.268,7.608,10.852,14.467,10.852c5.444,0,10.2-2.895,12.851-7.22  c2.371,1.554,5.202,2.465,8.249,2.465c8.328,0,15.078-6.751,15.078-15.078c0-0.033,16.929,0.921,16.744-15.078  c-0.049-4.235-1.752-8.057-4.564-10.796c5.24-2.362,8.894-7.62,8.894-13.742c0-7.299-5.188-13.386-12.077-14.778  c1.96-2.544,3.138-5.723,3.138-9.183c0-8.327-6.751-15.078-15.078-15.078c-1.822,0-3.56,0.34-5.176,0.931  c0.019-0.31,0.942-15.727-15.031-16.01c-4.941-0.087-9.314,2.388-12.064,6.061c-2.413-5.113-7.6-8.659-13.629-8.659  c-6.292,0-11.678,3.856-13.939,9.332c-2.766-3.24-6.872-5.301-11.466-5.301c-8.328,0-15.078,6.751-15.078,15.078  c0,0.952,0.099,1.88,0.267,2.783c-1.756-0.716-3.673-1.118-5.685-1.118c-8.328,0-15.078,6.751-15.078,15.078  c0,4.406,1.901,8.357,4.914,11.114C311.641,273.058,309.59,277.013,309.74,281.416z"/>
<g>
	<path style="fill:#57565C;" d="M368.924,321.974c22.102,7.826,46.363-3.747,54.189-25.848c7.826-22.102-3.747-46.363-25.848-54.189   c-22.102-7.826-65.7-3.1-73.526,19.001C315.912,283.039,346.822,314.148,368.924,321.974z"/>
	<path style="fill:#57565C;" d="M309.748,347.967c0,11.153-9.041,20.194-20.194,20.194s-20.194-9.041-20.194-20.194   s9.041-37.131,20.194-37.131C300.707,310.836,309.748,336.814,309.748,347.967z"/>
</g>
<path style="fill:#3E3D42;" d="M290.455,347.967c0-7.287,3.86-20.898,9.646-29.462c-3.07-4.544-6.682-7.669-10.548-7.669  c-11.153,0-20.194,25.978-20.194,37.131s9.041,20.194,20.194,20.194c3.871,0,7.475-1.109,10.548-2.997  C294.322,361.611,290.455,355.248,290.455,347.967z"/>
<circle style="fill:#B6E892;" cx="203.92" cy="281.419" r="18"/>
<path style="fill:#A4E276;" d="M197.3,264.672c-6.661,2.64-11.38,9.126-11.38,16.727c0,9.685,7.654,17.56,17.24,17.962  C201.071,289.28,198.912,277.323,197.3,264.672z"/>
<circle style="fill:#B6E892;" cx="378.15" cy="281.419" r="18"/>
<path style="fill:#FF728B;" d="M289.554,400.16c0,0-27.837-16.14-40.985,17.386c0.034,0.008,40.985,5.788,40.985,5.788  s40.951-5.779,40.985-5.788C317.391,384.02,289.554,400.16,289.554,400.16z"/>
<path style="fill:#FF3F62;" d="M248.569,417.545c0,0-6.838,35.94,40.92,35.94s41.049-35.94,41.049-35.94l-40.985,5.788  L248.569,417.545z"/>
<path style="fill:#00CCB3;" d="M146.906,214.923c-2.29-3.451-1.35-8.106,2.102-10.396c1.178-0.782,29.279-19.114,67.981-16.338  c15.087,1.084,26.595-2.034,32.408-8.778c3.464-4.019,4.795-9.261,3.651-14.384c-1.258-5.637-7.196-7.703-11.899-7.76  c-0.065-0.001-0.131-0.001-0.196-0.001c-4.749,0-10.71,2.068-12.17,7.938c-1,4.02-5.069,6.464-9.089,5.468  c-4.02-1-6.468-5.069-5.468-9.089c2.884-11.594,13.585-19.317,26.699-19.317c0.135,0,0.271,0.001,0.405,0.002  c13.199,0.16,23.792,7.993,26.358,19.492c2.187,9.796-0.34,19.8-6.931,27.445c-6.358,7.375-19.295,15.779-44.844,13.946  c-33.64-2.415-58.351,13.737-58.612,13.874C152.737,219.422,148.351,217.098,146.906,214.923z"/>
<path style="fill:#00AA95;" d="M196.571,188.586c-27.818,3.049-46.605,15.304-47.563,15.94c-3.451,2.291-4.392,6.945-2.102,10.396  c1.444,2.175,5.831,4.499,10.396,2.102c0.205-0.108,15.417-10.041,38.17-13.179C195.745,198.709,196.114,193.621,196.571,188.586z"/>
<path style="fill:#00CCB3;" d="M421.82,217.034L421.82,217.034c-0.249-0.163-25.214-16.285-58.627-13.884  c-25.546,1.831-38.486-6.572-44.844-13.946c-6.591-7.646-9.117-17.649-6.932-27.445c2.566-11.499,13.159-19.333,26.358-19.492  c0.135-0.001,0.271-0.002,0.405-0.002c13.115,0,23.815,7.722,26.699,19.317c1,4.02-1.448,8.089-5.468,9.089  c-4.022,0.997-8.089-1.448-9.089-5.468c-1.46-5.869-7.421-7.938-12.17-7.938c-0.065,0-0.131,0-0.196,0.001  c-4.703,0.057-10.642,2.124-11.899,7.76c-1.144,5.123,0.188,10.365,3.652,14.384c5.813,6.744,17.319,9.863,32.408,8.778  c38.69-2.778,66.804,15.557,67.98,16.338c3.451,2.291,4.392,6.945,2.102,10.396C430.757,217.098,427.075,220.294,421.82,217.034z"/>
<path style="fill:#FFE477;" d="M302.714,225.251c0,7.268-5.892,13.161-13.161,13.161c-7.268,0-13.16-5.892-13.16-13.161  c0-7.268,5.892-32.28,13.16-32.28C296.822,192.971,302.714,217.983,302.714,225.251z"/>
<path style="fill:#57565C;" d="M489.905,293.727c0.001,0,0.001,0.001,0.002,0.002l0.037,0.021c0,0,36.377-133.595-37.323-214.919  c-59.34-65.478-128.831-55.058-153.66-48.51c-6.168,1.626-12.636,1.626-18.804,0c-24.83-6.547-94.325-16.968-153.664,48.51  c-73.699,81.323-37.588,213.828-37.587,213.832c5.386-4.684,11.871-8.132,19.024-9.9c0,0,5.715-156.705,130.588-189.231  c10.685-2.783,22.056-0.596,31.121,5.708c3.405,2.368,7.016,4.861,10.215,7.062c5.849,4.025,13.563,4.025,19.412-0.001  c3.231-2.224,6.883-4.745,10.318-7.134c9.064-6.305,20.438-8.397,31.12-5.605c124.763,32.618,130.41,189.568,130.41,189.568  S480.882,285.354,489.905,293.727z"/>
<path style="fill:#3E3D42;" d="M242.227,25.435c-32.322-0.128-76.272,9.845-115.735,53.391  c-73.699,81.323-37.588,213.828-37.587,213.831c5.386-4.684,11.871-8.132,19.024-9.9c0,0,4.917-134.683,105.135-180.241  c0.002-0.001,0.005-0.002,0.007-0.003C222.136,71.229,233.086,44.79,242.227,25.435L242.227,25.435z"/>
<path d="M379.856,390.582c-0.92,0.525-1.855,1.02-2.783,1.528l-1.166-3.693c-1.248-3.95-5.457-6.143-9.411-4.894  c-3.949,1.247-6.141,5.46-4.894,9.41l1.868,5.916c-3.281,1.455-6.601,2.813-9.958,4.07l-3.842-12.166  c-1.248-3.95-5.457-6.143-9.411-4.894c-3.949,1.247-6.141,5.46-4.894,9.41l3.888,12.312c-1.488,0.422-2.987,0.805-4.486,1.189  c-4.842-9.253-11.417-15.389-19.62-18.252c-10.365-3.619-20.358-0.77-25.595,1.367c-5.236-2.136-15.23-4.986-25.595-1.367  c-8.204,2.863-14.778,9-19.619,18.253c-1.499-0.384-2.998-0.768-4.487-1.189l3.888-12.312c1.247-3.95-0.944-8.163-4.894-9.41  c-3.952-1.247-8.163,0.944-9.411,4.894l-3.842,12.166c-3.357-1.257-6.677-2.615-9.958-4.07l1.868-5.916  c1.247-3.95-0.944-8.163-4.894-9.41c-3.953-1.246-8.162,0.944-9.411,4.894l-1.166,3.693c-0.928-0.508-1.863-1.003-2.783-1.528  c-3.599-2.052-8.178-0.799-10.23,2.799c-2.053,3.598-0.799,8.178,2.799,10.23c1.854,1.058,3.725,2.084,5.61,3.08l-1.591,5.038  c-1.247,3.95,0.944,8.163,4.894,9.41c0.752,0.237,7.445,1.503,9.411-4.894l0.955-3.025c3.292,1.426,6.612,2.778,9.973,4.021  l-3.972,12.579c-1.247,3.95,0.944,8.163,4.894,9.41c0.752,0.237,7.231,1.569,9.411-4.894l3.931-12.448  c1.804,0.516,3.616,0.999,5.433,1.464c0.189,6.02,1.746,14.822,8.121,22.524c8.297,10.024,21.957,15.107,40.6,15.107  c4.104,0,8.018-0.25,11.63-0.745c4.104-0.561,6.976-4.343,6.414-8.447c-0.561-4.104-4.345-6.975-8.447-6.415  c-2.94,0.402-6.17,0.606-9.597,0.606c-13.876,0-23.615-3.215-28.948-9.557c-2.626-3.123-3.856-6.687-4.403-9.785  c11.007,1.903,22.187,2.882,33.415,2.882c11.218,0,22.387-0.977,33.385-2.877c-0.394,2.182-1.125,4.591-2.452,6.914  c-2.055,3.597-0.804,8.178,2.793,10.232c1.174,0.67,7.259,2.198,10.232-2.793c3.77-6.329,4.689-12.892,4.842-17.651  c1.812-0.463,3.62-0.946,5.418-1.46l3.931,12.448c2.714,7.15,8.659,5.131,9.411,4.894c3.949-1.247,6.141-5.46,4.894-9.41  l-3.972-12.579c3.361-1.243,6.681-2.596,9.973-4.021l0.955,3.025c2.363,7.088,8.659,5.131,9.411,4.894  c3.949-1.247,6.141-5.46,4.894-9.41l-1.591-5.038c1.885-0.995,3.756-2.022,5.61-3.08c3.598-2.052,4.852-6.633,2.799-10.23  C388.034,389.782,383.451,388.529,379.856,390.582z M259.854,412.044c2.565-3.66,5.558-6.119,8.953-7.33  c8.196-2.921,16.939,1.908,16.985,1.933c2.295,1.331,5.168,1.325,7.482,0.024c0.088-0.049,8.83-4.879,17.026-1.957  c3.396,1.21,6.388,3.67,8.954,7.329c-9.792,1.627-19.724,2.481-29.701,2.481C279.577,414.525,269.645,413.672,259.854,412.044z"/>
<path d="M213.035,338.876c2.475,0.845,5.04,1.203,7.603,1.042c8.901-0.57,14.012-4.38,16.73-7.476  c2.195-2.5,3.509-5.216,4.287-7.719c11.26-1.218,20.065-10.749,20.134-22.313c2.667-0.925,5.493-2.368,7.963-4.576  c4.428-3.958,6.887-9.547,7.112-16.164c0.135-3.984-0.896-7.923-2.916-11.411c1.892-3.354,2.92-7.167,2.92-11.072  c0-12.003-9.417-21.85-21.251-22.54c-2.565-9.65-11.378-16.783-21.824-16.783c-3.43,0-6.766,0.779-9.781,2.232  c-4.115-3.949-9.661-6.264-15.623-6.264c-5.458,0-10.651,2.009-14.678,5.457c-3.386-1.911-7.196-2.919-11.147-2.857  c-8.634,0.153-13.75,3.766-16.521,6.771c-2.437,2.642-3.88,5.607-4.728,8.337c-11.906,0.612-21.404,10.492-21.404,22.548  c0,1.874,0.227,3.711,0.671,5.487c-5.86,4.134-9.61,10.959-9.61,18.474c0,5.877,2.301,11.411,6.213,15.535  c-1.199,2.766-1.847,5.785-1.882,8.917c-0.095,8.158,3.207,13.185,5.993,15.965c3.615,3.608,8.06,5.302,11.821,6.078  c2.916,9.097,11.454,15.7,21.507,15.7c2.11,0,4.191-0.293,6.192-0.865c4.057,3.59,9.303,5.62,14.907,5.62  C202.521,346.998,208.826,343.889,213.035,338.876z M253.312,288.937c0.209,0.001,0.34,0.017,0.386,0.02  C253.568,288.947,253.44,288.94,253.312,288.937z M189.267,328.358c-1.061-1.729-2.766-3.004-4.756-3.399  c-2.717-0.54-4.519,0.239-5.75,1.046c-1.235,0.81-2.666,1.238-4.138,1.238c-4.179,0-7.578-3.4-7.578-7.579  c0-2.007-0.805-3.93-2.233-5.339s-3.449-2.192-5.461-2.16c-1.839,0.027-5.571-0.433-7.46-2.317  c-0.403-0.402-1.631-1.627-1.591-5.175c0.025-2.134,0.841-4.091,2.298-5.51c1.778-1.731,2.584-4.229,2.154-6.674  c-0.431-2.444-2.042-4.517-4.305-5.537c-2.72-1.226-4.477-3.936-4.477-6.904c0-3.594,2.55-6.717,6.063-7.426  c2.539-0.513,4.634-2.3,5.54-4.727c0.907-2.427,0.497-5.149-1.084-7.202c-0.721-0.936-1.579-2.494-1.579-4.606  c0-4.179,3.399-7.578,7.578-7.578c0.864,0,1.739,0.16,2.6,0.475c2.378,0.87,5.037,0.502,7.066-1.013  c2.029-1.516,3.158-3.933,2.998-6.46c-0.049-1.087,0.205-4.316,1.945-6.169c0.428-0.455,1.729-1.841,5.731-1.911  c2.264-0.07,4.464,1.103,5.929,3.058c1.576,2.105,4.136,3.228,6.759,2.966c2.617-0.265,4.904-1.883,6.027-4.262  c1.249-2.648,3.936-4.359,6.845-4.359c3.079,0,5.829,1.842,7.006,4.693c0.996,2.414,3.176,4.136,5.755,4.546  c2.576,0.41,5.187-0.552,6.882-2.538c1.449-1.697,3.556-2.844,5.762-2.67c7.941,0.624,7.532,8.483,7.438,8.99  c-0.502,2.697,0.509,5.452,2.635,7.185c2.127,1.733,5.029,2.167,7.569,1.132c0.915-0.373,1.875-0.563,2.854-0.563  c4.179,0,7.579,3.399,7.579,7.578c0,2.137-0.88,4.12-2.478,5.581c-1.553,1.421-2.437,3.429-2.437,5.533s0.884,4.112,2.437,5.533  c0.776,0.71,2.572,2.651,2.481,5.326c-0.235,6.908-6.035,7.745-8.581,7.776c-2.458-0.055-4.805,1.098-6.256,3.107  c-1.531,2.12-1.848,4.885-0.835,7.295c0.391,0.93,0.589,1.917,0.589,2.937c0,4.179-3.399,7.578-7.578,7.578  c-0.647,0-1.325-0.096-2.013-0.285c-2.304-0.633-4.771-0.133-6.645,1.35s-2.929,3.77-2.841,6.157  c0.003,0.072,0.169,3.437-1.614,5.467c-1.231,1.402-3.392,2.211-6.42,2.405c-1.896,0.129-3.652-1.151-4.523-1.922  c-1.925-1.699-4.583-2.295-7.051-1.583c-2.467,0.714-4.396,2.64-5.115,5.104c-0.936,3.21-3.924,5.452-7.267,5.452  C193.077,331.998,190.663,330.638,189.267,328.358z"/>
<path d="M448.137,280.049c0-7.515-3.749-14.34-9.61-18.474c0.445-1.775,0.672-3.614,0.672-5.487  c0-12.058-9.502-21.938-21.411-22.548c-0.851-2.74-2.298-5.717-4.743-8.36c-2.771-2.994-7.882-6.595-16.499-6.748  c-3.93-0.062-7.761,0.946-11.147,2.858c-4.027-3.448-9.221-5.457-14.679-5.457c-5.962,0-11.508,2.315-15.623,6.264  c-3.016-1.453-6.352-2.232-9.781-2.232c-10.446,0-19.259,7.132-21.824,16.783c-11.834,0.69-21.251,10.536-21.251,22.54  c0,3.905,1.028,7.719,2.92,11.072c-2.021,3.488-3.051,7.426-2.916,11.411v0.001c0.227,6.615,2.686,12.204,7.111,16.162  c2.547,2.277,5.362,3.708,7.965,4.605c0.081,11.551,8.882,21.067,20.133,22.284c0.778,2.503,2.092,5.219,4.287,7.719  c2.719,3.096,7.829,6.906,16.73,7.476c2.551,0.159,5.127-0.197,7.604-1.042c4.209,5.013,10.515,8.122,17.312,8.122  c5.604,0,10.852-2.029,14.908-5.62c2.001,0.572,4.082,0.865,6.191,0.865c10.052,0,18.59-6.604,21.507-15.699  c3.758-0.775,8.204-2.469,11.821-6.079c2.786-2.781,6.088-7.807,5.993-15.965c-0.035-3.132-0.683-6.151-1.882-8.917  C445.836,291.46,448.137,285.926,448.137,280.049z M325.412,288.957c0.046-0.003,0.178-0.019,0.386-0.02  C325.67,288.94,325.541,288.947,325.412,288.957z M428.66,286.953c-2.263,1.02-3.874,3.093-4.305,5.537  c-0.43,2.444,0.376,4.943,2.154,6.674c1.457,1.419,2.272,3.375,2.298,5.51c0.04,3.547-1.188,4.772-1.591,5.175  c-1.888,1.884-5.541,2.341-7.46,2.317c-2.035-0.032-4.032,0.751-5.461,2.16s-2.233,3.333-2.233,5.339  c0,4.179-3.399,7.579-7.578,7.579c-1.472,0-2.902-0.428-4.138-1.238c-1.696-1.112-3.772-1.489-5.751-1.046  c-1.979,0.443-3.695,1.67-4.755,3.4c-1.396,2.278-3.81,3.638-6.456,3.638c-3.342,0-6.33-2.242-7.268-5.453  c-0.719-2.464-2.648-4.39-5.114-5.104c-0.687-0.199-1.388-0.295-2.084-0.295c-1.806,0-3.578,0.652-4.967,1.879  c-0.871,0.77-2.627,2.044-4.523,1.922c-3.028-0.194-5.188-1.003-6.42-2.405c-1.783-2.03-1.629-5.198-1.627-5.229  c0.005-0.071,0.01-0.166,0.013-0.237c0.088-2.388-0.968-4.674-2.841-6.157c-1.875-1.483-4.345-1.983-6.646-1.35  c-0.687,0.189-1.363,0.285-2.012,0.285c-4.179,0-7.578-3.399-7.578-7.578c0-1.019,0.198-2.005,0.588-2.933  c1.015-2.411,0.699-5.176-0.831-7.297c-1.416-1.963-3.684-3.111-6.081-3.111c-0.059,0-8.746,0.306-8.759-7.773  c-0.004-2.677,1.705-4.616,2.481-5.327c1.553-1.421,2.437-3.429,2.437-5.533s-0.884-4.112-2.437-5.533  c-1.598-1.461-2.478-3.444-2.478-5.581c0-4.179,3.4-7.578,7.579-7.578c0.979,0,1.939,0.189,2.855,0.563  c2.542,1.035,5.445,0.6,7.572-1.135c2.126-1.735,3.135-4.493,2.63-7.19c-0.094-0.502-1.361-8.534,7.438-8.982  c2.21-0.113,4.313,0.973,5.762,2.67c1.696,1.987,4.304,2.947,6.882,2.538c2.579-0.41,4.759-2.132,5.755-4.546  c1.177-2.851,3.927-4.693,7.006-4.693c2.909,0,5.597,1.711,6.847,4.36c1.123,2.379,3.41,3.996,6.027,4.261  c2.616,0.262,5.183-0.861,6.759-2.967c1.438-1.921,3.604-3.058,5.814-3.058c0.038,0,0.076,0,0.113,0.001  c4.002,0.07,5.304,1.456,5.73,1.911c1.742,1.855,1.995,5.086,1.947,6.15c-0.151,2.524,0.98,4.956,3.009,6.465  s4.681,1.896,7.057,1.026c0.858-0.314,1.732-0.474,2.597-0.474c4.179,0,7.579,3.399,7.579,7.578c0,2.111-0.859,3.67-1.58,4.606  c-1.581,2.052-1.991,4.775-1.084,7.202c0.906,2.427,3.001,4.214,5.54,4.727c3.513,0.709,6.063,3.833,6.063,7.426  C433.137,283.017,431.38,285.727,428.66,286.953z"/>
<path d="M229.424,281.416c0-14.061-11.439-25.5-25.501-25.5c-14.061,0-25.5,11.439-25.5,25.5s11.439,25.5,25.5,25.5  C217.984,306.916,229.424,295.477,229.424,281.416z M193.423,281.416c0-5.79,4.71-10.5,10.5-10.5s10.501,4.71,10.501,10.5  s-4.711,10.5-10.501,10.5S193.423,287.206,193.423,281.416z"/>
<path d="M378.148,255.916c-14.061,0-25.5,11.439-25.5,25.5c0,14.061,11.439,25.5,25.5,25.5s25.5-11.439,25.5-25.5  S392.209,255.916,378.148,255.916z M378.148,291.916c-5.79,0-10.5-4.71-10.5-10.5s4.71-10.5,10.5-10.5s10.5,4.71,10.5,10.5  S383.938,291.916,378.148,291.916z"/>
<path d="M268.469,322.066c-3.953,8.534-6.609,18.942-6.609,25.9c0,15.271,12.424,27.694,27.694,27.694s27.694-12.423,27.694-27.694  c0-6.958-2.656-17.367-6.609-25.9c-7.172-15.481-15.425-18.731-21.085-18.731S275.641,306.585,268.469,322.066z M289.525,318.334  c0.641,0.093,4.042,2.289,7.804,10.698c3.229,7.22,4.919,14.991,4.919,18.935c0,7-5.694,12.694-12.694,12.694  s-12.694-5.694-12.694-12.694C276.859,337.347,285.423,318.939,289.525,318.334z"/>
<path d="M498.226,291.51c2.448-10.443,8.29-39.13,8.193-74.744c-0.159-58.885-16.841-108.324-48.241-142.972  c-2.782-3.07-7.526-3.301-10.594-0.521c-3.069,2.782-3.303,7.525-0.521,10.594c36.383,40.146,44.202,94.242,44.355,132.553  c0.111,27.744-3.665,51.49-6.28,64.563c-2.546-1.463-4.902-2.552-6.86-3.342c-0.988-12.307-4.768-44.571-18.603-79.806  c-23.164-58.996-63.648-97.563-117.076-111.531c-12.776-3.34-26.373-0.896-37.299,6.704c-3.426,2.383-7.066,4.896-10.288,7.114  c-3.314,2.28-7.595,2.28-10.907,0c-3.188-2.195-6.789-4.68-10.185-7.042c-10.987-7.64-24.581-10.122-37.294-6.808  c-53.472,13.928-94.002,52.422-117.209,111.322c-13.798,35.021-17.623,67.105-18.637,79.517c-2.4,0.874-4.741,1.921-6.996,3.131  c-2.593-12.917-6.377-36.622-6.221-64.377c0.214-38.06,8.105-91.854,44.486-131.999c56.011-61.805,120.896-52.964,146.194-46.295  c7.399,1.952,15.226,1.953,22.629,0c20.753-5.471,74.529-13.807,125.599,26.876c3.24,2.582,7.957,2.047,10.539-1.193  c2.581-3.24,2.047-7.958-1.193-10.54C379.434,7.798,319.988,17.017,297.049,23.067c-4.9,1.292-10.082,1.292-14.98,0  c-12.331-3.251-37.442-7.952-67.064-2.895c-35.696,6.093-67.346,24.133-94.069,53.621c-17.808,19.651-30.891,44.004-38.931,72.078  c-4.173,2.008-8.451,4.851-12.741,8.482c-4.513,3.82-10.595,5.208-16.277,3.712c-15.142-3.987-27.216-2.899-35.887,3.231  c-7.9,5.587-12.434,14.807-13.473,27.403c-0.818,9.909,2.426,19.635,8.718,27.14c-5.048,3.646-8.585,7.987-10.558,12.998  c-3.21,8.153-2.036,17.743,3.395,27.732c2.843,5.231,7.085,9.626,12.173,12.747C6.362,284.968,0,304.017,0,324.42  c0,52.761,42.924,95.685,95.685,95.685c14.985,0,29.799-3.537,43.089-10.241c8.036,7.405,16.716,14.069,25.776,19.808l0.002-0.004  c3.298,4.048,6.677,7.911,10.133,11.59c-10.079,6.283-21.586,9.574-33.704,9.574c-17.779,0-34.3-7.118-46.519-20.044  c-2.847-3.01-7.594-3.142-10.603-0.298c-3.01,2.846-3.144,7.592-0.298,10.603c15.081,15.953,35.473,24.739,57.419,24.739  c15.926,0,31.54-4.871,44.612-13.807c30.269,27.615,65.686,42.034,103.962,42.034c47.491,0,90.563-22.189,124.881-64.241  c20.771-12.833,38.211-29.56,51.902-49.783C492.123,376.3,512,354.059,512,327.255C512,314.045,507.02,301.262,498.226,291.51z   M93.715,298.407c0.036-0.031,0.077-0.055,0.113-0.086c2.569-2.235,5.44-4.103,8.491-5.58c5.497,25.432,13.424,49.848,23.36,72.268  c-2.203,0.389-4.447,0.585-6.716,0.585c-21.14,0-38.339-17.199-38.339-38.339C80.623,316.2,85.395,305.695,93.715,298.407z   M76.983,167.334c-0.384,2.073-0.749,4.158-1.083,6.264c-0.85-0.324-5.506-1.615-7.328-1.838  C71.547,170.709,74.38,169.221,76.983,167.334z M18.575,189.934c0.657-7.969,3.074-13.483,7.185-16.39  c4.878-3.45,12.754-3.777,23.406-0.972c2.034,0.536,4.096,0.863,6.158,1.002c-6.798,3.006-13.111,10.125-18.014,24.616  c-2.436,7.2-10.566,10.468-10.941,10.6C20.936,204.061,17.987,197.065,18.575,189.934z M15.743,234.333  c2.32-5.894,10.257-9.623,16.506-11.713c9.361-3.131,16.63-10.67,19.444-20.168c5.557-18.758,14.19-16.256,17.442-15.315  c1.688,0.489,3.281,1.228,4.76,2.175c-3.069,16.827-1.244,37.265-1.035,42.185c-17.86,4.346-33.547,13.556-45.748,26.078  c-3.766-1.752-6.791-4.56-8.752-8.169C15.068,243.354,14.188,238.282,15.743,234.333z M95.685,405.105  C51.195,405.105,15,368.91,15,324.42c0-36.627,24.302-68.073,58.851-77.69c1.8,20.552,5.03,36.234,6.729,43.512  c-9.547,9.903-14.957,23.142-14.957,37.013c0,27.42,20.8,50.064,47.449,53.006c4.367,6.388,9.227,12.506,14.486,18.293  C117.546,402.853,106.671,405.105,95.685,405.105z M406.093,416.219c-15.274,19.67-32.433,34.985-50.998,45.521  c-20.251,11.491-42.302,17.318-65.541,17.318c-23.16,0-45.142-5.787-65.335-17.201c-18.518-10.467-35.641-25.688-50.893-45.239  c-27.101-34.737-47.618-82.297-57.772-133.917c-0.025-0.128-0.062-0.249-0.094-0.374c0.299-5.365,2.811-41.106,18.07-79.633  c9.559-24.133,22.187-44.627,37.532-60.914c18.998-20.163,42.329-33.955,69.345-40.992c8.47-2.207,17.564-0.527,24.948,4.607  c3.415,2.375,7.037,4.875,10.245,7.083c8.35,5.745,19.567,5.745,27.915,0c3.241-2.231,6.903-4.759,10.349-7.156  c7.323-5.093,16.416-6.735,24.94-4.505c26.99,7.056,50.296,20.876,69.271,41.077c15.329,16.318,27.938,36.85,37.48,61.026  c15.13,38.335,17.694,73.912,18.019,79.651C453.477,334.027,433.082,381.462,406.093,416.219z M458.661,365.594  c-1.791,0-3.566-0.128-5.319-0.37c9.893-22.283,17.798-46.539,23.303-71.806c2.506,1.348,5.381,3.231,8.158,5.807  c0.029,0.027,0.061,0.048,0.09,0.074C492.7,306.626,497,316.547,497,327.255C497,348.395,479.801,365.594,458.661,365.594z"/>
<g>
</g>
<g>
</g>
<g>
</g>
<g>
</g>
<g>
</g>
<g>
</g>
<g>
</g>
<g>
</g>
<g>
</g>
<g>
</g>
<g>
</g>
<g>
</g>
<g>
</g>
<g>
</g>
<g>
</g>
</svg>
