<?xml version="1.0" encoding="iso-8859-1"?>
<!-- Generator: Adobe Illustrator 19.0.0, SVG Export Plug-In . SVG Version: 6.00 Build 0)  -->
<svg xmlns="http://www.w3.org/2000/svg" xmlns:xlink="http://www.w3.org/1999/xlink" version="1.1" id="Capa_1" x="0px" y="0px" viewBox="0 0 511.999 511.999" style="enable-background:new 0 0 511.999 511.999;" xml:space="preserve">
<path style="fill:#B9D8F4;" d="M274.98,504.5h-37.96c-29.566,0-53.756-24.19-53.756-53.756v-76.701  c0-29.566,24.19-53.756,53.756-53.756h37.96c29.566,0,53.756,24.19,53.756,53.756v76.701C328.737,480.31,304.547,504.5,274.98,504.5  z"/>
<path style="fill:#96C8EF;" d="M223.95,450.744v-76.701c0-29.109,23.452-52.99,52.393-53.722c-0.454-0.011-0.906-0.035-1.363-0.035  h-37.96c-29.566,0-53.756,24.19-53.756,53.756v76.701c0,29.566,24.19,53.756,53.756,53.756h37.96c0.457,0,0.909-0.023,1.363-0.035  C247.402,503.733,223.95,479.852,223.95,450.744z"/>
<path style="fill:#D1E7F8;" d="M364.279,354.875c-2.228-4.444-2.429-9.619-0.818-14.321c3.972-11.594,6.122-24.033,6.103-36.978  c-0.09-62.1-50.73-113.389-113.565-113.389s-113.474,51.288-113.564,113.389c-0.019,12.945,2.131,25.384,6.103,36.978  c1.611,4.703,1.41,9.878-0.818,14.321c-3.379,6.739-5.285,14.343-5.285,22.396c0,43.58,35.531,49.344,50.531,49.774  c4.003,0.115,7.517,2.697,8.876,6.464l1.545,4.283c1.879,5.209,6.821,8.68,12.358,8.68h80.508c5.537,0,10.48-3.472,12.358-8.68  l1.544-4.283c1.359-3.767,4.873-6.349,8.876-6.464c15.001-0.43,50.531-6.194,50.531-49.774  C369.564,369.218,367.658,361.614,364.279,354.875z"/>
<path style="fill:#B9D8F4;" d="M206.11,355.428c-39.189-66.756-19.091-121.526,4.918-155.915  c-40.227,17.485-68.526,57.634-68.594,104.062c-0.019,12.945,2.131,25.384,6.103,36.977c1.636,4.776,1.297,10.044-0.941,14.57  c-3.302,6.677-5.162,14.194-5.162,22.148c0,43.477,35.364,49.317,50.425,49.771c4.041,0.122,7.611,2.664,8.982,6.467l1.544,4.282  c1.879,5.209,6.821,8.681,12.358,8.681h32.504c0-1.987,0.001-3.875,0.003-5.626c0.006-6.787-3.656-13.076-9.608-16.337  c-29.309-16.055-30.55-46.185-29.949-58.626C208.872,362.219,207.968,358.592,206.11,355.428z"/>
<path style="fill:#57565C;" d="M272.534,407.02c0,9.131-7.402,11.023-16.534,11.023c-9.131,0-16.534-1.891-16.534-11.023  c0-9.131,7.403-30.863,16.534-30.863C265.131,376.155,272.534,397.887,272.534,407.02z"/>
<path style="fill:#3E3D42;" d="M256,407.019c0-6.119,3.326-17.888,8.267-24.992c-2.432-3.498-5.254-5.871-8.267-5.871  c-9.131,0-16.534,21.732-16.534,30.863c0,9.132,7.402,11.023,16.534,11.023c3.015,0,5.833-0.215,8.267-0.82  C259.33,415.995,256,413.136,256,407.019z"/>
<g>
	<path style="fill:#57565C;" d="M207.496,385.836c-13.905,4.924-29.169-2.357-34.092-16.262   c-4.923-13.905,2.357-29.169,16.262-34.092c13.905-4.924,41.335-1.951,46.258,11.954   C240.848,361.341,221.401,380.912,207.496,385.836z"/>
	<path style="fill:#57565C;" d="M304.507,385.836c13.905,4.924,29.169-2.357,34.092-16.262c4.923-13.905-2.357-29.169-16.262-34.092   c-13.905-4.924-41.335-1.951-46.258,11.954C271.154,361.341,290.601,380.912,304.507,385.836z"/>
</g>
<g>
	<path style="fill:#3E3D42;" d="M196.884,373.694c-4.924-13.905,2.357-29.169,16.262-34.092c3.501-1.24,7.86-1.977,12.5-2.167   c-10.636-4.992-26.47-5.321-35.98-1.953c-13.905,4.924-21.186,20.187-16.262,34.092c4.77,13.47,19.242,20.724,32.783,16.689   C202.041,383.204,198.733,378.917,196.884,373.694z"/>
	<path style="fill:#3E3D42;" d="M299.557,351.556c3.112-8.79,15.218-13.207,27.215-14.026c-1.391-0.801-2.869-1.494-4.437-2.049   c-13.905-4.924-41.335-1.95-46.258,11.955c-4.924,13.905,14.523,33.476,28.428,38.4c5.422,1.92,11.048,1.977,16.189,0.516   C308.266,378.647,295.456,363.14,299.557,351.556z"/>
</g>
<path style="fill:#CC7400;" d="M288.473,413.474c-11.307-8.181-24.263-7.782-32.474,2.329c-8.211-10.112-21.167-10.51-32.474-2.329  c-15.712,11.368-19.025,22.656-39.868,31.259c-4.667,1.926-4.639,8.558,0.042,10.451c13.492,5.455,35.937,11.257,58.18,2.44  c5.282-2.094,10.402-6.454,14.12-11.71c3.718,5.257,8.837,9.616,14.12,11.71c22.243,8.817,44.688,3.015,58.18-2.44  c4.68-1.892,4.708-8.525,0.042-10.451C307.499,436.13,304.186,424.842,288.473,413.474z"/>
<g>
	<path style="fill:#AA6100;" d="M223.526,413.471c-15.712,11.368-19.025,22.656-39.868,31.259   c-4.667,1.926-4.639,8.558,0.042,10.451c5.634,2.278,12.831,4.612,20.92,5.921c7.4-3.641,15.513-10.146,21.027-21.771   c12.646-26.666,22.606-29.701,22.606-29.701C240.764,406.126,231.713,407.548,223.526,413.471z"/>
	<path style="fill:#AA6100;" d="M270.12,457.623c18.973,7.52,38.087,4.404,51.672-0.059c-22.863-1.904-41.272-13.123-51.445-20.832   c-4.382-3.321-10.723-1.421-12.501,3.782l-1.845,5.399C259.718,451.169,264.837,455.529,270.12,457.623z"/>
</g>
<path style="fill:#FFE477;" d="M265.019,486.287c0,4.981-4.038,9.019-9.019,9.019c-4.981,0-9.019-4.038-9.019-9.019  c0-4.981,4.038-20.554,9.019-20.554C260.981,465.733,265.019,481.306,265.019,486.287z"/>
<path style="fill:#00DDC2;" d="M262.328,265.954c17.478-42.196-30.135-42.196-12.656,0c-17.478-42.196-51.145-8.529-8.949,8.949  c-42.196-17.478-42.196,30.135,0,12.656c-42.196,17.478-8.529,51.145,8.949,8.949c-17.478,42.196,30.135,42.196,12.656,0  c17.478,42.196,51.145,8.529,8.949-8.949c42.196,17.478,42.196-30.135,0-12.656C313.474,257.426,279.806,223.759,262.328,265.954z"/>
<circle style="fill:#FFE477;" cx="256.002" cy="281.233" r="16.254"/>
<g>
	<path style="fill:#FF3F62;" d="M175.429,303.124c4.849-2.317,22.571-5.956,24.888-1.107s-11.648,16.35-16.498,18.667   c-4.849,2.317-10.658,0.264-12.975-4.585C168.527,311.25,170.58,305.441,175.429,303.124z"/>
	<path style="fill:#FF3F62;" d="M336.57,303.124c-4.849-2.317-22.571-5.956-24.888-1.107c-2.317,4.849,11.648,16.35,16.497,18.667   c4.849,2.317,10.658,0.264,12.975-4.585C343.472,311.25,341.419,305.441,336.57,303.124z"/>
</g>
<path style="fill:#FFB655;" d="M319.486,53.898C303.949,3.473,256,7.576,256,7.576s-47.95-4.104-63.485,46.321  s-31.706,162.81-31.706,162.81h190.382C351.191,216.708,335.021,104.324,319.486,53.898z"/>
<path style="fill:#FFA733;" d="M287.091,14.059C271.095,6.286,256,7.576,256,7.576s-47.95-4.104-63.486,46.321  s-31.705,162.81-31.705,162.81h62.183c0,0,16.17-112.385,31.705-162.81C261.516,31.766,274.579,20.14,287.091,14.059z"/>
<path style="fill:#FFC477;" d="M467.74,166.51H44.26c-14.454,0-25.676,12.801-23.565,27.099  c4.581,31.029,19.082,53.392,32.024,67.758c11.443,12.702,27.793,19.866,44.89,19.866H414.39c17.096,0,33.446-7.165,44.889-19.866  c12.942-14.365,27.443-36.728,32.024-67.758C493.415,179.31,482.193,166.51,467.74,166.51z"/>
<path style="fill:#FFB655;" d="M135.775,166.51H44.26c-14.454,0-25.676,12.801-23.565,27.099  c4.581,31.029,19.082,53.392,32.024,67.758c11.443,12.702,27.793,19.866,44.889,19.866h133.765  C129.454,281.233,135.775,166.51,135.775,166.51z"/>
<path style="fill:#FF3F62;" d="M467.74,166.51H44.26c-14.454,0-25.676,12.8-23.565,27.099c2.617,17.725,8.475,32.61,15.426,44.803  h439.755c6.951-12.194,12.809-27.079,15.426-44.803C493.415,179.31,482.193,166.51,467.74,166.51z"/>
<path style="fill:#FF0C38;" d="M135.758,166.51H44.26c-14.454,0-25.676,12.8-23.565,27.099c2.617,17.725,8.475,32.61,15.426,44.803  h116.353C134.652,207.559,135.597,170.531,135.758,166.51z"/>
<path style="fill:#FF9478;" d="M467.74,166.51H44.26c-14.454,0-25.676,12.8-23.565,27.099c0.192,1.299,0.426,2.56,0.651,3.829  l18.104,13.529c4.55,3.4,10.795,3.4,15.344,0l19.464-14.546c4.55-3.4,10.795-3.4,15.344,0l19.465,14.546  c4.55,3.4,10.795,3.4,15.344,0l19.466-14.547c4.55-3.4,10.794-3.4,15.344,0l19.466,14.547c4.55,3.4,10.795,3.4,15.345-0.001  l19.46-14.545c4.55-3.401,10.795-3.401,15.345,0l19.464,14.546c4.55,3.4,10.795,3.4,15.345,0l19.465-14.547  c4.55-3.4,10.794-3.4,15.344,0l19.47,14.548c4.549,3.4,10.794,3.4,15.343,0l19.471-14.549c4.549-3.399,10.794-3.399,15.343,0  l19.471,14.549c4.549,3.399,10.793,3.399,15.343,0l19.473-14.55c4.549-3.399,10.793-3.399,15.342-0.001l19.478,14.552  c4.549,3.399,10.792,3.399,15.341,0l18.116-13.535c0.226-1.268,0.459-2.528,0.651-3.827  C493.415,179.31,482.193,166.51,467.74,166.51z"/>
<path style="fill:#FF7956;" d="M44.26,166.511c-14.454,0-25.676,12.8-23.565,27.099c0.192,1.299,0.426,2.56,0.651,3.829  l18.104,13.529c4.55,3.4,10.795,3.4,15.344,0l19.464-14.546c4.55-3.4,10.795-3.4,15.344,0l19.465,14.546  c4.55,3.4,10.795,3.4,15.344,0l14.232-10.636c-3.689-18.994-2.873-33.822-2.873-33.822H44.26V166.511z"/>
<path style="fill:#91DC5A;" d="M192.515,53.899c-2.103,6.827-4.218,14.797-6.303,23.463h139.577  c-2.085-8.666-4.2-16.636-6.303-23.463c-1.877-6.093-4.231-11.382-6.912-15.986H199.427  C196.745,42.516,194.392,47.806,192.515,53.899z"/>
<path style="fill:#6DC82A;" d="M254.697,53.898c1.877-6.092,4.229-11.383,6.909-15.986h-62.18  c-2.682,4.604-5.035,9.893-6.912,15.986c-2.104,6.827-4.218,14.797-6.303,23.463h62.182  C250.479,68.696,252.594,60.726,254.697,53.898z"/>
<path style="fill:#FFE477;" d="M172.784,143.186h166.43c-2.328-12.97-4.885-26.472-7.57-39.449H180.356  C177.67,116.715,175.112,130.217,172.784,143.186z"/>
<path style="fill:#FFD422;" d="M172.784,143.186h62.182c2.328-12.969,4.885-26.472,7.57-39.449h-62.182  C177.67,116.715,175.112,130.217,172.784,143.186z"/>
<g>
	<circle style="fill:#00DDC2;" cx="116.881" cy="190.012" r="7.5"/>
	<circle style="fill:#00DDC2;" cx="186.852" cy="190.012" r="7.5"/>
	<circle style="fill:#00DDC2;" cx="255.822" cy="190.012" r="7.5"/>
	<circle style="fill:#00DDC2;" cx="325.783" cy="190.012" r="7.5"/>
	<circle style="fill:#00DDC2;" cx="395.753" cy="190.012" r="7.5"/>
	<circle style="fill:#00DDC2;" cx="464.724" cy="190.012" r="7.5"/>
	<circle style="fill:#00DDC2;" cx="46.913" cy="190.012" r="7.5"/>
</g>
<path d="M491.489,169.887c-5.966-6.913-14.623-10.877-23.749-10.877H349.602c-6.01-35.103-14.55-80.056-22.948-107.32  c-8.919-28.945-27.806-41.467-42.08-46.875C270.925-0.357,258.892-0.092,256,0.061c-2.889-0.152-14.924-0.418-28.574,4.753  c-14.274,5.407-33.161,17.929-42.079,46.875c-8.402,27.272-16.946,72.254-22.949,107.32H44.26c-9.126,0-17.783,3.964-23.75,10.876  c-5.915,6.853-8.552,15.898-7.234,24.818c4.975,33.693,21.165,57.578,33.871,71.682c12.794,14.202,31.187,22.347,50.462,22.347  h38.266c-0.613,4.913-0.934,9.876-0.941,14.83c-0.02,13.494,2.17,26.757,6.508,39.42c0.993,2.899,0.837,6.008-0.428,8.529  c-4.035,8.047-6.081,16.713-6.081,25.757c0,26.845,12.547,40.577,23.074,47.37c5.783,3.732,11.991,6.069,17.753,7.538v9.299  c-1.965,2.329-3.101,5.318-3.09,8.517c0.013,3.47,1.371,6.683,3.67,9.068c4.074,29.854,29.722,52.937,60.676,52.937h37.96  c30.953,0,56.602-23.083,60.676-52.937c2.299-2.385,3.657-5.598,3.67-9.068c0.012-3.199-1.125-6.188-3.09-8.517v-9.299  c5.762-1.469,11.97-3.806,17.754-7.538c10.525-6.793,23.073-20.525,23.073-47.37c0-9.044-2.046-17.71-6.081-25.758  c-1.265-2.521-1.42-5.63-0.428-8.528c3.098-9.039,5.114-18.461,5.994-28.004c0.38-4.125-2.655-7.776-6.78-8.157  c-4.129-0.38-7.776,2.655-8.157,6.78c-0.771,8.357-2.535,16.607-5.246,24.52c-2.29,6.684-1.85,14.015,1.209,20.114  c2.979,5.941,4.489,12.345,4.489,19.034c0,35.706-27.095,41.814-43.246,42.277c-3.415,0.098-6.605,1.188-9.274,3.03  c-0.503-0.514-10.179-10.482-16.673-15.18c-4.377-3.167-8.941-5.257-13.474-6.337c-2.119-11.984-9.614-32.405-23.396-32.405  c-13.783,0-21.278,20.421-23.396,32.405c-4.533,1.08-9.096,3.17-13.473,6.337c-6.495,4.699-16.171,14.666-16.674,15.181  c-2.669-1.842-5.859-2.932-9.273-3.03c-16.151-0.463-43.246-6.571-43.246-42.277c0-6.688,1.51-13.092,4.489-19.033  c3.058-6.099,3.499-13.43,1.209-20.114c-3.799-11.088-5.716-22.708-5.699-34.537c0.007-4.968,0.371-9.945,1.072-14.852h263.382  c19.275,0,37.668-8.145,50.462-22.347c12.706-14.104,28.896-37.989,33.872-71.682C500.041,185.785,497.404,176.739,491.489,169.887z   M274.98,497h-37.96c-20.019,0-37.103-12.786-43.53-30.618c14.623,3.956,32.834,5.476,51.154-1.787  c3.946-1.564,7.854-4.119,11.356-7.362c3.501,3.243,7.41,5.798,11.356,7.362c9.272,3.676,18.517,5.103,27.282,5.102  c8.555,0,16.649-1.362,23.871-3.316C312.085,484.214,295,497,274.98,497z M256,383.838c2.672,1.833,6.682,10.261,8.31,17.524  c-2.935,0.885-5.731,2.267-8.309,4.147c-2.579-1.88-5.375-3.262-8.31-4.147C249.317,394.1,253.328,385.671,256,383.838z   M214.737,431.467c3.986-4.106,7.751-7.984,13.186-11.917c3.171-2.294,14.147-9.004,22.255,0.98  c1.424,1.754,3.563,2.772,5.822,2.772c2.259,0,4.398-1.019,5.822-2.772c8.108-9.984,19.083-3.275,22.255-0.981  c5.435,3.932,9.199,7.811,13.186,11.917c6.101,6.287,12.392,12.764,23.974,18.31v0.06c-13.056,4.596-30.881,7.74-48.353,0.813  c-3.782-1.499-7.805-4.889-10.761-9.068c-1.405-1.988-3.688-3.169-6.123-3.169c-2.434,0-4.717,1.182-6.123,3.169  c-2.957,4.18-6.979,7.571-10.76,9.069c-17.472,6.926-35.296,3.782-48.353-0.814v-0.06  C202.344,444.231,208.635,437.754,214.737,431.467z M471.407,230.912H40.592c-2.335-4.46-4.514-9.307-6.425-14.531  c0,0,12.746,8.351,25.118,0.594l19.464-14.546c1.874-1.401,4.491-1.401,6.365,0l19.465,14.546c7.161,5.351,17.163,5.351,24.323,0  l19.465-14.547c1.875-1.4,4.493-1.4,6.365,0l19.467,14.547c7.161,5.352,17.164,5.351,24.324-0.001l19.461-14.544  c1.875-1.4,4.491-1.4,6.365,0l19.464,14.545c7.16,5.352,17.162,5.353,24.323,0.001l19.467-14.547c1.873-1.4,4.491-1.399,6.364,0  l19.47,14.549c7.16,5.35,17.161,5.35,24.321,0l19.472-14.549c1.873-1.401,4.491-1.399,6.364,0l19.471,14.549  c7.157,5.35,17.16,5.351,24.321,0.001l19.473-14.55c1.873-1.4,4.491-1.4,6.364-0.001l19.479,14.553  c3.58,2.674,7.871,3.881,12.159,4.011c7.357,0.223,12.969-4.616,12.969-4.616C475.924,221.601,473.743,226.45,471.407,230.912z   M192.149,84.862h127.702c0.855,3.698,1.702,7.5,2.54,11.375H189.609C190.447,92.362,191.294,88.56,192.149,84.862z M297.387,30.413  h-63.439c-4.142,0-7.5,3.358-7.5,7.5s3.358,7.5,7.5,7.5h74.133c1.597,3.217,3.027,6.766,4.237,10.694  c1.287,4.177,2.579,8.804,3.867,13.755h-120.37c1.288-4.952,2.493-9.606,3.867-13.755C218.914-1.935,280.384,9.03,297.387,30.413z   M179.069,150.686h127.49c4.143,0,7.5-3.358,7.5-7.5s-3.357-7.5-7.5-7.5H181.773c1.493-8.095,3.072-16.334,4.708-24.45H325.52  c3.253,16.139,6.277,32.769,8.863,47.772H177.618C178.088,156.284,178.571,153.509,179.069,150.686z M31.865,179.687  c3.348-3.393,7.632-5.678,12.395-5.678h298.956c0.015,0,0.029,0.002,0.043,0.002c0.008,0,0.016-0.002,0.023-0.002h124.456  c4.762,0,9.255,2.091,12.395,5.678c5.901,6.742,3.674,13.291,3.638,13.526l-15.724,11.748c-1.875,1.399-4.491,1.4-6.364,0  l-19.479-14.553c-7.16-5.349-17.16-5.347-24.32,0.001l-19.472,14.55c-1.876,1.399-4.493,1.398-6.365,0l-19.471-14.549  c-7.16-5.35-17.163-5.35-24.321,0l-19.472,14.549c-1.874,1.4-4.492,1.398-6.364,0l-19.47-14.549  c-7.162-5.351-17.164-5.349-24.322,0.001l-19.466,14.547c-1.875,1.4-4.491,1.4-6.365,0l-19.464-14.545  c-7.161-5.352-17.164-5.352-24.324,0.001l-19.461,14.544c-1.874,1.401-4.492,1.401-6.365,0l-19.467-14.547  c-7.161-5.351-17.163-5.351-24.323,0l-19.465,14.547c-1.875,1.4-4.492,1.4-6.365,0l-19.465-14.546  c-7.161-5.353-17.164-5.352-24.324,0l-19.464,14.546c-1.875,1.4-4.492,1.4-6.365,0l-15.714-11.743  C28.191,192.981,26.564,185.059,31.865,179.687z M414.389,273.732H97.61c-15.033,0-29.363-6.337-39.317-17.387  c-2.689-2.985-5.553-6.467-8.416-10.434h412.247c-2.864,3.967-5.727,7.449-8.416,10.434  C443.754,267.395,429.422,273.732,414.389,273.732z"/>
<path d="M204.992,378.766c-2.078,0.736-4.234,1.109-6.411,1.109c-0.056,0-0.112,0-0.169,0c-4.12,0-7.443,3.327-7.499,7.453  c-0.103,7.559,7.597,7.548,7.669,7.548c3.887,0,7.728-0.662,11.417-1.969c8.355-2.958,17.764-9.904,24.554-18.126  c8.58-10.389,11.577-20.988,8.44-29.847c-3.137-8.858-12.137-15.21-25.342-17.885c-10.45-2.116-22.133-1.594-30.49,1.364  c-8.614,3.05-15.524,9.272-19.458,17.519c-3.934,8.248-4.421,17.533-1.371,26.146c1.382,3.905,5.669,5.948,9.573,4.566  c3.905-1.383,5.949-5.669,4.566-9.573c-1.713-4.836-1.439-10.051,0.77-14.682s6.089-8.125,10.926-9.837  c11.68-4.135,33.774-0.832,36.685,7.388C231.765,358.159,216.672,374.63,204.992,378.766z"/>
<path d="M294.349,327.047c-13.205,2.675-22.205,9.027-25.342,17.885c-3.137,8.858-0.139,19.458,8.44,29.847  c6.79,8.222,16.198,15.167,24.555,18.126c3.734,1.323,7.595,1.98,11.443,1.98c5.026,0,10.031-1.123,14.703-3.351  c8.247-3.934,14.469-10.844,17.52-19.458c6.295-17.781-3.049-37.369-20.83-43.665C316.484,325.452,304.799,324.931,294.349,327.047z   M331.529,367.07c-1.712,4.837-5.206,8.717-9.837,10.926c-4.63,2.208-9.846,2.482-14.682,0.77c-0.001,0-0.001,0-0.001,0  c-5.761-2.04-12.992-7.48-17.995-13.538c-4.869-5.897-7.117-11.755-5.865-15.29c1.251-3.533,6.684-6.672,14.18-8.19  c3.25-0.659,6.74-0.981,10.121-0.981c4.629,0,9.055,0.605,12.384,1.784C329.817,346.086,335.064,357.085,331.529,367.07z"/>
<g>
</g>
<g>
</g>
<g>
</g>
<g>
</g>
<g>
</g>
<g>
</g>
<g>
</g>
<g>
</g>
<g>
</g>
<g>
</g>
<g>
</g>
<g>
</g>
<g>
</g>
<g>
</g>
<g>
</g>
</svg>
