<?xml version="1.0" encoding="iso-8859-1"?>
<!-- Generator: Adobe Illustrator 19.0.0, SVG Export Plug-In . SVG Version: 6.00 Build 0)  -->
<svg xmlns="http://www.w3.org/2000/svg" xmlns:xlink="http://www.w3.org/1999/xlink" version="1.1" id="Capa_1" x="0px" y="0px" viewBox="0 0 512 512" style="enable-background:new 0 0 512 512;" xml:space="preserve">
<path style="fill:#5EAC24;" d="M345.67,405.038c-67.778-7.054-119.571-43.064-115.683-80.43  c3.888-37.367,61.987-61.94,129.765-54.886s148.008,51.123,144.644,83.444C501.032,385.488,413.448,412.092,345.67,405.038z"/>
<path style="fill:#4E901E;" d="M359.752,269.724c-67.778-7.054-125.876,17.519-129.765,54.886L305,310.786  c41.495-7.646,84.305-3.426,123.508,12.177l75.888,30.203C507.759,320.846,427.53,276.777,359.752,269.724z"/>
<path style="fill:#6DC82A;" d="M373.463,332.441c-56.987-37.366-119.883-42.189-140.482-10.771s8.897,87.176,65.884,124.542  s147.015,53.913,164.832,26.738C481.516,445.775,430.45,369.807,373.463,332.441z"/>
<path style="fill:#5EAC24;" d="M298.865,446.211c-56.987-37.366-86.483-93.125-65.884-124.542l53.212,68.196  c22.874,29.315,54.695,50.36,90.625,59.934l86.88,23.149C445.879,500.124,355.851,483.577,298.865,446.211z"/>
<path style="fill:#91DC5A;" d="M166.32,405.038c67.778-7.054,119.571-43.064,115.683-80.43s-61.987-61.94-129.765-54.886  S4.23,320.846,7.594,353.167S98.541,412.092,166.32,405.038z"/>
<path style="fill:#6DC82A;" d="M152.238,269.724c67.778-7.054,125.876,17.519,129.765,54.886l-84.263-18.462  c-39.965-8.756-81.704-4.052-118.718,13.38l-71.428,33.64C4.23,320.846,84.459,276.777,152.238,269.724z"/>
<path style="fill:#B6E892;" d="M138.526,332.441c56.987-37.366,119.883-42.189,140.482-10.771  c20.599,31.417-8.897,87.176-65.884,124.542S66.109,500.125,48.292,472.95S81.54,369.807,138.526,332.441z"/>
<path style="fill:#91DC5A;" d="M213.125,446.211c56.987-37.366,86.483-93.125,65.884-124.542l-37.848,52.457  c-28.097,38.943-68.932,66.831-115.429,78.833l-77.44,19.99C66.111,500.124,156.138,483.577,213.125,446.211z"/>
<path style="fill:#C70024;" d="M438.022,127.523c0,0,10.309-85.045-72.413-70.024c-7.671,1.393-15.468-1.441-20.64-7.275  c-17.794-20.068-63.344-55.708-112.958,29.932c-2.342,0.635,109.25,82.563,109.25,82.563L438.022,127.523z"/>
<g>
	<path style="fill:#D80027;" d="M76.016,127.523c0,0-10.309-85.045,72.413-70.024c7.671,1.393,15.468-1.441,20.64-7.275   c17.794-20.068,63.344-55.708,112.958,29.932c2.342,0.635-109.25,82.563-109.25,82.563L76.016,127.523z"/>
	<path style="fill:#D80027;" d="M350.722,126.087c0,0,52.232-25.964,109.823-5.383c9.067,3.24,13.145,13.769,8.611,22.263   c-12.087,22.645-32.64,68.992-31.309,122.552c1.875,75.47-97.864,150.936-198.091,68.417   C241.617,331.235,350.722,126.087,350.722,126.087z"/>
</g>
<path style="fill:#C70024;" d="M378.89,116.763c-1.902,20.274-1.629,49.837,11.524,71.363  c21.979,35.971,48.442,139.467-46.732,180.799l0,0c-31.373,4.063-67.617-5.093-103.926-34.987  c1.861-2.698,110.967-207.848,110.967-207.848S361.598,120.686,378.89,116.763z"/>
<path style="fill:#FF0C38;" d="M161.267,126.087c0,0-52.232-25.964-109.824-5.383c-9.067,3.24-13.145,13.769-8.611,22.263  c12.087,22.645,32.64,68.992,31.309,122.552c-1.875,75.47,97.864,150.936,198.091,68.417  C270.373,331.235,161.267,126.087,161.267,126.087z"/>
<path style="fill:#D80027;" d="M133.1,116.763c1.902,20.274,1.629,49.837-11.524,71.363  c-21.979,35.971-48.442,139.467,46.732,180.799l0,0c31.373,4.063,67.617-5.093,103.926-34.987  c-1.861-2.698-110.967-207.848-110.967-207.848S150.392,120.686,133.1,116.763z"/>
<path style="fill:#FF0C38;" d="M353.515,90.254c0,0-62.286-79.063-142.28,53.897c0.611,0.451,55.325,43.972,55.325,43.972  L353.515,90.254z"/>
<path style="fill:#D80027;" d="M211.414,144.291c3.424,2.691,55.146,43.832,55.146,43.832l86.955-97.868  c0,0-2.857-3.624-8.128-8.014h-0.003C345.384,82.24,277.247,65.486,211.414,144.291z"/>
<path style="fill:#FF3F62;" d="M158.475,90.254c0,0,62.286-79.063,142.28,53.897c-0.611,0.451-55.325,43.972-55.325,43.972  L158.475,90.254z"/>
<path style="fill:#FF0C38;" d="M165.724,98.412l79.706,89.71c0,0,54.715-43.522,55.325-43.972  c-5.119-8.508-10.164-16.142-15.126-22.99C277.629,113.358,237.36,79.013,165.724,98.412z"/>
<path style="fill:#FF3F62;" d="M365.235,203.185c-15.592-27.534-8.335-70.034-8.335-70.034l-18.975-20.381L255.995,190  l-81.93-77.231l-18.975,20.381c0,0,7.257,42.5-8.335,70.034c-17.86,31.539-30.135,132.784,109.24,132.784  S383.095,234.725,365.235,203.185z"/>
<path style="fill:#FF0C38;" d="M285.699,162.001l-29.703,28l-81.93-77.231l-18.975,20.381c0,0,7.257,42.5-8.335,70.034  c-17.86,31.539-30.135,132.784,109.24,132.784c34.417,0,59.574-6.18,77.696-15.954C327.111,247.549,308.363,197.107,285.699,162.001  z"/>
<path style="fill:#FF728B;" d="M366.75,75.223c-69.238,17.583-104.817,73.757-121.668,112.9l22.185,30.138  c22.66-8.407,41.206-19.7,56.341-32.326c8.643-7.21,12.891-18.412,11.351-29.562l-2.839-20.551l13.59-0.001  c12.849-0.001,24.583-7.479,29.836-19.205c3.775-8.427,6.587-16.216,8.661-22.883C387.583,82.885,377.76,72.427,366.75,75.223z"/>
<path style="fill:#FF3F62;" d="M271.128,142.03c-11.541,15.845-20.005,32.062-26.045,46.094l22.185,30.138  c14.295-5.303,26.948-11.757,38.145-18.967C295.339,175.842,283.529,157.064,271.128,142.03z"/>
<path style="fill:#FF728B;" d="M282.027,228.194l-21.223-42.727L255.994,190l-81.93-77.231l-18.975,20.381  c0,0,7.257,42.5-8.335,70.034c-17.86,31.539-30.135,132.784,109.24,132.784c12.993,0,24.664-0.882,35.139-2.503  C294.978,281.657,282.027,228.194,282.027,228.194z"/>
<path style="fill:#FF3F62;" d="M228.429,334.466c-27.497-26.829-42.038-73.105-29.725-124.382  c6.043-25.166,5.604-49.898,2.093-72.111l-26.738-25.205l-18.976,20.382c0,0,7.257,42.5-8.335,70.034  C130.163,232.473,118.419,321.852,228.429,334.466z"/>
<path style="fill:#FFA5B5;" d="M129.569,93.731c2.074,6.667,4.886,14.456,8.661,22.883c5.253,11.726,16.988,19.204,29.836,19.205  l13.59,0.001l-2.839,20.551c-1.54,11.149,2.708,22.352,11.351,29.562c22.394,18.682,52.215,34.468,91.857,42.26  c0,0-25.14-125.072-134.999-152.971C136.017,72.427,126.195,82.884,129.569,93.731z"/>
<path d="M443.61,285.822c1.298-6.751,1.904-13.612,1.734-20.49c-1.277-51.403,18.516-96.517,30.429-118.834  c3.187-5.971,3.616-13.016,1.177-19.329c-2.441-6.317-7.5-11.249-13.881-13.528c-5.944-2.124-11.828-3.767-17.611-5.022  c-1.457-15.732-6.787-35.699-23.036-48.472c-14.119-11.098-33.685-14.471-58.153-10.028c-4.978,0.904-10.223-0.962-13.688-4.871  c-19.097-21.538-37.491-26.669-49.558-27.181c-15.135-0.638-29.936,5.333-44.019,17.768c-12.08-10.667-24.644-16.578-37.586-17.641  c-25.934-2.127-46.192,16.037-55.961,27.054c-3.465,3.908-8.708,5.776-13.688,4.871c-16.865-3.062-31.517-2.397-43.553,1.973  c-3.894,1.414-5.903,5.716-4.489,9.609c1.413,3.893,5.717,5.902,9.609,4.489c9.506-3.452,21.536-3.894,35.752-1.313  c10.099,1.834,20.672-1.874,27.592-9.678c7.911-8.921,24.073-23.66,43.51-22.056c16.558,1.359,33.054,14.008,49.097,37.606  c-3.775,2.244-7.541,4.819-11.293,7.725c-13.374-10.361-26.933-16.534-40.577-18.429c-21.436-2.977-38.407,5.124-49.492,13.217  c-5.561-2.061-11.246-3.833-17.052-5.308c-7.815-1.985-15.807,0.336-21.376,6.208c-5.597,5.902-7.5,14.05-5.089,21.797l0,0  c1.23,3.952,2.592,7.901,4.072,11.819c-12.277-2.158-26.783-3.319-42.488-1.86c1.048-7.485,3.245-15.985,7.686-23.387  c2.131-3.552,0.979-8.159-2.572-10.29c-3.553-2.131-8.158-0.979-10.29,2.572c-6.568,10.946-9.213,23.371-10.19,33.353  c-6.454,1.302-13.044,3.093-19.705,5.474c-6.381,2.28-11.44,7.211-13.881,13.528c-2.438,6.313-2.009,13.357,1.178,19.329  c11.912,22.316,31.705,67.431,30.428,118.834c-0.623,25.066,9.098,50.083,25.983,70.091l-34.379,3.578  c-4.86,0.506-8.39,4.856-7.884,9.716c0.474,4.549,2.675,8.33,9.716,7.884l41.458-4.314c-11.792,11.031-22.792,23.218-32.279,35.717  c-31.721-9.41-52.925-23.297-54.207-35.612c-1.175-11.292,13.95-27.581,39.474-42.509c3.575-2.091,4.779-6.685,2.688-10.261  c-2.091-3.576-6.686-4.777-10.261-2.688C3.688,322.239-0.952,343.515,0.134,353.944c2.58,24.796,38.661,40.039,59.975,46.928  c-2.666,4.018-5.172,8.037-7.455,12.029c-20.292,35.487-16.983,54.48-10.634,64.162c4.596,7.01,16.245,16.915,45.351,16.915  c8.422,0,18.309-0.83,29.905-2.799c34.604-5.877,71.973-20.342,99.961-38.694c31.156-20.429,55.576-47.173,67.616-73.506  l6.58,29.152c2.241,8.745,9.923,6.831,10.578,6.683c4.767-1.076,7.759-5.812,6.683-10.578l-5.918-26.219l31.892,20.911l9.948,44.076  c2.244,8.658,9.923,6.831,10.578,6.683c4.767-1.076,7.759-5.812,6.683-10.578l-5.918-26.219l59.525,39.031  c6.023,3.342,10.552,0.043,12.25-2.547c2.679-4.086,1.539-9.571-2.547-12.25l-59.525-39.031l26.405-5.026  c4.8-0.914,7.951-5.545,7.037-10.346c-0.914-4.8-5.544-7.954-10.346-7.037l-44.389,8.448l-10.49-6.879  c18.201-0.633,35.921-5.463,52.341-14.566c2.747-1.523,5.408-3.156,7.999-4.869c47.995,42.15,73.823,94.83,63.205,111.022  c-6.372,9.716-30,12.68-60.201,7.552c-32.668-5.548-67.901-19.174-94.247-36.45c-7.137-4.679-13.983-9.766-20.35-15.117  c-3.17-2.665-7.902-2.255-10.567,0.916c-2.665,3.17-2.255,7.902,0.916,10.567c6.819,5.732,14.146,11.175,21.776,16.179  c27.988,18.352,65.357,32.816,99.961,38.694c11.6,1.97,21.482,2.799,29.905,2.799c29.099,0,40.754-9.905,45.351-16.915  c6.245-9.524,9.592-28.172-9.931-62.922c-2.467-4.391-5.196-8.826-8.143-13.264c14.556-4.671,27.171-10.352,36.886-16.644  c14.175-9.181,21.938-19.371,23.074-30.287C514.546,328.09,479.206,302.243,443.61,285.822z M267.575,46.533  c10.871-9.4,21.887-13.945,32.812-13.48c7.502,0.318,22.542,3.619,38.97,22.146c6.919,7.805,17.495,11.512,27.592,9.678  c20.06-3.644,35.605-1.267,46.203,7.063c10.92,8.583,15.304,22.29,16.925,34.198c-15.758-1.684-30.339-0.698-42.664,1.321  c1.434-3.814,2.76-7.655,3.956-11.499c2.411-7.747,0.508-15.895-5.089-21.797c-5.569-5.873-13.562-8.194-21.376-6.208  c-6.217,1.579-12.294,3.508-18.23,5.76c-8.105-6.027-19.921-12.458-34.704-13.964c-10.342-1.053-20.723,0.425-31.069,4.368  C276.538,57.563,272.095,51.701,267.575,46.533z M345.71,128.32l-13.59,0.001c-2.168,0-4.23,0.938-5.654,2.573  c-1.424,1.634-2.071,3.805-1.774,5.953l2.839,20.551c1.202,8.701-2.06,17.215-8.726,22.776  c-10.874,9.072-22.996,16.877-36.097,23.299c-3.74-10.819-9.287-24.52-17.205-39.166c25.434-43.37,60.11-70.9,103.094-81.816  c3.575-0.906,5.946,1.09,6.8,1.992c0.868,0.916,2.767,3.432,1.65,7.019c-2.31,7.424-5.117,14.841-8.344,22.044  C364.683,122.521,355.658,128.319,345.71,128.32z M255.995,328.468c-28.04,0-51.345-4.238-69.264-12.597  c-14.89-6.945-26.116-16.774-33.367-29.212c-16.725-28.69-8.926-64.161-0.083-79.778c11.766-20.779,11.682-48.55,10.492-63.815  c1.418,0.152,9.277,0.255,9.277,0.255l-1.662,12.025c-1.915,13.861,3.31,27.449,13.976,36.348  c25.017,20.87,55.414,35.258,90.384,42.841c2.781,13.185,10.208,52.852,8.276,92.34C275.3,327.933,265.9,328.468,255.995,328.468z   M310.448,74.673c7.626,0.777,14.298,3.29,19.815,6.296c-15.382,7.813-29.618,18.026-42.508,30.489  c-6.666-8.731-13.402-16.377-20.195-22.927C282.1,77.911,296.498,73.254,310.448,74.673z M213.354,74.903  c21.012,2.919,42.499,18.908,63.903,47.534c-7.314,8.27-14.117,17.341-20.366,27.179c-19.711-31.03-44.931-54.435-74.289-69.12  C190.75,76.233,201.176,73.212,213.354,74.903z M138.382,84.485c2.351-2.812,6.165-2.153,6.8-1.992  c43.384,11.018,78.311,38.951,103.812,83.022c12.111,20.93,19.114,40.755,22.663,52.683c-29.53-7.406-55.282-20.167-76.684-38.022  c-6.666-5.561-9.928-14.076-8.726-22.777l2.839-20.551c0.296-2.148-0.351-4.319-1.775-5.953c-1.424-1.635-3.486-2.573-5.654-2.573  l-13.59-0.001c-9.948-0.001-18.973-5.799-22.992-14.771c-3.226-7.201-6.034-14.618-8.344-22.044l0,0  C135.615,87.916,137.572,85.453,138.382,84.485z M49.45,139.435c-1.148-2.15-1.296-4.586-0.418-6.859  c0.88-2.278,2.633-3.986,4.937-4.809c30.92-11.049,60.31-7.926,80.118-3.069c3.552,5.603,8.428,10.167,14.107,13.379  c1.242,10.461,3.591,41.005-7.966,61.413c-10.486,18.518-19.71,60.609,0.177,94.724c8.819,15.129,22.272,26.99,39.985,35.252  c17.703,8.257,39.774,12.888,65.695,13.819c-36.592,21.889-75.367,25.122-108.956,8.426c-34.045-16.923-56.344-51.487-55.486-86.007  C83.003,210.865,62.057,163.053,49.45,139.435z M209.013,439.94c-26.346,17.275-61.58,30.901-94.248,36.45  c-30.201,5.129-53.83,2.164-60.201-7.552c-5.558-8.476-1.404-26.604,11.112-48.492c12.365-21.625,31.163-44.154,52.09-62.546  c4.048,2.686,8.275,5.152,12.684,7.344c15.176,7.544,31.213,11.558,47.598,12.146l-10.43,6.839l-44.389-8.448  c-4.798-0.914-9.432,2.237-10.346,7.037c-0.914,4.8,2.237,9.432,7.037,10.346l26.405,5.026l-59.524,39.029  c-4.086,2.679-5.227,8.164-2.547,12.25c1.699,2.59,7.389,5.032,12.25,2.547l59.525-39.031l-5.918,26.219  c-1.076,4.767,1.916,9.502,6.683,10.578c0.656,0.148,8.335,1.804,10.578-6.683l9.948-44.076l31.892-20.911l-5.918,26.219  c-1.076,4.767,1.916,9.502,6.683,10.578c0.656,0.148,8.984,1.205,10.578-6.683l9.031-40.015c8.88-3.464,17.702-7.894,26.389-13.274  c6.087,3.779,12.251,7.075,18.459,9.905C265.433,390.918,241.192,418.84,209.013,439.94z M378.948,349.564  c-33.017,18.304-72.335,16.697-109.297-4.068c1.118-0.838,2.232-1.693,3.344-2.563c6.707-0.428,13.148-1.106,19.249-2.049  c0.013-0.002,0.025-0.001,0.038-0.003c35.378-5.475,61.025-19.537,76.227-41.797c2.336-3.42,1.457-8.087-1.964-10.423  c-3.421-2.336-8.088-1.458-10.423,1.964c-11.474,16.801-30.63,28.112-56.972,33.73c1.809-48.235-7.302-96.16-11.93-106.388  c14.982-7.133,28.819-15.948,41.194-26.271c10.666-8.898,15.891-22.486,13.975-36.348l-1.661-12.025c0,0,6.668-0.04,7.505-0.093  c-1.145,15.247-1.189,43.052,10.477,63.652c6.805,12.019,12.091,33.77,8.558,55.273c-0.671,4.087,2.098,7.945,6.185,8.617  c0.412,0.067,6.943,0.804,8.617-6.185c5.925-24.744-2.205-50.786-10.307-65.096c-5.326-9.405-8.333-22.022-8.939-37.501  c-0.375-9.581,0.307-18.033,0.852-22.909c6.661-3.312,12.347-8.426,16.306-14.873c19.432-4.484,48.019-7.169,78.041,3.561  c2.303,0.823,4.056,2.531,4.936,4.809c0.878,2.273,0.729,4.709-0.418,6.859c-12.607,23.619-33.553,71.43-32.191,126.27  c0.4,16.109-4.234,32.553-13.403,47.553C407.727,328.338,394.587,340.894,378.948,349.564z M496.936,352.391  c-1.273,12.232-22.834,26.282-54.21,35.611c-9.474-12.476-20.467-24.681-32.254-35.714l41.437,4.312  c5.736,0.49,9.243-3.336,9.716-7.884c0.506-4.86-3.024-9.21-7.884-9.716l-34.287-3.568c8.885-10.502,15.75-22.367,20.175-34.913  C474.638,317.093,498.395,338.373,496.936,352.391z"/>
<g>
</g>
<g>
</g>
<g>
</g>
<g>
</g>
<g>
</g>
<g>
</g>
<g>
</g>
<g>
</g>
<g>
</g>
<g>
</g>
<g>
</g>
<g>
</g>
<g>
</g>
<g>
</g>
<g>
</g>
</svg>
